<?xml version="1.0" encoding="UTF-8"?>
<svg width="640px" height="360px" viewBox="0 0 640 360" version="1.1" xmlns="http://www.w3.org/2000/svg" xmlns:xlink="http://www.w3.org/1999/xlink">
    <title>finsbury-logo-dark</title>
    <g id="finsbury-logo-dark" stroke="none" stroke-width="1" fill="none" fill-rule="evenodd">
        <rect fill="#28282D" x="0" y="0" width="640" height="360"></rect>
        <path d="M136.044922,115.3125 C136.865234,115.3125 137.626953,115.664062 138.330078,116.367188 C138.974609,117.011719 139.32373,117.705485 139.377441,118.448486 L139.384766,118.652344 L139.384766,266.660156 C139.150391,267.480469 138.652344,268.242188 137.890625,268.945312 C137.128906,269.648438 136.337891,270 135.517578,270 C134.697266,270 134.023438,269.648438 133.496094,268.945312 C133.021484,268.3125 132.760449,267.632227 132.712988,266.904492 L132.705078,266.660156 L132.705078,118.652344 C132.705078,117.832031 133.056641,117.070312 133.759766,116.367188 C134.462891,115.664062 135.224609,115.3125 136.044922,115.3125 Z M152.919922,90 C153.740234,90 154.501953,90.3515625 155.205078,91.0546875 C155.849609,91.6992188 156.19873,92.392985 156.252441,93.1359863 L156.259766,93.3398438 L156.259766,240.820312 C156.259766,241.875 155.996094,242.695312 155.46875,243.28125 C154.941406,243.867188 154.091797,244.160156 152.919922,244.160156 C152.099609,244.160156 151.337891,243.808594 150.634766,243.105469 C149.990234,242.460938 149.641113,241.767171 149.587402,241.02417 L149.580078,240.820312 L149.580078,93.3398438 C149.580078,92.5195312 149.931641,91.7578125 150.634766,91.0546875 C151.337891,90.3515625 152.099609,90 152.919922,90 Z M100.712891,135.527344 C101.533203,135.527344 102.089844,135.761719 102.382813,136.230469 C102.63916,136.640625 102.783356,137.095642 102.815399,137.59552 L102.822266,137.8125 L102.822266,241.875 C103.173828,242.460938 103.115234,242.988281 102.646484,243.457031 C102.177734,243.925781 101.533203,244.160156 100.712891,244.160156 C99.7753906,244.160156 99.1601563,243.925781 98.8671875,243.457031 C98.6108398,243.046875 98.4666443,242.591858 98.4346008,242.09198 L98.4277344,241.875 L98.4277344,137.8125 C98.4277344,136.992188 98.6621094,136.40625 99.1308594,136.054688 C99.5996094,135.703125 100.126953,135.527344 100.712891,135.527344 Z M170.322266,135.527344 C171.494141,135.527344 172.460938,135.908203 173.222656,136.669922 C173.929967,137.377232 174.308883,138.26137 174.359405,139.322335 L174.365234,139.570312 L174.365234,240.117188 C174.365234,241.289062 173.984375,242.255859 173.222656,243.017578 C172.460938,243.779297 171.494141,244.160156 170.322266,244.160156 C169.267578,244.160156 168.359375,243.779297 167.597656,243.017578 C166.890346,242.310268 166.51143,241.42613 166.460908,240.365165 L166.455078,240.117188 L166.455078,139.570312 C166.455078,138.398438 166.835938,137.431641 167.597656,136.669922 C168.359375,135.908203 169.267578,135.527344 170.322266,135.527344 Z M118.115234,115.839844 C118.935547,115.839844 119.697266,116.103516 120.400391,116.630859 C121.049429,117.117638 121.398911,117.729232 121.448837,118.465641 L121.455078,118.652344 L121.455078,221.660156 C121.220703,222.480469 120.810547,223.154297 120.224609,223.681641 C119.638672,224.208984 118.935547,224.472656 118.115234,224.472656 C117.294922,224.472656 116.621094,224.208984 116.09375,223.681641 C115.614347,223.202237 115.352854,222.601772 115.309272,221.880246 L115.302734,221.660156 L115.302734,118.652344 C115.302734,117.832031 115.566406,117.158203 116.09375,116.630859 C116.621094,116.103516 117.294922,115.839844 118.115234,115.839844 Z M187.900391,116.367188 C188.955078,116.367188 189.863281,116.748047 190.625,117.509766 C191.33231,118.217076 191.711226,119.101214 191.761749,120.162179 L191.767578,120.410156 L191.767578,220.429688 C191.767578,221.601562 191.386719,222.568359 190.625,223.330078 C189.863281,224.091797 188.955078,224.472656 187.900391,224.472656 C186.728516,224.472656 185.761719,224.091797 185,223.330078 C184.29269,222.622768 183.913774,221.73863 183.863251,220.677665 L183.857422,220.429688 L183.857422,120.410156 C183.857422,119.238281 184.238281,118.271484 185,117.509766 C185.761719,116.748047 186.728516,116.367188 187.900391,116.367188 Z M205.302734,155.214844 C206.357422,155.214844 207.353516,155.625 208.291016,156.445312 C209.166016,157.210938 209.632682,158.231771 209.691016,159.507812 L209.697266,159.785156 L209.697266,200.214844 C209.697266,201.621094 209.316406,202.734375 208.554688,203.554688 C207.792969,204.375 206.708984,204.785156 205.302734,204.785156 C204.130859,204.785156 203.076172,204.375 202.138672,203.554688 C201.263672,202.789062 200.797005,201.768229 200.738672,200.492188 L200.732422,200.214844 L200.732422,159.785156 C200.732422,158.613281 201.142578,157.558594 201.962891,156.621094 C202.783203,155.683594 203.896484,155.214844 205.302734,155.214844 Z M84.3652344,155.214844 C84.9511719,155.214844 85.4785156,155.449219 85.9472656,155.917969 C86.3639323,156.334635 86.5954138,156.797598 86.6417101,157.306858 L86.6503906,157.5 L86.6503906,203.027344 C86.2988281,203.378906 85.9765625,203.759766 85.6835938,204.169922 C85.390625,204.580078 84.9511719,204.785156 84.3652344,204.785156 C83.7792969,204.785156 83.2519531,204.550781 82.7832031,204.082031 C82.3665365,203.665365 82.135055,203.202402 82.0887587,202.693142 L82.0800781,202.5 L82.0800781,157.5 C82.0800781,156.914062 82.3144531,156.386719 82.7832031,155.917969 C83.2519531,155.449219 83.7792969,155.214844 84.3652344,155.214844 Z M376.865234,155.742188 C379.326172,155.742188 381.640625,156.445312 383.808594,157.851562 C385.976562,159.257812 387.763672,161.191406 389.169922,163.652344 L389.169922,163.652344 L384.072266,168.222656 C383.251953,166.464844 382.285156,165.175781 381.171875,164.355469 C380.058594,163.535156 378.798828,163.125 377.392578,163.125 C375.751953,163.125 374.492188,163.623047 373.613281,164.619141 C372.734375,165.615234 372.294922,166.816406 372.294922,168.222656 C372.294922,169.863281 373.027344,171.269531 374.492188,172.441406 C375.957031,173.613281 377.685547,174.609375 379.677734,175.429688 C382.490234,176.601562 385.332031,178.183594 388.203125,180.175781 C391.074219,182.167969 392.509766,185.273438 392.509766,189.492188 C392.509766,191.484375 392.216797,193.330078 391.630859,195.029297 C391.044922,196.728516 390.048828,198.28125 388.642578,199.6875 C387.001953,201.09375 385.302734,202.089844 383.544922,202.675781 C381.787109,203.261719 379.912109,203.554688 377.919922,203.554688 C374.052734,203.554688 370.771484,202.324219 368.076172,199.863281 C365.380859,197.402344 363.623047,194.355469 362.802734,190.722656 L362.802734,190.722656 L368.427734,187.382812 C369.013672,190.429688 370.097656,192.773438 371.679688,194.414062 C373.261719,196.054688 375.166016,196.875 377.392578,196.875 C379.619141,196.875 381.40625,196.142578 382.753906,194.677734 C384.101562,193.212891 384.775391,191.484375 384.775391,189.492188 C384.775391,185.039062 381.494141,182.197266 374.931641,180.966797 C368.369141,179.736328 365.087891,175.488281 365.087891,168.222656 C365.087891,166.230469 365.351562,164.501953 365.878906,163.037109 C366.40625,161.572266 367.255859,160.3125 368.427734,159.257812 C369.482422,158.085938 370.712891,157.207031 372.119141,156.621094 C373.525391,156.035156 375.107422,155.742188 376.865234,155.742188 Z M449.462891,155.742188 L449.462891,185.625 C449.462891,189.023438 450.283203,191.572266 451.923828,193.271484 C453.564453,194.970703 455.908203,195.820312 458.955078,195.820312 C462.001953,195.820312 464.345703,194.882812 465.986328,193.007812 C467.626953,191.132812 468.447266,188.671875 468.447266,185.625 L468.447266,185.625 L468.447266,155.742188 L475.830078,155.742188 L475.830078,185.625 C475.830078,188.203125 475.507812,190.546875 474.863281,192.65625 C474.21875,194.765625 473.017578,196.523438 471.259766,197.929688 C469.853516,199.335938 468.095703,200.449219 465.986328,201.269531 C463.876953,202.089844 461.708984,202.5 459.482422,202.5 C457.255859,202.5 455.146484,202.089844 453.154297,201.269531 C451.162109,200.449219 449.345703,199.335938 447.705078,197.929688 C446.298828,196.523438 445.185547,194.824219 444.365234,192.832031 C443.544922,190.839844 443.134766,188.4375 443.134766,185.625 L443.134766,185.625 L442.080078,155.742188 L449.462891,155.742188 Z M417.822266,155.742188 C421.806641,155.742188 424.970703,156.826172 427.314453,158.994141 C429.658203,161.162109 430.830078,164.238281 430.830078,168.222656 C430.830078,169.863281 430.419922,171.5625 429.599609,173.320312 C428.779297,175.078125 427.666016,176.367188 426.259766,177.1875 C428.603516,178.359375 430.419922,179.912109 431.708984,181.845703 C432.998047,183.779297 433.642578,186.152344 433.642578,188.964844 C433.642578,193.183594 432.324219,196.494141 429.6875,198.896484 C427.050781,201.298828 423.505859,202.5 419.052734,202.5 L419.052734,202.5 L401.650391,202.5 L401.650391,155.742188 Z M532.080078,156.445312 L541.044922,175.429688 L550.009766,156.445312 L557.919922,156.445312 L545.087891,182.8125 L545.087891,202.5 L537.705078,202.5 L537.705078,182.8125 L524.169922,156.445312 L532.080078,156.445312 Z M326.240234,156.445312 L345.400391,189.492188 L345.400391,156.445312 L352.607422,156.445312 L352.607422,202.5 L344.697266,202.5 L325.712891,169.277344 L325.712891,202.5 L318.330078,202.5 L318.330078,156.445312 L326.240234,156.445312 Z M306.025391,156.445312 L306.025391,202.5 L298.642578,202.5 L298.642578,156.445312 L306.025391,156.445312 Z M285.634766,156.445312 L285.634766,163.125 L264.892578,163.125 L264.892578,175.429688 L285.634766,175.429688 L285.634766,182.285156 L264.892578,182.285156 L264.892578,202.5 L257.509766,202.5 L257.509766,156.445312 L285.634766,156.445312 Z M503.955078,156.972656 C508.173828,156.972656 511.484375,158.056641 513.886719,160.224609 C516.289062,162.392578 517.490234,165.410156 517.490234,169.277344 C517.490234,172.441406 516.757812,175.078125 515.292969,177.1875 C513.828125,179.296875 511.572266,180.585938 508.525391,181.054688 L508.525391,181.054688 L521.884766,202.5 L513.447266,202.5 L500.615234,181.757812 L494.990234,181.757812 L494.990234,202.5 L487.607422,202.5 L487.607422,156.972656 Z M417.822266,181.757812 L408.857422,181.757812 L408.857422,196.347656 L417.822266,196.347656 C420.400391,196.347656 422.363281,195.761719 423.710938,194.589844 C425.058594,193.417969 425.732422,191.542969 425.732422,188.964844 C425.732422,186.503906 425.117188,184.6875 423.886719,183.515625 C422.65625,182.34375 420.634766,181.757812 417.822266,181.757812 L417.822266,181.757812 Z M503.955078,163.125 L494.990234,163.125 L494.990234,174.375 L503.955078,174.375 C505.947266,174.375 507.470703,173.935547 508.525391,173.056641 C509.580078,172.177734 510.107422,170.742188 510.107422,168.75 C510.107422,166.757812 509.492188,165.322266 508.261719,164.443359 C507.03125,163.564453 505.595703,163.125 503.955078,163.125 L503.955078,163.125 Z M417.294922,163.125 L408.857422,163.125 L408.857422,174.375 L417.294922,174.375 C419.287109,174.375 420.810547,173.935547 421.865234,173.056641 C422.919922,172.177734 423.447266,170.742188 423.447266,168.75 C423.447266,166.757812 422.919922,165.322266 421.865234,164.443359 C420.810547,163.564453 419.287109,163.125 417.294922,163.125 L417.294922,163.125 Z" id="finsbury-logo" fill="#FFFFFF" fill-rule="nonzero"></path>
    </g>
</svg>