<?xml version="1.0" encoding="UTF-8"?>
<svg width="640px" height="360px" viewBox="0 0 640 360" version="1.1" xmlns="http://www.w3.org/2000/svg" xmlns:xlink="http://www.w3.org/1999/xlink">
    <title>finsbury-logo-dark</title>
    <g id="finsbury-logo-dark" stroke="none" stroke-width="1" fill="none" fill-rule="evenodd">
        <rect fill="#28282D" x="0" y="0" width="640" height="360"></rect>
        <path d="M154.44043,121.78125 C155.178711,121.78125 155.864258,122.097656 156.49707,122.730469 C157.072354,123.305753 157.386146,123.924619 157.438444,124.587067 L157.446289,124.787109 L157.446289,257.994141 C157.235352,258.732422 156.787109,259.417969 156.101562,260.050781 C155.416016,260.683594 154.704102,261 153.96582,261 C153.227539,261 152.621094,260.683594 152.146484,260.050781 C151.724609,259.488281 151.490234,258.884115 151.443359,258.238281 L151.43457,257.994141 L151.43457,124.787109 C151.43457,124.048828 151.750977,123.363281 152.383789,122.730469 C153.016602,122.097656 153.702148,121.78125 154.44043,121.78125 Z M169.62793,99 C170.366211,99 171.051758,99.3164062 171.68457,99.9492188 C172.259854,100.524503 172.573646,101.143369 172.625944,101.805817 L172.633789,102.005859 L172.633789,234.738281 C172.633789,235.6875 172.396484,236.425781 171.921875,236.953125 C171.447266,237.480469 170.682617,237.744141 169.62793,237.744141 C168.889648,237.744141 168.204102,237.427734 167.571289,236.794922 C166.996005,236.219638 166.682214,235.600772 166.629915,234.938323 L166.62207,234.738281 L166.62207,102.005859 C166.62207,101.267578 166.938477,100.582031 167.571289,99.9492188 C168.204102,99.3164062 168.889648,99 169.62793,99 Z M122.641602,139.974609 C123.379883,139.974609 123.880859,140.185547 124.144531,140.607422 C124.370536,140.969029 124.499681,141.36938 124.531967,141.808474 L124.540039,142.03125 L124.540039,235.6875 C124.856445,236.214844 124.803711,236.689453 124.381836,237.111328 C123.959961,237.533203 123.379883,237.744141 122.641602,237.744141 C121.797852,237.744141 121.244141,237.533203 120.980469,237.111328 C120.754464,236.749721 120.625319,236.34937 120.593033,235.910276 L120.584961,235.6875 L120.584961,142.03125 C120.584961,141.292969 120.795898,140.765625 121.217773,140.449219 C121.639648,140.132812 122.114258,139.974609 122.641602,139.974609 Z M185.290039,139.974609 C186.344727,139.974609 187.214844,140.317383 187.900391,141.00293 C188.533203,141.635742 188.873948,142.425822 188.922626,143.373168 L188.928711,143.613281 L188.928711,234.105469 C188.928711,235.160156 188.585938,236.030273 187.900391,236.71582 C187.214844,237.401367 186.344727,237.744141 185.290039,237.744141 C184.34082,237.744141 183.523438,237.401367 182.837891,236.71582 C182.205078,236.083008 181.864333,235.292928 181.815655,234.345582 L181.80957,234.105469 L181.80957,143.613281 C181.80957,142.558594 182.152344,141.688477 182.837891,141.00293 C183.523438,140.317383 184.34082,139.974609 185.290039,139.974609 Z M138.303711,122.255859 C139.041992,122.255859 139.727539,122.493164 140.360352,122.967773 C140.94043,123.402832 141.254639,123.948669 141.302979,124.605286 L141.30957,124.787109 L141.30957,217.494141 C141.098633,218.232422 140.729492,218.838867 140.202148,219.313477 C139.674805,219.788086 139.041992,220.025391 138.303711,220.025391 C137.56543,220.025391 136.958984,219.788086 136.484375,219.313477 C136.057227,218.886328 135.822295,218.352393 135.77958,217.71167 L135.772461,217.494141 L135.772461,124.787109 C135.772461,124.048828 136.009766,123.442383 136.484375,122.967773 C136.958984,122.493164 137.56543,122.255859 138.303711,122.255859 Z M201.110352,122.730469 C202.05957,122.730469 202.876953,123.073242 203.5625,123.758789 C204.195312,124.391602 204.536058,125.181681 204.584736,126.129028 L204.59082,126.369141 L204.59082,216.386719 C204.59082,217.441406 204.248047,218.311523 203.5625,218.99707 C202.876953,219.682617 202.05957,220.025391 201.110352,220.025391 C200.055664,220.025391 199.185547,219.682617 198.5,218.99707 C197.867188,218.364258 197.526442,217.574178 197.477764,216.626832 L197.47168,216.386719 L197.47168,126.369141 C197.47168,125.314453 197.814453,124.444336 198.5,123.758789 C199.185547,123.073242 200.055664,122.730469 201.110352,122.730469 Z M216.772461,157.693359 C217.72168,157.693359 218.618164,158.0625 219.461914,158.800781 C220.249414,159.489844 220.669414,160.408594 220.721914,161.557031 L220.727539,161.806641 L220.727539,198.193359 C220.727539,199.458984 220.384766,200.460938 219.699219,201.199219 C219.013672,201.9375 218.038086,202.306641 216.772461,202.306641 C215.717773,202.306641 214.768555,201.9375 213.924805,201.199219 C213.137305,200.510156 212.717305,199.591406 212.664805,198.442969 L212.65918,198.193359 L212.65918,161.806641 C212.65918,160.751953 213.02832,159.802734 213.766602,158.958984 C214.504883,158.115234 215.506836,157.693359 216.772461,157.693359 Z M107.928711,157.693359 C108.456055,157.693359 108.930664,157.904297 109.352539,158.326172 C109.727539,158.701172 109.935872,159.117839 109.977539,159.576172 L109.985352,159.75 L109.985352,200.724609 C109.668945,201.041016 109.378906,201.383789 109.115234,201.75293 C108.851562,202.12207 108.456055,202.306641 107.928711,202.306641 C107.401367,202.306641 106.926758,202.095703 106.504883,201.673828 C106.129883,201.298828 105.921549,200.882161 105.879883,200.423828 L105.87207,200.25 L105.87207,159.75 C105.87207,159.222656 106.083008,158.748047 106.504883,158.326172 C106.926758,157.904297 107.401367,157.693359 107.928711,157.693359 Z M371.178711,158.167969 C373.393555,158.167969 375.476562,158.800781 377.427734,160.066406 C379.378906,161.332031 380.987305,163.072266 382.25293,165.287109 L382.25293,165.287109 L377.665039,169.400391 C376.926758,167.818359 376.056641,166.658203 375.054688,165.919922 C374.052734,165.181641 372.918945,164.8125 371.65332,164.8125 C370.176758,164.8125 369.042969,165.260742 368.251953,166.157227 C367.460938,167.053711 367.06543,168.134766 367.06543,169.400391 C367.06543,170.876953 367.724609,172.142578 369.042969,173.197266 C370.361328,174.251953 371.916992,175.148438 373.709961,175.886719 C376.241211,176.941406 378.798828,178.365234 381.382812,180.158203 C383.966797,181.951172 385.258789,184.746094 385.258789,188.542969 C385.258789,190.335938 384.995117,191.99707 384.467773,193.526367 C383.94043,195.055664 383.043945,196.453125 381.77832,197.71875 C380.301758,198.984375 378.772461,199.880859 377.19043,200.408203 C375.608398,200.935547 373.920898,201.199219 372.12793,201.199219 C368.647461,201.199219 365.694336,200.091797 363.268555,197.876953 C360.842773,195.662109 359.260742,192.919922 358.522461,189.650391 L358.522461,189.650391 L363.584961,186.644531 C364.112305,189.386719 365.087891,191.496094 366.511719,192.972656 C367.935547,194.449219 369.649414,195.1875 371.65332,195.1875 C373.657227,195.1875 375.265625,194.52832 376.478516,193.209961 C377.691406,191.891602 378.297852,190.335938 378.297852,188.542969 C378.297852,184.535156 375.344727,181.977539 369.438477,180.870117 C363.532227,179.762695 360.579102,175.939453 360.579102,169.400391 C360.579102,167.607422 360.816406,166.051758 361.291016,164.733398 C361.765625,163.415039 362.530273,162.28125 363.584961,161.332031 C364.53418,160.277344 365.641602,159.486328 366.907227,158.958984 C368.172852,158.431641 369.59668,158.167969 371.178711,158.167969 Z M436.516602,158.167969 L436.516602,185.0625 C436.516602,188.121094 437.254883,190.415039 438.731445,191.944336 C440.208008,193.473633 442.317383,194.238281 445.05957,194.238281 C447.801758,194.238281 449.911133,193.394531 451.387695,191.707031 C452.864258,190.019531 453.602539,187.804688 453.602539,185.0625 L453.602539,185.0625 L453.602539,158.167969 L460.24707,158.167969 L460.24707,185.0625 C460.24707,187.382812 459.957031,189.492188 459.376953,191.390625 C458.796875,193.289062 457.71582,194.871094 456.133789,196.136719 C454.868164,197.402344 453.286133,198.404297 451.387695,199.142578 C449.489258,199.880859 447.538086,200.25 445.53418,200.25 C443.530273,200.25 441.631836,199.880859 439.838867,199.142578 C438.045898,198.404297 436.411133,197.402344 434.93457,196.136719 C433.668945,194.871094 432.666992,193.341797 431.928711,191.548828 C431.19043,189.755859 430.821289,187.59375 430.821289,185.0625 L430.821289,185.0625 L429.87207,158.167969 L436.516602,158.167969 Z M408.040039,158.167969 C411.625977,158.167969 414.473633,159.143555 416.583008,161.094727 C418.692383,163.045898 419.74707,165.814453 419.74707,169.400391 C419.74707,170.876953 419.37793,172.40625 418.639648,173.988281 C417.901367,175.570312 416.899414,176.730469 415.633789,177.46875 C417.743164,178.523438 419.37793,179.920898 420.538086,181.661133 C421.698242,183.401367 422.27832,185.537109 422.27832,188.068359 C422.27832,191.865234 421.091797,194.844727 418.71875,197.006836 C416.345703,199.168945 413.155273,200.25 409.147461,200.25 L409.147461,200.25 L393.485352,200.25 L393.485352,158.167969 Z M510.87207,158.800781 L518.94043,175.886719 L527.008789,158.800781 L534.12793,158.800781 L522.579102,182.53125 L522.579102,200.25 L515.93457,200.25 L515.93457,182.53125 L503.75293,158.800781 L510.87207,158.800781 Z M325.616211,158.800781 L342.860352,188.542969 L342.860352,158.800781 L349.34668,158.800781 L349.34668,200.25 L342.227539,200.25 L325.141602,170.349609 L325.141602,200.25 L318.49707,200.25 L318.49707,158.800781 L325.616211,158.800781 Z M307.422852,158.800781 L307.422852,200.25 L300.77832,200.25 L300.77832,158.800781 L307.422852,158.800781 Z M289.071289,158.800781 L289.071289,164.8125 L270.40332,164.8125 L270.40332,175.886719 L289.071289,175.886719 L289.071289,182.056641 L270.40332,182.056641 L270.40332,200.25 L263.758789,200.25 L263.758789,158.800781 L289.071289,158.800781 Z M485.55957,159.275391 C489.356445,159.275391 492.335938,160.250977 494.498047,162.202148 C496.660156,164.15332 497.741211,166.869141 497.741211,170.349609 C497.741211,173.197266 497.082031,175.570312 495.763672,177.46875 C494.445312,179.367188 492.415039,180.527344 489.672852,180.949219 L489.672852,180.949219 L501.696289,200.25 L494.102539,200.25 L482.553711,181.582031 L477.491211,181.582031 L477.491211,200.25 L470.84668,200.25 L470.84668,159.275391 Z M408.040039,181.582031 L399.97168,181.582031 L399.97168,194.712891 L408.040039,194.712891 C410.360352,194.712891 412.126953,194.185547 413.339844,193.130859 C414.552734,192.076172 415.15918,190.388672 415.15918,188.068359 C415.15918,185.853516 414.605469,184.21875 413.498047,183.164062 C412.390625,182.109375 410.571289,181.582031 408.040039,181.582031 L408.040039,181.582031 Z M485.55957,164.8125 L477.491211,164.8125 L477.491211,174.9375 L485.55957,174.9375 C487.352539,174.9375 488.723633,174.541992 489.672852,173.750977 C490.62207,172.959961 491.09668,171.667969 491.09668,169.875 C491.09668,168.082031 490.542969,166.790039 489.435547,165.999023 C488.328125,165.208008 487.036133,164.8125 485.55957,164.8125 L485.55957,164.8125 Z M407.56543,164.8125 L399.97168,164.8125 L399.97168,174.9375 L407.56543,174.9375 C409.358398,174.9375 410.729492,174.541992 411.678711,173.750977 C412.62793,172.959961 413.102539,171.667969 413.102539,169.875 C413.102539,168.082031 412.62793,166.790039 411.678711,165.999023 C410.729492,165.208008 409.358398,164.8125 407.56543,164.8125 L407.56543,164.8125 Z" id="finsbury-logo" fill="#FFFFFF" fill-rule="nonzero"></path>
    </g>
</svg>