<?xml version="1.0" encoding="UTF-8"?>
<svg width="640px" height="360px" viewBox="0 0 640 360" version="1.1" xmlns="http://www.w3.org/2000/svg" xmlns:xlink="http://www.w3.org/1999/xlink">
    <title>askerisk-logo</title>
    <g id="askerisk-logo" stroke="none" stroke-width="1" fill="none" fill-rule="evenodd">
        <rect fill="#FFFFFF" x="0" y="0" width="640" height="360"></rect>
        <g id="networks" transform="translate(390.500000, 211.960000)" fill="#35469D" fill-rule="nonzero">
            <path d="M4.0608,8.8172 L4.0608,17.9916 C4.08585113,18.4732378 3.90866548,18.9434612 3.572,19.2888 C3.21959418,19.5997526 2.76350087,19.7674339 2.2936,19.7588 C1.83905319,19.763354 1.3982501,19.6030619 1.0528,19.3076 C0.699421448,18.9629152 0.508218849,18.4849087 0.5264,17.9916 L0.5264,1.3348 L13.3668,11.1108 L13.3668,3.1208 C13.3455555,2.64422214 13.5242643,2.18041858 13.8598009,1.84131244 C14.1953374,1.5022063 14.657224,1.31859977 15.134,1.3348 C15.5963115,1.32531858 16.0431692,1.50135347 16.3748,1.8236 C16.738076,2.15367945 16.9317359,2.63091286 16.9012,3.1208 L16.9012,19.7024 L4.0608,8.8172 Z" id="Shape"></path>
            <path d="M24.1204,19.7588 L24.1204,1.3348 L35.1936,1.3348 C35.6860697,1.31174191 36.1626668,1.51205085 36.4908,1.88 C37.1142942,2.58971177 37.1142942,3.65188823 36.4908,4.3616 C36.1503061,4.72119888 35.6693638,4.91357583 35.1748,4.888 L27.6548,4.888 L27.6548,7.6516 L32.2232,7.6516 C32.7166481,7.62293352 33.1955886,7.82422734 33.5204,8.1968 C33.8329003,8.52570032 34.0019618,8.96526041 33.9904,9.4188 C34.009988,9.87579087 33.8477542,10.3219336 33.5392,10.6596 C33.20366,11.0283103 32.721183,11.2281937 32.2232,11.2048 L27.6548,11.2048 L27.6548,16.2056 L35.1748,16.2056 C35.6672697,16.1825419 36.1438668,16.3828508 36.472,16.7508 C36.7838812,17.0876547 36.9524413,17.5326534 36.942,17.9916 C36.946554,18.4461468 36.7862619,18.8869499 36.4908,19.2324 C36.1461152,19.5857785 35.6681087,19.7769812 35.1748,19.7588 L24.1204,19.7588 Z" id="Shape"></path>
            <path d="M53.0912,4.888 L53.0912,18.048 C53.1142581,18.5404697 52.9139492,19.0170668 52.546,19.3452 C52.2170996,19.6577003 51.7775396,19.8267618 51.324,19.8152 C50.8670091,19.834788 50.4208664,19.6725542 50.0832,19.364 C49.7166716,19.0269309 49.5172304,18.5455211 49.538,18.048 L49.538,4.888 L44.8756,4.888 C44.3911667,4.90809783 43.9205404,4.72393972 43.5784,4.3804 C42.9438207,3.66772128 42.9438207,2.59267872 43.5784,1.88 C43.9111438,1.5185605 44.3845545,1.31959078 44.8756,1.3348 L57.1896,1.3348 C57.6830481,1.30613352 58.1619886,1.50742734 58.4868,1.88 C59.1102942,2.58971177 59.1102942,3.65188823 58.4868,4.3616 C58.1493164,4.72560636 57.6662235,4.91884352 57.1708,4.888 L53.0912,4.888 Z" id="Shape"></path>
            <path d="M89.9768,17.578 C89.4040931,18.799374 88.1767802,19.5794219 86.8278,19.5794219 C85.4788198,19.5794219 84.2515069,18.799374 83.6788,17.578 L80.37,8.178 L77.0048,17.578 C76.425504,18.7971914 75.196219,19.5740936 73.8464,19.5740936 C72.496581,19.5740936 71.267296,18.7971914 70.688,17.578 L65.6496,3.29 C65.5643862,3.07444168 65.5197693,2.84498364 65.518,2.6132 C65.5060898,2.14570667 65.7150586,1.69990661 66.082,1.41 C66.4287153,1.08538939 66.8854465,0.904040269 67.3604,0.9024 C68.1129101,0.860819406 68.7899334,1.3567783 68.9772,2.0868 L73.884,15.792 L78.5088,2.8576 C78.96,1.6356 79.5616,0.9776 80.3888,0.9776 C81.216,0.9776 81.78,1.598 82.2688,2.8576 L86.8936,15.792 L91.8192,2.0868 C91.9986064,1.35966561 92.6693211,0.862547673 93.4172,0.9024 C93.8935394,0.889002793 94.3571925,1.05699319 94.7144,1.3724 C95.0803937,1.67940621 95.2877474,2.13558398 95.2784,2.6132 C95.2766309,2.84498364 95.2320138,3.07444168 95.1468,3.29 L89.9768,17.578 Z" id="Shape"></path>
            <path d="M117.3872,17.39 C115.614819,19.1589082 113.176342,20.0946821 110.6756,19.9656 C108.182447,20.0830049 105.758848,19.1245195 104.0204,17.3336 C102.339089,15.5004469 101.465185,13.0684196 101.5952,10.5844 C101.465988,8.08460896 102.32336,5.63400898 103.9828,3.76 C107.761777,0.324540936 113.533023,0.324540936 117.312,3.76 C119.004234,5.62422809 119.877879,8.08939559 119.7372,10.6032 C119.87077,13.0856264 119.027251,15.5217083 117.3872,17.39 Z M110.6756,4.7188 C106.9156,4.7188 105.0356,6.5988 105.0356,10.5844 C104.949622,12.137169 105.460815,13.6640187 106.4644,14.852 C107.543784,15.9491315 109.045386,16.5250883 110.5816,16.4312 C114.3416,16.4312 116.1088,14.5512 116.1088,10.5844 C116.1088,6.6176 114.3792,4.7188 110.6756,4.7188 Z" id="Shape"></path>
            <path d="M141.0564,11.1484 C140.275369,12.2437935 139.128508,13.0239256 137.8228,13.348 L141.094,16.7696 C141.428313,17.0920325 141.617159,17.5365351 141.617159,18.001 C141.617159,18.4654649 141.428313,18.9099675 141.094,19.2324 C140.748478,19.5752006 140.283472,19.7706375 139.7968,19.7777425 C139.323822,19.7838377 138.871305,19.5850045 138.556,19.2324 L130.3592,10.6408 L130.3592,17.9916 C130.382258,18.4840697 130.181949,18.9606668 129.814,19.2888 C129.477145,19.6006812 129.032147,19.7692413 128.5732,19.7588 C128.122632,19.773399 127.684168,19.6115046 127.3512,19.3076 C126.984671,18.9705309 126.785231,18.4891211 126.806,17.9916 L126.806,1.3348 L136.3,1.3348 C137.887251,1.29889735 139.416123,1.93365231 140.5112,3.0832 C141.601056,4.24126082 142.194808,5.77961985 142.1656,7.3696 C142.192751,8.71322646 141.805467,10.0326188 141.0564,11.1484 Z M137.8228,5.5084 C137.301634,5.05326641 136.6347,4.79983159 135.9428,4.794 L130.4344,4.794 L130.4344,10.0956 L135.5668,10.0956 C136.385673,10.1666511 137.206486,9.98278891 137.9168,9.5692 C138.519016,8.96610839 138.816173,8.12301228 138.7252,7.2756 C138.677298,6.62489484 138.347715,6.02752561 137.8228,5.64 L137.8228,5.5084 Z" id="Shape"></path>
            <path d="M165.1204,18.0104 C165.141353,18.4903382 164.931774,18.95141 164.5564,19.2512 C164.20789,19.5871197 163.743243,19.7756723 163.2592,19.7776 C162.66635,19.7883033 162.116313,19.4698609 161.8304,18.9504 L156.8108,11.28 C155.9836,12.3704 154.6864,14.0248 152.938,16.2056 L152.938,17.954 C152.968536,18.4438871 152.774876,18.9211205 152.4116,19.2512 C152.068868,19.5534622 151.627776,19.7205424 151.1708,19.7212 C150.725321,19.7390665 150.291487,19.5763787 149.9676,19.27 C149.596254,18.9348783 149.390173,18.4540242 149.4036,17.954 L149.4036,3.1208 C149.370526,2.61181102 149.579576,2.11706024 149.9676,1.786 C150.291487,1.47962128 150.725321,1.31693354 151.1708,1.3348 C151.633112,1.32531858 152.079969,1.50135347 152.4116,1.8236 C152.774876,2.15367945 152.968536,2.63091286 152.938,3.1208 L152.938,10.6408 L159.4616,2.1432 C159.766905,1.69342491 160.271684,1.42000281 160.8152,1.41 C161.299243,1.41192761 161.76389,1.60048025 162.1124,1.9364 C162.471823,2.26425092 162.676555,2.72831154 162.6764,3.2148 C162.657602,3.61291967 162.512765,3.99476424 162.2628,4.3052 L159.1044,8.4412 L164.7444,17.108 C164.947117,17.3703802 165.076836,17.6817062 165.1204,18.0104 Z" id="Shape"></path>
            <path d="M186.5148,13.818 C186.446384,15.5605668 185.622848,17.1870493 184.2588,18.2736 C182.772989,19.4948014 180.875747,20.1003041 178.9572,19.9656 C177.02299,19.9476452 175.10953,19.5649531 173.3172,18.8376 C172.629026,18.6132121 172.170181,17.9631828 172.1892,17.2396 C172.195546,16.7711534 172.376566,16.3219543 172.6968,15.98 C173.002091,15.6117551 173.459416,15.4038801 173.9376,15.416 C174.183274,15.4189704 174.425982,15.470067 174.652,15.5664 C176.038363,16.1270004 177.518221,16.4204205 179.0136,16.4312 C180.044149,16.5444527 181.080546,16.2769954 181.9276,15.6792 C182.465694,15.2843507 182.8189,14.6866174 182.9052,14.0248 C182.9052,12.878 181.514,12.1448 178.7504,11.6936 C174.2384,11.0544 171.9636,9.2496 171.9636,6.3356 C171.925133,4.58728197 172.93021,2.98359359 174.5204,2.256 C176.086789,1.51301682 177.807085,1.1522058 179.54,1.2032 C181.206909,1.14788817 182.864833,1.46919119 184.3904,2.1432 C185.013975,2.39603501 185.412359,3.01240273 185.3868,3.6848 C185.380454,4.15324654 185.199434,4.60244563 184.8792,4.9444 C184.577648,5.31967216 184.119758,5.53474166 183.6384,5.5272 C183.350468,5.52252995 183.067456,5.45177707 182.8112,5.3204 C181.715798,4.89764258 180.543239,4.71182723 179.3708,4.7752 C178.466121,4.74950549 177.563588,4.87662266 176.7012,5.1512 C175.9116,5.452 175.5356,5.828 175.5356,6.3356 C175.5356,6.8432 176.5696,7.6516 178.6188,8.2156 L182.8112,9.1556 C183.752049,9.48673963 184.602042,10.0340838 185.2928,10.7536 C186.07076,11.5852024 186.507041,12.679262 186.5148,13.818 Z" id="Shape"></path>
        </g>
        <g id="asterisk" transform="translate(162.080000, 156.500000)" fill="#3C3C3C" fill-rule="nonzero">
            <path d="M41.548,42.0744 C41.58545,43.2417225 41.0783282,44.3601694 40.1756,45.1012 C39.3045021,45.8880906 38.172286,46.3235583 36.9984,46.3232 C35.1858963,46.3998082 33.5653493,45.2020125 33.1068,43.4468 L30.3056,35.72 L11.9192,35.72 L9.0992,43.4468 C8.61604124,45.2178691 6.96592422,46.4143996 5.1324,46.3232 C3.99270032,46.3345752 2.88862137,45.9264005 2.0304,45.1764 C1.12767188,44.4353694 0.620550011,43.3169225 0.658,42.1496 C0.654449362,41.5781085 0.75642461,41.0108711 0.9588,40.4764 L13.4232,5.5836 C14.553531,2.35744504 17.7494082,0.32794642 21.15,0.6768 C25.098,0.6768 27.7676,2.2748 28.9332,5.5836 L41.36,40.42 C41.5222392,40.9555516 41.585938,41.516101 41.548,42.0744 Z M21.0748,9.9076 L15.04,27.26 L27.3728,27.26 L21.0748,9.9076 Z" id="Shape"></path>
            <path d="M98.3616,31.7532 C98.1981838,36.0063419 96.1948859,39.9786347 92.872,42.6384 C89.9141333,45.3832 85.5901333,46.7556 79.9,46.7556 C75.129768,46.7391567 70.4070177,45.8073708 65.988,44.0108 C64.3016392,43.478986 63.1782512,41.8862373 63.2432,40.1192 C63.259514,38.9709536 63.6939865,37.8680618 64.4652,37.0172 C65.2062306,36.1144718 66.3246775,35.60735 67.492,35.6448 C68.086927,35.6612543 68.6735355,35.7887779 69.2216,36.0208 C72.6217343,37.3695996 76.242235,38.077127 79.9,38.1076 C83.3592,38.1076 85.728,37.5248 87.0252,36.2276 C88.3307487,35.2548254 89.190979,33.79853 89.4128,32.1856 C89.4128,29.3844 86.0288,27.4292 79.242,26.5456 C68.2064,24.9664 62.6604,20.5672 62.6604,13.3856 C62.5796891,9.11406384 65.0483497,5.2041194 68.9396,3.4404 C72.7651325,1.63391799 76.9697594,0.77622568 81.1972,0.94 C85.2631734,0.805512715 89.3065933,1.59619737 93.0224,3.2524 C94.5425342,3.87212565 95.5171797,5.37157991 95.4664,7.0124 C95.4500863,8.16064641 95.0156136,9.26353823 94.2444,10.1144 C93.5186221,11.045288 92.3978258,11.581321 91.2176,11.562 C90.5102799,11.5549795 89.8146097,11.381062 89.1872,11.0544 C86.5112876,9.99587371 83.6383322,9.52773594 80.7648,9.682 C78.5655259,9.63174083 76.3733195,9.9494519 74.2788,10.622 C72.3988,11.3364 71.3836,12.2764 71.3836,13.4984 C71.3836,15.228 73.9028,16.7508 78.9036,17.9728 C82.2876,18.7624 85.7468,19.4956 89.1308,20.2852 C91.4367144,21.078754 93.5189589,22.4131955 95.2032,24.1768 C97.1993032,26.1967067 98.3318857,28.913558 98.3616,31.7532 Z" id="Shape"></path>
            <path d="M143.256,9.9076 L143.256,41.8676 C143.330581,43.0690447 142.852957,44.2388756 141.9588,45.0448 C141.138517,45.8079509 140.052036,46.2195987 138.932,46.1916 C137.823217,46.2341959 136.740185,45.8507623 135.9052,45.12 C135.021212,44.2755478 134.547817,43.0886295 134.608,41.8676 L134.608,9.9076 L123.2152,9.9076 C122.032484,9.95856793 120.881738,9.51597306 120.038,8.6856 C119.265089,7.84117161 118.853451,6.72772668 118.8912,5.5836 C118.867187,4.46424588 119.278285,3.37921363 120.038,2.5568 C120.853344,1.67614509 122.016478,1.2012558 123.2152,1.2596 L153.2952,1.2596 C154.497106,1.18220283 155.668117,1.66030828 156.4724,2.5568 C157.976468,4.29439311 157.976468,6.87280689 156.4724,8.6104 C155.629385,9.49651497 154.44145,9.97031567 153.22,9.9076 L143.256,9.9076 Z" id="Shape"></path>
            <path d="M177.1336,46.248 L177.1336,1.2596 L204.1868,1.2596 C205.383211,1.18240597 206.548422,1.6609746 207.3452,2.5568 C208.849268,4.29439311 208.849268,6.87280689 207.3452,8.6104 C206.509447,9.49567696 205.327464,9.96984501 204.1116,9.9076 L185.7252,9.9076 L185.7252,16.6944 L196.8924,16.6944 C198.093845,16.6198194 199.263676,17.0974426 200.0696,17.9916 C200.832751,18.8118837 201.244399,19.898364 201.2164,21.0184 C201.258996,22.1271829 200.875563,23.2102146 200.1448,24.0452 C199.300348,24.9291884 198.11343,25.4025836 196.8924,25.3424 L185.7252,25.3424 L185.7252,37.6 L204.1116,37.6 C205.308011,37.522806 206.473222,38.0013746 207.27,38.8972 C208.774068,40.6347931 208.774068,43.2132069 207.27,44.9508 C206.434247,45.836077 205.252264,46.310245 204.0364,46.248 L177.1336,46.248 Z" id="Shape"></path>
            <path d="M263.3692,25.192 C261.479212,27.909738 258.655252,29.8369898 255.4356,30.6064 L263.4444,38.9724 C264.263721,39.7364255 264.732803,40.8037573 264.7416,41.924 C264.744561,43.0685389 264.275246,44.1636071 263.4444,44.9508 C262.626685,45.8364497 261.472561,46.3349764 260.2672,46.323404 C259.106027,46.3307997 257.999832,45.8292325 257.2404,44.9508 L237.1996,23.97 L237.1996,41.924 C237.275159,43.129473 236.789409,44.3022112 235.8836,45.1012 C235.063317,45.8643509 233.976836,46.2759987 232.8568,46.248 C231.7486,46.2867863 230.666929,45.9038347 229.83,45.1764 C228.954313,44.3263671 228.48248,43.1433656 228.5328,41.924 L228.5328,1.2596 L251.7508,1.2596 C255.638636,1.14493994 259.391627,2.68988704 262.072,5.5084 C264.735526,8.33689866 266.186323,12.0954737 266.114,15.98 C266.17727,19.2611114 265.217992,22.4806048 263.3692,25.192 Z M255.4356,11.6372 C254.111666,10.5040966 252.421727,9.88957324 250.6792,9.9076 L237.1996,9.9076 L237.1996,22.8796 L249.7392,22.8796 C251.748253,23.049512 253.761413,22.6036003 255.5108,21.6012 C256.956824,20.1014471 257.647767,18.0286163 257.3908,15.9612 C257.441907,14.2952437 256.720209,12.6991808 255.4356,11.6372 Z" id="Shape"></path>
            <path d="M295.5172,45.1012 C294.672772,45.8741111 293.559327,46.2857482 292.4152,46.248 C291.310667,46.2637423 290.236978,45.8836165 289.3884,45.1764 C288.504412,44.3319478 288.031017,43.1450295 288.0912,41.924 L288.0912,5.5836 C288.032856,4.38487815 288.507745,3.22174352 289.3884,2.4064 C290.210814,1.6466855 291.295846,1.23558633 292.4152,1.2596 C293.574528,1.21701228 294.699272,1.65888441 295.519594,2.47920595 C296.339915,3.2995275 296.781788,4.4242721 296.7392,5.5836 L296.7392,41.924 C296.804328,43.1089873 296.359606,44.2652644 295.5172,45.1012 Z" id="Shape"></path>
            <path d="M354.7748,31.7532 C354.611096,36.0020042 352.615892,39.9718456 349.304,42.6384 C346.3336,45.3832 342.003333,46.7556 336.3132,46.7556 C331.543153,46.7372972 326.820753,45.8055804 322.4012,44.0108 C320.692445,43.4997101 319.542271,41.9018174 319.6,40.1192 C319.616314,38.9709536 320.050786,37.8680618 320.822,37.0172 C321.56303,36.1144718 322.681478,35.60735 323.8488,35.6448 C324.449815,35.6611144 325.042612,35.7885974 325.5972,36.0208 C328.990835,37.3694128 332.605145,38.0769762 336.2568,38.1076 C339.716,38.1076 342.1036,37.5248 343.4008,36.2276 C344.735759,35.2940293 345.642644,33.8660234 345.92,32.2608 C345.92,29.4596 342.536,27.5044 335.768,26.6208 C324.7324,25.0416 319.1676,20.6424 319.1676,13.4608 C319.091845,9.19064856 321.558931,5.28319882 325.4468,3.5156 C329.237459,1.69798427 333.408358,0.814810753 337.6104,0.94 C341.676374,0.805512715 345.719793,1.59619737 349.4356,3.2524 C350.955734,3.87212565 351.93038,5.37157991 351.8796,7.0124 C351.872102,8.16236759 351.436434,9.26829209 350.6576,10.1144 C349.931822,11.045288 348.811025,11.581321 347.6308,11.562 C346.929481,11.5548687 346.239937,11.3808716 345.6192,11.0544 C342.93667,9.99605861 340.05764,9.52797564 337.178,9.682 C334.978726,9.63174083 332.786519,9.9494519 330.692,10.622 C328.812,11.3364 327.8156,12.2764 327.8156,13.4984 C327.8156,15.228 330.3348,16.7508 335.3356,17.9728 C338.7384,18.7624 342.1976,19.4956 345.5816,20.2852 C347.882053,21.0787836 349.958178,22.413436 351.6352,24.1768 C353.624417,26.199714 354.750108,28.9162026 354.7748,31.7532 Z" id="Shape"></path>
            <path d="M414.6904,41.9992 C414.72785,43.1665226 414.220728,44.2849694 413.318,45.026 C412.464496,45.8498773 411.32704,46.3142825 410.1408,46.3233915 C408.686572,46.3373251 407.336862,45.5691387 406.6064,44.3116 L394.3488,25.6244 C392.3372,28.294 389.16,32.336 384.9488,37.6752 L384.9488,41.924 C385.023381,43.1254447 384.545757,44.2952756 383.6516,45.1012 C382.829186,45.8609145 381.744154,46.2720137 380.6248,46.248 C379.532534,46.2936137 378.465975,45.9088425 377.6544,45.1764 C376.748969,44.3411494 376.248622,43.1553955 376.282,41.924 L376.282,5.5836 C376.211274,4.35088386 376.718605,3.15553005 377.6544,2.35 C378.458645,1.60355562 379.528622,1.21077927 380.6248,1.2596 C381.744154,1.23558633 382.829186,1.6466855 383.6516,2.4064 C384.532255,3.22174352 385.007144,4.38487815 384.9488,5.5836 L384.9488,23.7632 L400.8724,3.0832 C401.595249,1.94652386 402.834718,1.24228017 404.1812,1.20300074 C405.371392,1.19192752 406.516203,1.65933585 407.3584,2.5004 C408.22857,3.29767204 408.726099,4.42222308 408.7308,5.6024 C408.701228,6.57761706 408.351025,7.51589422 407.7344,8.272 L400.0076,18.3676 L413.9196,39.5552 C414.394418,40.2844184 414.66095,41.1295196 414.6904,41.9992 Z" id="Shape"></path>
        </g>
        <g id="star" transform="translate(51.120833, 141.779246)" fill="#35469D" fill-rule="nonzero">
            <path d="M76.983517,29.5401208 L8.45219622,29.5401208 C3.80540733,29.8289366 0.23245502,33.7635238 0.391607548,38.4165584 C0.232781334,43.0665548 3.80794184,46.9963364 8.45219622,47.2766792 L76.983517,47.2766792 C81.6277713,46.9963364 85.2029319,43.0665548 85.0441056,38.4165584 C85.2032582,33.7635238 81.6303058,29.8289366 76.983517,29.5401208 Z" id="Shape"></path>
            <path d="M52.2143396,4.29775094 C50.9416151,6.5005434 19.2050868,61.4071849 17.9486792,63.6589283 C15.8613464,67.8228325 17.476112,72.8916036 21.587366,75.080815 C25.5434034,77.512289 30.7152739,76.363787 33.2703246,72.486415 C34.543049,70.2836226 66.2632604,15.3769812 67.535985,13.1415548 C69.6115237,8.97266688 67.9911878,3.90911722 63.8809812,1.71966792 C59.9341159,-0.713247296 54.768502,0.428245031 52.2143396,4.29775094 Z" id="Shape"></path>
            <path d="M17.9486792,13.1741886 C19.1724528,15.3769812 50.9089812,70.3162566 52.2143396,72.486415 C54.8874451,76.1959851 59.934788,77.2797315 63.8950831,74.9944602 C67.8553782,72.7091889 69.4427425,67.7969133 67.5686188,63.6262944 L33.3029584,4.26511698 C30.7305017,0.385393185 25.5377978,-0.742826592 21.587366,1.71966792 C17.4718041,3.92173771 15.8583877,9.00074374 17.9486792,13.1741886 Z" id="Shape"></path>
        </g>
    </g>
</svg>