<?xml version="1.0" encoding="UTF-8"?>
<svg width="270px" height="151px" viewBox="0 0 270 151" version="1.1" xmlns="http://www.w3.org/2000/svg" xmlns:xlink="http://www.w3.org/1999/xlink">
    <title>Artboard Copy</title>
    <g id="Artboard-Copy" stroke="none" stroke-width="1" fill="none" fill-rule="evenodd">
        <rect fill="#FFFFFF" x="0" y="0" width="270" height="151"></rect>
        <g id="map" opacity="0.3" transform="translate(-54.060000, -165.000000)" fill-rule="nonzero" stroke-linejoin="round">
            <path d="M554.1048,407.1924 L551.1024,410.3244 L546.048,410.3244 L546.048,405.7236 L549.9684,403.1964 L554.1048,403.1964 L554.1048,407.2032 L554.1048,407.1924 Z M562.7448,393.7032 L562.7448,398.2392 L558.8892,395.928 L558.8892,392.3964 L562.7448,392.3964 L562.7448,379.62 L552.96,379.62 L529.524,395.3232 L523.7676,388.7028 L523.7676,401.6628 L509.49,401.6628 L517.7628,424.3428 L544.9032,424.3428 L565.7688,400.14 L566.7084,393.66 L562.7664,393.7248 L562.7448,393.7032 Z M195.2424,137.97 L200.6424,134.2872 L207.1224,134.2872 L201.7224,137.97 L195.2424,137.97 Z M244.4364,118.422 L237.5352,124.4052 L221.562,124.4052 L216.6156,127.7964 L220.428,127.7964 L215.1144,131.4252 L211.3236,131.4252 L216.6156,127.7964 L206.1828,127.7964 L201.6684,131.3064 L197.0676,131.7708 L197.9856,123.8328 L194.4,123.8328 L190.242,126.5976 L182.52,137.97 L177.984,137.97 L186.7212,123.822 L197.0244,121.662 L196.4412,119.7288 L189.648,119.502 L186.408,117.5472 L182.3796,119.502 L177.6708,119.502 L179.5932,115.3332 L169.8732,110.8728 L86.7132,110.8728 L59.4,139.698 L59.4,161.892 L69.39,171.8928 L104.3496,176.3856 L109.0152,183.4596 L118.8432,183.114 L126.954,199.044 L142.074,180.0684 L178.0164,180.1872 L180.36,198.18 L186.0624,198.3312 L186.2136,175.9752 L244.3824,126.2952 L248.346,125.6148 L250.5924,118.53 L244.3824,118.53 L244.4364,118.422 Z M278.8344,115.344 L299.16,115.344 L294.9372,108.6264 L291.1248,107.7192 L291.1248,102.9024 L278.8344,115.344 Z M128.304,224.1 L120.474,207.2196 L126.954,199.0548 L118.8648,183.06 L109.0368,183.4056 L104.3712,176.3316 L69.4116,171.8388 L69.4764,171.9036 L70.9668,187.6392 L81.7668,207.9864 L86.13,204.66 L77.652,186.5376 L77.652,176.364 L82.6524,176.364 L82.8468,185.8248 L98.9064,223.56 L125.0964,234.4788 L131.6304,232.74 L137.3868,238.6044 L140.2488,233.5068 L146.286,233.5068 L145.422,226.8864 L150.5952,226.8864 L157.3236,221.8752 L157.6044,214.5744 L150.2496,214.4448 L144.4068,224.1 L128.304,224.1 Z M418.3056,60.4476 L428.0256,55.7172 L428.0256,54.3888 L423.2088,49.4964 L416.4588,51.732 L408.3588,51.5592 L406.6416,53.892 L402.0408,53.784 L402.0408,58.104 L418.3056,60.4476 Z M504.8568,163.1448 L504.8568,158.5548 L499.6512,158.4144 L499.6512,161.7948 L504.8568,163.1448 Z M307.638,16.308 L307.638,21.1464 L331.7976,21.492 L338.04,32.1732 L338.04,41.8284 L326.4516,48.4056 L326.7972,61.5168 L334.0764,68.8824 L342.7164,68.8824 L355.8708,54.9828 L374.436,49.5072 L381.402,44.172 L395.442,43.308 L405.27,40.4028 L423.792,10.9512 L435.2076,8.6184 L439.236,4.5684 L406.3176,1.2528 L377.8704,4.5684 L343.3644,4.5684 L323.514,11.4696 L307.638,16.308 Z M867.942,202.7592 L865.134,199.8216 L860.5332,206.3772 L865.134,210.6972 L867.942,202.7592 Z M823.7376,121.5 L824.6556,116.3268 L815.0004,114.7716 L811.3176,108.7344 L792.9576,108.7344 L755.352,99.4248 L751.2156,108.7344 L735.9228,104.0796 L724.5072,112.7736 L761.6484,134.46 L804.654,134.9244 L809.838,124.3728 L823.7376,121.5 Z M831.9024,219.9852 L826.3728,221.2056 L826.3728,224.4456 L828.6192,227.1672 L831.8592,223.074 L831.9024,219.9852 Z M811.3176,108.7452 L815.0004,114.7824 L824.6556,116.3376 L823.7376,121.5108 L809.8596,124.416 L804.6,134.9676 L761.6484,134.46 L724.464,112.7844 L708.372,125.0532 L711.0504,137.4948 L694.9476,143.478 L699.5484,154.7424 L716.688,162.54 L717.3684,176.3424 L762.2208,191.8512 L770.4936,184.2912 L788.0976,191.8512 L785.6784,198.4068 L794.9988,213.9372 L811.3176,205.74 L821.988,214.866 L826.5024,212.2956 L826.6752,216.6912 L853.4052,207.144 L862.1424,187.5852 L846.5472,161.9244 L854.5608,153.1872 L845.3484,153.1872 L842.4,155.034 L836.622,145.53 L843.9876,139.05 L849.042,148.6944 L856.1268,143.8128 L869.724,134.46 L869.724,116.3268 L847.1952,110.5812 L830.6388,94.3812 L814.5468,94.3812 L818.208,107.3412 L811.3176,108.7452 Z M904.1976,136.08 L910.494,135.9936 L913.1724,131.4252 L899.1324,125.5608 L899.4132,137.1168 L902.178,138.7584 L904.1976,136.08 Z M886.8096,162.7884 L885.7296,166.3416 L899.64,164.3004 L900.72,169.7004 L903.8736,168.3612 L904.2192,164.1492 L913.518,161.7624 L913.0536,149.58 L908.8308,142.2144 L904.6296,140.94 L907.0272,151.9776 L898.3872,159.7644 L886.8096,162.7884 Z M884.3688,169.6464 L889.38,169.0092 L891.0108,171.4284 L889.2072,177.12 L884.3688,169.6464 Z M897.7284,167.292 L895.32,171.6876 L892.08,168.0696 L897.7284,167.292 Z M882.6084,242.3412 L875.0484,241.5528 L872.2512,238.14 L875.016,231.8004 L872.2728,225.72 L867.2616,225.612 L866.0412,236.3256 L873.126,244.8684 L881.4312,245.9484 L882.6084,242.3412 Z M858.6648,261.3384 L862.0236,261.9972 L867.996,257.0292 L867.8664,252.9576 L858.6648,261.3384 Z M884.898,269.028 L884.898,273.78 L889.8876,272.2788 L888.192,269.19 L892.2204,268.11 L888.7968,257.418 L886.2804,264.06 L878.04,264.06 L884.898,269.028 Z M870.1884,245.1924 L873.7416,248.6808 L872.586,250.8408 L869.7132,248.0328 L870.1884,245.1924 Z M873.7416,253.7352 L876.2688,255.4524 L879.0336,251.2728 L875.3508,250.8192 L873.7416,253.7352 Z M883.17,249.4152 L886.6368,253.8864 L890.4276,253.8864 L886.8096,248.0652 L883.17,249.4152 Z M883.17,253.1844 L885.114,256.5864 L883.5588,258.66 L880.8156,254.5236 L883.17,253.1844 Z M879.0336,256.6296 L880.8156,259.308 L879.0336,261.468 L877.0032,258.984 L879.0336,256.6296 Z M885.7836,326.8296 L888.1164,330.0696 L894.672,329.2812 L894.672,326.7 L885.7836,326.8296 Z M833.112,289.0296 L833.436,298.2852 L838.7064,307.4976 L855.4572,307.4976 L863.7408,296.9136 L863.7408,277.6572 L857.7684,278.2836 L852.93,287.4312 L836.73,291.0492 L833.2416,288.8892 L833.112,289.0296 Z M821.232,313.1892 L821.232,306.126 L793.6272,277.4844 L784.1556,273.78 L816.1344,317.3256 L821.232,313.1892 Z M853.4916,325.782 L854.01,328.1796 L819.504,322.3368 L824.688,318.1788 L833.328,321.4188 L841.104,319.7016 L853.4916,325.782 Z M875.556,325.782 L870.2208,325.782 L871.3008,329.2272 L876.3984,329.2272 L878.5584,327.4884 L875.556,325.782 Z M866.16,331.3116 L867.726,333.2232 L871.4304,333.2232 L870.1452,330.4584 L866.16,331.3116 Z M885.7836,326.7 L880.4484,332.6508 L884.52,333.18 L888.138,329.94 L885.7836,326.7 Z M868.0284,316.1808 L871.992,314.9604 L870.7932,307.9728 L873.126,305.3808 L875.0916,310.5648 L879.8436,312.2172 L879.8436,308.4912 L877.1652,302.5836 L882.2412,298.3176 L874.1412,298.6632 L872.4672,296.352 L875.7072,292.8204 L881.658,294.8724 L884.5956,294.6132 L888.9912,289.4292 L885.1356,289.3428 L882.6084,291.06 L874.3248,289.0512 L868.8384,293.9976 L869.2272,301.8384 L865.9872,306.0828 L868.0284,316.1808 Z M897.7824,305.1 L896.8644,308.34 L905.8392,307.422 L905.8392,305.1 L897.7824,305.1 Z M899.856,284.2128 L896.8536,287.172 L895.7196,294.5376 L899.856,295.542 L898.938,289.062 L901.3356,286.0596 L899.856,284.2128 Z M920.16,303.8364 L918.9612,297.4536 L909.1332,298.8468 L920.16,303.8364 Z M919.5012,309.15 L933.228,314.82 L935.6904,321.8184 L931.1328,324.6048 L942.84,328.7196 L942.84,305.6076 L933.3036,300.6396 L924.48,307.854 L915.0732,304.1496 L913.9932,309.3336 L919.5012,309.15 Z M878.6772,156.6972 L869.4216,149.1372 L865.3284,152.9172 L870.858,164.8728 L877.5432,164.4084 L878.6772,156.6972 Z M869.4216,149.1372 L865.3284,145.7892 L870.6204,145.098 L869.724,134.46 L856.1268,143.8236 L860.112,151.3836 L865.3608,152.8524 L869.4216,149.1372 Z M857.5416,271.1772 L850.176,281.0916 L833.22,288.9 L836.7084,291.06 L852.9084,287.442 L857.7468,278.2944 L863.7192,277.668 L863.7192,270.648 L857.5416,271.1772 Z M801.1656,271.1772 L804.1248,280.7676 L816.2856,291.1356 L817.2252,287.4528 L805.7448,270.486 L801.1656,271.1772 Z M947.16,330.2316 L955.3248,322.7364 L965.9088,333.0612 L975.564,335.0268 L963.576,323.0712 L964.1592,316.7532 L942.84,305.6184 L942.84,328.7304 L947.16,330.2316 Z M969.5592,317.8548 L973.8792,320.4252 L981.3096,316.2456 L981.3096,311.9256 L969.5592,317.8548 Z M975.5532,305.7156 L984.1932,311.9256 L987.66,310.7484 L978.858,305.4996 L975.5532,305.7156 Z M795.0204,213.9156 L785.7,198.3852 L788.0976,191.8296 L782.6976,189.5184 L775.4616,194.724 L772.0596,218.268 L777.4596,222.7608 L779.5116,233.5608 L783.3024,234.6948 L786.024,231.2928 L791.0784,236.9952 L793.8864,247.4064 L793.2276,258.2064 L797.5476,249.6852 L789.7284,221.4972 L795.0204,217.6632 L795.0204,213.9156 Z M810.6588,227.1564 L816.912,235.656 L811.08,241.5528 L824.1912,241.5528 L824.1912,238.2156 L811.3716,224.64 L808.542,215.9028 L799.6752,211.5828 L794.988,213.9588 L794.988,217.62 L799.5672,220.2984 L799.5672,227.2212 L810.6588,227.1564 Z M799.6104,227.1564 L799.6104,220.2336 L794.988,217.62 L789.696,221.454 L797.5152,249.642 L793.1952,258.1632 L792.936,262.4076 L800.496,268.8336 L801.2196,271.188 L805.7988,270.5076 L798.4332,259.6536 L800.1504,242.8596 L808.434,251.0676 L808.434,244.188 L816.8688,235.7316 L810.6156,227.232 L799.6104,227.1564 Z M808.4772,244.1232 L808.4772,251.0028 L812.6136,255.1176 L817.2576,254.4804 L824.1804,249.2964 L824.1804,241.542 L811.08,241.542 L808.4772,244.1232 Z M811.4148,224.6076 L824.1804,238.1832 L824.1804,249.2748 L817.2576,254.4588 L817.4304,261.8676 L830.6712,253.1304 L830.2176,240.1704 L816.372,225.5796 L817.0524,217.5876 L821.9772,214.8012 L811.3068,205.6752 L799.6752,211.5612 L808.542,215.8812 L811.4148,224.6076 Z M756.216,196.3332 L753.2784,197.7048 L757.4364,210.8376 L760.1148,208.2456 L772.0704,218.268 L772.8372,212.868 L766.5624,207.0036 L765.4824,199.9836 L760.4712,202.0356 L756.216,196.3332 Z M760.536,195.4368 L753.3,193.6332 L754.3044,189.0972 L752.2308,188.3736 L747.792,195.4368 L723.438,186.2136 L723.5028,178.4376 L717.4224,176.2776 L716.688,162.54 L711.3744,160.1208 L706.4712,160.1208 L699.192,165.294 L698.9976,169.7004 L703.404,172.26 L705.4992,180.9 L695.9304,189.7128 L689.8068,189.7128 L689.8068,196.1928 L694.386,197.9316 L694.386,203.5476 L686.1132,205.7076 L686.8152,206.5392 L693.6516,208.6992 L690.4116,211.9392 L693.4356,215.8596 L698.8356,216.4968 L699.7968,212.004 L701.9568,212.004 L719.3664,262.0836 L730.4148,255.2904 L732.24,235.2132 L757.4472,210.8592 L753.2892,197.7264 L756.2268,196.3548 L760.5468,202.0896 L765.558,200.0376 L766.638,207.0576 L772.9128,212.922 L775.44,194.7564 L782.676,189.5508 L770.4936,184.2912 L762.2208,191.8512 L760.536,195.4368 Z M723.5028,178.4376 L723.438,186.2136 L747.792,195.4368 L752.2308,188.3736 L723.5028,178.4376 Z M754.3044,189.0972 L753.3,193.6332 L760.536,195.4368 L762.2748,191.8404 L754.3044,189.0972 Z M616.302,130.9284 L621.4644,135.2484 L628.0416,133.434 L633.8628,138.294 L632.88,125.6472 L641.8548,123.5736 L653.6808,131.6844 L663.5736,129.7836 L670.8096,139.3308 L677.7972,139.0176 L684.6336,133.4016 L700.758,132.6996 L711.0828,137.484 L708.4044,125.0424 L724.4856,112.7844 L715.2084,107.3844 L661.1328,88.29 L639.8244,93.096 L639.8244,102.7296 L602.0244,102.7296 L602.0244,115.182 L607.0788,121.5 L617.8788,117.18 L624.3588,121.5 L616.5396,125.2908 L616.302,130.9284 Z M657.72,160.6608 L654.102,154.7964 L639.9648,150.3144 L631.6164,153.1008 L631.4652,156.816 L620.8164,156.816 L614.952,146.4588 L600.912,147.8412 L600.912,151.9776 L617.9004,180.9 L622.9548,181.386 L634.6944,193.6332 L656.2944,200.1132 L662.2884,200.1132 L666.6084,192.6396 L661.7916,186.6024 L654.8904,166.6008 L657.72,160.6608 Z M633.906,138.2832 L628.0848,133.4232 L621.5076,135.2376 L632.0052,143.8776 L631.6164,153.0576 L639.9648,150.2712 L654.1236,154.7532 L657.7416,160.6176 L671.1876,153.7164 L649.0152,135.972 L639.576,135.972 L633.906,138.2832 Z M689.85,189.648 L695.9736,189.648 L705.5424,180.8352 L703.4472,172.1952 L699.03,169.7004 L699.2244,165.294 L706.5036,160.1208 L711.4068,160.1208 L701.19,155.4552 L690.3144,157.0212 L686.88,171.9792 L674.3088,183.6 L660.8196,183.4704 L661.8996,186.5268 L666.7164,192.564 L662.3964,200.0376 L681.156,200.0376 L686.124,205.6968 L694.3968,203.5368 L694.3968,197.9208 L689.8176,196.182 L689.85,189.648 Z M653.6916,131.6952 L641.8656,123.5844 L632.88,125.6472 L633.8844,138.2724 L639.6084,136.026 L649.0152,136.026 L671.1876,153.7704 L678.4452,155.7144 L675.1512,145.9944 L685.4544,143.0352 L686.0376,138.6504 L670.8312,139.32 L663.5952,129.7728 L653.6916,131.6952 Z M657.72,160.6608 L654.9768,166.5252 L660.798,183.4704 L674.2872,183.6 L686.88,171.99 L690.3252,157.0428 L688.1004,150.7464 L678.4668,155.7036 L671.2092,153.7596 L657.72,160.6608 Z M687.1716,147.8412 L678.5316,145.0332 L675.1728,146.0052 L678.4668,155.7252 L688.1004,150.768 L690.3252,157.0644 L701.2008,155.4984 L699.5916,154.764 L696.4164,146.988 L687.1716,147.8412 Z M684.6012,133.38 L677.7648,138.996 L685.9944,138.6288 L685.4112,143.0136 L678.4668,145.0008 L687.1068,147.8088 L696.3624,146.934 L694.926,143.4456 L711.0288,137.4624 L700.704,132.678 L684.6012,133.38 Z M602.0352,141.4584 L608.202,147.0852 L614.9088,146.4264 L610.2,138.2292 L605.1456,136.9764 L602.0352,141.4584 Z M588.7728,139.1256 L597.9204,141.4584 L602.0352,141.4584 L605.1888,136.944 L593.514,131.652 L588.7836,132.678 L588.7728,139.1256 Z M600.8688,147.7656 L608.1912,147.042 L602.0244,141.4152 L597.9096,141.4152 L600.8688,147.7656 Z M531.1656,77.6952 L528.7464,78.2676 L529.3728,78.732 L528.6924,81.8424 L521.8992,78.732 L521.8992,82.7604 L531.1548,85.1256 L537.84,88.1712 L540.4104,86.0112 L539.4708,79.38 L536.0904,80.46 L531.1656,77.6952 Z M521.9316,87.4152 L527.04,89.1 L528.4548,92.0268 L529.5348,95.148 L537.7428,88.1928 L531.0792,85.1472 L521.8236,82.782 L521.9316,87.4152 Z M548.1432,86.022 L540.3888,86.022 L529.5888,95.1804 L531.36,99.9 L546.804,102.3624 L556.4376,100.2564 L550.7028,97.9236 L554.148,95.7636 L548.1432,86.022 Z M526.6404,73.98 L525.8304,76.0536 L528.7464,78.2136 L531.1656,77.6412 L536.0904,80.46 L539.4708,79.38 L538.3908,71.928 L536.4684,73.7424 L526.6404,73.98 Z M546.7716,102.2976 L531.36,99.9 L532.3212,102.5784 L526.7916,109.4688 L526.7916,113.3676 L547.6788,113.3676 L549.72,117.18 L546.102,122.85 L549.2772,124.1784 L550.1304,121.5432 L562.5072,121.5432 L559.764,124.3836 L563.5764,126.5436 L568.7172,126.144 L563.76,119.88 L576.612,117.1476 L579.852,109.7928 L556.3512,100.224 L546.7716,102.2976 Z M517.32,42.012 L495.72,57.8772 L495.72,71.982 L492.7392,76.6476 L500.8824,86.022 L514.1664,74.2608 L507.9564,66.5496 L521.9964,51.2676 L524.7612,51.2676 L520.9488,42.012 L517.32,42.012 Z M479.2176,77.7168 L491.8752,75.6432 L492.75,76.6476 L495.72,71.9928 L495.72,57.8772 L517.32,42.012 L529.2972,42.012 L529.2972,38.0592 L517.0284,38.6856 L474.9084,67.8456 L479.2176,77.7168 Z M529.362,42.012 L520.9272,42.012 L524.718,51.3 L526.9428,51.3 L520.2144,66.5388 L528.12,70.47 L540,70.47 L546.7284,62.7048 L535.6152,37.7352 L529.362,38.0484 L529.362,42.012 Z M892.188,111.402 L896.3244,111.402 L881.7336,96.4548 L877.5972,96.336 L889.3152,110.8296 L895.05,121.5216 L899.316,121.5216 L892.188,111.402 Z M527.04,89.1 L521.8776,87.3828 L521.8776,90.8172 L528.4332,92.0268 L527.04,89.1 Z M835.6392,37.422 L831.6756,32.022 L807.1704,28.0152 L800.28,34.2468 L780.4512,34.2468 L772.2,28.0368 L727.326,28.0368 L724.5612,18.1548 L683.1648,18.1548 L646.6716,34.4736 L654.6636,44.3664 L647.7624,51.4944 L641.52,31.1256 L630.5148,30.2508 L635.8068,42.2928 L593.244,43.4376 L553.4784,59.7672 L548.2296,49.7664 L563.3496,50.3388 L570.7152,46.656 L541.7388,37.4112 L535.572,37.7244 L546.7284,62.694 L540,70.47 L538.3692,71.9928 L539.4492,79.4448 L540.3672,85.9896 L548.1216,85.9896 L554.094,95.7096 L550.6488,97.8696 L556.3836,100.2024 L579.8844,109.7712 L576.6444,117.126 L578.1888,120.8088 L574.398,121.8888 L575.0568,127.9368 L588.7836,132.7428 L593.514,131.7168 L605.1888,137.0088 L610.2432,138.2616 L607.0896,132.7428 L607.0896,121.5 L602.0352,115.182 L602.0352,102.762 L639.8352,102.762 L639.8352,93.1284 L661.1436,88.3224 L715.2084,107.3844 L724.4856,112.7844 L735.9012,104.0904 L751.194,108.7452 L755.3304,99.4356 L792.936,108.7452 L811.296,108.7452 L818.1972,107.3628 L814.5144,94.4028 L830.6172,94.4028 L847.1736,110.6028 L869.7024,116.3484 L869.7024,134.514 L879.5736,132.7752 L884.8872,124.848 L884.8872,110.1492 L869.7024,92.8692 L854.9928,92.6424 L857.52,74.4984 L887.868,74.7252 L891.162,64.4112 L903.96,69.2712 L903.96,64.5192 L907.1352,64.8432 L912.6648,70.1352 L907.3296,73.764 L906.6924,84.618 L928.2924,105.138 L928.2924,85.3092 L916.1316,73.5804 L945,64.4328 L945.3672,61.4844 L930.852,57.5424 L936.5112,53.136 L949.4712,55.8144 L958.2732,55.9872 L951.21,48.4272 L905.85,39.4524 L835.6392,37.422 Z M512.0172,114.4044 L506.682,118.7244 L514.4364,121.608 L522.7092,120.1824 L529.2648,113.292 L526.6728,113.292 L526.6728,111.6612 L512.0172,114.4044 Z M508.0536,110.7 L512.0172,114.4476 L526.662,111.7476 L526.662,109.4796 L513.378,107.8704 L512.8164,107.6544 L508.0536,110.7 Z M480.0816,121.3596 L484.8336,121.7052 L489.1536,120.7116 L487.6092,116.0568 L483.5592,116.0568 L480.9132,117.18 L480.0816,121.3596 Z M498.2796,110.7 L507.9996,110.7 L512.7732,107.6544 L503.4312,103.9716 L495.0828,106.5636 L498.2796,110.7 Z M432.6588,155.5956 L434.5812,155.736 L436.806,137.0304 L429.57,135.8208 L429.2028,149.5044 L432.6588,155.5956 Z M545.94,122.8716 L549.558,117.2016 L547.56,113.3244 L541.3716,113.3244 L545.94,122.8716 Z M528.4008,92.016 L521.8452,90.8064 L514.944,91.0332 L513.378,89.5968 L503.4852,92.016 L502.6104,92.016 L503.4852,103.896 L512.8488,107.5788 L513.3888,107.7948 L526.6728,109.404 L532.2024,102.5136 L531.2412,99.8352 L529.524,95.1156 L528.4008,92.016 Z M529.254,113.3244 L522.72,120.2256 L528.5844,129.9456 L543.24,128.2932 L547.4196,129.438 L549.1368,124.1352 L545.9616,122.8068 L541.3824,113.3136 L529.254,113.3244 Z M502.5888,92.0052 L489.888,91.8648 L489.3048,89.6076 L484.8444,89.6076 L485.7408,91.7676 L479.0556,95.7744 L478.44,107.3196 L482.49,109.4796 L480.8808,117.2556 L483.516,116.046 L492.9444,116.046 L493.7544,115.8084 L500.5908,113.7996 L498.2796,110.7 L495.126,106.5636 L503.4744,103.9716 L502.5888,92.0052 Z M484.8552,89.5968 L489.3156,89.5968 L489.078,88.6464 L490.536,80.46 L486.5292,80.46 L483.678,86.886 L484.8552,89.5968 Z M496.7352,86.7348 L494.2296,84.2508 L492.0048,85.1688 L491.3244,88.6896 L495.4824,88.6896 L496.7352,86.7348 Z M500.6124,113.7348 L492.966,115.9812 L487.566,115.9812 L489.1104,120.636 L497.2752,118.746 L506.6604,118.746 L510.5808,115.506 L511.9956,114.3612 L508.032,110.6136 L498.312,110.6136 L500.6124,113.7348 Z M505.278,150.984 L496.9944,150.984 L496.9944,153.0576 L500.1048,155.2176 L505.2888,156.0168 L505.278,150.984 Z M483.5484,139.32 L483.5484,147.8304 L487.512,147.8304 L487.512,140.4756 L483.5484,139.32 Z M480.0816,121.2948 L479.3364,124.956 L484.1316,127.116 L489.7044,127.116 L506.844,144.2124 L507.7188,151.4916 L510.8724,149.6556 L511.8552,144.4284 L515.754,143.6508 L494.8452,125.5608 L500.7744,125.2044 L497.3076,118.7244 L484.8444,121.608 L480.0816,121.2948 Z M485.5464,133.4664 L485.5464,136.9764 L487.512,137.7216 L488.3868,133.4664 L485.5464,133.4664 Z M446.04,111.9528 L446.04,114.48 L453.1464,118.3248 L454.086,130.9284 L464.6268,137.6676 L467.8668,133.4556 L483.2892,133.5636 L483.7428,127.0836 L484.1532,127.0836 L479.358,124.9236 L482.598,109.3932 L468.558,102.0708 L452.1096,111.9312 L446.04,111.9528 Z M472.446,99.7488 L468.4932,102.06 L476.3556,106.164 L478.602,104.9544 L478.6884,103.0536 L472.446,99.7488 Z M478.7208,103.0752 L479.1096,95.7528 L472.446,99.738 L478.7208,103.0752 Z M476.388,106.1856 L478.548,107.2656 L478.656,104.9436 L476.388,106.1856 Z M450.6408,88.2576 L450.7272,93.5496 L447.12,95.58 L450.36,100.224 L443.88,106.3584 L452.4228,104.8032 L461.1168,103.4208 L461.6784,100.1808 L463.32,100.1808 L463.7088,96.6168 L458.0712,95.4288 L451.0296,79.2288 L445.6296,79.0668 L445.6296,87.7824 L450.6408,88.2576 Z M443.826,92.0808 L443.826,88.6248 L437.5296,88.2036 L441.1476,93.0312 L443.826,92.0808 Z M431.1468,92.88 L431.1468,102.3084 L434.7648,102.3084 L434.7648,99.0684 L441.666,100.0188 L441.1476,93.0312 L437.5296,88.2036 L431.1468,92.88 Z M434.6136,155.682 L449.7336,156.762 L464.5944,137.7 L454.0536,130.9608 L429.678,131.1336 L429.57,135.7884 L436.806,136.998 L434.6136,155.682 Z M468.0936,147.6252 L468.0936,143.5752 L463.32,147.636 L468.0936,147.6252 Z M523.2708,142.9164 L532.8396,139.8168 L530.6796,134.676 L522.7956,136.2204 L523.2708,142.9164 Z M517.212,121.1544 L518.9724,130.8744 L522.7632,136.1664 L530.6472,134.622 L528.6384,129.9024 L522.774,120.1824 L517.212,121.1544 Z M500.8284,125.2044 L501.7032,125.2044 L506.196,122.85 L508.2264,119.3616 L506.7252,118.8 L497.34,118.8 L500.8284,125.2044 Z M548.5752,144.18 L541.4472,144.126 L547.3116,155.9196 L574.3116,157.41 L600.804,152.01 L600.804,147.8736 L597.8448,141.5232 L588.6972,139.1904 L551.772,140.4 L548.5752,144.18 Z M541.4256,141.5016 L548.0028,141.5016 L545.346,135.7776 L541.3608,137.0628 L541.4256,141.5016 Z M511.92,133.8336 L514.296,134.4276 L518.8536,130.9392 L517.5684,123.7572 L507.8484,125.0748 L511.92,133.8336 Z M519.6096,144.0612 L522.6552,147.5712 L528.5196,149.2128 L524.9448,150.7248 L529.6752,156.6756 L532.656,151.9668 L529.3404,144.72 L535.9392,141.48 L541.3392,141.48 L541.2744,137.052 L519.6096,144.0612 Z M514.3824,121.6404 L508.1832,119.34 L506.1528,122.8284 L501.66,125.1828 L503.226,125.0856 L510.4836,133.4772 L511.9848,133.8552 L507.8916,125.0856 L517.6116,123.768 L517.1364,121.1868 L514.3824,121.6404 Z M517.1472,135.1296 L520.5708,133.3044 L518.8536,130.9284 L514.35,134.46 L519.1236,143.478 L519.6636,144.1044 L523.2168,142.9596 L522.6984,136.2636 L520.6248,133.3476 L517.1472,135.1296 Z M532.7856,139.86 L545.3352,135.7992 L547.3872,129.4704 L543.24,128.2932 L528.5952,129.9564 L532.7856,139.86 Z M626.4,200.1024 L629.316,202.0248 L631.2276,200.0592 L627.8904,195.3504 L626.4,200.1024 Z M568.3392,160.38 L560.6496,163.2312 L566.1576,164.6136 L568.3392,160.38 Z M573.2856,170.2188 L573.2856,184.0428 L576.18,184.3884 L580.5,182.3796 L581.8284,174.6144 L585.1872,173.1888 L585.36,173.1132 L584.3772,168.9876 L577.4544,173.1132 L573.2856,170.2188 Z M625.5036,199.4544 L617.9436,187.0344 L614.628,187.0344 L612.252,183.9564 L605.772,183.9564 L585.252,173.2212 L581.8716,174.6468 L580.5648,182.412 L576.2448,184.4208 L573.372,184.0752 L600.1668,230.634 L600.7068,232.3728 L603.4932,227.5992 L613.008,228.798 L612.1332,232.416 L625.6008,225.3528 L644.5548,220.2768 L644.5548,210.4056 L634.5864,208.98 L631.584,203.472 L625.5036,199.4544 Z M609.2064,183.9348 L612.2304,183.9348 L614.5848,187.0128 L617.9004,187.0128 L613.872,180.4572 L610.092,180.4572 L609.2064,183.9348 Z M589.9716,165.672 L584.3556,169.02 L585.4356,173.34 L605.7612,183.9672 L609.2496,183.9672 L610.1244,180.5112 L617.598,180.5112 L600.804,152.0424 L593.0928,153.6192 L589.9716,165.672 Z M638.7876,204.9084 L631.5948,203.4936 L634.5972,209.0016 L640.17,209.79 L648.0972,201.7332 L644.4792,198.4932 L638.7876,204.9084 Z M640.1592,209.79 L644.4792,210.3948 L644.4792,220.266 L634.9428,222.8148 L634.9428,228.5496 L640.2564,232.146 L657.8172,210.384 L648.0972,201.744 L640.1592,209.79 Z M576.4392,164.43 L573.3072,170.2188 L577.4652,173.1132 L589.9932,165.6396 L593.082,153.5328 L574.3008,157.3668 L573.0372,163.2528 L576.4392,164.43 Z M625.5252,225.3204 L612.036,232.416 L612.9108,228.798 L603.396,227.5992 L600.6096,232.3728 L605.3616,247.8816 L640.2348,232.1568 L634.9212,228.5604 L634.9212,222.8256 L625.5252,225.3204 Z M573.3072,170.2404 L576.4392,164.4516 L573.0372,163.2744 L571.7952,169.1604 L573.3072,170.2404 Z M573.2208,184.2804 L573.3072,184.0752 L573.3072,170.2512 L571.7844,169.1712 L569.3868,178.0272 L573.2208,184.2804 Z M601.8732,381.6288 L605.5128,390.2688 L614.2284,390.6576 L629.0676,343.0404 L623.7756,343.0404 L606.4956,360.9468 L604.8,373.3236 L601.8732,381.6288 Z M506.034,264.6648 L503.5068,257.1912 L508.5612,257.1912 L502.3296,243.9504 L502.3296,251.2728 L493.3764,269.8164 L485.5572,270.27 L484.4772,277.8948 L487.8576,277.8948 L487.6848,285.6924 L509.2848,285.6924 L510.246,282.9276 L510.246,282.9276 L503.766,273.8448 L506.034,264.6648 Z M493.614,291.3732 L487.5552,291.3732 L487.3608,300.6504 L495.1368,311.04 L495.1368,302.1516 L505.116,302.1516 L500.04,285.66 L487.728,285.66 L487.5768,291.3408 L493.614,291.3732 Z M473.3748,271.7928 L474.7464,277.8948 L484.4664,277.8948 L485.5464,270.27 L493.3656,269.8164 L502.3188,251.2728 L502.3188,243.9504 L468.8388,243.9504 L463.4388,270.3348 L473.3748,271.7928 Z M423.9216,266.7384 L426.384,269.46 L426.384,280.962 L444.636,275.6916 L444.636,258.8652 L426.816,255.3552 L426.816,264.222 L423.9216,266.7384 Z M426.384,281.0052 L426.384,269.46 L419.7852,262.0296 L413.9424,267.5376 L426.384,281.0052 Z M536.2416,334.6812 L529.9452,331.5708 L529.9452,320.1012 L522.828,320.1012 L521.3916,325.1556 L514.3068,325.3932 L512.46,319.032 L501.1956,319.1184 L501.1956,344.2392 L494.7696,354.8232 L495.3312,361.7244 L535.0644,361.7244 L528.5844,353.6676 L528.5844,344.6928 L536.5116,344.6928 L536.2416,334.6812 Z M457.0128,272.16 L454.0536,254.0808 L444.636,254.0808 L444.636,275.6808 L457.0128,272.16 Z M500.04,285.66 L505.1376,302.1084 L495.1584,302.1084 L495.1584,310.9968 L499.0788,316.224 L508.5936,311.904 L518.5944,295.3044 L520.182,282.9276 L510.246,282.9276 L509.2848,285.6924 L500.04,285.66 Z M592.9956,240.0624 L598.8816,249.3828 L601.128,247.4928 L586.1808,221.94 L578.4696,240.1488 L592.9956,240.0624 Z M413.964,267.5808 L419.7852,262.0728 L413.8128,255.3444 L408.0132,261.1656 L413.964,267.5808 Z M600.48,255.4956 L604.2276,252.7956 L601.1604,247.5252 L596.6892,251.2728 L600.48,255.4956 Z M572.7672,339.1524 L572.7672,344.682 L577.6056,347.922 L577.6056,354.78 L573.0048,358.8084 L573.0048,350.73 L568.404,346.9608 L568.2744,347.0472 L559.5804,353.106 L568.2744,358.8084 L568.2744,366.7788 L562.8744,379.5012 L562.8744,393.5412 L566.8164,393.4764 L567.0756,391.5648 L575.2404,385.8624 L574.56,368.82 L593.7084,353.1168 L591.7968,335.2104 L572.7672,339.1524 Z M604.2276,252.7524 L600.48,255.4524 L604.2924,259.7724 L619.4772,265.1724 L595.7172,284.9148 L595.7172,302.0976 L632.88,258.8976 L631.3572,251.3376 L605.5236,255.1716 L604.2276,252.7524 Z M509.49,401.6196 L523.8,401.6196 L523.8,365.1372 L542.7324,365.1372 L540.27,361.7136 L495.3312,361.7136 L509.49,401.6196 Z M580.1328,276.7716 L573.6528,277.6896 L575.5212,285.7032 L574.6032,292.4964 L571.6872,297.6372 L589.464,309.42 L595.7172,302.1192 L595.7172,284.904 L602.64,279.18 L582.39,279.18 L580.1328,276.7716 Z M571.6548,297.6372 L570.5748,299.5812 L564.1704,299.5812 L565.8228,296.7516 L562.9068,296.7516 L556.3512,312.9516 L568.2312,329.724 L572.724,329.724 L572.724,339.1308 L591.786,335.1672 L589.464,309.42 L571.6548,297.6372 Z M425.7792,195.9012 L415.1952,195.9012 L415.1952,208.0404 L411.2964,213.948 L398.2284,213.948 L397.7532,227.5884 L413.8128,239.1336 L413.8128,235.008 L433.08,235.008 L431.2332,202.068 L441.4068,202.068 L425.7036,190.4796 L425.7792,195.9012 Z M560.2176,303.3612 L562.8744,296.7624 L557.2152,296.7624 L555.4116,304.3224 L560.2176,303.3612 Z M556.3188,312.9948 L560.2176,303.3612 L555.4224,304.3656 L554.1156,309.8736 L556.3188,312.9948 Z M401.8788,254.502 L408.0672,261.1872 L413.8668,255.366 L419.8392,262.0944 L423.9756,266.76 L426.87,264.2328 L426.87,255.366 L425.4768,249.048 L407.1168,249.048 L401.8788,254.502 Z M433.1988,235.062 L413.8128,235.062 L413.8128,239.1984 L418.1328,249.0912 L425.3688,249.0912 L426.762,255.4092 L435.672,257.1696 L435.672,248.238 L469.8756,234.3816 L469.8756,223.02 L441.4068,202.0464 L431.2332,202.0464 L433.1988,235.062 Z M552.096,337.1652 L558.9972,339.93 L556.5996,344.7468 L536.3172,334.746 L536.5764,344.7468 L528.6492,344.7468 L528.6492,353.7 L535.1292,361.7568 L547.2684,361.7568 L568.2744,347.1228 L568.2744,329.8428 L565.6392,326.1384 L554.1048,327.78 L552.096,337.1652 Z M523.8,388.6164 L529.5348,395.2368 L552.96,379.5336 L542.7216,365.1372 L523.8,365.1372 L523.8,388.6164 Z M435.726,257.1048 L444.636,258.8652 L444.636,254.0916 L454.0644,254.0916 L465.0048,250.02 L454.5504,240.5052 L435.726,248.13 L435.726,257.1048 Z M568.2204,329.7564 L568.2204,347.0364 L568.35,346.95 L572.9508,350.7192 L572.9508,358.7976 L577.5516,354.7692 L577.5516,347.868 L572.7132,344.628 L572.7132,329.7564 L568.2204,329.7564 Z M598.8708,249.4152 L592.9848,240.0948 L578.4696,240.0948 L568.2096,264.3192 L582.39,279.18 L602.64,279.18 L619.4556,265.14 L604.2708,259.74 L596.7108,251.2404 L598.8708,249.4152 Z M557.2152,296.7516 L565.7796,296.7516 L568.2204,292.4856 L574.56,292.4856 L575.478,285.6924 L573.6096,277.6788 L561.3408,279.396 L557.2152,296.7516 Z M469.9296,223.02 L469.9296,234.306 L454.5504,240.5376 L465.0264,250.0524 L467.7696,249.048 L468.8496,243.9504 L502.3296,243.9504 L509.8896,228.4416 L506.9088,208.0296 L492.0048,208.0296 L469.9296,223.02 Z M398.2392,213.9372 L411.2856,213.9372 L415.206,208.0296 L415.206,195.8904 L425.79,195.8904 L425.79,188.5248 L414.1368,188.5248 L398.412,208.98 L398.2392,213.9372 Z M397.278,240.8616 L407.8404,243.9504 L397.17,243.9504 L396.9756,249.0264 L418.176,249.0264 L413.856,239.1336 L397.7964,227.5884 L397.278,240.8616 Z M407.8404,243.9504 L397.278,240.8616 L397.17,243.9504 L407.8404,243.9504 Z M509.868,228.42 L502.308,243.9288 L508.5396,257.1696 L503.4852,257.1696 L506.0124,264.6432 L531.0252,252.8172 L531.0252,239.976 L536.598,234.4896 L537.1596,221.9832 L515.4408,208.0404 L506.898,208.0404 L509.868,228.42 Z M509.9328,177.66 L505.3752,172.1304 L495.5904,169.776 L486.486,179.5716 L492.3936,207.9756 L515.4624,207.9756 L537.1812,221.94 L539.3412,173.88 L526.662,172.26 L521.4348,180.0792 L509.9328,177.66 Z M423.9432,188.46 L425.79,188.46 L425.79,186.894 L452.0016,172.584 L452.0016,162.3132 L432.6804,164.322 L414.1368,188.46 L423.9432,188.46 Z M452.0232,162.3348 L452.0232,172.6056 L425.8116,186.9156 L425.8116,190.4256 L469.9296,223.02 L492.0156,208.0296 L492.4044,208.0296 L481.6044,156.2652 L468.9252,155.898 L452.0232,162.3348 Z M481.6476,156.2112 L486.5076,179.604 L495.612,169.8084 L492.0372,168.9552 L492.4908,156.5352 L481.6476,156.2112 Z M540.216,361.7136 L552.96,379.5336 L562.8096,379.5336 L568.2096,366.8112 L568.2096,358.8408 L559.5156,353.1384 L547.2036,361.7028 L540.216,361.7136 Z M546.0372,410.2488 L551.0916,410.2488 L554.094,407.1168 L554.094,403.11 L549.9576,403.11 L546.0372,405.6372 L546.0372,410.2488 Z M562.7664,392.3208 L558.9108,392.3208 L558.9108,395.82 L562.7664,398.1312 L562.7664,392.3208 Z M573.1344,184.4316 L573.1992,184.248 L569.3652,178.0056 L539.298,173.9232 L537.6888,210.3732 L570.6504,210.3732 L577.2924,206.5824 L563.6304,183.06 L571.104,189.1512 L573.1344,184.4316 Z M577.2924,206.604 L570.6504,210.3948 L537.678,210.3948 L536.598,234.4896 L531.0252,239.976 L531.0252,252.8496 L550.7568,275.5296 L561.3192,279.3852 L580.0788,276.75 L568.1988,264.3084 L578.4588,240.084 L586.1808,221.94 L577.2924,206.604 Z M554.094,309.8628 L561.33,279.4068 L550.8,275.5512 L521.0028,276.3828 L518.5836,295.3152 L508.5828,311.9148 L499.068,316.2348 L501.228,319.086 L512.4924,318.9996 L514.3392,325.3608 L521.424,325.1232 L522.8604,320.0688 L529.9668,320.0688 L529.9668,331.5492 L556.5456,344.6604 L558.9432,339.8436 L552.042,337.0788 L554.1156,327.7584 L565.596,326.0196 L554.094,309.8628 Z M503.7228,273.8556 L510.2028,282.9384 L520.182,282.9384 L521.0136,276.3828 L550.8108,275.5512 L531.0792,252.8712 L506.0664,264.6972 L503.7228,273.8556 Z M467.7588,249.0156 L458.4168,252.4392 L461.484,270.7992 L463.374,270.2592 L467.7588,249.0156 Z M458.4168,252.4392 L454.0968,254.0484 L457.056,272.1276 L461.5272,270.8424 L458.4168,252.4392 Z M401.8032,254.448 L407.0088,248.9832 L396.9864,248.9832 L396.9864,249.2208 L401.8032,254.448 Z M109.89,39.6684 L102.0708,36.4284 L61.1388,36.6552 L44.5824,43.3512 L44.5824,50.706 L25.92,50.4792 L22.4208,55.404 L38.1348,54.8424 L17.8956,62.4024 L8.1324,75.6864 L16.5348,75.546 L0.4212,86.1192 L6.3072,86.5836 L37.1304,71.82 L72.7056,70.578 L83.5056,81.378 L87.588,76.9824 L84.024,73.2996 L80.0064,73.2996 L76.0752,68.796 L109.89,39.636 L109.89,39.6684 Z M83.16,108.1188 L77.5224,103.518 L75.1032,105.5916 L79.0128,110.7 L83.16,110.7 L83.16,108.1188 Z M299.052,115.236 L294.84,108.54 L291.0276,107.6328 L291.0276,102.816 L278.7264,115.236 L299.052,115.236 Z M292.626,37.476 L267.84,27.3564 L264.1572,27.3564 L255.5172,34.4088 L258.39,27.3132 L254.232,27.3132 L244.2312,37.9512 L268.542,36.6336 L283.3812,49.9176 L273.402,49.7448 L268.3692,53.8704 L257.1372,53.8704 L257.1372,57.1104 L268.6392,57.1104 L278.3592,65.1672 L281.016,64.0116 L278.7264,58.86 L285.4332,62.1 L287.5932,61.1496 L287.5932,51.0408 L295.3044,53.784 L299.7432,50.8248 L297.2376,46.1484 L292.7772,44.5284 L292.626,37.476 Z M209.3904,127.71 L216.5184,127.71 L221.4648,124.3188 L237.438,124.3188 L244.3392,118.3356 L250.56,118.3356 L248.3136,125.4096 L259.3404,123.5088 L252.1044,126.954 L252.7848,129.9456 L272.4516,123.0336 L262.8612,122.58 L258.39,118.5516 L262.8288,111.672 L260.6688,109.6092 L246.7692,115.9164 L246.7692,112.2984 L260.0748,105.9156 L281.3832,104.9976 L297.3996,96.4656 L297.486,92.5776 L285.8112,90.558 L284.364,71.4528 L269.0928,77.4576 L269.2008,68.4828 L261.8352,62.2188 L251.8344,62.2188 L224.8344,101.5848 L218.2788,101.5848 L218.4084,88.6248 L195.048,76.0104 L218.3544,58.7304 L231.5736,56.322 L228.8088,52.2396 L249.156,49.9932 L257.4396,41.3532 L249.6636,40.4892 L238.9716,47.5632 L240.1704,41.58 L235.1808,41.0616 L234.0036,33.7716 L225.3636,37.6164 L227.61,42.2712 L216,47.7792 L195.8256,43.9884 L185.1552,48.9888 L159.2352,38.6424 L109.7388,39.7224 L75.924,68.8824 L79.92,73.3752 L83.9376,73.3752 L87.48,77.058 L83.3976,81.4536 L79.272,100.3968 L86.6916,107.1252 L86.6916,110.7 L169.8516,110.7 L179.5716,115.1604 L196.1064,111.6504 L198.18,118.9836 L201.5172,121.446 L207.1332,121.0464 L209.3904,127.71 Z M239.2308,53.8164 L232.8912,58.968 L245.4192,60.2964 L246.7476,57.0564 L239.2308,53.8164 Z M214.7472,40.6728 L217.08,43.74 L222.9876,40.7268 L221.2272,37.9296 L214.7472,40.6728 Z M219.24,30.5532 L223.0092,34.3764 L231.1092,31.6764 L233.2692,26.0172 L219.24,30.5532 Z M234.684,28.2744 L235.764,31.8924 L246.7908,28.9656 L244.566,26.0064 L234.684,28.2744 Z M262.764,20.7684 L256.7268,18.2628 L250.8624,23.2632 L274.6224,25.1424 L280.8324,20.8224 L262.764,20.7684 Z M320.76,7.4088 L333.18,0.3996 L283.824,4.0608 L283.824,6.7284 L300.4668,6.3828 L298.08,9.4824 L280.8,9.828 L283.0464,13.7916 L275.616,12.582 L278.64,16.3836 L265.8744,16.3836 L267.786,18.2844 L281.7504,18.2844 L284.04,20.1744 L304.344,10.692 L320.76,7.4088 Z M260.3664,10.26 L269.5572,11.9988 L274.8276,8.6292 L271.0152,5.778 L260.3664,10.26 Z M163.3284,34.3872 L184.9284,27.0432 L179.9604,24.7428 L159.5484,29.9376 L163.3284,34.3872 Z M187.704,28.3824 L176.04,32.3352 L182.898,35.2188 L172.206,37.9404 L185.49,43.1136 L194.6376,39.15 L204.8328,41.58 L212.4576,39.8304 L205.0056,36.3852 L210.7404,28.9764 L205.0056,28.9764 L201.5604,33.4368 L200.1672,28.9764 L194.0868,31.3416 L187.704,28.3824 Z M170.8452,210.06 L181.44,210.06 L189.9828,215.7624 L186.7428,219.3804 L201.5604,219.3804 L183.8484,206.6148 L174.474,206.6148 L170.8452,210.06 Z M185.6844,225.936 L187.9092,227.8476 L194.292,227.8476 L194.292,225.6012 L192.0672,223.3548 L185.6844,223.3548 L185.6844,225.936 Z M224.9856,224.1756 L223.6788,226.3356 L227.2536,226.3356 L228.5604,224.1756 L224.9856,224.1756 Z M146.1456,233.4312 L140.1084,233.4312 L137.2464,238.5288 L145.7892,242.8488 L151.578,232.3944 L150.498,226.8216 L145.3248,226.8216 L146.1456,233.4312 Z M152.874,241.8876 L151.794,245.5488 L153.3492,246.2508 L167.6268,234.2952 L150.4224,234.468 L147.582,239.544 L152.874,241.8876 Z M151.794,245.5488 L152.874,241.8876 L147.6252,239.5548 L145.7892,242.7948 L151.794,245.5488 Z M157.194,221.7888 L150.4656,226.8 L151.5456,232.3728 L157.194,221.7888 Z M158.8356,253.5732 L168.1452,254.556 L167.6808,234.2952 L153.4032,246.2508 L158.8356,253.5732 Z M173.88,310.014 L181.494,313.6536 L195.0696,296.9892 L181.2348,289.0836 L174.6684,297.3564 L173.88,310.014 Z M201.852,251.0244 L198.1692,251.0244 L190.4796,261.414 L186.5592,261.6732 L187.6392,265.4424 L185.5872,268.3584 L187.1748,273.6288 L185.6736,283.4568 L181.2024,289.116 L212.814,307.1736 L212.814,286.8804 L220.158,286.3836 L220.158,270.3024 L208.0944,269.0604 L202.8456,263.2608 L201.852,251.0244 Z M252.0396,496.908 L256.7484,501.228 L271.2744,501.768 L255.5928,493.5816 L252.0396,496.908 Z M274.32,392.4936 L267.9804,396.3492 L259.4592,396.3492 L259.4592,388.7892 L242.0496,377.0064 L241.0668,378.81 L226.5732,378.81 L222.6744,415.0116 L230.8824,450.8892 L238.2912,464.0868 L238.6368,473.9796 L249.642,490.8384 L253.6488,491.2488 L251.5752,448.1352 L274.914,437.94 L264.33,423.2088 L264.33,407.0088 L274.6332,396.4248 L274.32,392.4936 Z M276.8904,427.8744 L281.9448,419.1156 L264.2976,407.0304 L264.2976,423.2304 L276.8904,427.8744 Z M227.772,256.7592 L219.9528,251.1864 L201.8304,251.0136 L202.9104,263.2392 L208.1592,269.0388 L220.2228,270.2808 L220.2228,286.362 L222.1452,286.2324 L224.586,291.6972 L232.4268,289.17 L231.7896,280.692 L242.2872,276.8364 L245.3976,261.5004 L241.866,258.12 L227.772,256.7592 Z M158.8464,253.584 L165.0456,261.954 L167.2812,262.7424 L170.424,258.6708 L168.264,257.4504 L168.1992,254.556 L158.8464,253.584 Z M256.2516,271.944 L245.3112,261.5328 L242.2008,276.8688 L246.7584,275.1948 L246.132,288.2844 L256.608,287.1072 L253.0332,277.938 L256.2516,271.944 Z M229.176,335.0916 L218.484,338.1156 L218.484,362.556 L226.5408,378.756 L241.0668,378.756 L246.726,368.388 L257.6664,368.3232 L257.4072,360.1368 L238.7772,344.9088 L229.176,335.0916 Z M266.0148,286.0704 L273.0348,285.282 L275.1084,279.396 L272.3436,273.3372 L266.4792,272.8404 L266.0148,286.0704 Z M257.6664,368.3556 L246.726,368.4204 L242.0604,376.9848 L259.47,388.7676 L259.47,396.3276 L267.9912,396.3276 L274.3308,392.472 L273.8988,386.478 L257.9688,377.9784 L257.6664,368.3556 Z M256.5864,287.0964 L265.9932,286.0164 L266.4684,272.7756 L256.23,271.8792 L252.99,277.8732 L256.5864,287.0964 Z M300.5964,300.2292 L292.68,296.7732 L284.7096,301.4388 L287.3016,294.4512 L282.0096,292.1616 L274.4496,297.9396 L279.9144,289.8828 L275.0976,279.3636 L273.024,285.2496 L246.1212,288.252 L246.7476,275.1624 L242.19,276.8364 L231.6924,280.692 L232.3296,289.17 L224.4888,291.6972 L222.048,286.2324 L212.7708,286.8588 L212.7708,310.7808 L203.3424,311.9364 L199.1844,325.4904 L214.9524,339.066 L229.1544,335.0592 L238.7448,344.9088 L257.4072,360.18 L257.9688,378 L273.8988,386.4996 L274.6008,396.4572 L264.2976,407.0412 L281.9448,419.1264 L292.2264,401.1984 L294.6456,385.668 L319.68,374.6088 L324.324,340.0488 L335.124,326.0088 L335.124,317.4876 L317.4984,306.0072 L300.2184,304.9272 L300.5964,300.2292 Z M177.2172,258.39 L174.2904,260.82 L170.4132,258.66 L167.2704,262.7316 L176.5044,266.0256 L178.74,262.6884 L184.032,263.2068 L185.5764,268.3044 L187.6284,265.3884 L186.6672,261.8568 L185.5116,257.634 L177.2172,258.39 Z M203.364,311.958 L212.7924,310.8024 L212.7924,307.1412 L195.0156,296.9892 L181.44,313.6536 L173.826,310.014 L173.5776,313.9128 L196.7112,353.3004 L216.6912,366.66 L218.4948,362.5236 L218.4948,338.1156 L214.9848,339.0984 L199.2168,325.5228 L203.364,311.958 Z M230.85,450.9 L222.642,415.0224 L226.5408,378.8208 L218.484,362.6208 L216.6912,366.66 L220.05,448.5888 L228.8952,455.7384 L229.3056,470.4264 L244.6416,490.2552 L249.6096,490.7736 L238.6044,473.9148 L238.2588,464.022 L230.85,450.9 Z M220.1364,221.292 L209.7036,220.1364 L209.7036,225.8928 L213.192,223.3008 L218.7648,223.3008 L220.1364,221.292 Z M209.7036,224.532 L209.7036,220.212 L203.2236,220.212 L205.3836,223.2144 L201.528,223.2144 L201.528,224.5644 L209.7036,224.532 Z M994.248,446.1804 L992.088,453.0384 L1007.7264,441.9036 L1003.2336,435.9096 L1003.2336,429.0516 L1000.6632,430.1316 L1000.6632,439.7652 L994.248,446.1804 Z M953.1216,468.666 L985.6728,452.1744 L985.6728,456.4944 L960.6168,472.986 L953.1216,468.666 Z M819.72,384.0588 L847.1304,371.2068 L867.4776,348.7212 L878.5908,353.7 L883.5156,343.4184 L902.1456,342.9864 L897.48,351.54 L912.9024,364.824 L923.184,354.5424 L923.184,340.1568 L927.8928,341.658 L933.2928,367.362 L950.0004,390.9168 L948.24,408.6936 L917.784,440.1756 L891.4428,438.6744 L888.2028,420.8976 L879.2064,424.7532 L870.642,417.258 L818.64,428.6088 L815.4,424.7532 L819.72,414.4716 L819.72,384.0588 Z" id="outer" stroke="#000000" stroke-width="1.62" fill="#BCBEC0" stroke-linecap="square"></path>
            <path d="M554.1048,407.1924 L551.1024,410.3244 L546.048,410.3244 L546.048,405.7236 L549.9684,403.1964 L554.1048,403.1964 L554.1048,407.2032 L554.1048,407.1924 Z M562.7448,393.7032 L562.7448,398.2392 L558.8892,395.928 L558.8892,392.3964 L562.7448,392.3964 L562.7448,379.62 L552.96,379.62 L529.524,395.3232 L523.7676,388.7028 L523.7676,401.6628 L509.49,401.6628 L517.7628,424.3428 L544.9032,424.3428 L565.7688,400.14 L566.7084,393.66 L562.7664,393.7248 L562.7448,393.7032 Z M195.2424,137.97 L200.6424,134.2872 L207.1224,134.2872 L201.7224,137.97 L195.2424,137.97 Z M244.4364,118.422 L237.5352,124.4052 L221.562,124.4052 L216.6156,127.7964 L220.428,127.7964 L215.1144,131.4252 L211.3236,131.4252 L216.6156,127.7964 L206.1828,127.7964 L201.6684,131.3064 L197.0676,131.7708 L197.9856,123.8328 L194.4,123.8328 L190.242,126.5976 L182.52,137.97 L177.984,137.97 L186.7212,123.822 L197.0244,121.662 L196.4412,119.7288 L189.648,119.502 L186.408,117.5472 L182.3796,119.502 L177.6708,119.502 L179.5932,115.3332 L169.8732,110.8728 L86.7132,110.8728 L59.4,139.698 L59.4,161.892 L69.39,171.8928 L104.3496,176.3856 L109.0152,183.4596 L118.8432,183.114 L126.954,199.044 L142.074,180.0684 L178.0164,180.1872 L180.36,198.18 L186.0624,198.3312 L186.2136,175.9752 L244.3824,126.2952 L248.346,125.6148 L250.5924,118.53 L244.3824,118.53 L244.4364,118.422 Z M278.8344,115.344 L299.16,115.344 L294.9372,108.6264 L291.1248,107.7192 L291.1248,102.9024 L278.8344,115.344 Z M128.304,224.1 L120.474,207.2196 L126.954,199.0548 L118.8648,183.06 L109.0368,183.4056 L104.3712,176.3316 L69.4116,171.8388 L69.4764,171.9036 L70.9668,187.6392 L81.7668,207.9864 L86.13,204.66 L77.652,186.5376 L77.652,176.364 L82.6524,176.364 L82.8468,185.8248 L98.9064,223.56 L125.0964,234.4788 L131.6304,232.74 L137.3868,238.6044 L140.2488,233.5068 L146.286,233.5068 L145.422,226.8864 L150.5952,226.8864 L157.3236,221.8752 L157.6044,214.5744 L150.2496,214.4448 L144.4068,224.1 L128.304,224.1 Z M418.3056,60.4476 L428.0256,55.7172 L428.0256,54.3888 L423.2088,49.4964 L416.4588,51.732 L408.3588,51.5592 L406.6416,53.892 L402.0408,53.784 L402.0408,58.104 L418.3056,60.4476 Z M504.8568,163.1448 L504.8568,158.5548 L499.6512,158.4144 L499.6512,161.7948 L504.8568,163.1448 Z M307.638,16.308 L307.638,21.1464 L331.7976,21.492 L338.04,32.1732 L338.04,41.8284 L326.4516,48.4056 L326.7972,61.5168 L334.0764,68.8824 L342.7164,68.8824 L355.8708,54.9828 L374.436,49.5072 L381.402,44.172 L395.442,43.308 L405.27,40.4028 L423.792,10.9512 L435.2076,8.6184 L439.236,4.5684 L406.3176,1.2528 L377.8704,4.5684 L343.3644,4.5684 L323.514,11.4696 L307.638,16.308 Z M867.942,202.7592 L865.134,199.8216 L860.5332,206.3772 L865.134,210.6972 L867.942,202.7592 Z M823.7376,121.5 L824.6556,116.3268 L815.0004,114.7716 L811.3176,108.7344 L792.9576,108.7344 L755.352,99.4248 L751.2156,108.7344 L735.9228,104.0796 L724.5072,112.7736 L761.6484,134.46 L804.654,134.9244 L809.838,124.3728 L823.7376,121.5 Z M831.9024,219.9852 L826.3728,221.2056 L826.3728,224.4456 L828.6192,227.1672 L831.8592,223.074 L831.9024,219.9852 Z M811.3176,108.7452 L815.0004,114.7824 L824.6556,116.3376 L823.7376,121.5108 L809.8596,124.416 L804.6,134.9676 L761.6484,134.46 L724.464,112.7844 L708.372,125.0532 L711.0504,137.4948 L694.9476,143.478 L699.5484,154.7424 L716.688,162.54 L717.3684,176.3424 L762.2208,191.8512 L770.4936,184.2912 L788.0976,191.8512 L785.6784,198.4068 L794.9988,213.9372 L811.3176,205.74 L821.988,214.866 L826.5024,212.2956 L826.6752,216.6912 L853.4052,207.144 L862.1424,187.5852 L846.5472,161.9244 L854.5608,153.1872 L845.3484,153.1872 L842.4,155.034 L836.622,145.53 L843.9876,139.05 L849.042,148.6944 L856.1268,143.8128 L869.724,134.46 L869.724,116.3268 L847.1952,110.5812 L830.6388,94.3812 L814.5468,94.3812 L818.208,107.3412 L811.3176,108.7452 Z M904.1976,136.08 L910.494,135.9936 L913.1724,131.4252 L899.1324,125.5608 L899.4132,137.1168 L902.178,138.7584 L904.1976,136.08 Z M886.8096,162.7884 L885.7296,166.3416 L899.64,164.3004 L900.72,169.7004 L903.8736,168.3612 L904.2192,164.1492 L913.518,161.7624 L913.0536,149.58 L908.8308,142.2144 L904.6296,140.94 L907.0272,151.9776 L898.3872,159.7644 L886.8096,162.7884 Z M884.3688,169.6464 L889.38,169.0092 L891.0108,171.4284 L889.2072,177.12 L884.3688,169.6464 Z M897.7284,167.292 L895.32,171.6876 L892.08,168.0696 L897.7284,167.292 Z M882.6084,242.3412 L875.0484,241.5528 L872.2512,238.14 L875.016,231.8004 L872.2728,225.72 L867.2616,225.612 L866.0412,236.3256 L873.126,244.8684 L881.4312,245.9484 L882.6084,242.3412 Z M858.6648,261.3384 L862.0236,261.9972 L867.996,257.0292 L867.8664,252.9576 L858.6648,261.3384 Z M884.898,269.028 L884.898,273.78 L889.8876,272.2788 L888.192,269.19 L892.2204,268.11 L888.7968,257.418 L886.2804,264.06 L878.04,264.06 L884.898,269.028 Z M870.1884,245.1924 L873.7416,248.6808 L872.586,250.8408 L869.7132,248.0328 L870.1884,245.1924 Z M873.7416,253.7352 L876.2688,255.4524 L879.0336,251.2728 L875.3508,250.8192 L873.7416,253.7352 Z M883.17,249.4152 L886.6368,253.8864 L890.4276,253.8864 L886.8096,248.0652 L883.17,249.4152 Z M883.17,253.1844 L885.114,256.5864 L883.5588,258.66 L880.8156,254.5236 L883.17,253.1844 Z M879.0336,256.6296 L880.8156,259.308 L879.0336,261.468 L877.0032,258.984 L879.0336,256.6296 Z M885.7836,326.8296 L888.1164,330.0696 L894.672,329.2812 L894.672,326.7 L885.7836,326.8296 Z M833.112,289.0296 L833.436,298.2852 L838.7064,307.4976 L855.4572,307.4976 L863.7408,296.9136 L863.7408,277.6572 L857.7684,278.2836 L852.93,287.4312 L836.73,291.0492 L833.2416,288.8892 L833.112,289.0296 Z M821.232,313.1892 L821.232,306.126 L793.6272,277.4844 L784.1556,273.78 L816.1344,317.3256 L821.232,313.1892 Z M853.4916,325.782 L854.01,328.1796 L819.504,322.3368 L824.688,318.1788 L833.328,321.4188 L841.104,319.7016 L853.4916,325.782 Z M875.556,325.782 L870.2208,325.782 L871.3008,329.2272 L876.3984,329.2272 L878.5584,327.4884 L875.556,325.782 Z M866.16,331.3116 L867.726,333.2232 L871.4304,333.2232 L870.1452,330.4584 L866.16,331.3116 Z M885.7836,326.7 L880.4484,332.6508 L884.52,333.18 L888.138,329.94 L885.7836,326.7 Z M868.0284,316.1808 L871.992,314.9604 L870.7932,307.9728 L873.126,305.3808 L875.0916,310.5648 L879.8436,312.2172 L879.8436,308.4912 L877.1652,302.5836 L882.2412,298.3176 L874.1412,298.6632 L872.4672,296.352 L875.7072,292.8204 L881.658,294.8724 L884.5956,294.6132 L888.9912,289.4292 L885.1356,289.3428 L882.6084,291.06 L874.3248,289.0512 L868.8384,293.9976 L869.2272,301.8384 L865.9872,306.0828 L868.0284,316.1808 Z M897.7824,305.1 L896.8644,308.34 L905.8392,307.422 L905.8392,305.1 L897.7824,305.1 Z M899.856,284.2128 L896.8536,287.172 L895.7196,294.5376 L899.856,295.542 L898.938,289.062 L901.3356,286.0596 L899.856,284.2128 Z M920.16,303.8364 L918.9612,297.4536 L909.1332,298.8468 L920.16,303.8364 Z M919.5012,309.15 L933.228,314.82 L935.6904,321.8184 L931.1328,324.6048 L942.84,328.7196 L942.84,305.6076 L933.3036,300.6396 L924.48,307.854 L915.0732,304.1496 L913.9932,309.3336 L919.5012,309.15 Z M878.6772,156.6972 L869.4216,149.1372 L865.3284,152.9172 L870.858,164.8728 L877.5432,164.4084 L878.6772,156.6972 Z M869.4216,149.1372 L865.3284,145.7892 L870.6204,145.098 L869.724,134.46 L856.1268,143.8236 L860.112,151.3836 L865.3608,152.8524 L869.4216,149.1372 Z M857.5416,271.1772 L850.176,281.0916 L833.22,288.9 L836.7084,291.06 L852.9084,287.442 L857.7468,278.2944 L863.7192,277.668 L863.7192,270.648 L857.5416,271.1772 Z M801.1656,271.1772 L804.1248,280.7676 L816.2856,291.1356 L817.2252,287.4528 L805.7448,270.486 L801.1656,271.1772 Z M947.16,330.2316 L955.3248,322.7364 L965.9088,333.0612 L975.564,335.0268 L963.576,323.0712 L964.1592,316.7532 L942.84,305.6184 L942.84,328.7304 L947.16,330.2316 Z M969.5592,317.8548 L973.8792,320.4252 L981.3096,316.2456 L981.3096,311.9256 L969.5592,317.8548 Z M975.5532,305.7156 L984.1932,311.9256 L987.66,310.7484 L978.858,305.4996 L975.5532,305.7156 Z M795.0204,213.9156 L785.7,198.3852 L788.0976,191.8296 L782.6976,189.5184 L775.4616,194.724 L772.0596,218.268 L777.4596,222.7608 L779.5116,233.5608 L783.3024,234.6948 L786.024,231.2928 L791.0784,236.9952 L793.8864,247.4064 L793.2276,258.2064 L797.5476,249.6852 L789.7284,221.4972 L795.0204,217.6632 L795.0204,213.9156 Z M810.6588,227.1564 L816.912,235.656 L811.08,241.5528 L824.1912,241.5528 L824.1912,238.2156 L811.3716,224.64 L808.542,215.9028 L799.6752,211.5828 L794.988,213.9588 L794.988,217.62 L799.5672,220.2984 L799.5672,227.2212 L810.6588,227.1564 Z M799.6104,227.1564 L799.6104,220.2336 L794.988,217.62 L789.696,221.454 L797.5152,249.642 L793.1952,258.1632 L792.936,262.4076 L800.496,268.8336 L801.2196,271.188 L805.7988,270.5076 L798.4332,259.6536 L800.1504,242.8596 L808.434,251.0676 L808.434,244.188 L816.8688,235.7316 L810.6156,227.232 L799.6104,227.1564 Z M808.4772,244.1232 L808.4772,251.0028 L812.6136,255.1176 L817.2576,254.4804 L824.1804,249.2964 L824.1804,241.542 L811.08,241.542 L808.4772,244.1232 Z M811.4148,224.6076 L824.1804,238.1832 L824.1804,249.2748 L817.2576,254.4588 L817.4304,261.8676 L830.6712,253.1304 L830.2176,240.1704 L816.372,225.5796 L817.0524,217.5876 L821.9772,214.8012 L811.3068,205.6752 L799.6752,211.5612 L808.542,215.8812 L811.4148,224.6076 Z M756.216,196.3332 L753.2784,197.7048 L757.4364,210.8376 L760.1148,208.2456 L772.0704,218.268 L772.8372,212.868 L766.5624,207.0036 L765.4824,199.9836 L760.4712,202.0356 L756.216,196.3332 Z M760.536,195.4368 L753.3,193.6332 L754.3044,189.0972 L752.2308,188.3736 L747.792,195.4368 L723.438,186.2136 L723.5028,178.4376 L717.4224,176.2776 L716.688,162.54 L711.3744,160.1208 L706.4712,160.1208 L699.192,165.294 L698.9976,169.7004 L703.404,172.26 L705.4992,180.9 L695.9304,189.7128 L689.8068,189.7128 L689.8068,196.1928 L694.386,197.9316 L694.386,203.5476 L686.1132,205.7076 L686.8152,206.5392 L693.6516,208.6992 L690.4116,211.9392 L693.4356,215.8596 L698.8356,216.4968 L699.7968,212.004 L701.9568,212.004 L719.3664,262.0836 L730.4148,255.2904 L732.24,235.2132 L757.4472,210.8592 L753.2892,197.7264 L756.2268,196.3548 L760.5468,202.0896 L765.558,200.0376 L766.638,207.0576 L772.9128,212.922 L775.44,194.7564 L782.676,189.5508 L770.4936,184.2912 L762.2208,191.8512 L760.536,195.4368 Z M723.5028,178.4376 L723.438,186.2136 L747.792,195.4368 L752.2308,188.3736 L723.5028,178.4376 Z M754.3044,189.0972 L753.3,193.6332 L760.536,195.4368 L762.2748,191.8404 L754.3044,189.0972 Z M616.302,130.9284 L621.4644,135.2484 L628.0416,133.434 L633.8628,138.294 L632.88,125.6472 L641.8548,123.5736 L653.6808,131.6844 L663.5736,129.7836 L670.8096,139.3308 L677.7972,139.0176 L684.6336,133.4016 L700.758,132.6996 L711.0828,137.484 L708.4044,125.0424 L724.4856,112.7844 L715.2084,107.3844 L661.1328,88.29 L639.8244,93.096 L639.8244,102.7296 L602.0244,102.7296 L602.0244,115.182 L607.0788,121.5 L617.8788,117.18 L624.3588,121.5 L616.5396,125.2908 L616.302,130.9284 Z M657.72,160.6608 L654.102,154.7964 L639.9648,150.3144 L631.6164,153.1008 L631.4652,156.816 L620.8164,156.816 L614.952,146.4588 L600.912,147.8412 L600.912,151.9776 L617.9004,180.9 L622.9548,181.386 L634.6944,193.6332 L656.2944,200.1132 L662.2884,200.1132 L666.6084,192.6396 L661.7916,186.6024 L654.8904,166.6008 L657.72,160.6608 Z M633.906,138.2832 L628.0848,133.4232 L621.5076,135.2376 L632.0052,143.8776 L631.6164,153.0576 L639.9648,150.2712 L654.1236,154.7532 L657.7416,160.6176 L671.1876,153.7164 L649.0152,135.972 L639.576,135.972 L633.906,138.2832 Z M689.85,189.648 L695.9736,189.648 L705.5424,180.8352 L703.4472,172.1952 L699.03,169.7004 L699.2244,165.294 L706.5036,160.1208 L711.4068,160.1208 L701.19,155.4552 L690.3144,157.0212 L686.88,171.9792 L674.3088,183.6 L660.8196,183.4704 L661.8996,186.5268 L666.7164,192.564 L662.3964,200.0376 L681.156,200.0376 L686.124,205.6968 L694.3968,203.5368 L694.3968,197.9208 L689.8176,196.182 L689.85,189.648 Z M653.6916,131.6952 L641.8656,123.5844 L632.88,125.6472 L633.8844,138.2724 L639.6084,136.026 L649.0152,136.026 L671.1876,153.7704 L678.4452,155.7144 L675.1512,145.9944 L685.4544,143.0352 L686.0376,138.6504 L670.8312,139.32 L663.5952,129.7728 L653.6916,131.6952 Z M657.72,160.6608 L654.9768,166.5252 L660.798,183.4704 L674.2872,183.6 L686.88,171.99 L690.3252,157.0428 L688.1004,150.7464 L678.4668,155.7036 L671.2092,153.7596 L657.72,160.6608 Z M687.1716,147.8412 L678.5316,145.0332 L675.1728,146.0052 L678.4668,155.7252 L688.1004,150.768 L690.3252,157.0644 L701.2008,155.4984 L699.5916,154.764 L696.4164,146.988 L687.1716,147.8412 Z M684.6012,133.38 L677.7648,138.996 L685.9944,138.6288 L685.4112,143.0136 L678.4668,145.0008 L687.1068,147.8088 L696.3624,146.934 L694.926,143.4456 L711.0288,137.4624 L700.704,132.678 L684.6012,133.38 Z M602.0352,141.4584 L608.202,147.0852 L614.9088,146.4264 L610.2,138.2292 L605.1456,136.9764 L602.0352,141.4584 Z M588.7728,139.1256 L597.9204,141.4584 L602.0352,141.4584 L605.1888,136.944 L593.514,131.652 L588.7836,132.678 L588.7728,139.1256 Z M600.8688,147.7656 L608.1912,147.042 L602.0244,141.4152 L597.9096,141.4152 L600.8688,147.7656 Z M531.1656,77.6952 L528.7464,78.2676 L529.3728,78.732 L528.6924,81.8424 L521.8992,78.732 L521.8992,82.7604 L531.1548,85.1256 L537.84,88.1712 L540.4104,86.0112 L539.4708,79.38 L536.0904,80.46 L531.1656,77.6952 Z M521.9316,87.4152 L527.04,89.1 L528.4548,92.0268 L529.5348,95.148 L537.7428,88.1928 L531.0792,85.1472 L521.8236,82.782 L521.9316,87.4152 Z M548.1432,86.022 L540.3888,86.022 L529.5888,95.1804 L531.36,99.9 L546.804,102.3624 L556.4376,100.2564 L550.7028,97.9236 L554.148,95.7636 L548.1432,86.022 Z M526.6404,73.98 L525.8304,76.0536 L528.7464,78.2136 L531.1656,77.6412 L536.0904,80.46 L539.4708,79.38 L538.3908,71.928 L536.4684,73.7424 L526.6404,73.98 Z M546.7716,102.2976 L531.36,99.9 L532.3212,102.5784 L526.7916,109.4688 L526.7916,113.3676 L547.6788,113.3676 L549.72,117.18 L546.102,122.85 L549.2772,124.1784 L550.1304,121.5432 L562.5072,121.5432 L559.764,124.3836 L563.5764,126.5436 L568.7172,126.144 L563.76,119.88 L576.612,117.1476 L579.852,109.7928 L556.3512,100.224 L546.7716,102.2976 Z M517.32,42.012 L495.72,57.8772 L495.72,71.982 L492.7392,76.6476 L500.8824,86.022 L514.1664,74.2608 L507.9564,66.5496 L521.9964,51.2676 L524.7612,51.2676 L520.9488,42.012 L517.32,42.012 Z M479.2176,77.7168 L491.8752,75.6432 L492.75,76.6476 L495.72,71.9928 L495.72,57.8772 L517.32,42.012 L529.2972,42.012 L529.2972,38.0592 L517.0284,38.6856 L474.9084,67.8456 L479.2176,77.7168 Z M529.362,42.012 L520.9272,42.012 L524.718,51.3 L526.9428,51.3 L520.2144,66.5388 L528.12,70.47 L540,70.47 L546.7284,62.7048 L535.6152,37.7352 L529.362,38.0484 L529.362,42.012 Z M892.188,111.402 L896.3244,111.402 L881.7336,96.4548 L877.5972,96.336 L889.3152,110.8296 L895.05,121.5216 L899.316,121.5216 L892.188,111.402 Z M527.04,89.1 L521.8776,87.3828 L521.8776,90.8172 L528.4332,92.0268 L527.04,89.1 Z M835.6392,37.422 L831.6756,32.022 L807.1704,28.0152 L800.28,34.2468 L780.4512,34.2468 L772.2,28.0368 L727.326,28.0368 L724.5612,18.1548 L683.1648,18.1548 L646.6716,34.4736 L654.6636,44.3664 L647.7624,51.4944 L641.52,31.1256 L630.5148,30.2508 L635.8068,42.2928 L593.244,43.4376 L553.4784,59.7672 L548.2296,49.7664 L563.3496,50.3388 L570.7152,46.656 L541.7388,37.4112 L535.572,37.7244 L546.7284,62.694 L540,70.47 L538.3692,71.9928 L539.4492,79.4448 L540.3672,85.9896 L548.1216,85.9896 L554.094,95.7096 L550.6488,97.8696 L556.3836,100.2024 L579.8844,109.7712 L576.6444,117.126 L578.1888,120.8088 L574.398,121.8888 L575.0568,127.9368 L588.7836,132.7428 L593.514,131.7168 L605.1888,137.0088 L610.2432,138.2616 L607.0896,132.7428 L607.0896,121.5 L602.0352,115.182 L602.0352,102.762 L639.8352,102.762 L639.8352,93.1284 L661.1436,88.3224 L715.2084,107.3844 L724.4856,112.7844 L735.9012,104.0904 L751.194,108.7452 L755.3304,99.4356 L792.936,108.7452 L811.296,108.7452 L818.1972,107.3628 L814.5144,94.4028 L830.6172,94.4028 L847.1736,110.6028 L869.7024,116.3484 L869.7024,134.514 L879.5736,132.7752 L884.8872,124.848 L884.8872,110.1492 L869.7024,92.8692 L854.9928,92.6424 L857.52,74.4984 L887.868,74.7252 L891.162,64.4112 L903.96,69.2712 L903.96,64.5192 L907.1352,64.8432 L912.6648,70.1352 L907.3296,73.764 L906.6924,84.618 L928.2924,105.138 L928.2924,85.3092 L916.1316,73.5804 L945,64.4328 L945.3672,61.4844 L930.852,57.5424 L936.5112,53.136 L949.4712,55.8144 L958.2732,55.9872 L951.21,48.4272 L905.85,39.4524 L835.6392,37.422 Z M512.0172,114.4044 L506.682,118.7244 L514.4364,121.608 L522.7092,120.1824 L529.2648,113.292 L526.6728,113.292 L526.6728,111.6612 L512.0172,114.4044 Z M508.0536,110.7 L512.0172,114.4476 L526.662,111.7476 L526.662,109.4796 L513.378,107.8704 L512.8164,107.6544 L508.0536,110.7 Z M480.0816,121.3596 L484.8336,121.7052 L489.1536,120.7116 L487.6092,116.0568 L483.5592,116.0568 L480.9132,117.18 L480.0816,121.3596 Z M498.2796,110.7 L507.9996,110.7 L512.7732,107.6544 L503.4312,103.9716 L495.0828,106.5636 L498.2796,110.7 Z M432.6588,155.5956 L434.5812,155.736 L436.806,137.0304 L429.57,135.8208 L429.2028,149.5044 L432.6588,155.5956 Z M545.94,122.8716 L549.558,117.2016 L547.56,113.3244 L541.3716,113.3244 L545.94,122.8716 Z M528.4008,92.016 L521.8452,90.8064 L514.944,91.0332 L513.378,89.5968 L503.4852,92.016 L502.6104,92.016 L503.4852,103.896 L512.8488,107.5788 L513.3888,107.7948 L526.6728,109.404 L532.2024,102.5136 L531.2412,99.8352 L529.524,95.1156 L528.4008,92.016 Z M529.254,113.3244 L522.72,120.2256 L528.5844,129.9456 L543.24,128.2932 L547.4196,129.438 L549.1368,124.1352 L545.9616,122.8068 L541.3824,113.3136 L529.254,113.3244 Z M502.5888,92.0052 L489.888,91.8648 L489.3048,89.6076 L484.8444,89.6076 L485.7408,91.7676 L479.0556,95.7744 L478.44,107.3196 L482.49,109.4796 L480.8808,117.2556 L483.516,116.046 L492.9444,116.046 L493.7544,115.8084 L500.5908,113.7996 L498.2796,110.7 L495.126,106.5636 L503.4744,103.9716 L502.5888,92.0052 Z M484.8552,89.5968 L489.3156,89.5968 L489.078,88.6464 L490.536,80.46 L486.5292,80.46 L483.678,86.886 L484.8552,89.5968 Z M496.7352,86.7348 L494.2296,84.2508 L492.0048,85.1688 L491.3244,88.6896 L495.4824,88.6896 L496.7352,86.7348 Z M500.6124,113.7348 L492.966,115.9812 L487.566,115.9812 L489.1104,120.636 L497.2752,118.746 L506.6604,118.746 L510.5808,115.506 L511.9956,114.3612 L508.032,110.6136 L498.312,110.6136 L500.6124,113.7348 Z M505.278,150.984 L496.9944,150.984 L496.9944,153.0576 L500.1048,155.2176 L505.2888,156.0168 L505.278,150.984 Z M483.5484,139.32 L483.5484,147.8304 L487.512,147.8304 L487.512,140.4756 L483.5484,139.32 Z M480.0816,121.2948 L479.3364,124.956 L484.1316,127.116 L489.7044,127.116 L506.844,144.2124 L507.7188,151.4916 L510.8724,149.6556 L511.8552,144.4284 L515.754,143.6508 L494.8452,125.5608 L500.7744,125.2044 L497.3076,118.7244 L484.8444,121.608 L480.0816,121.2948 Z M485.5464,133.4664 L485.5464,136.9764 L487.512,137.7216 L488.3868,133.4664 L485.5464,133.4664 Z M446.04,111.9528 L446.04,114.48 L453.1464,118.3248 L454.086,130.9284 L464.6268,137.6676 L467.8668,133.4556 L483.2892,133.5636 L483.7428,127.0836 L484.1532,127.0836 L479.358,124.9236 L482.598,109.3932 L468.558,102.0708 L452.1096,111.9312 L446.04,111.9528 Z M472.446,99.7488 L468.4932,102.06 L476.3556,106.164 L478.602,104.9544 L478.6884,103.0536 L472.446,99.7488 Z M478.7208,103.0752 L479.1096,95.7528 L472.446,99.738 L478.7208,103.0752 Z M476.388,106.1856 L478.548,107.2656 L478.656,104.9436 L476.388,106.1856 Z M450.6408,88.2576 L450.7272,93.5496 L447.12,95.58 L450.36,100.224 L443.88,106.3584 L452.4228,104.8032 L461.1168,103.4208 L461.6784,100.1808 L463.32,100.1808 L463.7088,96.6168 L458.0712,95.4288 L451.0296,79.2288 L445.6296,79.0668 L445.6296,87.7824 L450.6408,88.2576 Z M443.826,92.0808 L443.826,88.6248 L437.5296,88.2036 L441.1476,93.0312 L443.826,92.0808 Z M431.1468,92.88 L431.1468,102.3084 L434.7648,102.3084 L434.7648,99.0684 L441.666,100.0188 L441.1476,93.0312 L437.5296,88.2036 L431.1468,92.88 Z M434.6136,155.682 L449.7336,156.762 L464.5944,137.7 L454.0536,130.9608 L429.678,131.1336 L429.57,135.7884 L436.806,136.998 L434.6136,155.682 Z M468.0936,147.6252 L468.0936,143.5752 L463.32,147.636 L468.0936,147.6252 Z M523.2708,142.9164 L532.8396,139.8168 L530.6796,134.676 L522.7956,136.2204 L523.2708,142.9164 Z M517.212,121.1544 L518.9724,130.8744 L522.7632,136.1664 L530.6472,134.622 L528.6384,129.9024 L522.774,120.1824 L517.212,121.1544 Z M500.8284,125.2044 L501.7032,125.2044 L506.196,122.85 L508.2264,119.3616 L506.7252,118.8 L497.34,118.8 L500.8284,125.2044 Z M548.5752,144.18 L541.4472,144.126 L547.3116,155.9196 L574.3116,157.41 L600.804,152.01 L600.804,147.8736 L597.8448,141.5232 L588.6972,139.1904 L551.772,140.4 L548.5752,144.18 Z M541.4256,141.5016 L548.0028,141.5016 L545.346,135.7776 L541.3608,137.0628 L541.4256,141.5016 Z M511.92,133.8336 L514.296,134.4276 L518.8536,130.9392 L517.5684,123.7572 L507.8484,125.0748 L511.92,133.8336 Z M519.6096,144.0612 L522.6552,147.5712 L528.5196,149.2128 L524.9448,150.7248 L529.6752,156.6756 L532.656,151.9668 L529.3404,144.72 L535.9392,141.48 L541.3392,141.48 L541.2744,137.052 L519.6096,144.0612 Z M514.3824,121.6404 L508.1832,119.34 L506.1528,122.8284 L501.66,125.1828 L503.226,125.0856 L510.4836,133.4772 L511.9848,133.8552 L507.8916,125.0856 L517.6116,123.768 L517.1364,121.1868 L514.3824,121.6404 Z M517.1472,135.1296 L520.5708,133.3044 L518.8536,130.9284 L514.35,134.46 L519.1236,143.478 L519.6636,144.1044 L523.2168,142.9596 L522.6984,136.2636 L520.6248,133.3476 L517.1472,135.1296 Z M532.7856,139.86 L545.3352,135.7992 L547.3872,129.4704 L543.24,128.2932 L528.5952,129.9564 L532.7856,139.86 Z M626.4,200.1024 L629.316,202.0248 L631.2276,200.0592 L627.8904,195.3504 L626.4,200.1024 Z M568.3392,160.38 L560.6496,163.2312 L566.1576,164.6136 L568.3392,160.38 Z M573.2856,170.2188 L573.2856,184.0428 L576.18,184.3884 L580.5,182.3796 L581.8284,174.6144 L585.1872,173.1888 L585.36,173.1132 L584.3772,168.9876 L577.4544,173.1132 L573.2856,170.2188 Z M625.5036,199.4544 L617.9436,187.0344 L614.628,187.0344 L612.252,183.9564 L605.772,183.9564 L585.252,173.2212 L581.8716,174.6468 L580.5648,182.412 L576.2448,184.4208 L573.372,184.0752 L600.1668,230.634 L600.7068,232.3728 L603.4932,227.5992 L613.008,228.798 L612.1332,232.416 L625.6008,225.3528 L644.5548,220.2768 L644.5548,210.4056 L634.5864,208.98 L631.584,203.472 L625.5036,199.4544 Z M609.2064,183.9348 L612.2304,183.9348 L614.5848,187.0128 L617.9004,187.0128 L613.872,180.4572 L610.092,180.4572 L609.2064,183.9348 Z M589.9716,165.672 L584.3556,169.02 L585.4356,173.34 L605.7612,183.9672 L609.2496,183.9672 L610.1244,180.5112 L617.598,180.5112 L600.804,152.0424 L593.0928,153.6192 L589.9716,165.672 Z M638.7876,204.9084 L631.5948,203.4936 L634.5972,209.0016 L640.17,209.79 L648.0972,201.7332 L644.4792,198.4932 L638.7876,204.9084 Z M640.1592,209.79 L644.4792,210.3948 L644.4792,220.266 L634.9428,222.8148 L634.9428,228.5496 L640.2564,232.146 L657.8172,210.384 L648.0972,201.744 L640.1592,209.79 Z M576.4392,164.43 L573.3072,170.2188 L577.4652,173.1132 L589.9932,165.6396 L593.082,153.5328 L574.3008,157.3668 L573.0372,163.2528 L576.4392,164.43 Z M625.5252,225.3204 L612.036,232.416 L612.9108,228.798 L603.396,227.5992 L600.6096,232.3728 L605.3616,247.8816 L640.2348,232.1568 L634.9212,228.5604 L634.9212,222.8256 L625.5252,225.3204 Z M573.3072,170.2404 L576.4392,164.4516 L573.0372,163.2744 L571.7952,169.1604 L573.3072,170.2404 Z M573.2208,184.2804 L573.3072,184.0752 L573.3072,170.2512 L571.7844,169.1712 L569.3868,178.0272 L573.2208,184.2804 Z M601.8732,381.6288 L605.5128,390.2688 L614.2284,390.6576 L629.0676,343.0404 L623.7756,343.0404 L606.4956,360.9468 L604.8,373.3236 L601.8732,381.6288 Z M506.034,264.6648 L503.5068,257.1912 L508.5612,257.1912 L502.3296,243.9504 L502.3296,251.2728 L493.3764,269.8164 L485.5572,270.27 L484.4772,277.8948 L487.8576,277.8948 L487.6848,285.6924 L509.2848,285.6924 L510.246,282.9276 L510.246,282.9276 L503.766,273.8448 L506.034,264.6648 Z M493.614,291.3732 L487.5552,291.3732 L487.3608,300.6504 L495.1368,311.04 L495.1368,302.1516 L505.116,302.1516 L500.04,285.66 L487.728,285.66 L487.5768,291.3408 L493.614,291.3732 Z M473.3748,271.7928 L474.7464,277.8948 L484.4664,277.8948 L485.5464,270.27 L493.3656,269.8164 L502.3188,251.2728 L502.3188,243.9504 L468.8388,243.9504 L463.4388,270.3348 L473.3748,271.7928 Z M423.9216,266.7384 L426.384,269.46 L426.384,280.962 L444.636,275.6916 L444.636,258.8652 L426.816,255.3552 L426.816,264.222 L423.9216,266.7384 Z M426.384,281.0052 L426.384,269.46 L419.7852,262.0296 L413.9424,267.5376 L426.384,281.0052 Z M536.2416,334.6812 L529.9452,331.5708 L529.9452,320.1012 L522.828,320.1012 L521.3916,325.1556 L514.3068,325.3932 L512.46,319.032 L501.1956,319.1184 L501.1956,344.2392 L494.7696,354.8232 L495.3312,361.7244 L535.0644,361.7244 L528.5844,353.6676 L528.5844,344.6928 L536.5116,344.6928 L536.2416,334.6812 Z M457.0128,272.16 L454.0536,254.0808 L444.636,254.0808 L444.636,275.6808 L457.0128,272.16 Z M500.04,285.66 L505.1376,302.1084 L495.1584,302.1084 L495.1584,310.9968 L499.0788,316.224 L508.5936,311.904 L518.5944,295.3044 L520.182,282.9276 L510.246,282.9276 L509.2848,285.6924 L500.04,285.66 Z M592.9956,240.0624 L598.8816,249.3828 L601.128,247.4928 L586.1808,221.94 L578.4696,240.1488 L592.9956,240.0624 Z M413.964,267.5808 L419.7852,262.0728 L413.8128,255.3444 L408.0132,261.1656 L413.964,267.5808 Z M600.48,255.4956 L604.2276,252.7956 L601.1604,247.5252 L596.6892,251.2728 L600.48,255.4956 Z M572.7672,339.1524 L572.7672,344.682 L577.6056,347.922 L577.6056,354.78 L573.0048,358.8084 L573.0048,350.73 L568.404,346.9608 L568.2744,347.0472 L559.5804,353.106 L568.2744,358.8084 L568.2744,366.7788 L562.8744,379.5012 L562.8744,393.5412 L566.8164,393.4764 L567.0756,391.5648 L575.2404,385.8624 L574.56,368.82 L593.7084,353.1168 L591.7968,335.2104 L572.7672,339.1524 Z M604.2276,252.7524 L600.48,255.4524 L604.2924,259.7724 L619.4772,265.1724 L595.7172,284.9148 L595.7172,302.0976 L632.88,258.8976 L631.3572,251.3376 L605.5236,255.1716 L604.2276,252.7524 Z M509.49,401.6196 L523.8,401.6196 L523.8,365.1372 L542.7324,365.1372 L540.27,361.7136 L495.3312,361.7136 L509.49,401.6196 Z M580.1328,276.7716 L573.6528,277.6896 L575.5212,285.7032 L574.6032,292.4964 L571.6872,297.6372 L589.464,309.42 L595.7172,302.1192 L595.7172,284.904 L602.64,279.18 L582.39,279.18 L580.1328,276.7716 Z M571.6548,297.6372 L570.5748,299.5812 L564.1704,299.5812 L565.8228,296.7516 L562.9068,296.7516 L556.3512,312.9516 L568.2312,329.724 L572.724,329.724 L572.724,339.1308 L591.786,335.1672 L589.464,309.42 L571.6548,297.6372 Z M425.7792,195.9012 L415.1952,195.9012 L415.1952,208.0404 L411.2964,213.948 L398.2284,213.948 L397.7532,227.5884 L413.8128,239.1336 L413.8128,235.008 L433.08,235.008 L431.2332,202.068 L441.4068,202.068 L425.7036,190.4796 L425.7792,195.9012 Z M560.2176,303.3612 L562.8744,296.7624 L557.2152,296.7624 L555.4116,304.3224 L560.2176,303.3612 Z M556.3188,312.9948 L560.2176,303.3612 L555.4224,304.3656 L554.1156,309.8736 L556.3188,312.9948 Z M401.8788,254.502 L408.0672,261.1872 L413.8668,255.366 L419.8392,262.0944 L423.9756,266.76 L426.87,264.2328 L426.87,255.366 L425.4768,249.048 L407.1168,249.048 L401.8788,254.502 Z M433.1988,235.062 L413.8128,235.062 L413.8128,239.1984 L418.1328,249.0912 L425.3688,249.0912 L426.762,255.4092 L435.672,257.1696 L435.672,248.238 L469.8756,234.3816 L469.8756,223.02 L441.4068,202.0464 L431.2332,202.0464 L433.1988,235.062 Z M552.096,337.1652 L558.9972,339.93 L556.5996,344.7468 L536.3172,334.746 L536.5764,344.7468 L528.6492,344.7468 L528.6492,353.7 L535.1292,361.7568 L547.2684,361.7568 L568.2744,347.1228 L568.2744,329.8428 L565.6392,326.1384 L554.1048,327.78 L552.096,337.1652 Z M523.8,388.6164 L529.5348,395.2368 L552.96,379.5336 L542.7216,365.1372 L523.8,365.1372 L523.8,388.6164 Z M435.726,257.1048 L444.636,258.8652 L444.636,254.0916 L454.0644,254.0916 L465.0048,250.02 L454.5504,240.5052 L435.726,248.13 L435.726,257.1048 Z M568.2204,329.7564 L568.2204,347.0364 L568.35,346.95 L572.9508,350.7192 L572.9508,358.7976 L577.5516,354.7692 L577.5516,347.868 L572.7132,344.628 L572.7132,329.7564 L568.2204,329.7564 Z M598.8708,249.4152 L592.9848,240.0948 L578.4696,240.0948 L568.2096,264.3192 L582.39,279.18 L602.64,279.18 L619.4556,265.14 L604.2708,259.74 L596.7108,251.2404 L598.8708,249.4152 Z M557.2152,296.7516 L565.7796,296.7516 L568.2204,292.4856 L574.56,292.4856 L575.478,285.6924 L573.6096,277.6788 L561.3408,279.396 L557.2152,296.7516 Z M469.9296,223.02 L469.9296,234.306 L454.5504,240.5376 L465.0264,250.0524 L467.7696,249.048 L468.8496,243.9504 L502.3296,243.9504 L509.8896,228.4416 L506.9088,208.0296 L492.0048,208.0296 L469.9296,223.02 Z M398.2392,213.9372 L411.2856,213.9372 L415.206,208.0296 L415.206,195.8904 L425.79,195.8904 L425.79,188.5248 L414.1368,188.5248 L398.412,208.98 L398.2392,213.9372 Z M397.278,240.8616 L407.8404,243.9504 L397.17,243.9504 L396.9756,249.0264 L418.176,249.0264 L413.856,239.1336 L397.7964,227.5884 L397.278,240.8616 Z M407.8404,243.9504 L397.278,240.8616 L397.17,243.9504 L407.8404,243.9504 Z M509.868,228.42 L502.308,243.9288 L508.5396,257.1696 L503.4852,257.1696 L506.0124,264.6432 L531.0252,252.8172 L531.0252,239.976 L536.598,234.4896 L537.1596,221.9832 L515.4408,208.0404 L506.898,208.0404 L509.868,228.42 Z M509.9328,177.66 L505.3752,172.1304 L495.5904,169.776 L486.486,179.5716 L492.3936,207.9756 L515.4624,207.9756 L537.1812,221.94 L539.3412,173.88 L526.662,172.26 L521.4348,180.0792 L509.9328,177.66 Z M423.9432,188.46 L425.79,188.46 L425.79,186.894 L452.0016,172.584 L452.0016,162.3132 L432.6804,164.322 L414.1368,188.46 L423.9432,188.46 Z M452.0232,162.3348 L452.0232,172.6056 L425.8116,186.9156 L425.8116,190.4256 L469.9296,223.02 L492.0156,208.0296 L492.4044,208.0296 L481.6044,156.2652 L468.9252,155.898 L452.0232,162.3348 Z M481.6476,156.2112 L486.5076,179.604 L495.612,169.8084 L492.0372,168.9552 L492.4908,156.5352 L481.6476,156.2112 Z M540.216,361.7136 L552.96,379.5336 L562.8096,379.5336 L568.2096,366.8112 L568.2096,358.8408 L559.5156,353.1384 L547.2036,361.7028 L540.216,361.7136 Z M546.0372,410.2488 L551.0916,410.2488 L554.094,407.1168 L554.094,403.11 L549.9576,403.11 L546.0372,405.6372 L546.0372,410.2488 Z M562.7664,392.3208 L558.9108,392.3208 L558.9108,395.82 L562.7664,398.1312 L562.7664,392.3208 Z M573.1344,184.4316 L573.1992,184.248 L569.3652,178.0056 L539.298,173.9232 L537.6888,210.3732 L570.6504,210.3732 L577.2924,206.5824 L563.6304,183.06 L571.104,189.1512 L573.1344,184.4316 Z M577.2924,206.604 L570.6504,210.3948 L537.678,210.3948 L536.598,234.4896 L531.0252,239.976 L531.0252,252.8496 L550.7568,275.5296 L561.3192,279.3852 L580.0788,276.75 L568.1988,264.3084 L578.4588,240.084 L586.1808,221.94 L577.2924,206.604 Z M554.094,309.8628 L561.33,279.4068 L550.8,275.5512 L521.0028,276.3828 L518.5836,295.3152 L508.5828,311.9148 L499.068,316.2348 L501.228,319.086 L512.4924,318.9996 L514.3392,325.3608 L521.424,325.1232 L522.8604,320.0688 L529.9668,320.0688 L529.9668,331.5492 L556.5456,344.6604 L558.9432,339.8436 L552.042,337.0788 L554.1156,327.7584 L565.596,326.0196 L554.094,309.8628 Z M503.7228,273.8556 L510.2028,282.9384 L520.182,282.9384 L521.0136,276.3828 L550.8108,275.5512 L531.0792,252.8712 L506.0664,264.6972 L503.7228,273.8556 Z M467.7588,249.0156 L458.4168,252.4392 L461.484,270.7992 L463.374,270.2592 L467.7588,249.0156 Z M458.4168,252.4392 L454.0968,254.0484 L457.056,272.1276 L461.5272,270.8424 L458.4168,252.4392 Z M401.8032,254.448 L407.0088,248.9832 L396.9864,248.9832 L396.9864,249.2208 L401.8032,254.448 Z M109.89,39.6684 L102.0708,36.4284 L61.1388,36.6552 L44.5824,43.3512 L44.5824,50.706 L25.92,50.4792 L22.4208,55.404 L38.1348,54.8424 L17.8956,62.4024 L8.1324,75.6864 L16.5348,75.546 L0.4212,86.1192 L6.3072,86.5836 L37.1304,71.82 L72.7056,70.578 L83.5056,81.378 L87.588,76.9824 L84.024,73.2996 L80.0064,73.2996 L76.0752,68.796 L109.89,39.636 L109.89,39.6684 Z M83.16,108.1188 L77.5224,103.518 L75.1032,105.5916 L79.0128,110.7 L83.16,110.7 L83.16,108.1188 Z M299.052,115.236 L294.84,108.54 L291.0276,107.6328 L291.0276,102.816 L278.7264,115.236 L299.052,115.236 Z M292.626,37.476 L267.84,27.3564 L264.1572,27.3564 L255.5172,34.4088 L258.39,27.3132 L254.232,27.3132 L244.2312,37.9512 L268.542,36.6336 L283.3812,49.9176 L273.402,49.7448 L268.3692,53.8704 L257.1372,53.8704 L257.1372,57.1104 L268.6392,57.1104 L278.3592,65.1672 L281.016,64.0116 L278.7264,58.86 L285.4332,62.1 L287.5932,61.1496 L287.5932,51.0408 L295.3044,53.784 L299.7432,50.8248 L297.2376,46.1484 L292.7772,44.5284 L292.626,37.476 Z M209.3904,127.71 L216.5184,127.71 L221.4648,124.3188 L237.438,124.3188 L244.3392,118.3356 L250.56,118.3356 L248.3136,125.4096 L259.3404,123.5088 L252.1044,126.954 L252.7848,129.9456 L272.4516,123.0336 L262.8612,122.58 L258.39,118.5516 L262.8288,111.672 L260.6688,109.6092 L246.7692,115.9164 L246.7692,112.2984 L260.0748,105.9156 L281.3832,104.9976 L297.3996,96.4656 L297.486,92.5776 L285.8112,90.558 L284.364,71.4528 L269.0928,77.4576 L269.2008,68.4828 L261.8352,62.2188 L251.8344,62.2188 L224.8344,101.5848 L218.2788,101.5848 L218.4084,88.6248 L195.048,76.0104 L218.3544,58.7304 L231.5736,56.322 L228.8088,52.2396 L249.156,49.9932 L257.4396,41.3532 L249.6636,40.4892 L238.9716,47.5632 L240.1704,41.58 L235.1808,41.0616 L234.0036,33.7716 L225.3636,37.6164 L227.61,42.2712 L216,47.7792 L195.8256,43.9884 L185.1552,48.9888 L159.2352,38.6424 L109.7388,39.7224 L75.924,68.8824 L79.92,73.3752 L83.9376,73.3752 L87.48,77.058 L83.3976,81.4536 L79.272,100.3968 L86.6916,107.1252 L86.6916,110.7 L169.8516,110.7 L179.5716,115.1604 L196.1064,111.6504 L198.18,118.9836 L201.5172,121.446 L207.1332,121.0464 L209.3904,127.71 Z M239.2308,53.8164 L232.8912,58.968 L245.4192,60.2964 L246.7476,57.0564 L239.2308,53.8164 Z M214.7472,40.6728 L217.08,43.74 L222.9876,40.7268 L221.2272,37.9296 L214.7472,40.6728 Z M219.24,30.5532 L223.0092,34.3764 L231.1092,31.6764 L233.2692,26.0172 L219.24,30.5532 Z M234.684,28.2744 L235.764,31.8924 L246.7908,28.9656 L244.566,26.0064 L234.684,28.2744 Z M262.764,20.7684 L256.7268,18.2628 L250.8624,23.2632 L274.6224,25.1424 L280.8324,20.8224 L262.764,20.7684 Z M320.76,7.4088 L333.18,0.3996 L283.824,4.0608 L283.824,6.7284 L300.4668,6.3828 L298.08,9.4824 L280.8,9.828 L283.0464,13.7916 L275.616,12.582 L278.64,16.3836 L265.8744,16.3836 L267.786,18.2844 L281.7504,18.2844 L284.04,20.1744 L304.344,10.692 L320.76,7.4088 Z M260.3664,10.26 L269.5572,11.9988 L274.8276,8.6292 L271.0152,5.778 L260.3664,10.26 Z M163.3284,34.3872 L184.9284,27.0432 L179.9604,24.7428 L159.5484,29.9376 L163.3284,34.3872 Z M187.704,28.3824 L176.04,32.3352 L182.898,35.2188 L172.206,37.9404 L185.49,43.1136 L194.6376,39.15 L204.8328,41.58 L212.4576,39.8304 L205.0056,36.3852 L210.7404,28.9764 L205.0056,28.9764 L201.5604,33.4368 L200.1672,28.9764 L194.0868,31.3416 L187.704,28.3824 Z M170.8452,210.06 L181.44,210.06 L189.9828,215.7624 L186.7428,219.3804 L201.5604,219.3804 L183.8484,206.6148 L174.474,206.6148 L170.8452,210.06 Z M185.6844,225.936 L187.9092,227.8476 L194.292,227.8476 L194.292,225.6012 L192.0672,223.3548 L185.6844,223.3548 L185.6844,225.936 Z M224.9856,224.1756 L223.6788,226.3356 L227.2536,226.3356 L228.5604,224.1756 L224.9856,224.1756 Z M146.1456,233.4312 L140.1084,233.4312 L137.2464,238.5288 L145.7892,242.8488 L151.578,232.3944 L150.498,226.8216 L145.3248,226.8216 L146.1456,233.4312 Z M152.874,241.8876 L151.794,245.5488 L153.3492,246.2508 L167.6268,234.2952 L150.4224,234.468 L147.582,239.544 L152.874,241.8876 Z M151.794,245.5488 L152.874,241.8876 L147.6252,239.5548 L145.7892,242.7948 L151.794,245.5488 Z M157.194,221.7888 L150.4656,226.8 L151.5456,232.3728 L157.194,221.7888 Z M158.8356,253.5732 L168.1452,254.556 L167.6808,234.2952 L153.4032,246.2508 L158.8356,253.5732 Z M173.88,310.014 L181.494,313.6536 L195.0696,296.9892 L181.2348,289.0836 L174.6684,297.3564 L173.88,310.014 Z M201.852,251.0244 L198.1692,251.0244 L190.4796,261.414 L186.5592,261.6732 L187.6392,265.4424 L185.5872,268.3584 L187.1748,273.6288 L185.6736,283.4568 L181.2024,289.116 L212.814,307.1736 L212.814,286.8804 L220.158,286.3836 L220.158,270.3024 L208.0944,269.0604 L202.8456,263.2608 L201.852,251.0244 Z M252.0396,496.908 L256.7484,501.228 L271.2744,501.768 L255.5928,493.5816 L252.0396,496.908 Z M274.32,392.4936 L267.9804,396.3492 L259.4592,396.3492 L259.4592,388.7892 L242.0496,377.0064 L241.0668,378.81 L226.5732,378.81 L222.6744,415.0116 L230.8824,450.8892 L238.2912,464.0868 L238.6368,473.9796 L249.642,490.8384 L253.6488,491.2488 L251.5752,448.1352 L274.914,437.94 L264.33,423.2088 L264.33,407.0088 L274.6332,396.4248 L274.32,392.4936 Z M276.8904,427.8744 L281.9448,419.1156 L264.2976,407.0304 L264.2976,423.2304 L276.8904,427.8744 Z M227.772,256.7592 L219.9528,251.1864 L201.8304,251.0136 L202.9104,263.2392 L208.1592,269.0388 L220.2228,270.2808 L220.2228,286.362 L222.1452,286.2324 L224.586,291.6972 L232.4268,289.17 L231.7896,280.692 L242.2872,276.8364 L245.3976,261.5004 L241.866,258.12 L227.772,256.7592 Z M158.8464,253.584 L165.0456,261.954 L167.2812,262.7424 L170.424,258.6708 L168.264,257.4504 L168.1992,254.556 L158.8464,253.584 Z M256.2516,271.944 L245.3112,261.5328 L242.2008,276.8688 L246.7584,275.1948 L246.132,288.2844 L256.608,287.1072 L253.0332,277.938 L256.2516,271.944 Z M229.176,335.0916 L218.484,338.1156 L218.484,362.556 L226.5408,378.756 L241.0668,378.756 L246.726,368.388 L257.6664,368.3232 L257.4072,360.1368 L238.7772,344.9088 L229.176,335.0916 Z M266.0148,286.0704 L273.0348,285.282 L275.1084,279.396 L272.3436,273.3372 L266.4792,272.8404 L266.0148,286.0704 Z M257.6664,368.3556 L246.726,368.4204 L242.0604,376.9848 L259.47,388.7676 L259.47,396.3276 L267.9912,396.3276 L274.3308,392.472 L273.8988,386.478 L257.9688,377.9784 L257.6664,368.3556 Z M256.5864,287.0964 L265.9932,286.0164 L266.4684,272.7756 L256.23,271.8792 L252.99,277.8732 L256.5864,287.0964 Z M300.5964,300.2292 L292.68,296.7732 L284.7096,301.4388 L287.3016,294.4512 L282.0096,292.1616 L274.4496,297.9396 L279.9144,289.8828 L275.0976,279.3636 L273.024,285.2496 L246.1212,288.252 L246.7476,275.1624 L242.19,276.8364 L231.6924,280.692 L232.3296,289.17 L224.4888,291.6972 L222.048,286.2324 L212.7708,286.8588 L212.7708,310.7808 L203.3424,311.9364 L199.1844,325.4904 L214.9524,339.066 L229.1544,335.0592 L238.7448,344.9088 L257.4072,360.18 L257.9688,378 L273.8988,386.4996 L274.6008,396.4572 L264.2976,407.0412 L281.9448,419.1264 L292.2264,401.1984 L294.6456,385.668 L319.68,374.6088 L324.324,340.0488 L335.124,326.0088 L335.124,317.4876 L317.4984,306.0072 L300.2184,304.9272 L300.5964,300.2292 Z M177.2172,258.39 L174.2904,260.82 L170.4132,258.66 L167.2704,262.7316 L176.5044,266.0256 L178.74,262.6884 L184.032,263.2068 L185.5764,268.3044 L187.6284,265.3884 L186.6672,261.8568 L185.5116,257.634 L177.2172,258.39 Z M203.364,311.958 L212.7924,310.8024 L212.7924,307.1412 L195.0156,296.9892 L181.44,313.6536 L173.826,310.014 L173.5776,313.9128 L196.7112,353.3004 L216.6912,366.66 L218.4948,362.5236 L218.4948,338.1156 L214.9848,339.0984 L199.2168,325.5228 L203.364,311.958 Z M230.85,450.9 L222.642,415.0224 L226.5408,378.8208 L218.484,362.6208 L216.6912,366.66 L220.05,448.5888 L228.8952,455.7384 L229.3056,470.4264 L244.6416,490.2552 L249.6096,490.7736 L238.6044,473.9148 L238.2588,464.022 L230.85,450.9 Z M220.1364,221.292 L209.7036,220.1364 L209.7036,225.8928 L213.192,223.3008 L218.7648,223.3008 L220.1364,221.292 Z M209.7036,224.532 L209.7036,220.212 L203.2236,220.212 L205.3836,223.2144 L201.528,223.2144 L201.528,224.5644 L209.7036,224.532 Z M994.248,446.1804 L992.088,453.0384 L1007.7264,441.9036 L1003.2336,435.9096 L1003.2336,429.0516 L1000.6632,430.1316 L1000.6632,439.7652 L994.248,446.1804 Z M953.1216,468.666 L985.6728,452.1744 L985.6728,456.4944 L960.6168,472.986 L953.1216,468.666 Z M819.72,384.0588 L847.1304,371.2068 L867.4776,348.7212 L878.5908,353.7 L883.5156,343.4184 L902.1456,342.9864 L897.48,351.54 L912.9024,364.824 L923.184,354.5424 L923.184,340.1568 L927.8928,341.658 L933.2928,367.362 L950.0004,390.9168 L948.24,408.6936 L917.784,440.1756 L891.4428,438.6744 L888.2028,420.8976 L879.2064,424.7532 L870.642,417.258 L818.64,428.6088 L815.4,424.7532 L819.72,414.4716 L819.72,384.0588 Z" id="inner" stroke="#999999" stroke-width="0.5" fill="#FAFAFA" stroke-linecap="round"></path>
        </g>
        <text id="Mexico-City" font-family="Lato-Regular, Lato" font-size="13.122" font-weight="normal" fill="#00B184">
            <tspan x="15.206558" y="55.5">Mexico</tspan>
            <tspan x="33.19682" y="71.5">City</tspan>
        </text>
        <circle id="Oval" fill="#868686" cx="62.3944" cy="52.3944" r="2.3944"></circle>
        <path d="M155.6436,-48.3654 L63.157592,53.343451 L158.098266,115.472563" id="Path" stroke="#E10000" stroke-width="2.7" stroke-dasharray="7.020000171661377"></path>
        <path d="M187.278711,123.0436 C186.292311,124.03 184.103511,124.5232 180.712311,124.5232 L172.525911,124.5232 L162.244311,139.6432 L162.157911,139.762 C162.014932,139.913768 161.81562,139.9996 161.607111,139.9996 L159.447111,139.9996 C159.238601,139.9996 159.039289,139.913768 158.896311,139.762 C158.669707,139.562746 158.595786,139.240973 158.712711,138.9628 L163.842711,124.4908 L155.483511,124.4908 C153.553911,127.9684 152.509911,129.7864 152.351511,129.9448 C152.208532,130.096568 152.00922,130.182546 151.800711,130.1824 L149.586711,130.1824 C149.345811,130.173394 149.121847,130.056132 148.977207,129.863278 C148.832566,129.670424 148.782704,129.422585 148.841511,129.1888 L151.001511,121.7692 L148.841511,114.3496 C148.742903,114.080338 148.815245,113.778202 149.025111,113.5828 C149.179654,113.447952 149.382356,113.381685 149.586711,113.3992 L151.746711,113.3992 C151.95522,113.399054 152.154532,113.485032 152.297511,113.6368 C152.455911,113.7952 153.499911,115.6132 155.429511,119.0908 L163.842711,119.0908 L158.701911,104.5972 C158.584986,104.319027 158.658907,103.997254 158.885511,103.798 C159.028489,103.646232 159.227801,103.5604 159.436311,103.5604 L161.596311,103.5604 C161.80482,103.5604 162.004132,103.646232 162.147111,103.798 C162.18435,103.830716 162.21386,103.871292 162.233511,103.9168 L172.515111,119.0368 L180.701511,119.0368 C184.085511,119.0368 186.274311,119.53 187.267911,120.5164 C187.613076,120.837203 187.809173,121.287175 187.809173,121.7584 C187.809173,122.229625 187.613076,122.679597 187.267911,123.0004 L187.278711,123.0436 Z" id="plane" fill="#000000" fill-rule="nonzero" transform="translate(168.303593, 121.780000) rotate(33.000000) translate(-168.303593, -121.780000) "></path>
    </g>
</svg>