<?xml version="1.0" encoding="UTF-8"?>
<svg width="700px" height="394px" viewBox="0 0 700 394" version="1.1" xmlns="http://www.w3.org/2000/svg" xmlns:xlink="http://www.w3.org/1999/xlink">
    <title>multiflow-thumb-02</title>
    <defs>
        <rect id="path-1" x="0" y="0" width="212.760576" height="212.760576" rx="15.3"></rect>
        <path d="M49.86576,43.216992 C62.7178061,43.216992 73.136448,53.6356339 73.136448,66.48768 L73.136448,146.272896 C73.136448,159.124942 62.7178061,169.543584 49.86576,169.543584 C37.0137139,169.543584 26.595072,159.124942 26.595072,146.272896 L26.595072,66.48768 C26.595072,53.6356339 37.0137139,43.216992 49.86576,43.216992 Z M106.380288,43.216992 C119.232334,43.216992 129.650976,53.6356339 129.650976,66.48768 L129.650976,146.272896 C129.650976,159.124942 119.232334,169.543584 106.380288,169.543584 C93.5282419,169.543584 83.1096,159.124942 83.1096,146.272896 L83.1096,66.48768 C83.1096,53.6356339 93.5282419,43.216992 106.380288,43.216992 Z M162.894816,43.216992 C175.746862,43.216992 186.165504,53.6356339 186.165504,66.48768 L186.165504,146.272896 C186.165504,159.124942 175.746862,169.543584 162.894816,169.543584 C150.04277,169.543584 139.624128,159.124942 139.624128,146.272896 L139.624128,66.48768 C139.624128,53.6356339 150.04277,43.216992 162.894816,43.216992 Z" id="path-3"></path>
    </defs>
    <g id="multiflow-thumb-02" stroke="none" stroke-width="1" fill="none" fill-rule="evenodd">
        <g id="Group" transform="translate(46.611072, 89.839324)">
            <mask id="mask-2" fill="white">
                <use xlink:href="#path-1"></use>
            </mask>
            <use id="mask" fill="#428AB3" xlink:href="#path-1"></use>
            <g id="outline-shadow" opacity="0.1" mask="url(#mask-2)">
                <g transform="translate(26.595072, 43.216992)" id="outline-shadow-128">
                    <g>
                        <path d="M23.8348477,0.00679694631 L23.9790351,0.0105751345 C24.021745,0.01185203 24.064426,0.013244009 24.1070778,0.0147507722 C24.1642306,0.0169842118 24.2216092,0.0192458549 24.2789804,0.0217186554 C27.1735228,0.144911546 29.9306894,0.796918295 32.4569114,1.88341521 C34.4579167,2.74181828 36.3635628,3.89460397 38.107579,5.34125202 C38.1291077,5.36031692 38.1510963,5.37860165 38.1730506,5.39692606 C38.2301303,5.44346378 38.286529,5.4910508 38.3427537,5.53894847 C38.3854836,5.57629791 38.4285166,5.61318262 38.471413,5.65022132 C38.5278988,5.69818982 38.5838832,5.74705366 38.6396884,5.79623042 C38.6714745,5.82490423 38.7031719,5.85295843 38.734792,5.88109758 C39.0717352,6.18066406 39.402216,6.49249346 39.7255493,6.81582671 L179.251817,146.342094 C188.173162,155.263439 188.336538,169.62629 179.741944,178.746935 L188.890851,187.896894 C197.97862,196.984663 197.97862,211.718848 188.890851,220.806617 C186.195438,223.502029 183.003309,225.397988 179.609113,226.494494 C188.337977,235.606071 188.218699,250.07015 179.251817,259.037033 C170.164048,268.124802 155.429863,268.124802 146.342094,259.037033 L6.81582671,119.510765 L6.56509253,119.256175 C6.47266658,119.160885 6.38104873,119.064806 6.29025005,118.96795 C6.24397282,118.918853 6.19842429,118.869885 6.15312586,118.82077 C6.11662764,118.780803 6.07965225,118.740394 6.04281798,118.699855 C5.9878574,118.639901 5.93391491,118.579972 5.88033852,118.519831 C5.85295843,118.488388 5.82490423,118.456691 5.79693532,118.424916 C5.74705366,118.369099 5.69818982,118.313115 5.64963889,118.256953 C5.61803238,118.219349 5.58595975,118.181967 5.55400398,118.144481 C3.85634368,116.156677 2.54819368,113.950197 1.62902294,111.625563 C0.610038336,109.055229 0.0360054984,106.259959 0.00163837955,103.334924 C0.00130000167,103.304496 0.000998274362,103.274233 0.000755216256,103.24397 L0.000755216256,23.0826216 C0.000998920793,23.0522781 0.00130160701,23.0219349 0.00166327492,22.9915924 L3.22409742e-13,23.270688 C3.2361364e-13,20.2527386 0.57450058,17.368971 1.62010499,14.7227819 C1.68276788,14.5646588 1.74711587,14.4065661 1.81327423,14.2490536 L1.82872602,14.2126861 C1.92293089,13.9899607 2.02050469,13.7690073 2.12138355,13.5498896 C3.02866893,11.5740015 4.22694539,9.70068023 5.71623184,7.99294325 L5.83650278,7.85684046 C6.23127649,7.41065857 6.64291379,6.9797432 7.07041651,6.56509253 L6.81582671,6.81582671 C7.13915997,6.49249346 7.4696408,6.18066406 7.80676061,5.88033852 C7.8382041,5.85295843 7.86990147,5.82490423 7.90167575,5.79693532 C7.95749276,5.74705366 8.01347719,5.69818982 8.06963863,5.64963889 C8.11285936,5.61318262 8.15589241,5.57629791 8.19906129,5.53956805 C8.25484699,5.4910508 8.31124571,5.44346378 8.36781617,5.3961874 C8.39027972,5.37860165 8.41226834,5.36031692 8.43429113,5.342072 C10.1615716,3.90807625 12.0479796,2.76331499 14.0291739,1.90696825 C16.5702666,0.806506855 19.3466361,0.145816516 22.2618864,0.0214728667 C22.3197668,0.0192458549 22.3771454,0.0169842118 22.4345301,0.0149337263 C22.47695,0.013244009 22.519631,0.01185203 22.5623409,0.0105751345 C22.6648519,0.00761455594 22.7672007,0.00518959751 22.8695588,0.00343593055 C22.879863,0.00321312053 22.8908651,0.00303450371 22.9018692,0.0028635248 L22.8695588,0.00343593055 C23.1913035,-0.00207641023 23.5131407,-0.000956071643 23.8348477,0.00679694631 Z" id="Combined-Shape" fill="#000000"></path>
                    </g>
                    <g transform="translate(56.514528, 0.000000)">
                        <path d="M23.8348477,0.00679694631 L23.9790351,0.0105751345 C24.021745,0.01185203 24.064426,0.013244009 24.1070778,0.0147507722 C24.1642306,0.0169842118 24.2216092,0.0192458549 24.2789804,0.0217186554 C27.1735228,0.144911546 29.9306894,0.796918295 32.4569114,1.88341521 C34.4579167,2.74181828 36.3635628,3.89460397 38.107579,5.34125202 C38.1291077,5.36031692 38.1510963,5.37860165 38.1730506,5.39692606 C38.2301303,5.44346378 38.286529,5.4910508 38.3427537,5.53894847 C38.3854836,5.57629791 38.4285166,5.61318262 38.471413,5.65022132 C38.5278988,5.69818982 38.5838832,5.74705366 38.6396884,5.79623042 C38.6714745,5.82490423 38.7031719,5.85295843 38.734792,5.88109758 C39.0717352,6.18066406 39.402216,6.49249346 39.7255493,6.81582671 L179.251817,146.342094 C188.173162,155.263439 188.336538,169.62629 179.741944,178.746935 L188.890851,187.896894 C197.97862,196.984663 197.97862,211.718848 188.890851,220.806617 C186.195438,223.502029 183.003309,225.397988 179.609113,226.494494 C188.337977,235.606071 188.218699,250.07015 179.251817,259.037033 C170.164048,268.124802 155.429863,268.124802 146.342094,259.037033 L6.81582671,119.510765 L6.56509253,119.256175 C6.47266658,119.160885 6.38104873,119.064806 6.29025005,118.96795 C6.24397282,118.918853 6.19842429,118.869885 6.15312586,118.82077 C6.11662764,118.780803 6.07965225,118.740394 6.04281798,118.699855 C5.9878574,118.639901 5.93391491,118.579972 5.88033852,118.519831 C5.85295843,118.488388 5.82490423,118.456691 5.79693532,118.424916 C5.74705366,118.369099 5.69818982,118.313115 5.64963889,118.256953 C5.61803238,118.219349 5.58595975,118.181967 5.55400398,118.144481 C3.85634368,116.156677 2.54819368,113.950197 1.62902294,111.625563 C0.610038336,109.055229 0.0360054984,106.259959 0.00163837955,103.334924 C0.00130000167,103.304496 0.000998274362,103.274233 0.000755216256,103.24397 L0.000755216256,23.0826216 C0.000998920793,23.0522781 0.00130160701,23.0219349 0.00166327492,22.9915924 L3.22409742e-13,23.270688 C3.2361364e-13,20.2527386 0.57450058,17.368971 1.62010499,14.7227819 C1.68276788,14.5646588 1.74711587,14.4065661 1.81327423,14.2490536 L1.82872602,14.2126861 C1.92293089,13.9899607 2.02050469,13.7690073 2.12138355,13.5498896 C3.02866893,11.5740015 4.22694539,9.70068023 5.71623184,7.99294325 L5.83650278,7.85684046 C6.23127649,7.41065857 6.64291379,6.9797432 7.07041651,6.56509253 L6.81582671,6.81582671 C7.13915997,6.49249346 7.4696408,6.18066406 7.80676061,5.88033852 C7.8382041,5.85295843 7.86990147,5.82490423 7.90167575,5.79693532 C7.95749276,5.74705366 8.01347719,5.69818982 8.06963863,5.64963889 C8.11285936,5.61318262 8.15589241,5.57629791 8.19906129,5.53956805 C8.25484699,5.4910508 8.31124571,5.44346378 8.36781617,5.3961874 C8.39027972,5.37860165 8.41226834,5.36031692 8.43429113,5.342072 C10.1615716,3.90807625 12.0479796,2.76331499 14.0291739,1.90696825 C16.5702666,0.806506855 19.3466361,0.145816516 22.2618864,0.0214728667 C22.3197668,0.0192458549 22.3771454,0.0169842118 22.4345301,0.0149337263 C22.47695,0.013244009 22.519631,0.01185203 22.5623409,0.0105751345 C22.6648519,0.00761455594 22.7672007,0.00518959751 22.8695588,0.00343593055 C22.879863,0.00321312053 22.8908651,0.00303450371 22.9018692,0.0028635248 L22.8695588,0.00343593055 C23.1913035,-0.00207641023 23.5131407,-0.000956071643 23.8348477,0.00679694631 Z" id="Combined-Shape" fill="#000000"></path>
                    </g>
                    <g transform="translate(113.029056, 0.000000)">
                        <path d="M23.8348477,0.00679694631 L23.9790351,0.0105751345 C24.021745,0.01185203 24.064426,0.013244009 24.1070778,0.0147507722 C24.1642306,0.0169842118 24.2216092,0.0192458549 24.2789804,0.0217186554 C27.1735228,0.144911546 29.9306894,0.796918295 32.4569114,1.88341521 C34.4579167,2.74181828 36.3635628,3.89460397 38.107579,5.34125202 C38.1291077,5.36031692 38.1510963,5.37860165 38.1730506,5.39692606 C38.2301303,5.44346378 38.286529,5.4910508 38.3427537,5.53894847 C38.3854836,5.57629791 38.4285166,5.61318262 38.471413,5.65022132 C38.5278988,5.69818982 38.5838832,5.74705366 38.6396884,5.79623042 C38.6714745,5.82490423 38.7031719,5.85295843 38.734792,5.88109758 C39.0717352,6.18066406 39.402216,6.49249346 39.7255493,6.81582671 L179.251817,146.342094 C188.173162,155.263439 188.336538,169.62629 179.741944,178.746935 L188.890851,187.896894 C197.97862,196.984663 197.97862,211.718848 188.890851,220.806617 C186.195438,223.502029 183.003309,225.397988 179.609113,226.494494 C188.337977,235.606071 188.218699,250.07015 179.251817,259.037033 C170.164048,268.124802 155.429863,268.124802 146.342094,259.037033 L6.81582671,119.510765 L6.56509253,119.256175 C6.47266658,119.160885 6.38104873,119.064806 6.29025005,118.96795 C6.24397282,118.918853 6.19842429,118.869885 6.15312586,118.82077 C6.11662764,118.780803 6.07965225,118.740394 6.04281798,118.699855 C5.9878574,118.639901 5.93391491,118.579972 5.88033852,118.519831 C5.85295843,118.488388 5.82490423,118.456691 5.79693532,118.424916 C5.74705366,118.369099 5.69818982,118.313115 5.64963889,118.256953 C5.61803238,118.219349 5.58595975,118.181967 5.55400398,118.144481 C3.85634368,116.156677 2.54819368,113.950197 1.62902294,111.625563 C0.610038336,109.055229 0.0360054984,106.259959 0.00163837955,103.334924 C0.00130000167,103.304496 0.000998274362,103.274233 0.000755216256,103.24397 L0.000755216256,23.0826216 C0.000998920793,23.0522781 0.00130160701,23.0219349 0.00166327492,22.9915924 L3.79253161e-13,23.270688 C3.80456951e-13,20.2527386 0.57450058,17.368971 1.62010499,14.7227819 C1.68276788,14.5646588 1.74711587,14.4065661 1.81327423,14.2490536 L1.82872602,14.2126861 C1.92293089,13.9899607 2.02050469,13.7690073 2.12138355,13.5498896 C3.02866893,11.5740015 4.22694539,9.70068023 5.71623184,7.99294325 L5.83650278,7.85684046 C6.23127649,7.41065857 6.64291379,6.9797432 7.07041651,6.56509253 L6.81582671,6.81582671 C7.13915997,6.49249346 7.4696408,6.18066406 7.80676061,5.88033852 C7.8382041,5.85295843 7.86990147,5.82490423 7.90167575,5.79693532 C7.95749276,5.74705366 8.01347719,5.69818982 8.06963863,5.64963889 C8.11285936,5.61318262 8.15589241,5.57629791 8.19906129,5.53956805 C8.25484699,5.4910508 8.31124571,5.44346378 8.36781617,5.3961874 C8.39027972,5.37860165 8.41226834,5.36031692 8.43429113,5.342072 C10.1615716,3.90807625 12.0479796,2.76331499 14.0291739,1.90696825 C16.5702666,0.806506855 19.3466361,0.145816516 22.2618864,0.0214728667 C22.3197668,0.0192458549 22.3771454,0.0169842118 22.4345301,0.0149337263 C22.47695,0.013244009 22.519631,0.01185203 22.5623409,0.0105751345 C22.6648519,0.00761455594 22.7672007,0.00518959751 22.8695588,0.00343593055 C22.879863,0.00321312053 22.8908651,0.00303450371 22.9018692,0.0028635248 L22.8695588,0.00343593055 C23.1913035,-0.00207641023 23.5131407,-0.000956071643 23.8348477,0.00679694631 Z" id="Combined-Shape" fill="#000000"></path>
                    </g>
                </g>
            </g>
            <g id="outline-128" mask="url(#mask-2)" fill="#95B6CB">
                <g transform="translate(26.595072, 43.216992)" id="outline">
                    <rect x="0" y="0" width="46.541376" height="126.326592" rx="23.270688"></rect>
                </g>
            </g>
            <g id="outline-128" mask="url(#mask-2)" fill="#95B6CB">
                <g transform="translate(83.109600, 43.216992)" id="outline">
                    <rect x="0" y="0" width="46.541376" height="126.326592" rx="23.270688"></rect>
                </g>
            </g>
            <g id="outline-128" mask="url(#mask-2)" fill="#95B6CB">
                <g transform="translate(139.624128, 43.216992)" id="outline">
                    <rect x="0" y="0" width="46.541376" height="126.326592" rx="23.270688"></rect>
                </g>
            </g>
            <mask id="mask-4" fill="white">
                <use xlink:href="#path-3"></use>
            </mask>
            <use id="Combined-Shape" fill="#95B6CB" xlink:href="#path-3"></use>
            <g id="fill-shadow" opacity="0.1" mask="url(#mask-4)">
                <g transform="translate(36.568224, 53.190144)" id="fill-shadow-128">
                    <g>
                        <path d="M13.297536,0 C16.9777953,0 20.3086619,1.4950054 22.716347,3.91082196 C30.281149,11.5013879 31.8449392,13.0199499 39.3344439,20.5290685 C41.7336519,22.9344266 43.216992,26.2536578 43.216992,29.919456 L43.216992,109.704672 C43.216992,117.048236 37.2635189,123.002208 29.919456,123.002208 C26.2400278,123.002208 22.9096599,121.507897 20.502141,119.092732 C12.3713626,110.936356 12.440543,110.585634 4.15548,102.739256 C1.5963426,100.315614 0,96.8856811 0,93.082752 L0,13.297536 C0,5.95350633 5.95350633,0 13.297536,0 Z" id="Path" fill="#0C161C"></path>
                    </g>
                    <g transform="translate(56.514528, 0.000000)">
                        <path d="M13.297536,0 C16.9777953,0 20.3086619,1.4950054 22.716347,3.91082196 C30.281149,11.5013879 31.8449392,13.0199499 39.3344439,20.5290685 C41.7336519,22.9344266 43.216992,26.2536578 43.216992,29.919456 L43.216992,109.704672 C43.216992,117.048236 37.2635189,123.002208 29.919456,123.002208 C26.2400278,123.002208 22.9096599,121.507897 20.502141,119.092732 C12.3713626,110.936356 12.440543,110.585634 4.15548,102.739256 C1.5963426,100.315614 0,96.8856811 0,93.082752 L0,13.297536 C0,5.95350633 5.95350633,0 13.297536,0 Z" id="Path" fill="#0C161C"></path>
                    </g>
                    <g transform="translate(113.029056, 0.000000)">
                        <path d="M13.297536,0 C16.9777953,0 20.3086619,1.4950054 22.716347,3.91082196 C30.281149,11.5013879 31.8449392,13.0199499 39.3344439,20.5290685 C41.7336519,22.9344266 43.216992,26.2536578 43.216992,29.919456 L43.216992,109.704672 C43.216992,117.048236 37.2635189,123.002208 29.919456,123.002208 C26.2400278,123.002208 22.9096599,121.507897 20.502141,119.092732 C12.3713626,110.936356 12.440543,110.585634 4.15548,102.739256 C1.5963426,100.315614 0,96.8856811 0,93.082752 L0,13.297536 C0,5.95350633 5.95350633,0 13.297536,0 Z" id="Path" fill="#0C161C"></path>
                    </g>
                </g>
            </g>
            <g id="fill-128" mask="url(#mask-4)" fill="#FFFFFF">
                <g transform="translate(36.568224, 53.190144)" id="fill">
                    <rect x="0" y="0" width="26.595072" height="106.380288" rx="13.297536"></rect>
                </g>
            </g>
            <g id="fill-128" mask="url(#mask-4)" fill="#FFFFFF">
                <g transform="translate(93.082752, 53.190144)" id="fill">
                    <rect x="0" y="0" width="26.595072" height="106.380288" rx="13.297536"></rect>
                </g>
            </g>
            <g id="fill-128" mask="url(#mask-4)" fill="#FFFFFF">
                <g transform="translate(149.597280, 53.190144)" id="fill">
                    <rect x="0" y="0" width="26.595072" height="106.380288" rx="13.297536"></rect>
                </g>
            </g>
        </g>
        <path d="M297.321438,177.003155 L305.699203,147.262088 L305.79229,147.262088 L314.216598,177.003155 L317.567704,177.003155 L326.736703,143.771352 L323.57177,143.771352 L315.985238,172.860816 L315.892151,172.860816 L307.747102,143.771352 L303.790934,143.771352 L295.692428,172.860816 L295.599342,172.860816 L288.059353,143.771352 L284.661703,143.771352 L293.877245,177.003155 L297.321438,177.003155 Z M338.97755,177.654759 C340.808246,177.654759 342.429499,177.3212 343.841308,176.654082 C345.253116,175.986963 346.439967,175.079372 347.401858,173.931308 C348.36375,172.783244 349.092926,171.44125 349.589386,169.905326 C350.085846,168.369402 350.334076,166.732635 350.334076,164.995025 C350.334076,163.257414 350.085846,161.620647 349.589386,160.084723 C349.092926,158.548799 348.36375,157.206806 347.401858,156.058741 C346.439967,154.910677 345.253116,153.995329 343.841308,153.312696 C342.429499,152.630063 340.808246,152.288747 338.97755,152.288747 C337.146853,152.288747 335.5256,152.630063 334.113791,153.312696 C332.701983,153.995329 331.515133,154.910677 330.553241,156.058741 C329.591349,157.206806 328.862173,158.548799 328.365713,160.084723 C327.869253,161.620647 327.621023,163.257414 327.621023,164.995025 C327.621023,166.732635 327.869253,168.369402 328.365713,169.905326 C328.862173,171.44125 329.591349,172.783244 330.553241,173.931308 C331.515133,175.079372 332.701983,175.986963 334.113791,176.654082 C335.5256,177.3212 337.146853,177.654759 338.97755,177.654759 Z M338.97755,175.234516 C337.581255,175.234516 336.355619,174.939743 335.300641,174.350196 C334.245663,173.76065 333.369101,172.984931 332.670954,172.023039 C331.972807,171.061147 331.445318,169.967384 331.088487,168.741747 C330.731656,167.516111 330.553241,166.267204 330.553241,164.995025 C330.553241,163.722845 330.731656,162.473938 331.088487,161.248302 C331.445318,160.022666 331.972807,158.928902 332.670954,157.96701 C333.369101,157.005119 334.245663,156.2294 335.300641,155.639853 C336.355619,155.050307 337.581255,154.755533 338.97755,154.755533 C340.373844,154.755533 341.59948,155.050307 342.654458,155.639853 C343.709436,156.2294 344.585998,157.005119 345.284145,157.96701 C345.982292,158.928902 346.509781,160.022666 346.866612,161.248302 C347.223443,162.473938 347.401858,163.722845 347.401858,164.995025 C347.401858,166.267204 347.223443,167.516111 346.866612,168.741747 C346.509781,169.967384 345.982292,171.061147 345.284145,172.023039 C344.585998,172.984931 343.709436,173.76065 342.654458,174.350196 C341.59948,174.939743 340.373844,175.234516 338.97755,175.234516 Z M357.641349,177.003155 L357.641349,164.203791 C357.641349,162.931612 357.858551,161.760276 358.292953,160.689784 C358.727356,159.619292 359.340174,158.696186 360.131407,157.920467 C360.922641,157.144748 361.861261,156.547444 362.947267,156.128556 C364.033274,155.709668 365.243396,155.531252 366.577633,155.59331 L366.577633,152.661092 C364.405619,152.568006 362.536136,153.048952 360.969184,154.103929 C359.402232,155.158907 358.24641,156.663802 357.50172,158.618614 L357.408634,158.618614 L357.408634,152.986894 L354.709131,152.986894 L354.709131,177.003155 L357.641349,177.003155 Z M372.302439,177.003155 L372.302439,167.880699 L377.049839,163.924532 L386.54464,177.003155 L390.221548,177.003155 L379.28391,161.876634 L389.523401,152.986894 L385.613777,152.986894 L372.302439,164.622679 L372.302439,143.771352 L369.370221,143.771352 L369.370221,177.003155 L372.302439,177.003155 Z M396.365243,177.003155 L396.365243,161.178487 L412.282998,161.178487 L412.282998,158.478985 L396.365243,158.478985 L396.365243,146.470854 L414.284353,146.470854 L414.284353,143.771352 L393.200309,143.771352 L393.200309,177.003155 L396.365243,177.003155 Z M420.61422,177.003155 L420.61422,143.771352 L417.682002,143.771352 L417.682002,177.003155 L420.61422,177.003155 Z M436.392345,177.654759 C438.223042,177.654759 439.844295,177.3212 441.256103,176.654082 C442.667912,175.986963 443.854762,175.079372 444.816654,173.931308 C445.778545,172.783244 446.507721,171.44125 447.004181,169.905326 C447.500641,168.369402 447.748871,166.732635 447.748871,164.995025 C447.748871,163.257414 447.500641,161.620647 447.004181,160.084723 C446.507721,158.548799 445.778545,157.206806 444.816654,156.058741 C443.854762,154.910677 442.667912,153.995329 441.256103,153.312696 C439.844295,152.630063 438.223042,152.288747 436.392345,152.288747 C434.561648,152.288747 432.940395,152.630063 431.528587,153.312696 C430.116778,153.995329 428.929928,154.910677 427.968036,156.058741 C427.006145,157.206806 426.276969,158.548799 425.780509,160.084723 C425.284048,161.620647 425.035818,163.257414 425.035818,164.995025 C425.035818,166.732635 425.284048,168.369402 425.780509,169.905326 C426.276969,171.44125 427.006145,172.783244 427.968036,173.931308 C428.929928,175.079372 430.116778,175.986963 431.528587,176.654082 C432.940395,177.3212 434.561648,177.654759 436.392345,177.654759 Z M436.392345,175.234516 C434.996051,175.234516 433.770415,174.939743 432.715437,174.350196 C431.660459,173.76065 430.783896,172.984931 430.085749,172.023039 C429.387602,171.061147 428.860113,169.967384 428.503282,168.741747 C428.146452,167.516111 427.968036,166.267204 427.968036,164.995025 C427.968036,163.722845 428.146452,162.473938 428.503282,161.248302 C428.860113,160.022666 429.387602,158.928902 430.085749,157.96701 C430.783896,157.005119 431.660459,156.2294 432.715437,155.639853 C433.770415,155.050307 434.996051,154.755533 436.392345,154.755533 C437.788639,154.755533 439.014275,155.050307 440.069253,155.639853 C441.124231,156.2294 442.000793,157.005119 442.698941,157.96701 C443.397088,158.928902 443.924577,160.022666 444.281407,161.248302 C444.638238,162.473938 444.816654,163.722845 444.816654,164.995025 C444.816654,166.267204 444.638238,167.516111 444.281407,168.741747 C443.924577,169.967384 443.397088,171.061147 442.698941,172.023039 C442.000793,172.984931 441.124231,173.76065 440.069253,174.350196 C439.014275,174.939743 437.788639,175.234516 436.392345,175.234516 Z M460.641322,177.003155 L466.505758,156.803432 L466.598844,156.803432 L472.509823,177.003155 L475.7213,177.003155 L483.447461,152.986894 L480.329071,152.986894 L474.185376,173.558963 L474.09229,173.558963 L468.227854,152.986894 L464.923291,152.986894 L459.058855,173.558963 L458.965769,173.558963 L452.822074,152.986894 L449.703683,152.986894 L457.429845,177.003155 L460.641322,177.003155 Z M488.520663,185.846352 C489.451526,185.846352 490.219488,185.761023 490.824549,185.590365 C491.42961,185.419707 491.957099,185.140448 492.407016,184.752588 C492.856933,184.364729 493.268064,183.83724 493.640409,183.170121 C494.012754,182.503003 494.416128,181.657469 494.850531,180.63352 L505.276194,152.986894 L502.343977,152.986894 L494.943617,173.465876 L487.031283,152.986894 L483.912892,152.986894 L493.50078,176.910069 L492.476831,179.609571 C492.2286,180.168089 491.995885,180.680063 491.778683,181.145495 C491.561482,181.610926 491.297738,182.006543 490.98745,182.332345 C490.677162,182.658147 490.312574,182.914134 489.893686,183.100307 C489.474798,183.286479 488.939552,183.379566 488.287948,183.379566 C487.946631,183.379566 487.613072,183.356294 487.28727,183.309751 C486.961468,183.263208 486.627909,183.208907 486.286593,183.14685 L486.286593,185.613636 C486.534823,185.706723 486.821839,185.761023 487.147641,185.776537 C487.473443,185.792052 487.931117,185.815323 488.520663,185.846352 Z" id="WorkFlowy" fill-opacity="0.980031687" fill="#383838" fill-rule="nonzero"></path>
        <path d="M297.270701,249.833078 L297.270701,209.819579 L297.430435,209.819579 L311.407206,249.833078 L321.071145,249.833078 L335.047916,209.420243 L335.20765,209.420243 L335.20765,249.833078 L346.948138,249.833078 L346.948138,192.807852 L329.297473,192.807852 L316.678445,232.022678 L316.518711,232.022678 L303.180878,192.807852 L285.530213,192.807852 L285.530213,249.833078 L297.270701,249.833078 Z M371.866724,250.871352 C374.262742,250.871352 376.605515,250.338904 378.895043,249.274007 C381.184571,248.20911 383.048141,246.478653 384.485751,244.082635 L384.725353,244.082635 L384.725353,249.833078 L395.507434,249.833078 L395.507434,208.541703 L384.166282,208.541703 L384.166282,230.185731 C384.166282,234.392073 383.4741,237.413718 382.089734,239.250665 C380.705368,241.087612 378.469084,242.006086 375.380884,242.006086 C372.665397,242.006086 370.775205,241.16748 369.710308,239.490267 C368.645411,237.813055 368.112963,235.270613 368.112963,231.862944 L368.112963,208.541703 L356.771811,208.541703 L356.771811,233.939492 C356.771811,236.495245 356.998102,238.824707 357.450683,240.927878 C357.903264,243.031049 358.688626,244.814751 359.806767,246.278984 C360.924909,247.743218 362.455698,248.87467 364.399135,249.673343 C366.342572,250.472016 368.831768,250.871352 371.866724,250.871352 Z M415.793718,249.833078 L415.793718,192.807852 L404.452567,192.807852 L404.452567,249.833078 L415.793718,249.833078 Z M440.792172,250.232414 C441.910313,250.232414 443.055077,250.205792 444.226464,250.152547 C445.397851,250.099302 446.462747,249.992812 447.421155,249.833078 L447.421155,241.047679 C446.888706,241.154168 446.329635,241.234036 445.743942,241.287281 C445.158249,241.340525 444.545933,241.367148 443.906995,241.367148 C441.990181,241.367148 440.712304,241.047679 440.073366,240.408741 C439.434428,239.769803 439.114959,238.491926 439.114959,236.575112 L439.114959,216.129093 L447.421155,216.129093 L447.421155,208.541703 L439.114959,208.541703 L439.114959,196.162277 L427.773808,196.162277 L427.773808,208.541703 L420.905223,208.541703 L420.905223,216.129093 L427.773808,216.129093 L427.773808,240.488608 C427.773808,242.565157 428.119899,244.242369 428.812082,245.520245 C429.504265,246.798122 430.449361,247.783151 431.64737,248.475334 C432.845379,249.167517 434.229745,249.633409 435.800468,249.873011 C437.371191,250.112613 439.035092,250.232414 440.792172,250.232414 Z M464.512749,202.152322 L464.512749,192.807852 L453.171597,192.807852 L453.171597,202.152322 L464.512749,202.152322 Z M464.512749,249.833078 L464.512749,208.541703 L453.171597,208.541703 L453.171597,249.833078 L464.512749,249.833078 Z M487.195051,249.833078 L487.195051,226.272235 L511.075363,226.272235 L511.075363,216.528429 L487.195051,216.528429 L487.195051,203.350331 L514.749257,203.350331 L514.749257,192.807852 L474.655891,192.807852 L474.655891,249.833078 L487.195051,249.833078 Z M532.479789,249.833078 L532.479789,192.807852 L521.138638,192.807852 L521.138638,249.833078 L532.479789,249.833078 Z M561.471606,250.871352 C564.719541,250.871352 567.661319,250.365526 570.296938,249.353874 C572.932558,248.342222 575.182152,246.8913 577.045722,245.001108 C578.909291,243.110916 580.346902,240.834699 581.358554,238.172457 C582.370206,235.510215 582.876032,232.528504 582.876032,229.227324 C582.876032,225.926144 582.370206,222.931121 581.358554,220.242257 C580.346902,217.553392 578.909291,215.263864 577.045722,213.373672 C575.182152,211.48348 572.932558,210.019247 570.296938,208.980973 C567.661319,207.942698 564.719541,207.423561 561.471606,207.423561 C558.22367,207.423561 555.295204,207.942698 552.686207,208.980973 C550.07721,210.019247 547.840926,211.48348 545.977357,213.373672 C544.113787,215.263864 542.676177,217.553392 541.664525,220.242257 C540.652873,222.931121 540.147047,225.926144 540.147047,229.227324 C540.147047,232.528504 540.652873,235.510215 541.664525,238.172457 C542.676177,240.834699 544.113787,243.110916 545.977357,245.001108 C547.840926,246.8913 550.07721,248.342222 552.686207,249.353874 C555.295204,250.365526 558.22367,250.871352 561.471606,250.871352 Z M561.471606,242.405422 C559.554791,242.405422 557.957446,242.032708 556.67957,241.287281 C555.401694,240.541853 554.376731,239.543512 553.60468,238.292258 C552.83263,237.041004 552.28687,235.630016 551.967401,234.059293 C551.647932,232.48857 551.488198,230.877914 551.488198,229.227324 C551.488198,227.576734 551.647932,225.952766 551.967401,224.355421 C552.28687,222.758076 552.83263,221.347087 553.60468,220.122456 C554.376731,218.897825 555.401694,217.899484 556.67957,217.127434 C557.957446,216.355383 559.554791,215.969358 561.471606,215.969358 C563.38842,215.969358 564.999076,216.355383 566.303575,217.127434 C567.608074,217.899484 568.646348,218.897825 569.418398,220.122456 C570.190449,221.347087 570.736208,222.758076 571.055677,224.355421 C571.375146,225.952766 571.534881,227.576734 571.534881,229.227324 C571.534881,230.877914 571.375146,232.48857 571.055677,234.059293 C570.736208,235.630016 570.190449,237.041004 569.418398,238.292258 C568.646348,239.543512 567.608074,240.541853 566.303575,241.287281 C564.999076,242.032708 563.38842,242.405422 561.471606,242.405422 Z M611.22891,249.833078 L618.257229,222.119137 L618.416964,222.119137 L625.764752,249.833078 L637.425373,249.833078 L650.443736,208.541703 L638.783116,208.541703 L631.195726,236.495245 L631.035992,236.495245 L624.007672,208.541703 L612.98599,208.541703 L606.117406,236.575112 L605.957671,236.575112 L598.370281,208.541703 L586.390192,208.541703 L599.488423,249.833078 L611.22891,249.833078 Z" id="MultiFlow" fill-opacity="0.980031687" fill="#383838" fill-rule="nonzero"></path>
    </g>
</svg>