<?xml version="1.0" encoding="UTF-8"?>
<svg width="700px" height="394px" viewBox="0 0 700 394" version="1.1" xmlns="http://www.w3.org/2000/svg" xmlns:xlink="http://www.w3.org/1999/xlink">
    <title>multiflow-thumb@1x</title>
    <defs>
        <path d="M61.708878,53.4810276 C77.613285,53.4810276 90.5063544,66.374097 90.5063544,82.278504 L90.5063544,181.012709 C90.5063544,196.917116 77.613285,209.810185 61.708878,209.810185 C45.804471,209.810185 32.9114016,196.917116 32.9114016,181.012709 L32.9114016,82.278504 C32.9114016,66.374097 45.804471,53.4810276 61.708878,53.4810276 Z M131.645606,53.4810276 C147.550013,53.4810276 160.443083,66.374097 160.443083,82.278504 L160.443083,181.012709 C160.443083,196.917116 147.550013,209.810185 131.645606,209.810185 C115.741199,209.810185 102.84813,196.917116 102.84813,181.012709 L102.84813,82.278504 C102.84813,66.374097 115.741199,53.4810276 131.645606,53.4810276 Z M201.582335,53.4810276 C217.486742,53.4810276 230.379811,66.374097 230.379811,82.278504 L230.379811,181.012709 C230.379811,196.917116 217.486742,209.810185 201.582335,209.810185 C185.677928,209.810185 172.784858,196.917116 172.784858,181.012709 L172.784858,82.278504 C172.784858,66.374097 185.677928,53.4810276 201.582335,53.4810276 Z" id="path-1"></path>
    </defs>
    <g id="multiflow-thumb" stroke="none" stroke-width="1" fill="none" fill-rule="evenodd">
        <rect fill="#428AB3" x="0" y="0" width="700" height="394"></rect>
        <g id="icon-128-symbol" transform="translate(31.512327, 65.354394)">
            <rect id="background" fill="#428AB3" x="0" y="0" width="263.291213" height="263.291213"></rect>
            <path d="M316.857873,476.887485 L41.3459872,201.3756 L40.7323085,200.743222 L40.1155366,200.066473 L40.0034999,199.938748 C38.4618223,198.175228 37.172271,196.268869 36.1337474,194.266106 L35.6525075,193.292919 L35.4929265,192.946845 C35.2297355,192.370317 34.9873747,191.786856 34.7650189,191.197568 C33.6941116,188.368265 33.0567229,185.324968 32.9334376,182.149742 L32.9149217,181.464958 L32.9149217,81.8012817 L32.933664,81.142846 C33.06786,77.6794073 33.8134652,74.3741867 35.0653906,71.3306713 L35.2741654,70.8354331 L35.730604,69.8335853 L36.1353379,69.025874 C37.0241377,67.3085626 38.0985345,65.6626416 39.3575269,64.1169766 L40.1155014,63.2247446 L40.4247,62.879771 L40.880362,62.3919167 L41.3459872,61.9156132 C41.5544093,61.707191 41.7652315,61.5026314 41.9783646,61.3019345 L42.6551136,60.6851626 L42.7828386,60.5731259 C44.5463584,59.0314483 46.452718,57.741897 48.4554809,56.7033734 L49.4286678,56.2221335 L50.2656549,55.8439687 L50.9904849,55.5417976 L51.5240191,55.3346449 C53.490246,54.5902811 55.5601736,54.0554212 57.7058607,53.7570161 L59.0065797,53.6063156 L60.0624496,53.5278402 L60.7488556,53.4969006 L61.1436739,53.4864635 L61.7087459,53.4810206 L62.1613492,53.4810206 L62.844536,53.50329 L63.4314774,53.5322762 L64.4113463,53.6062915 L64.786237,53.6449306 C67.2640582,53.9068797 69.6466204,54.4839434 71.8949018,55.3343314 L72.6567107,55.6350166 L73.1519489,55.8437914 L74.1537967,56.30023 L74.961508,56.7049639 C76.6788194,57.5937637 78.3247404,58.6681605 79.8704054,59.9271529 L80.7626374,60.6851274 L81.107611,60.994326 L81.6448973,61.4974548 L82.0717688,61.9156132 L102.850126,82.6940034 L102.852183,81.8012817 L102.870392,81.142846 C103.004588,77.6794073 103.750194,74.3741867 105.002119,71.3306713 L105.210894,70.8354331 L105.667332,69.8335853 L106.072066,69.025874 C106.960866,67.3085626 108.035263,65.6626416 109.294255,64.1169766 L110.05223,63.2247446 L110.361428,62.879771 L110.81709,62.3919167 L111.282716,61.9156132 C111.491138,61.707191 111.70196,61.5026314 111.915093,61.3019345 L112.591842,60.6851626 L112.719567,60.5731259 C114.483087,59.0314483 116.389446,57.741897 118.392209,56.7033734 L119.365396,56.2221335 L120.202383,55.8439687 L120.927213,55.5417976 L121.460747,55.3346449 C123.426974,54.5902811 125.496902,54.0554212 127.642589,53.7570161 L128.943308,53.6063156 L129.999178,53.5278402 L130.685584,53.4969006 L131.080402,53.4864635 L131.645474,53.4810206 L132.098078,53.4810206 L132.781264,53.50329 L133.368206,53.5322762 L134.348075,53.6062915 L134.722965,53.6449306 C137.200787,53.9068797 139.583349,54.4839434 141.83163,55.3343314 L142.593439,55.6350166 L143.088677,55.8437914 L144.090525,56.30023 L144.898236,56.7049639 C146.615548,57.5937637 148.261469,58.6681605 149.807134,59.9271529 L150.699366,60.6851274 L151.044339,60.994326 L151.581626,61.4974548 L152.008497,61.9156132 L172.786855,82.6940034 L172.788912,81.8012817 L172.807121,81.142846 C172.941317,77.6794073 173.686922,74.3741867 174.938847,71.3306713 L175.147622,70.8354331 L175.604061,69.8335853 L176.008795,69.025874 C176.897594,67.3085626 177.971991,65.6626416 179.230984,64.1169766 L179.988958,63.2247446 L180.298157,62.879771 L180.753819,62.3919167 L181.219444,61.9156132 C181.427866,61.707191 181.638688,61.5026314 181.851821,61.3019345 L182.52857,60.6851626 L182.656295,60.5731259 C184.419815,59.0314483 186.326175,57.741897 188.328938,56.7033734 L189.302125,56.2221335 L190.139112,55.8439687 L190.863942,55.5417976 L191.397476,55.3346449 C193.363703,54.5902811 195.43363,54.0554212 197.579318,53.7570161 L198.880036,53.6063156 L199.935906,53.5278402 L200.622312,53.4969006 L201.017131,53.4864635 L201.582203,53.4810206 L202.034806,53.4810206 L202.717993,53.50329 L203.304934,53.5322762 L204.284803,53.6062915 L204.659694,53.6449306 C207.137515,53.9068797 209.520077,54.4839434 211.768359,55.3343314 L212.530168,55.6350166 L213.025406,55.8437914 L214.027253,56.30023 L214.834965,56.7049639 C216.552276,57.5937637 218.198197,58.6681605 219.743862,59.9271529 L220.636094,60.6851274 L220.981068,60.994326 L221.518354,61.4974548 L221.945226,61.9156132 L497.457111,337.427499 L497.457111,476.887485 L316.857873,476.887485 Z" id="blue-outer-shadow" fill="#000000" opacity="0.1"></path>
            <path d="M61.708878,53.4810276 C77.613285,53.4810276 90.5063544,66.374097 90.5063544,82.278504 L90.5063544,181.012709 C90.5063544,196.917116 77.613285,209.810185 61.708878,209.810185 C45.804471,209.810185 32.9114016,196.917116 32.9114016,181.012709 L32.9114016,82.278504 C32.9114016,66.374097 45.804471,53.4810276 61.708878,53.4810276 Z M131.645606,53.4810276 C147.550013,53.4810276 160.443083,66.374097 160.443083,82.278504 L160.443083,181.012709 C160.443083,196.917116 147.550013,209.810185 131.645606,209.810185 C115.741199,209.810185 102.84813,196.917116 102.84813,181.012709 L102.84813,82.278504 C102.84813,66.374097 115.741199,53.4810276 131.645606,53.4810276 Z M201.582335,53.4810276 C217.486742,53.4810276 230.379811,66.374097 230.379811,82.278504 L230.379811,181.012709 C230.379811,196.917116 217.486742,209.810185 201.582335,209.810185 C185.677928,209.810185 172.784858,196.917116 172.784858,181.012709 L172.784858,82.278504 C172.784858,66.374097 185.677928,53.4810276 201.582335,53.4810276 Z" id="blue-outer" fill="#95B6CB"></path>
            <mask id="mask-2" fill="white">
                <use xlink:href="#path-1"></use>
            </mask>
            <use id="bright-shadow-mask" fill="#95B6CB" xlink:href="#path-1"></use>
            <path d="M61.708878,65.8228032 C66.2631989,65.8228032 70.3851462,67.6728724 73.3646566,70.6624454 C75.0166758,72.320091 76.4374277,73.7437334 77.708024,75.015408 L80.0730419,77.3804403 C80.4418547,77.748944 80.7999918,78.1066391 81.1504573,78.4565639 L81.8420497,79.1469535 C83.6637668,80.9651662 85.3242382,82.6199743 87.2792024,84.572307 L88.4129338,85.7049121 C88.8032003,86.0949326 89.2068241,86.4984512 89.6268095,86.9185064 L90.4894859,87.7815658 C91.5234698,88.8162925 92.6574372,89.9520796 93.9295516,91.2275255 C96.8985714,94.2041561 98.7342048,98.3117047 98.7342048,102.84813 L98.7342048,201.582335 C98.7342048,210.669996 91.3667819,218.038036 82.278504,218.038036 C77.7252116,218.038036 73.6038813,216.188826 70.6245767,213.20006 C65.9290522,208.489752 63.4434166,205.883069 61.085703,203.455614 L60.5816779,202.937487 C59.9102318,202.248439 59.2370886,201.562801 58.5136893,200.835689 L57.9609581,200.281877 C56.0820522,198.405242 53.8131722,196.199264 50.3955837,192.962633 C47.2286512,189.963376 45.2531772,185.718834 45.2531772,181.012709 L45.2531772,82.278504 C45.2531772,73.1902673 52.6206413,65.8228032 61.708878,65.8228032 Z M131.645606,65.8228032 C136.199927,65.8228032 140.321875,67.6728724 143.301385,70.6624454 C144.402731,71.7675425 145.401292,72.7686381 146.3211,73.6900391 L147.215548,74.5857755 C147.360544,74.7309375 147.503575,74.8741109 147.644752,75.015408 L148.868301,76.2394651 C149.130413,76.5015712 149.386445,76.7575232 149.637288,77.0082212 L150.734052,78.1039365 C150.85269,78.2224174 150.970364,78.3399223 151.087186,78.4565639 L151.778778,79.1469535 C153.486638,80.8515279 155.052778,82.412485 156.852715,84.2096187 L157.586049,84.9419686 C159.330411,86.6843769 161.322051,88.6766337 163.86628,91.2275255 C166.8353,94.2041561 168.670933,98.3117047 168.670933,102.84813 L168.670933,201.582335 C168.670933,210.669996 161.30351,218.038036 152.215232,218.038036 C147.66194,218.038036 143.54061,216.188826 140.561305,213.20006 C135.865781,208.489752 133.380145,205.883069 131.022431,203.455614 L130.518406,202.937487 C129.84696,202.248439 129.173817,201.562801 128.450418,200.835689 L127.897686,200.281877 C126.018781,198.405242 123.749901,196.199264 120.332312,192.962633 C117.16538,189.963376 115.189906,185.718834 115.189906,181.012709 L115.189906,82.278504 C115.189906,73.1902673 122.55737,65.8228032 131.645606,65.8228032 Z M201.582335,65.8228032 C206.136656,65.8228032 210.258603,67.6728724 213.238113,70.6624454 C214.33946,71.7675425 215.33802,72.7686381 216.257829,73.6900391 L217.152276,74.5857755 C217.297272,74.7309375 217.440303,74.8741109 217.581481,75.015408 L218.40719,75.8415776 C218.541397,75.9758203 218.673973,76.108412 218.805029,76.2394651 L219.574016,77.0082212 C219.699437,77.1335702 219.823561,77.2576058 219.946499,77.3804403 L220.67078,78.1039365 C222.806262,80.2365921 224.629519,82.0530582 226.789443,84.2096187 L227.522777,84.9419686 C228.270361,85.688715 229.063363,86.481352 229.925817,87.3441863 L230.812311,88.23132 C231.723737,89.1436533 232.712625,90.1342862 233.803008,91.2275255 C236.772028,94.2041561 238.607662,98.3117047 238.607662,102.84813 L238.607662,201.582335 C238.607662,210.669996 231.240239,218.038036 222.151961,218.038036 C217.598668,218.038036 213.477338,216.188826 210.498033,213.20006 C205.802509,208.489752 203.316873,205.883069 200.95916,203.455614 L200.455135,202.937487 C197.937212,200.353557 195.395423,197.817579 190.269041,192.962633 C187.102108,189.963376 185.126634,185.718834 185.126634,181.012709 L185.126634,82.278504 C185.126634,73.1902673 192.494098,65.8228032 201.582335,65.8228032 Z" id="bright-shadow" fill="#0C161C" opacity="0.1" mask="url(#mask-2)"></path>
            <path d="M61.708878,65.8228032 C70.7971106,65.8228032 78.1645788,73.1902714 78.1645788,82.278504 L78.1645788,181.012709 C78.1645788,190.100941 70.7971106,197.46841 61.708878,197.46841 C52.6206454,197.46841 45.2531772,190.100941 45.2531772,181.012709 L45.2531772,82.278504 C45.2531772,73.1902714 52.6206454,65.8228032 61.708878,65.8228032 Z M131.645606,65.8228032 C140.733839,65.8228032 148.101307,73.1902714 148.101307,82.278504 L148.101307,181.012709 C148.101307,190.100941 140.733839,197.46841 131.645606,197.46841 C122.557374,197.46841 115.189906,190.100941 115.189906,181.012709 L115.189906,82.278504 C115.189906,73.1902714 122.557374,65.8228032 131.645606,65.8228032 Z M201.582335,65.8228032 C210.670567,65.8228032 218.038036,73.1902714 218.038036,82.278504 L218.038036,181.012709 C218.038036,190.100941 210.670567,197.46841 201.582335,197.46841 C192.494102,197.46841 185.126634,190.100941 185.126634,181.012709 L185.126634,82.278504 C185.126634,73.1902714 192.494102,65.8228032 201.582335,65.8228032 Z" id="Shape" fill="#FFFFFF" mask="url(#mask-2)"></path>
        </g>
        <path d="M307.821668,190.220882 L321.141301,142.936185 L321.289297,142.936185 L334.682927,190.220882 L340.010781,190.220882 L354.588379,137.386338 L349.556517,137.386338 L337.49485,183.635063 L337.346854,183.635063 L324.397211,137.386338 L318.107384,137.386338 L305.231739,183.635063 L305.083743,183.635063 L293.096074,137.386338 L287.694222,137.386338 L302.345819,190.220882 L307.821668,190.220882 Z M374.049842,191.256853 C376.960429,191.256853 379.538024,190.726534 381.782629,189.665897 C384.027234,188.605259 385.914182,187.162299 387.443473,185.337016 C388.972764,183.511733 390.132066,181.378125 390.921377,178.936193 C391.710689,176.49426 392.105345,173.891998 392.105345,171.129408 C392.105345,168.366817 391.710689,165.764556 390.921377,163.322623 C390.132066,160.88069 388.972764,158.747082 387.443473,156.921799 C385.914182,155.096516 384.027234,153.641223 381.782629,152.55592 C379.538024,151.470616 376.960429,150.927965 374.049842,150.927965 C371.139256,150.927965 368.56166,151.470616 366.317055,152.55592 C364.072451,153.641223 362.185503,155.096516 360.656211,156.921799 C359.12692,158.747082 357.967619,160.88069 357.178307,163.322623 C356.388996,165.764556 355.99434,168.366817 355.99434,171.129408 C355.99434,173.891998 356.388996,176.49426 357.178307,178.936193 C357.967619,181.378125 359.12692,183.511733 360.656211,185.337016 C362.185503,187.162299 364.072451,188.605259 366.317055,189.665897 C368.56166,190.726534 371.139256,191.256853 374.049842,191.256853 Z M374.049842,187.408959 C371.829903,187.408959 369.881291,186.940305 368.204003,186.002998 C366.526716,185.06569 365.133088,183.832391 364.023119,182.3031 C362.913149,180.773809 362.074506,179.034856 361.507188,177.086244 C360.93987,175.137631 360.656211,173.152019 360.656211,171.129408 C360.656211,169.106797 360.93987,167.121185 361.507188,165.172572 C362.074506,163.223959 362.913149,161.485007 364.023119,159.955716 C365.133088,158.426425 366.526716,157.193125 368.204003,156.255818 C369.881291,155.31851 371.829903,154.849856 374.049842,154.849856 C376.269781,154.849856 378.218394,155.31851 379.895681,156.255818 C381.572968,157.193125 382.966597,158.426425 384.076566,159.955716 C385.186535,161.485007 386.025179,163.223959 386.592497,165.172572 C387.159814,167.121185 387.443473,169.106797 387.443473,171.129408 C387.443473,173.152019 387.159814,175.137631 386.592497,177.086244 C386.025179,179.034856 385.186535,180.773809 384.076566,182.3031 C382.966597,183.832391 381.572968,185.06569 379.895681,186.002998 C378.218394,186.940305 376.269781,187.408959 374.049842,187.408959 Z M403.723024,190.220882 L403.723024,169.871442 C403.723024,167.848831 404.068348,165.986549 404.758996,164.284596 C405.449643,162.582643 406.42395,161.115017 407.681915,159.881718 C408.939881,158.648418 410.432173,157.698778 412.158792,157.032796 C413.885411,156.366815 415.809358,156.083156 417.930633,156.18182 L417.930633,151.519948 C414.477395,151.371952 411.505143,152.136598 409.013879,153.813885 C406.522614,155.491172 404.684998,157.883773 403.501031,160.991687 L403.353035,160.991687 L403.353035,152.037934 L399.061153,152.037934 L399.061153,190.220882 L403.723024,190.220882 Z M427.032382,190.220882 L427.032382,175.717281 L434.580174,169.427455 L449.675758,190.220882 L455.521597,190.220882 L438.132076,166.171544 L454.411627,152.037934 L448.195799,152.037934 L427.032382,170.537424 L427.032382,137.386338 L422.37051,137.386338 L422.37051,190.220882 L427.032382,190.220882 Z M465.289327,190.220882 L465.289327,165.061575 L490.59663,165.061575 L490.59663,160.769693 L465.289327,160.769693 L465.289327,141.678219 L493.778542,141.678219 L493.778542,137.386338 L460.257466,137.386338 L460.257466,190.220882 L465.289327,190.220882 Z M503.842265,190.220882 L503.842265,137.386338 L499.180393,137.386338 L499.180393,190.220882 L503.842265,190.220882 Z M528.927573,191.256853 C531.83816,191.256853 534.415755,190.726534 536.66036,189.665897 C538.904965,188.605259 540.791913,187.162299 542.321204,185.337016 C543.850495,183.511733 545.009797,181.378125 545.799108,178.936193 C546.58842,176.49426 546.983076,173.891998 546.983076,171.129408 C546.983076,168.366817 546.58842,165.764556 545.799108,163.322623 C545.009797,160.88069 543.850495,158.747082 542.321204,156.921799 C540.791913,155.096516 538.904965,153.641223 536.66036,152.55592 C534.415755,151.470616 531.83816,150.927965 528.927573,150.927965 C526.016987,150.927965 523.439391,151.470616 521.194787,152.55592 C518.950182,153.641223 517.063234,155.096516 515.533943,156.921799 C514.004651,158.747082 512.84535,160.88069 512.056038,163.322623 C511.266727,165.764556 510.872071,168.366817 510.872071,171.129408 C510.872071,173.891998 511.266727,176.49426 512.056038,178.936193 C512.84535,181.378125 514.004651,183.511733 515.533943,185.337016 C517.063234,187.162299 518.950182,188.605259 521.194787,189.665897 C523.439391,190.726534 526.016987,191.256853 528.927573,191.256853 Z M528.927573,187.408959 C526.707635,187.408959 524.759022,186.940305 523.081735,186.002998 C521.404447,185.06569 520.010819,183.832391 518.90085,182.3031 C517.79088,180.773809 516.952237,179.034856 516.384919,177.086244 C515.817601,175.137631 515.533943,173.152019 515.533943,171.129408 C515.533943,169.106797 515.817601,167.121185 516.384919,165.172572 C516.952237,163.223959 517.79088,161.485007 518.90085,159.955716 C520.010819,158.426425 521.404447,157.193125 523.081735,156.255818 C524.759022,155.31851 526.707635,154.849856 528.927573,154.849856 C531.147512,154.849856 533.096125,155.31851 534.773412,156.255818 C536.450699,157.193125 537.844328,158.426425 538.954297,159.955716 C540.064266,161.485007 540.90291,163.223959 541.470228,165.172572 C542.037545,167.121185 542.321204,169.106797 542.321204,171.129408 C542.321204,173.152019 542.037545,175.137631 541.470228,177.086244 C540.90291,179.034856 540.064266,180.773809 538.954297,182.3031 C537.844328,183.832391 536.450699,185.06569 534.773412,186.002998 C533.096125,186.940305 531.147512,187.408959 528.927573,187.408959 Z M567.480511,190.220882 L576.804254,158.105767 L576.95225,158.105767 L586.349991,190.220882 L591.45585,190.220882 L603.739511,152.037934 L598.781648,152.037934 L589.013917,184.745032 L588.865921,184.745032 L579.542178,152.037934 L574.288323,152.037934 L564.96458,184.745032 L564.816584,184.745032 L555.048853,152.037934 L550.09099,152.037934 L562.374652,190.220882 L567.480511,190.220882 Z M611.805289,204.280494 C613.285248,204.280494 614.506215,204.144831 615.468188,203.873505 C616.430162,203.602179 617.268805,203.158192 617.984119,202.541542 C618.699432,201.924892 619.353081,201.086249 619.945065,200.025611 C620.537048,198.964974 621.178364,197.620678 621.869012,195.992722 L638.444555,152.037934 L633.782683,152.037934 L622.017008,184.597037 L609.437354,152.037934 L604.479491,152.037934 L619.723071,190.072886 L618.095116,194.364767 C617.70046,195.252743 617.33047,196.06672 616.985146,196.8067 C616.639822,197.54668 616.220501,198.175662 615.727181,198.693648 C615.233861,199.211634 614.654211,199.618622 613.988229,199.914614 C613.322247,200.210606 612.471271,200.358602 611.435299,200.358602 C610.892648,200.358602 610.362329,200.321603 609.844343,200.247605 C609.326357,200.173607 608.796039,200.087276 608.253387,199.988612 L608.253387,203.910504 C608.648043,204.0585 609.104363,204.144831 609.622349,204.169497 C610.140335,204.194163 610.867982,204.231162 611.805289,204.280494 Z" id="WorkFlowy" fill-opacity="0.980031687" fill="#FFFFFF" fill-rule="nonzero"></path>
        <path d="M303.984071,260.256356 L303.984071,223.127575 L304.13229,223.127575 L317.101425,260.256356 L326.068656,260.256356 L339.037791,222.757028 L339.18601,222.757028 L339.18601,260.256356 L350.080084,260.256356 L350.080084,207.342284 L333.701918,207.342284 L321.992642,243.729972 L321.844423,243.729972 L309.468163,207.342284 L293.089998,207.342284 L293.089998,260.256356 L303.984071,260.256356 Z M373.202199,261.219778 C375.425479,261.219778 377.599353,260.725715 379.723821,259.737591 C381.848289,258.749466 383.577507,257.143764 384.911475,254.920483 L385.133803,254.920483 L385.133803,260.256356 L395.138565,260.256356 L395.138565,221.941825 L384.615038,221.941825 L384.615038,242.025457 C384.615038,245.92855 383.972757,248.732353 382.688195,250.436868 C381.403633,252.141383 379.328571,252.99364 376.46301,252.99364 C373.943292,252.99364 372.189371,252.215492 371.201247,250.659196 C370.213122,249.1029 369.71906,246.743752 369.71906,243.581754 L369.71906,221.941825 L359.195533,221.941825 L359.195533,245.508597 C359.195533,247.880096 359.405509,250.041618 359.825462,251.993164 C360.245415,253.94471 360.974157,255.599819 362.011688,256.95849 C363.049219,258.317162 364.469648,259.367044 366.272975,260.108137 C368.076303,260.849231 370.386044,261.219778 373.202199,261.219778 Z M413.962338,260.256356 L413.962338,207.342284 L403.438811,207.342284 L403.438811,260.256356 L413.962338,260.256356 Z M437.158563,260.626903 C438.196094,260.626903 439.258328,260.6022 440.345265,260.552793 C441.432202,260.503387 442.420327,260.404575 443.309639,260.256356 L443.309639,252.104328 C442.815576,252.203141 442.296811,252.27725 441.753343,252.326656 C441.209874,252.376062 440.641702,252.400766 440.048828,252.400766 C438.270203,252.400766 437.084454,252.104328 436.491579,251.511453 C435.898704,250.918579 435.602267,249.732829 435.602267,247.954205 L435.602267,228.982213 L443.309639,228.982213 L443.309639,221.941825 L435.602267,221.941825 L435.602267,210.454877 L425.07874,210.454877 L425.07874,221.941825 L418.705336,221.941825 L418.705336,228.982213 L425.07874,228.982213 L425.07874,251.585563 C425.07874,253.512406 425.399881,255.068702 426.042162,256.254452 C426.684443,257.440201 427.561403,258.354216 428.673043,258.996497 C429.784683,259.638778 431.069245,260.071083 432.526729,260.293411 C433.984213,260.515739 435.528158,260.626903 437.158563,260.626903 Z M459.169038,216.013077 L459.169038,207.342284 L448.645512,207.342284 L448.645512,216.013077 L459.169038,216.013077 Z M459.169038,260.256356 L459.169038,221.941825 L448.645512,221.941825 L448.645512,260.256356 L459.169038,260.256356 Z M480.216092,260.256356 L480.216092,238.3941 L502.374786,238.3941 L502.374786,229.352759 L480.216092,229.352759 L480.216092,217.124718 L505.783816,217.124718 L505.783816,207.342284 L468.580925,207.342284 L468.580925,260.256356 L480.216092,260.256356 Z M522.236091,260.256356 L522.236091,207.342284 L511.712564,207.342284 L511.712564,260.256356 L522.236091,260.256356 Z M549.137783,261.219778 C552.151563,261.219778 554.881257,260.750418 557.326865,259.8117 C559.772473,258.872982 561.859887,257.526662 563.589105,255.772741 C565.318323,254.01882 566.652291,251.906703 567.591009,249.436392 C568.529728,246.96608 568.999087,244.199331 568.999087,241.136145 C568.999087,238.072959 568.529728,235.293859 567.591009,232.798844 C566.652291,230.303829 565.318323,228.179362 563.589105,226.42544 C561.859887,224.671519 559.772473,223.312848 557.326865,222.349426 C554.881257,221.386005 552.151563,220.904294 549.137783,220.904294 C546.124003,220.904294 543.40666,221.386005 540.985755,222.349426 C538.564849,223.312848 536.489788,224.671519 534.76057,226.42544 C533.031352,228.179362 531.697384,230.303829 530.758665,232.798844 C529.819947,235.293859 529.350588,238.072959 529.350588,241.136145 C529.350588,244.199331 529.819947,246.96608 530.758665,249.436392 C531.697384,251.906703 533.031352,254.01882 534.76057,255.772741 C536.489788,257.526662 538.564849,258.872982 540.985755,259.8117 C543.40666,260.750418 546.124003,261.219778 549.137783,261.219778 Z M549.137783,253.364187 C547.359158,253.364187 545.876971,253.018343 544.691222,252.326656 C543.505472,251.634969 542.554402,250.708602 541.838012,249.547556 C541.121622,248.386509 540.615208,247.077244 540.318771,245.619761 C540.022333,244.162277 539.874115,242.667738 539.874115,241.136145 C539.874115,239.604552 540.022333,238.097662 540.318771,236.615475 C540.615208,235.133288 541.121622,233.824023 541.838012,232.68768 C542.554402,231.551337 543.505472,230.62497 544.691222,229.90858 C545.876971,229.192189 547.359158,228.833994 549.137783,228.833994 C550.916407,228.833994 552.410945,229.192189 553.621398,229.90858 C554.831851,230.62497 555.795272,231.551337 556.511662,232.68768 C557.228053,233.824023 557.734467,235.133288 558.030904,236.615475 C558.327341,238.097662 558.47556,239.604552 558.47556,241.136145 C558.47556,242.667738 558.327341,244.162277 558.030904,245.619761 C557.734467,247.077244 557.228053,248.386509 556.511662,249.547556 C555.795272,250.708602 554.831851,251.634969 553.621398,252.326656 C552.410945,253.018343 550.916407,253.364187 549.137783,253.364187 Z M595.307904,260.256356 L601.829526,234.540414 L601.977745,234.540414 L608.795805,260.256356 L619.615769,260.256356 L631.695592,221.941825 L620.875628,221.941825 L613.83524,247.880096 L613.687022,247.880096 L607.165399,221.941825 L596.93831,221.941825 L590.564906,247.954205 L590.416687,247.954205 L583.3763,221.941825 L572.259898,221.941825 L584.413831,260.256356 L595.307904,260.256356 Z" id="MultiFlow" fill-opacity="0.980031687" fill="#FFFFFF" fill-rule="nonzero"></path>
    </g>
</svg>