<?xml version="1.0" encoding="UTF-8"?>
<svg width="700px" height="394px" viewBox="0 0 700 394" version="1.1" xmlns="http://www.w3.org/2000/svg" xmlns:xlink="http://www.w3.org/1999/xlink">
    <title>multiflow-thumb-01</title>
    <defs>
        <rect id="path-1" x="0" y="0" width="141.840384" height="141.840384" rx="10.2"></rect>
        <path d="M33.24384,28.811328 C41.8118707,28.811328 48.757632,35.7570893 48.757632,44.32512 L48.757632,97.515264 C48.757632,106.083295 41.8118707,113.029056 33.24384,113.029056 C24.6758093,113.029056 17.730048,106.083295 17.730048,97.515264 L17.730048,44.32512 C17.730048,35.7570893 24.6758093,28.811328 33.24384,28.811328 Z M70.920192,28.811328 C79.4882227,28.811328 86.433984,35.7570893 86.433984,44.32512 L86.433984,97.515264 C86.433984,106.083295 79.4882227,113.029056 70.920192,113.029056 C62.3521613,113.029056 55.4064,106.083295 55.4064,97.515264 L55.4064,44.32512 C55.4064,35.7570893 62.3521613,28.811328 70.920192,28.811328 Z M108.596544,28.811328 C117.164575,28.811328 124.110336,35.7570893 124.110336,44.32512 L124.110336,97.515264 C124.110336,106.083295 117.164575,113.029056 108.596544,113.029056 C100.028513,113.029056 93.082752,106.083295 93.082752,97.515264 L93.082752,44.32512 C93.082752,35.7570893 100.028513,28.811328 108.596544,28.811328 Z" id="path-3"></path>
    </defs>
    <g id="multiflow-thumb-01" stroke="none" stroke-width="1" fill="none" fill-rule="evenodd">
        <path d="M227.191139,170.569747 L238.361493,130.91499 L238.485608,130.91499 L249.718019,170.569747 L254.186161,170.569747 L266.411493,126.260676 L262.191581,126.260676 L252.076205,165.046627 L251.95209,165.046627 L241.092024,126.260676 L235.817134,126.260676 L225.019126,165.046627 L224.895011,165.046627 L214.841692,126.260676 L210.311493,126.260676 L222.598882,170.569747 L227.191139,170.569747 Z M282.732621,171.438552 C285.17355,171.438552 287.335221,170.993807 289.217632,170.104315 C291.100044,169.214824 292.682511,168.004703 293.965033,166.47395 C295.247555,164.943198 296.219789,163.153873 296.881736,161.105975 C297.543683,159.058076 297.874657,156.87572 297.874657,154.558906 C297.874657,152.242092 297.543683,150.059736 296.881736,148.011838 C296.219789,145.963939 295.247555,144.174614 293.965033,142.643862 C292.682511,141.11311 291.100044,139.892645 289.217632,138.982468 C287.335221,138.072291 285.17355,137.617203 282.732621,137.617203 C280.291692,137.617203 278.130022,138.072291 276.24761,138.982468 C274.365199,139.892645 272.782732,141.11311 271.50021,142.643862 C270.217688,144.174614 269.245453,145.963939 268.583506,148.011838 C267.921559,150.059736 267.590586,152.242092 267.590586,154.558906 C267.590586,156.87572 267.921559,159.058076 268.583506,161.105975 C269.245453,163.153873 270.217688,164.943198 271.50021,166.47395 C272.782732,168.004703 274.365199,169.214824 276.24761,170.104315 C278.130022,170.993807 280.291692,171.438552 282.732621,171.438552 Z M282.732621,168.211561 C280.870896,168.211561 279.236714,167.81853 277.830077,167.032468 C276.42344,166.246406 275.25469,165.212114 274.323827,163.929592 C273.392964,162.64707 272.689646,161.188718 272.213871,159.554537 C271.738097,157.920355 271.50021,156.255145 271.50021,154.558906 C271.50021,152.862667 271.738097,151.197457 272.213871,149.563276 C272.689646,147.929094 273.392964,146.470742 274.323827,145.18822 C275.25469,143.905698 276.42344,142.871406 277.830077,142.085344 C279.236714,141.299282 280.870896,140.906251 282.732621,140.906251 C284.594347,140.906251 286.228528,141.299282 287.635165,142.085344 C289.041803,142.871406 290.210553,143.905698 291.141415,145.18822 C292.072278,146.470742 292.775597,147.929094 293.251371,149.563276 C293.727146,151.197457 293.965033,152.862667 293.965033,154.558906 C293.965033,156.255145 293.727146,157.920355 293.251371,159.554537 C292.775597,161.188718 292.072278,162.64707 291.141415,163.929592 C290.210553,165.212114 289.041803,166.246406 287.635165,167.032468 C286.228528,167.81853 284.594347,168.211561 282.732621,168.211561 Z M307.617688,170.569747 L307.617688,153.503928 C307.617688,151.807689 307.907289,150.245908 308.486493,148.818585 C309.065696,147.391262 309.882787,146.160455 310.937765,145.126163 C311.992743,144.091871 313.244236,143.295466 314.692245,142.736948 C316.140254,142.17843 317.753749,141.940543 319.532732,142.023287 L319.532732,138.113663 C316.636714,137.989548 314.14407,138.630809 312.0548,140.037446 C309.96553,141.444083 308.424435,143.45061 307.431515,146.057026 L307.3074,146.057026 L307.3074,138.548065 L303.708064,138.548065 L303.708064,170.569747 L307.617688,170.569747 Z M327.165807,170.569747 L327.165807,158.406472 L333.495674,153.131583 L346.155409,170.569747 L351.057953,170.569747 L336.474435,150.401052 L350.12709,138.548065 L344.914258,138.548065 L327.165807,154.062446 L327.165807,126.260676 L323.256183,126.260676 L323.256183,170.569747 L327.165807,170.569747 Z M359.249546,170.569747 L359.249546,149.470189 L380.473219,149.470189 L380.473219,145.870853 L359.249546,145.870853 L359.249546,129.860012 L383.141692,129.860012 L383.141692,126.260676 L355.029634,126.260676 L355.029634,170.569747 L359.249546,170.569747 Z M391.581515,170.569747 L391.581515,126.260676 L387.671891,126.260676 L387.671891,170.569747 L391.581515,170.569747 Z M412.619015,171.438552 C415.059944,171.438552 417.221615,170.993807 419.104026,170.104315 C420.986438,169.214824 422.568904,168.004703 423.851426,166.47395 C425.133949,164.943198 426.106183,163.153873 426.76813,161.105975 C427.430077,159.058076 427.76105,156.87572 427.76105,154.558906 C427.76105,152.242092 427.430077,150.059736 426.76813,148.011838 C426.106183,145.963939 425.133949,144.174614 423.851426,142.643862 C422.568904,141.11311 420.986438,139.892645 419.104026,138.982468 C417.221615,138.072291 415.059944,137.617203 412.619015,137.617203 C410.178086,137.617203 408.016415,138.072291 406.134004,138.982468 C404.251592,139.892645 402.669126,141.11311 401.386603,142.643862 C400.104081,144.174614 399.131847,145.963939 398.4699,148.011838 C397.807953,150.059736 397.47698,152.242092 397.47698,154.558906 C397.47698,156.87572 397.807953,159.058076 398.4699,161.105975 C399.131847,163.153873 400.104081,164.943198 401.386603,166.47395 C402.669126,168.004703 404.251592,169.214824 406.134004,170.104315 C408.016415,170.993807 410.178086,171.438552 412.619015,171.438552 Z M412.619015,168.211561 C410.757289,168.211561 409.123108,167.81853 407.716471,167.032468 C406.309834,166.246406 405.141084,165.212114 404.210221,163.929592 C403.279358,162.64707 402.576039,161.188718 402.100265,159.554537 C401.624491,157.920355 401.386603,156.255145 401.386603,154.558906 C401.386603,152.862667 401.624491,151.197457 402.100265,149.563276 C402.576039,147.929094 403.279358,146.470742 404.210221,145.18822 C405.141084,143.905698 406.309834,142.871406 407.716471,142.085344 C409.123108,141.299282 410.757289,140.906251 412.619015,140.906251 C414.480741,140.906251 416.114922,141.299282 417.521559,142.085344 C418.928196,142.871406 420.096946,143.905698 421.027809,145.18822 C421.958672,146.470742 422.661991,147.929094 423.137765,149.563276 C423.613539,151.197457 423.851426,152.862667 423.851426,154.558906 C423.851426,156.255145 423.613539,157.920355 423.137765,159.554537 C422.661991,161.188718 421.958672,162.64707 421.027809,163.929592 C420.096946,165.212114 418.928196,166.246406 417.521559,167.032468 C416.114922,167.81853 414.480741,168.211561 412.619015,168.211561 Z M444.950984,170.569747 L452.770232,143.636782 L452.894347,143.636782 L460.775652,170.569747 L465.057621,170.569747 L475.35917,138.548065 L471.201316,138.548065 L463.009723,165.97749 L462.885608,165.97749 L455.06636,138.548065 L450.660276,138.548065 L442.841028,165.97749 L442.716913,165.97749 L434.52532,138.548065 L430.367466,138.548065 L440.669015,170.569747 L444.950984,170.569747 Z M482.12344,182.360676 C483.36459,182.360676 484.388539,182.246904 485.195287,182.01936 C486.002035,181.791815 486.705353,181.41947 487.305243,180.902324 C487.905132,180.385178 488.453307,179.68186 488.949767,178.792368 C489.446227,177.902877 489.984059,176.775499 490.563263,175.410234 L504.464148,138.548065 L500.554524,138.548065 L490.687378,165.853375 L480.137599,138.548065 L475.979745,138.548065 L488.763595,170.445632 L487.398329,174.044968 C487.067356,174.789658 486.757068,175.472291 486.467466,176.092866 C486.177865,176.713442 485.826205,177.24093 485.412488,177.675333 C484.998772,178.109736 484.512654,178.451052 483.954137,178.699282 C483.395619,178.947512 482.681957,179.071627 481.813152,179.071627 C481.358064,179.071627 480.913318,179.040599 480.478915,178.978541 C480.044513,178.916484 479.599767,178.844083 479.144679,178.76134 L479.144679,182.050388 C479.475652,182.174503 479.85834,182.246904 480.292743,182.26759 C480.727146,182.288276 481.337378,182.319304 482.12344,182.360676 Z" id="WorkFlowy" fill-opacity="0.980031687" fill="#383838" fill-rule="nonzero"></path>
        <path d="M225.7004,267.802162 L225.7004,219.300951 L225.894017,219.300951 L242.835558,267.802162 L254.549423,267.802162 L271.490964,218.816907 L271.684581,218.816907 L271.684581,267.802162 L285.915475,267.802162 L285.915475,198.680676 L264.52073,198.680676 L249.224939,246.213798 L249.031321,246.213798 L232.864251,198.680676 L211.469506,198.680676 L211.469506,267.802162 L225.7004,267.802162 Z M316.119822,269.060676 C319.024086,269.060676 321.863811,268.415284 324.638997,267.1245 C327.414183,265.833716 329.673055,263.736192 331.415613,260.831928 L331.706039,260.831928 L331.706039,267.802162 L344.775228,267.802162 L344.775228,217.75201 L331.028378,217.75201 L331.028378,243.987196 C331.028378,249.085793 330.189368,252.748393 328.511349,254.974995 C326.83333,257.201598 324.122683,258.314899 320.379409,258.314899 C317.08791,258.314899 314.796768,257.298406 313.505984,255.265422 C312.2152,253.232437 311.569808,250.15069 311.569808,246.020181 L311.569808,217.75201 L297.822958,217.75201 L297.822958,248.53721 C297.822958,251.635091 298.09725,254.458682 298.645833,257.00798 C299.194416,259.557278 300.14637,261.719342 301.501693,263.49417 C302.857016,265.268998 304.712518,266.640456 307.068199,267.608544 C309.42388,268.576632 312.441088,269.060676 316.119822,269.060676 Z M369.364664,267.802162 L369.364664,198.680676 L355.617814,198.680676 L355.617814,267.802162 L369.364664,267.802162 Z M399.665819,268.286206 C401.021143,268.286206 402.408735,268.253936 403.828598,268.189397 C405.24846,268.124858 406.539244,267.995779 407.70095,267.802162 L407.70095,257.153193 C407.055558,257.282272 406.377896,257.37908 405.667965,257.44362 C404.958034,257.508159 404.215833,257.540428 403.441363,257.540428 C401.117951,257.540428 399.569011,257.153193 398.79454,256.378723 C398.02007,255.604252 397.632835,254.055312 397.632835,251.7319 L397.632835,226.948847 L407.70095,226.948847 L407.70095,217.75201 L397.632835,217.75201 L397.632835,202.746646 L383.885984,202.746646 L383.885984,217.75201 L375.560427,217.75201 L375.560427,226.948847 L383.885984,226.948847 L383.885984,256.475532 C383.885984,258.99256 384.305489,261.025545 385.144499,262.574486 C385.983509,264.123427 387.129079,265.317402 388.581211,266.156412 C390.033343,266.995422 391.711363,267.56014 393.615269,267.850566 C395.519176,268.140992 397.536026,268.286206 399.665819,268.286206 Z M428.418034,210.007306 L428.418034,198.680676 L414.671184,198.680676 L414.671184,210.007306 L428.418034,210.007306 Z M428.418034,267.802162 L428.418034,217.75201 L414.671184,217.75201 L414.671184,267.802162 L428.418034,267.802162 Z M455.911734,267.802162 L455.911734,239.243565 L484.857566,239.243565 L484.857566,227.432891 L455.911734,227.432891 L455.911734,211.459438 L489.310771,211.459438 L489.310771,198.680676 L440.712752,198.680676 L440.712752,267.802162 L455.911734,267.802162 Z M510.802326,267.802162 L510.802326,198.680676 L497.055475,198.680676 L497.055475,267.802162 L510.802326,267.802162 Z M545.943921,269.060676 C549.880813,269.060676 553.446603,268.447554 556.641294,267.221309 C559.835984,265.995064 562.562766,264.236371 564.821638,261.945229 C567.08051,259.654087 568.823068,256.895036 570.049313,253.668076 C571.275558,250.441116 571.88868,246.826921 571.88868,242.82549 C571.88868,238.82406 571.275558,235.19373 570.049313,231.9345 C568.823068,228.67527 567.08051,225.900085 564.821638,223.608943 C562.562766,221.317801 559.835984,219.542973 556.641294,218.284459 C553.446603,217.025944 549.880813,216.396687 545.943921,216.396687 C542.00703,216.396687 538.457374,217.025944 535.294953,218.284459 C532.132532,219.542973 529.421885,221.317801 527.163013,223.608943 C524.904141,225.900085 523.161583,228.67527 521.935338,231.9345 C520.709093,235.19373 520.095971,238.82406 520.095971,242.82549 C520.095971,246.826921 520.709093,250.441116 521.935338,253.668076 C523.161583,256.895036 524.904141,259.654087 527.163013,261.945229 C529.421885,264.236371 532.132532,265.995064 535.294953,267.221309 C538.457374,268.447554 542.00703,269.060676 545.943921,269.060676 Z M545.943921,258.798943 C543.62051,258.798943 541.684334,258.347168 540.135393,257.44362 C538.586452,256.540071 537.344072,255.329961 536.408254,253.813289 C535.472436,252.296618 534.810909,250.586329 534.423674,248.682423 C534.036438,246.778516 533.842821,244.826206 533.842821,242.82549 C533.842821,240.824775 534.036438,238.856329 534.423674,236.920153 C534.810909,234.983977 535.472436,233.273688 536.408254,231.789287 C537.344072,230.304885 538.586452,229.094775 540.135393,228.158957 C541.684334,227.223138 543.62051,226.755229 545.943921,226.755229 C548.267332,226.755229 550.219643,227.223138 551.800854,228.158957 C553.382064,229.094775 554.640579,230.304885 555.576397,231.789287 C556.512216,233.273688 557.173742,234.983977 557.560978,236.920153 C557.948213,238.856329 558.14183,240.824775 558.14183,242.82549 C558.14183,244.826206 557.948213,246.778516 557.560978,248.682423 C557.173742,250.586329 556.512216,252.296618 555.576397,253.813289 C554.640579,255.329961 553.382064,256.540071 551.800854,257.44362 C550.219643,258.347168 548.267332,258.798943 545.943921,258.798943 Z M606.255806,267.802162 L614.77498,234.209507 L614.968598,234.209507 L623.875008,267.802162 L638.009093,267.802162 L653.788928,217.75201 L639.654843,217.75201 L630.458006,251.635091 L630.264389,251.635091 L621.745214,217.75201 L608.385599,217.75201 L600.060042,251.7319 L599.866425,251.7319 L590.669588,217.75201 L576.148268,217.75201 L592.024912,267.802162 L606.255806,267.802162 Z" id="MultiFlow" fill-opacity="0.980031687" fill="#383838" fill-rule="nonzero"></path>
        <g id="Group" transform="translate(46.611072, 125.339324)">
            <mask id="mask-2" fill="white">
                <use xlink:href="#path-1"></use>
            </mask>
            <use id="mask" fill="#428AB3" xlink:href="#path-1"></use>
            <g id="outline-shadow" opacity="0.1" mask="url(#mask-2)">
                <g transform="translate(17.730048, 28.811328)" id="outline-shadow-128">
                    <g>
                        <path d="M15.8540837,0.00370929345 L16.0355792,0.00860972929 C16.0795986,0.010064495 16.1235716,0.0117026457 16.1674974,0.013523442 C16.2115814,0.0155401534 16.2559175,0.0175871849 16.3002458,0.019823414 C16.3706538,0.0231066791 16.4403527,0.0270570248 16.5099269,0.031465971 C16.536863,0.0335375048 16.5645624,0.0353817541 16.5922577,0.0372999908 C16.679436,0.0428911937 16.7657191,0.049541795 16.8518015,0.0568953341 C16.8733092,0.0593043682 16.8949915,0.0612156448 16.9166705,0.063172378 C17.001079,0.0701396994 17.085103,0.0783622221 17.1689277,0.0872523379 C17.200682,0.0913963739 17.2327012,0.0949118183 17.2647113,0.0985267355 C17.3565661,0.108030266 17.4478478,0.119108694 17.5388815,0.130976308 C17.5459336,0.13287533 17.5529325,0.133796485 17.5599309,0.134722412 C17.6625051,0.147249279 17.7648549,0.161779514 17.8668781,0.177303473 C17.8784998,0.180219664 17.8904816,0.18206236 17.9024616,0.183919114 C18.8056355,0.322364465 19.6826591,0.539722569 20.5269117,0.827833785 C20.536492,0.831879918 20.5464834,0.835293492 20.5564721,0.838717551 L20.5269117,0.827833785 C20.7362407,0.89926978 20.943555,0.975055475 21.1487469,1.0550831 C21.3161409,1.12049339 21.4828801,1.18874887 21.6486299,1.26002858 C21.6992367,1.28202487 21.7492034,1.30387701 21.7990319,1.32598394 C21.846506,1.34667445 21.8945938,1.36825676 21.9425931,1.39009642 C21.979539,1.40740043 22.0160859,1.4242372 22.0525558,1.44121156 C22.2180911,1.51754778 22.3824475,1.59747008 22.5456423,1.68046672 C22.5709378,1.69433733 22.59665,1.70752439 22.6223205,1.72078101 C23.6229128,2.23573429 24.5785743,2.86738067 25.469974,3.6149842 C25.5191058,3.656892 25.568517,3.6988058 25.6176608,3.74102202 C25.6402336,3.75983122 25.662437,3.77903716 25.6845986,3.79831649 L25.7322771,3.84045404 C25.7730346,3.87616077 25.8136034,3.91207753 25.8539818,3.94820263 C25.9251036,4.01152785 25.9958105,4.07602493 26.0660598,4.1412935 C26.1074049,4.17986145 26.1485837,4.2185065 26.1895505,4.25737282 C26.2224596,4.28851706 26.254867,4.31954871 26.2871725,4.35074816 C26.3380652,4.39991946 26.389015,4.44977702 26.4396207,4.49998094 C26.4546076,4.51484906 26.4691644,4.52934933 26.4836995,4.54388447 L119.501211,97.561396 C125.448862,103.509047 125.557695,113.084473 119.827711,119.16489 L125.927234,125.264596 C131.985747,131.323109 131.985747,141.145898 125.927234,147.204411 C124.130389,149.001257 122.002434,150.26519 119.739773,150.996212 L119.501211,150.75154 C125.559724,156.810053 125.559724,166.632842 119.501211,172.691355 C113.442698,178.749868 103.619909,178.749868 97.561396,172.691355 L4.54388447,79.6738435 L4.49998094,79.6297647 C4.44977702,79.579159 4.39991946,79.5282092 4.35041211,79.4769192 L4.54388447,79.6738435 C4.44692224,79.5768813 4.35151182,79.4789549 4.25765322,79.3800952 C4.2185065,79.3387277 4.17986145,79.2975489 4.14143958,79.2561601 C4.07602493,79.1859545 4.01152785,79.1152476 3.94780227,79.0440939 C3.91207753,79.0037474 3.87616077,78.9631786 3.84045404,78.9224211 L3.79831649,78.8747426 C3.77903716,78.852581 3.75983122,78.8303776 3.74069867,78.8081329 C3.6988058,78.758661 3.656892,78.7092498 3.61528351,78.6595742 C3.50621227,78.5304246 3.39989498,78.3993708 3.29603233,78.2670181 C3.27164621,78.234471 3.24681571,78.202536 3.22210765,78.1705017 C2.45592155,77.1798265 1.82683517,76.1170776 1.33418364,75.0083946 C1.30501347,74.9421179 1.27593796,74.8755637 1.24731783,74.8087681 C1.17909839,74.6495673 1.11382025,74.4894595 1.05132808,74.3285191 C0.57445126,73.1040151 0.248832424,71.8036174 0.0972338062,70.4506034 C0.0947207868,70.4210774 0.0914679963,70.3914404 0.0883004276,70.3617959 C0.0569461662,70.0737943 0.0342321932,69.7834525 0.0196179229,69.4909774 C0.00660780466,69.2284193 6.13733341e-14,68.9661777 6.13953333e-14,68.703936 L1.77044171e-13,15.513792 L0.00316591399,15.1972093 L0.00316591399,15.1972093 L0.00370929345,15.1735003 C0.00691674131,15.0263932 0.0122043135,14.879323 0.0195720099,14.7323376 C0.0339029525,14.4388237 0.0566127357,14.1475565 0.0872523379,13.8586563 C0.0913963739,13.826902 0.0949118183,13.7948828 0.0985267355,13.7628727 C0.264001798,12.2826976 0.638435085,10.8658395 1.19107539,9.54193874 C1.2054555,9.50734401 1.21963401,9.47364596 1.23393687,9.43998816 C1.30047983,9.28402242 1.36962195,9.12884067 1.44121156,8.97502817 C1.91645239,7.95076356 2.51003338,6.96782508 3.22144279,6.04652866 C3.24681571,6.01519198 3.27164621,5.98325697 3.29659844,5.95142194 C3.67866798,5.46311536 4.0946187,4.99315025 4.54388447,4.54388447 C4.99315025,4.0946187 5.46311536,3.67866798 5.9507099,3.29603233 C5.98325697,3.27164621 6.01519198,3.24681571 6.04722627,3.22210765 C6.32264754,3.0082285 6.60430336,2.80559805 6.89094643,2.61355144 C6.91156573,2.60135141 6.93159232,2.58800555 6.95165164,2.5747051 C7.60234728,2.14152623 8.27912255,1.76392015 8.97492496,1.44069982 C9.12884067,1.36962195 9.28402242,1.30047983 9.44052338,1.23383527 C9.46535406,1.22315765 9.49074282,1.21244905 9.51615415,1.20181108 L9.54395066,1.19023572 C10.057403,0.975988857 10.5848332,0.788545368 11.1244931,0.62965335 C11.1332289,0.628248236 11.141568,0.625804812 11.1499087,0.623368529 C11.7940955,0.433713907 12.4560093,0.285840834 13.1323331,0.181647616 C13.1387916,0.181805296 13.1454601,0.180779301 13.1521292,0.17975766 C13.2549237,0.162911802 13.3578924,0.148242361 13.4611817,0.134589098 C13.4729552,0.134017601 13.4843016,0.132524608 13.4956493,0.131044158 C13.5840954,0.118580109 13.6732032,0.10778476 13.7625405,0.0977481149 C13.7948828,0.0949118183 13.826902,0.0913963739 13.8589299,0.0879804021 C13.942481,0.0783622221 14.026505,0.0701396994 14.1107229,0.0625901874 C14.1325709,0.0612175927 14.1542316,0.0593081735 14.1758955,0.0574441206 C14.2655136,0.0492301114 14.3554626,0.0423286782 14.4456232,0.0361975639 C14.4681314,0.0350460206 14.4907784,0.0335419385 14.513428,0.0320873136 C14.5863789,0.0270928451 14.6592412,0.0229665535 14.7322363,0.0193447754 C14.775,0.0174335402 14.8176696,0.01547031 14.8603452,0.0136823193 C14.9040593,0.0117008975 14.9480089,0.0100637187 14.9920048,0.00860972929 C15.2795246,-0.00088602699 15.5668745,-0.00255286667 15.8540837,0.00370929345 Z" id="Combined-Shape" fill="#000000"></path>
                    </g>
                    <g transform="translate(37.676352, 0.000000)">
                        <path d="M15.8540837,0.00370929345 L16.0355792,0.00860972929 C16.0795986,0.010064495 16.1235716,0.0117026457 16.1674974,0.013523442 C16.2115814,0.0155401534 16.2559175,0.0175871849 16.3002458,0.019823414 C16.3706538,0.0231066791 16.4403527,0.0270570248 16.5099269,0.031465971 C16.536863,0.0335375048 16.5645624,0.0353817541 16.5922577,0.0372999908 C16.679436,0.0428911937 16.7657191,0.049541795 16.8518015,0.0568953341 C16.8733092,0.0593043682 16.8949915,0.0612156448 16.9166705,0.063172378 C17.001079,0.0701396994 17.085103,0.0783622221 17.1689277,0.0872523379 C17.200682,0.0913963739 17.2327012,0.0949118183 17.2647113,0.0985267355 C17.3565661,0.108030266 17.4478478,0.119108694 17.5388815,0.130976308 C17.5459336,0.13287533 17.5529325,0.133796485 17.5599309,0.134722412 C17.6625051,0.147249279 17.7648549,0.161779514 17.8668781,0.177303473 C17.8784998,0.180219664 17.8904816,0.18206236 17.9024616,0.183919114 C18.8056355,0.322364465 19.6826591,0.539722569 20.5269117,0.827833785 C20.536492,0.831879918 20.5464834,0.835293492 20.5564721,0.838717551 L20.5269117,0.827833785 C20.7362407,0.89926978 20.943555,0.975055475 21.1487469,1.0550831 C21.3161409,1.12049339 21.4828801,1.18874887 21.6486299,1.26002858 C21.6992367,1.28202487 21.7492034,1.30387701 21.7990319,1.32598394 C21.846506,1.34667445 21.8945938,1.36825676 21.9425931,1.39009642 C21.979539,1.40740043 22.0160859,1.4242372 22.0525558,1.44121156 C22.2180911,1.51754778 22.3824475,1.59747008 22.5456423,1.68046672 C22.5709378,1.69433733 22.59665,1.70752439 22.6223205,1.72078101 C23.6229128,2.23573429 24.5785743,2.86738067 25.469974,3.6149842 C25.5191058,3.656892 25.568517,3.6988058 25.6176608,3.74102202 C25.6402336,3.75983122 25.662437,3.77903716 25.6845986,3.79831649 L25.7322771,3.84045404 C25.7730346,3.87616077 25.8136034,3.91207753 25.8539818,3.94820263 C25.9251036,4.01152785 25.9958105,4.07602493 26.0660598,4.1412935 C26.1074049,4.17986145 26.1485837,4.2185065 26.1895505,4.25737282 C26.2224596,4.28851706 26.254867,4.31954871 26.2871725,4.35074816 C26.3380652,4.39991946 26.389015,4.44977702 26.4396207,4.49998094 C26.4546076,4.51484906 26.4691644,4.52934933 26.4836995,4.54388447 L119.501211,97.561396 C125.448862,103.509047 125.557695,113.084473 119.827711,119.16489 L125.927234,125.264596 C131.985747,131.323109 131.985747,141.145898 125.927234,147.204411 C124.130389,149.001257 122.002434,150.26519 119.739773,150.996212 L119.501211,150.75154 C125.559724,156.810053 125.559724,166.632842 119.501211,172.691355 C113.442698,178.749868 103.619909,178.749868 97.561396,172.691355 L4.54388447,79.6738435 L4.49998094,79.6297647 C4.44977702,79.579159 4.39991946,79.5282092 4.35041211,79.4769192 L4.54388447,79.6738435 C4.44692224,79.5768813 4.35151182,79.4789549 4.25765322,79.3800952 C4.2185065,79.3387277 4.17986145,79.2975489 4.14143958,79.2561601 C4.07602493,79.1859545 4.01152785,79.1152476 3.94780227,79.0440939 C3.91207753,79.0037474 3.87616077,78.9631786 3.84045404,78.9224211 L3.79831649,78.8747426 C3.77903716,78.852581 3.75983122,78.8303776 3.74069867,78.8081329 C3.6988058,78.758661 3.656892,78.7092498 3.61528351,78.6595742 C3.50621227,78.5304246 3.39989498,78.3993708 3.29603233,78.2670181 C3.27164621,78.234471 3.24681571,78.202536 3.22210765,78.1705017 C2.45592155,77.1798265 1.82683517,76.1170776 1.33418364,75.0083946 C1.30501347,74.9421179 1.27593796,74.8755637 1.24731783,74.8087681 C1.17909839,74.6495673 1.11382025,74.4894595 1.05132808,74.3285191 C0.57445126,73.1040151 0.248832424,71.8036174 0.0972338062,70.4506034 C0.0947207868,70.4210774 0.0914679963,70.3914404 0.0883004276,70.3617959 C0.0569461662,70.0737943 0.0342321932,69.7834525 0.0196179229,69.4909774 C0.00660780466,69.2284193 6.13733341e-14,68.9661777 6.13953333e-14,68.703936 L1.77044171e-13,15.513792 L0.00316591399,15.1972093 L0.00316591399,15.1972093 L0.00370929345,15.1735003 C0.00691674131,15.0263932 0.0122043135,14.879323 0.0195720099,14.7323376 C0.0339029525,14.4388237 0.0566127357,14.1475565 0.0872523379,13.8586563 C0.0913963739,13.826902 0.0949118183,13.7948828 0.0985267355,13.7628727 C0.264001798,12.2826976 0.638435085,10.8658395 1.19107539,9.54193874 C1.2054555,9.50734401 1.21963401,9.47364596 1.23393687,9.43998816 C1.30047983,9.28402242 1.36962195,9.12884067 1.44121156,8.97502817 C1.91645239,7.95076356 2.51003338,6.96782508 3.22144279,6.04652866 C3.24681571,6.01519198 3.27164621,5.98325697 3.29659844,5.95142194 C3.67866798,5.46311536 4.0946187,4.99315025 4.54388447,4.54388447 C4.99315025,4.0946187 5.46311536,3.67866798 5.9507099,3.29603233 C5.98325697,3.27164621 6.01519198,3.24681571 6.04722627,3.22210765 C6.32264754,3.0082285 6.60430336,2.80559805 6.89094643,2.61355144 C6.91156573,2.60135141 6.93159232,2.58800555 6.95165164,2.5747051 C7.60234728,2.14152623 8.27912255,1.76392015 8.97492496,1.44069982 C9.12884067,1.36962195 9.28402242,1.30047983 9.44052338,1.23383527 C9.46535406,1.22315765 9.49074282,1.21244905 9.51615415,1.20181108 L9.54395066,1.19023572 C10.057403,0.975988857 10.5848332,0.788545368 11.1244931,0.62965335 C11.1332289,0.628248236 11.141568,0.625804812 11.1499087,0.623368529 C11.7940955,0.433713907 12.4560093,0.285840834 13.1323331,0.181647616 C13.1387916,0.181805296 13.1454601,0.180779301 13.1521292,0.17975766 C13.2549237,0.162911802 13.3578924,0.148242361 13.4611817,0.134589098 C13.4729552,0.134017601 13.4843016,0.132524608 13.4956493,0.131044158 C13.5840954,0.118580109 13.6732032,0.10778476 13.7625405,0.0977481149 C13.7948828,0.0949118183 13.826902,0.0913963739 13.8589299,0.0879804021 C13.942481,0.0783622221 14.026505,0.0701396994 14.1107229,0.0625901874 C14.1325709,0.0612175927 14.1542316,0.0593081735 14.1758955,0.0574441206 C14.2655136,0.0492301114 14.3554626,0.0423286782 14.4456232,0.0361975639 C14.4681314,0.0350460206 14.4907784,0.0335419385 14.513428,0.0320873136 C14.5863789,0.0270928451 14.6592412,0.0229665535 14.7322363,0.0193447754 C14.775,0.0174335402 14.8176696,0.01547031 14.8603452,0.0136823193 C14.9040593,0.0117008975 14.9480089,0.0100637187 14.9920048,0.00860972929 C15.2795246,-0.00088602699 15.5668745,-0.00255286667 15.8540837,0.00370929345 Z" id="Combined-Shape" fill="#000000"></path>
                    </g>
                    <g transform="translate(75.352704, 0.000000)">
                        <path d="M15.8540837,0.00370929345 L16.0355792,0.00860972929 C16.0795986,0.010064495 16.1235716,0.0117026457 16.1674974,0.013523442 C16.2115814,0.0155401534 16.2559175,0.0175871849 16.3002458,0.019823414 C16.3706538,0.0231066791 16.4403527,0.0270570248 16.5099269,0.031465971 C16.536863,0.0335375048 16.5645624,0.0353817541 16.5922577,0.0372999908 C16.679436,0.0428911937 16.7657191,0.049541795 16.8518015,0.0568953341 C16.8733092,0.0593043682 16.8949915,0.0612156448 16.9166705,0.063172378 C17.001079,0.0701396994 17.085103,0.0783622221 17.1689277,0.0872523379 C17.200682,0.0913963739 17.2327012,0.0949118183 17.2647113,0.0985267355 C17.3565661,0.108030266 17.4478478,0.119108694 17.5388815,0.130976308 C17.5459336,0.13287533 17.5529325,0.133796485 17.5599309,0.134722412 C17.6625051,0.147249279 17.7648549,0.161779514 17.8668781,0.177303473 C17.8784998,0.180219664 17.8904816,0.18206236 17.9024616,0.183919114 C18.8056355,0.322364465 19.6826591,0.539722569 20.5269117,0.827833785 C20.536492,0.831879918 20.5464834,0.835293492 20.5564721,0.838717551 L20.5269117,0.827833785 C20.7362407,0.89926978 20.943555,0.975055475 21.1487469,1.0550831 C21.3161409,1.12049339 21.4828801,1.18874887 21.6486299,1.26002858 C21.6992367,1.28202487 21.7492034,1.30387701 21.7990319,1.32598394 C21.846506,1.34667445 21.8945938,1.36825676 21.9425931,1.39009642 C21.979539,1.40740043 22.0160859,1.4242372 22.0525558,1.44121156 C22.2180911,1.51754778 22.3824475,1.59747008 22.5456423,1.68046672 C22.5709378,1.69433733 22.59665,1.70752439 22.6223205,1.72078101 C23.6229128,2.23573429 24.5785743,2.86738067 25.469974,3.6149842 C25.5191058,3.656892 25.568517,3.6988058 25.6176608,3.74102202 C25.6402336,3.75983122 25.662437,3.77903716 25.6845986,3.79831649 L25.7322771,3.84045404 C25.7730346,3.87616077 25.8136034,3.91207753 25.8539818,3.94820263 C25.9251036,4.01152785 25.9958105,4.07602493 26.0660598,4.1412935 C26.1074049,4.17986145 26.1485837,4.2185065 26.1895505,4.25737282 C26.2224596,4.28851706 26.254867,4.31954871 26.2871725,4.35074816 C26.3380652,4.39991946 26.389015,4.44977702 26.4396207,4.49998094 C26.4546076,4.51484906 26.4691644,4.52934933 26.4836995,4.54388447 L119.501211,97.561396 C125.448862,103.509047 125.557695,113.084473 119.827711,119.16489 L125.927234,125.264596 C131.985747,131.323109 131.985747,141.145898 125.927234,147.204411 C124.130389,149.001257 122.002434,150.26519 119.739773,150.996212 L119.501211,150.75154 C125.559724,156.810053 125.559724,166.632842 119.501211,172.691355 C113.442698,178.749868 103.619909,178.749868 97.561396,172.691355 L4.54388447,79.6738435 L4.49998094,79.6297647 C4.44977702,79.579159 4.39991946,79.5282092 4.35041211,79.4769192 L4.54388447,79.6738435 C4.44692224,79.5768813 4.35151182,79.4789549 4.25765322,79.3800952 C4.2185065,79.3387277 4.17986145,79.2975489 4.14143958,79.2561601 C4.07602493,79.1859545 4.01152785,79.1152476 3.94780227,79.0440939 C3.91207753,79.0037474 3.87616077,78.9631786 3.84045404,78.9224211 L3.79831649,78.8747426 C3.77903716,78.852581 3.75983122,78.8303776 3.74069867,78.8081329 C3.6988058,78.758661 3.656892,78.7092498 3.61528351,78.6595742 C3.50621227,78.5304246 3.39989498,78.3993708 3.29603233,78.2670181 C3.27164621,78.234471 3.24681571,78.202536 3.22210765,78.1705017 C2.45592155,77.1798265 1.82683517,76.1170776 1.33418364,75.0083946 C1.30501347,74.9421179 1.27593796,74.8755637 1.24731783,74.8087681 C1.17909839,74.6495673 1.11382025,74.4894595 1.05132808,74.3285191 C0.57445126,73.1040151 0.248832424,71.8036174 0.0972338062,70.4506034 C0.0947207868,70.4210774 0.0914679963,70.3914404 0.0883004276,70.3617959 C0.0569461662,70.0737943 0.0342321932,69.7834525 0.0196179229,69.4909774 C0.00660780466,69.2284193 6.13733341e-14,68.9661777 6.13953333e-14,68.703936 L1.77044171e-13,15.513792 L0.00316591399,15.1972093 L0.00316591399,15.1972093 L0.00370929345,15.1735003 C0.00691674131,15.0263932 0.0122043135,14.879323 0.0195720099,14.7323376 C0.0339029525,14.4388237 0.0566127357,14.1475565 0.0872523379,13.8586563 C0.0913963739,13.826902 0.0949118183,13.7948828 0.0985267355,13.7628727 C0.264001798,12.2826976 0.638435085,10.8658395 1.19107539,9.54193874 C1.2054555,9.50734401 1.21963401,9.47364596 1.23393687,9.43998816 C1.30047983,9.28402242 1.36962195,9.12884067 1.44121156,8.97502817 C1.91645239,7.95076356 2.51003338,6.96782508 3.22144279,6.04652866 C3.24681571,6.01519198 3.27164621,5.98325697 3.29659844,5.95142194 C3.67866798,5.46311536 4.0946187,4.99315025 4.54388447,4.54388447 C4.99315025,4.0946187 5.46311536,3.67866798 5.9507099,3.29603233 C5.98325697,3.27164621 6.01519198,3.24681571 6.04722627,3.22210765 C6.32264754,3.0082285 6.60430336,2.80559805 6.89094643,2.61355144 C6.91156573,2.60135141 6.93159232,2.58800555 6.95165164,2.5747051 C7.60234728,2.14152623 8.27912255,1.76392015 8.97492496,1.44069982 C9.12884067,1.36962195 9.28402242,1.30047983 9.44052338,1.23383527 C9.46535406,1.22315765 9.49074282,1.21244905 9.51615415,1.20181108 L9.54395066,1.19023572 C10.057403,0.975988857 10.5848332,0.788545368 11.1244931,0.62965335 C11.1332289,0.628248236 11.141568,0.625804812 11.1499087,0.623368529 C11.7940955,0.433713907 12.4560093,0.285840834 13.1323331,0.181647616 C13.1387916,0.181805296 13.1454601,0.180779301 13.1521292,0.17975766 C13.2549237,0.162911802 13.3578924,0.148242361 13.4611817,0.134589098 C13.4729552,0.134017601 13.4843016,0.132524608 13.4956493,0.131044158 C13.5840954,0.118580109 13.6732032,0.10778476 13.7625405,0.0977481149 C13.7948828,0.0949118183 13.826902,0.0913963739 13.8589299,0.0879804021 C13.942481,0.0783622221 14.026505,0.0701396994 14.1107229,0.0625901874 C14.1325709,0.0612175927 14.1542316,0.0593081735 14.1758955,0.0574441206 C14.2655136,0.0492301114 14.3554626,0.0423286782 14.4456232,0.0361975639 C14.4681314,0.0350460206 14.4907784,0.0335419385 14.513428,0.0320873136 C14.5863789,0.0270928451 14.6592412,0.0229665535 14.7322363,0.0193447754 C14.775,0.0174335402 14.8176696,0.01547031 14.8603452,0.0136823193 C14.9040593,0.0117008975 14.9480089,0.0100637187 14.9920048,0.00860972929 C15.2795246,-0.00088602699 15.5668745,-0.00255286667 15.8540837,0.00370929345 Z" id="Combined-Shape" fill="#000000"></path>
                    </g>
                </g>
            </g>
            <g id="outline-128" mask="url(#mask-2)" fill="#95B6CB">
                <g transform="translate(17.730048, 28.811328)" id="outline">
                    <rect x="0" y="0" width="31.027584" height="84.217728" rx="15.513792"></rect>
                </g>
            </g>
            <g id="outline-128" mask="url(#mask-2)" fill="#95B6CB">
                <g transform="translate(55.406400, 28.811328)" id="outline">
                    <rect x="0" y="0" width="31.027584" height="84.217728" rx="15.513792"></rect>
                </g>
            </g>
            <g id="outline-128" mask="url(#mask-2)" fill="#95B6CB">
                <g transform="translate(93.082752, 28.811328)" id="outline">
                    <rect x="0" y="0" width="31.027584" height="84.217728" rx="15.513792"></rect>
                </g>
            </g>
            <mask id="mask-4" fill="white">
                <use xlink:href="#path-3"></use>
            </mask>
            <use id="Combined-Shape" fill="#95B6CB" xlink:href="#path-3"></use>
            <g id="fill-shadow" opacity="0.1" mask="url(#mask-4)">
                <g transform="translate(24.378816, 35.460096)" id="fill-shadow-128">
                    <g>
                        <path d="M8.865024,0 C11.3185302,0 13.5391079,0.99667027 15.1442313,2.60721464 C20.1874327,7.66759196 21.2299595,8.67996662 26.2229626,13.6860457 C27.8224346,15.2896177 28.811328,17.5024385 28.811328,19.946304 L28.811328,73.136448 C28.811328,78.0321575 24.8423459,82.001472 19.946304,82.001472 C17.4933519,82.001472 15.2731066,81.0052649 13.668094,79.3951549 C8.24757508,73.9575708 8.29369537,73.7237558 2.77032,68.4928376 C1.0642284,66.8770762 0,64.5904541 0,62.055168 L0,8.865024 C0,3.96900422 3.96900422,0 8.865024,0 Z" id="Path" fill="#0C161C"></path>
                    </g>
                    <g transform="translate(37.676352, 0.000000)">
                        <path d="M8.865024,0 C11.3185302,0 13.5391079,0.99667027 15.1442313,2.60721464 C20.1874327,7.66759196 21.2299595,8.67996662 26.2229626,13.6860457 C27.8224346,15.2896177 28.811328,17.5024385 28.811328,19.946304 L28.811328,73.136448 C28.811328,78.0321575 24.8423459,82.001472 19.946304,82.001472 C17.4933519,82.001472 15.2731066,81.0052649 13.668094,79.3951549 C8.24757508,73.9575708 8.29369537,73.7237558 2.77032,68.4928376 C1.0642284,66.8770762 0,64.5904541 0,62.055168 L0,8.865024 C0,3.96900422 3.96900422,0 8.865024,0 Z" id="Path" fill="#0C161C"></path>
                    </g>
                    <g transform="translate(75.352704, 0.000000)">
                        <path d="M8.865024,0 C11.3185302,0 13.5391079,0.99667027 15.1442313,2.60721464 C20.1874327,7.66759196 21.2299595,8.67996662 26.2229626,13.6860457 C27.8224346,15.2896177 28.811328,17.5024385 28.811328,19.946304 L28.811328,73.136448 C28.811328,78.0321575 24.8423459,82.001472 19.946304,82.001472 C17.4933519,82.001472 15.2731066,81.0052649 13.668094,79.3951549 C8.24757508,73.9575708 8.29369537,73.7237558 2.77032,68.4928376 C1.0642284,66.8770762 0,64.5904541 0,62.055168 L0,8.865024 C0,3.96900422 3.96900422,0 8.865024,0 Z" id="Path" fill="#0C161C"></path>
                    </g>
                </g>
            </g>
            <g id="fill-128" mask="url(#mask-4)" fill="#FFFFFF">
                <g transform="translate(24.378816, 35.460096)" id="fill">
                    <rect x="0" y="0" width="17.730048" height="70.920192" rx="8.865024"></rect>
                </g>
            </g>
            <g id="fill-128" mask="url(#mask-4)" fill="#FFFFFF">
                <g transform="translate(62.055168, 35.460096)" id="fill">
                    <rect x="0" y="0" width="17.730048" height="70.920192" rx="8.865024"></rect>
                </g>
            </g>
            <g id="fill-128" mask="url(#mask-4)" fill="#FFFFFF">
                <g transform="translate(99.731520, 35.460096)" id="fill">
                    <rect x="0" y="0" width="17.730048" height="70.920192" rx="8.865024"></rect>
                </g>
            </g>
        </g>
    </g>
</svg>