<?xml version="1.0" encoding="UTF-8"?>
<svg width="700px" height="394px" viewBox="0 0 700 394" version="1.1" xmlns="http://www.w3.org/2000/svg" xmlns:xlink="http://www.w3.org/1999/xlink">
    <title>multiflow-featured@1x</title>
    <defs>
        <path d="M61.708878,53.4810276 C77.613285,53.4810276 90.5063544,66.374097 90.5063544,82.278504 L90.5063544,181.012709 C90.5063544,196.917116 77.613285,209.810185 61.708878,209.810185 C45.804471,209.810185 32.9114016,196.917116 32.9114016,181.012709 L32.9114016,82.278504 C32.9114016,66.374097 45.804471,53.4810276 61.708878,53.4810276 Z M131.645606,53.4810276 C147.550013,53.4810276 160.443083,66.374097 160.443083,82.278504 L160.443083,181.012709 C160.443083,196.917116 147.550013,209.810185 131.645606,209.810185 C115.741199,209.810185 102.84813,196.917116 102.84813,181.012709 L102.84813,82.278504 C102.84813,66.374097 115.741199,53.4810276 131.645606,53.4810276 Z M201.582335,53.4810276 C217.486742,53.4810276 230.379811,66.374097 230.379811,82.278504 L230.379811,181.012709 C230.379811,196.917116 217.486742,209.810185 201.582335,209.810185 C185.677928,209.810185 172.784858,196.917116 172.784858,181.012709 L172.784858,82.278504 C172.784858,66.374097 185.677928,53.4810276 201.582335,53.4810276 Z" id="path-1"></path>
        <path d="M294.434222,298.256356 L294.434222,285.188356 L294.478222,285.188356 L299.384222,298.256356 L301.166222,298.256356 L306.072222,285.188356 L306.116222,285.188356 L306.116222,298.256356 L308.096222,298.256356 L308.096222,282.548356 L305.236222,282.548356 L300.264222,295.748356 L295.314222,282.548356 L292.454222,282.548356 L292.454222,298.256356 L294.434222,298.256356 Z M315.180222,298.498356 C316.016222,298.498356 316.742222,298.333356 317.358222,298.003356 C317.974222,297.673356 318.480222,297.156356 318.876222,296.452356 L318.920222,296.452356 L318.920222,298.256356 L320.680222,298.256356 L320.680222,286.882356 L318.810222,286.882356 L318.810222,293.306356 C318.810222,293.819689 318.740556,294.292689 318.601222,294.725356 C318.461889,295.158023 318.252889,295.535689 317.974222,295.858356 C317.695556,296.181023 317.347222,296.430356 316.929222,296.606356 C316.511222,296.782356 316.016222,296.870356 315.444222,296.870356 C314.725556,296.870356 314.160889,296.665023 313.750222,296.254356 C313.339556,295.843689 313.134222,295.286356 313.134222,294.582356 L313.134222,286.882356 L311.264222,286.882356 L311.264222,294.362356 C311.264222,294.978356 311.326556,295.539356 311.451222,296.045356 C311.575889,296.551356 311.792222,296.987689 312.100222,297.354356 C312.408222,297.721023 312.811556,298.003356 313.310222,298.201356 C313.808889,298.399356 314.432222,298.498356 315.180222,298.498356 Z M325.476222,298.256356 L325.476222,282.548356 L323.606222,282.548356 L323.606222,298.256356 L325.476222,298.256356 Z M333.242222,298.256356 L333.242222,296.606356 L332.384222,296.606356 C332.090889,296.606356 331.852556,296.595356 331.669222,296.573356 C331.485889,296.551356 331.342889,296.503689 331.240222,296.430356 C331.137556,296.357023 331.067889,296.254356 331.031222,296.122356 C330.994556,295.990356 330.976222,295.814356 330.976222,295.594356 L330.976222,288.532356 L333.242222,288.532356 L333.242222,286.882356 L330.976222,286.882356 L330.976222,283.472356 L329.106222,283.472356 L329.106222,286.882356 L327.170222,286.882356 L327.170222,288.532356 L329.106222,288.532356 L329.106222,295.770356 C329.106222,296.298356 329.157556,296.723689 329.260222,297.046356 C329.362889,297.369023 329.520556,297.618356 329.733222,297.794356 C329.945889,297.970356 330.224556,298.091356 330.569222,298.157356 C330.913889,298.223356 331.328222,298.256356 331.812222,298.256356 L333.242222,298.256356 Z M337.290222,284.836356 L337.290222,282.548356 L335.420222,282.548356 L335.420222,284.836356 L337.290222,284.836356 Z M337.290222,298.256356 L337.290222,286.882356 L335.420222,286.882356 L335.420222,298.256356 L337.290222,298.256356 Z M346.244222,293.020356 L346.244222,291.260356 L339.886222,291.260356 L339.886222,293.020356 L346.244222,293.020356 Z M353.460222,298.498356 C354.912222,298.498356 356.059889,298.117023 356.903222,297.354356 C357.746556,296.591689 358.270889,295.506356 358.476222,294.098356 L356.562222,294.098356 C356.444889,294.978356 356.125889,295.660356 355.605222,296.144356 C355.084556,296.628356 354.362222,296.870356 353.438222,296.870356 C352.851556,296.870356 352.345556,296.753023 351.920222,296.518356 C351.494889,296.283689 351.150222,295.972023 350.886222,295.583356 C350.622222,295.194689 350.427889,294.751023 350.303222,294.252356 C350.178556,293.753689 350.116222,293.240356 350.116222,292.712356 C350.116222,292.140356 350.174889,291.586689 350.292222,291.051356 C350.409556,290.516023 350.603889,290.043023 350.875222,289.632356 C351.146556,289.221689 351.509556,288.891689 351.964222,288.642356 C352.418889,288.393023 352.983556,288.268356 353.658222,288.268356 C354.450222,288.268356 355.080889,288.466356 355.550222,288.862356 C356.019556,289.258356 356.327556,289.815689 356.474222,290.534356 L358.410222,290.534356 C358.336889,289.859689 358.160889,289.276689 357.882222,288.785356 C357.603556,288.294023 357.247889,287.887023 356.815222,287.564356 C356.382556,287.241689 355.883889,287.003356 355.319222,286.849356 C354.754556,286.695356 354.149556,286.618356 353.504222,286.618356 C352.609556,286.618356 351.824889,286.776023 351.150222,287.091356 C350.475556,287.406689 349.914556,287.839356 349.467222,288.389356 C349.019889,288.939356 348.686222,289.584689 348.466222,290.325356 C348.246222,291.066023 348.136222,291.861689 348.136222,292.712356 C348.136222,293.563023 348.249889,294.344023 348.477222,295.055356 C348.704556,295.766689 349.041889,296.379023 349.489222,296.892356 C349.936556,297.405689 350.493889,297.801689 351.161222,298.080356 C351.828556,298.359023 352.594889,298.498356 353.460222,298.498356 Z M365.472222,298.498356 C366.381556,298.498356 367.177222,298.348023 367.859222,298.047356 C368.541222,297.746689 369.116889,297.328689 369.586222,296.793356 C370.055556,296.258023 370.407556,295.631023 370.642222,294.912356 C370.876889,294.193689 370.994222,293.416356 370.994222,292.580356 C370.994222,291.744356 370.876889,290.963356 370.642222,290.237356 C370.407556,289.511356 370.055556,288.880689 369.586222,288.345356 C369.116889,287.810023 368.541222,287.388356 367.859222,287.080356 C367.177222,286.772356 366.381556,286.618356 365.472222,286.618356 C364.577556,286.618356 363.785556,286.772356 363.096222,287.080356 C362.406889,287.388356 361.827556,287.810023 361.358222,288.345356 C360.888889,288.880689 360.536889,289.511356 360.302222,290.237356 C360.067556,290.963356 359.950222,291.744356 359.950222,292.580356 C359.950222,293.416356 360.067556,294.193689 360.302222,294.912356 C360.536889,295.631023 360.888889,296.258023 361.358222,296.793356 C361.827556,297.328689 362.406889,297.746689 363.096222,298.047356 C363.785556,298.348023 364.577556,298.498356 365.472222,298.498356 Z M365.472222,296.870356 C364.988222,296.870356 364.529889,296.775023 364.097222,296.584356 C363.664556,296.393689 363.286889,296.118689 362.964222,295.759356 C362.641556,295.400023 362.388556,294.952689 362.205222,294.417356 C362.021889,293.882023 361.930222,293.269689 361.930222,292.580356 C361.930222,291.891023 362.021889,291.278689 362.205222,290.743356 C362.388556,290.208023 362.641556,289.757023 362.964222,289.390356 C363.286889,289.023689 363.664556,288.745023 364.097222,288.554356 C364.529889,288.363689 364.988222,288.268356 365.472222,288.268356 C365.956222,288.268356 366.414556,288.363689 366.847222,288.554356 C367.279889,288.745023 367.657556,289.023689 367.980222,289.390356 C368.302889,289.757023 368.555889,290.208023 368.739222,290.743356 C368.922556,291.278689 369.014222,291.891023 369.014222,292.580356 C369.014222,293.269689 368.922556,293.882023 368.739222,294.417356 C368.555889,294.952689 368.302889,295.400023 367.980222,295.759356 C367.657556,296.118689 367.279889,296.393689 366.847222,296.584356 C366.414556,296.775023 365.956222,296.870356 365.472222,296.870356 Z M375.174222,298.256356 L375.174222,282.548356 L373.304222,282.548356 L373.304222,298.256356 L375.174222,298.256356 Z M381.994222,298.498356 C382.830222,298.498356 383.556222,298.333356 384.172222,298.003356 C384.788222,297.673356 385.294222,297.156356 385.690222,296.452356 L385.734222,296.452356 L385.734222,298.256356 L387.494222,298.256356 L387.494222,286.882356 L385.624222,286.882356 L385.624222,293.306356 C385.624222,293.819689 385.554556,294.292689 385.415222,294.725356 C385.275889,295.158023 385.066889,295.535689 384.788222,295.858356 C384.509556,296.181023 384.161222,296.430356 383.743222,296.606356 C383.325222,296.782356 382.830222,296.870356 382.258222,296.870356 C381.539556,296.870356 380.974889,296.665023 380.564222,296.254356 C380.153556,295.843689 379.948222,295.286356 379.948222,294.582356 L379.948222,286.882356 L378.078222,286.882356 L378.078222,294.362356 C378.078222,294.978356 378.140556,295.539356 378.265222,296.045356 C378.389889,296.551356 378.606222,296.987689 378.914222,297.354356 C379.222222,297.721023 379.625556,298.003356 380.124222,298.201356 C380.622889,298.399356 381.246222,298.498356 381.994222,298.498356 Z M392.180222,298.256356 L392.180222,291.172356 C392.180222,290.952356 392.235222,290.677356 392.345222,290.347356 C392.455222,290.017356 392.631222,289.698356 392.873222,289.390356 C393.115222,289.082356 393.430556,288.818356 393.819222,288.598356 C394.207889,288.378356 394.673556,288.268356 395.216222,288.268356 C395.641556,288.268356 395.989889,288.330689 396.261222,288.455356 C396.532556,288.580023 396.748889,288.756023 396.910222,288.983356 C397.071556,289.210689 397.185223,289.478356 397.251222,289.786356 C397.317222,290.094356 397.350222,290.431689 397.350222,290.798356 L397.350222,298.256356 L399.220222,298.256356 L399.220222,291.172356 C399.220222,290.292356 399.484222,289.588356 400.012222,289.060356 C400.540222,288.532356 401.266222,288.268356 402.190222,288.268356 C402.644889,288.268356 403.015222,288.334356 403.301222,288.466356 C403.587222,288.598356 403.810889,288.778023 403.972222,289.005356 C404.133556,289.232689 404.243556,289.500356 404.302222,289.808356 C404.360889,290.116356 404.390222,290.446356 404.390222,290.798356 L404.390222,298.256356 L406.260222,298.256356 L406.260222,289.918356 C406.260222,289.331689 406.168556,288.829356 405.985222,288.411356 C405.801889,287.993356 405.545222,287.652356 405.215222,287.388356 C404.885222,287.124356 404.489222,286.930023 404.027222,286.805356 C403.565222,286.680689 403.048222,286.618356 402.476222,286.618356 C401.728222,286.618356 401.042556,286.787023 400.419222,287.124356 C399.795889,287.461689 399.293556,287.938356 398.912222,288.554356 C398.677556,287.850356 398.274222,287.351689 397.702222,287.058356 C397.130222,286.765023 396.492222,286.618356 395.788222,286.618356 C394.189556,286.618356 392.964889,287.263689 392.114222,288.554356 L392.070222,288.554356 L392.070222,286.882356 L390.310222,286.882356 L390.310222,298.256356 L392.180222,298.256356 Z M410.946222,298.256356 L410.946222,291.832356 C410.946222,291.319023 411.015889,290.846023 411.155222,290.413356 C411.294556,289.980689 411.503556,289.603023 411.782222,289.280356 C412.060889,288.957689 412.409222,288.708356 412.827222,288.532356 C413.245222,288.356356 413.740222,288.268356 414.312222,288.268356 C415.030889,288.268356 415.595556,288.473689 416.006222,288.884356 C416.416889,289.295023 416.622222,289.852356 416.622222,290.556356 L416.622222,298.256356 L418.492222,298.256356 L418.492222,290.776356 C418.492222,290.160356 418.429889,289.599356 418.305222,289.093356 C418.180556,288.587356 417.964222,288.151023 417.656222,287.784356 C417.348222,287.417689 416.944889,287.131689 416.446222,286.926356 C415.947556,286.721023 415.324222,286.618356 414.576222,286.618356 C412.889556,286.618356 411.657556,287.307689 410.880222,288.686356 L410.836222,288.686356 L410.836222,286.882356 L409.076222,286.882356 L409.076222,298.256356 L410.946222,298.256356 Z M432.550222,298.256356 L436.708222,286.882356 L434.750222,286.882356 L431.648222,296.364356 L431.604222,296.364356 L428.414222,286.882356 L426.324222,286.882356 L430.548222,298.256356 L432.550222,298.256356 Z M440.404222,284.836356 L440.404222,282.548356 L438.534222,282.548356 L438.534222,284.836356 L440.404222,284.836356 Z M440.404222,298.256356 L440.404222,286.882356 L438.534222,286.882356 L438.534222,298.256356 L440.404222,298.256356 Z M448.148222,298.498356 C449.438889,298.498356 450.509556,298.175689 451.360222,297.530356 C452.210889,296.885023 452.760889,295.924356 453.010222,294.648356 L451.162222,294.648356 C451.000889,295.396356 450.667222,295.953689 450.161222,296.320356 C449.655222,296.687023 449.006222,296.870356 448.214222,296.870356 C447.598222,296.870356 447.062889,296.767689 446.608222,296.562356 C446.153556,296.357023 445.779556,296.082023 445.486222,295.737356 C445.192889,295.392689 444.980222,294.996689 444.848222,294.549356 C444.716222,294.102023 444.657556,293.629023 444.672222,293.130356 L453.186222,293.130356 C453.215556,292.441023 453.153222,291.715023 452.999222,290.952356 C452.845222,290.189689 452.566556,289.485689 452.163222,288.840356 C451.759889,288.195023 451.224556,287.663356 450.557222,287.245356 C449.889889,286.827356 449.050223,286.618356 448.038222,286.618356 C447.260889,286.618356 446.545889,286.765023 445.893222,287.058356 C445.240556,287.351689 444.675889,287.762356 444.199222,288.290356 C443.722556,288.818356 443.352222,289.441689 443.088222,290.160356 C442.824222,290.879023 442.692222,291.671023 442.692222,292.536356 C442.721556,293.401689 442.849889,294.201023 443.077222,294.934356 C443.304556,295.667689 443.645556,296.298356 444.100222,296.826356 C444.554889,297.354356 445.115889,297.765023 445.783222,298.058356 C446.450556,298.351689 447.238889,298.498356 448.148222,298.498356 Z M451.206222,291.480356 L444.672222,291.480356 C444.701556,291.040356 444.796889,290.626023 444.958222,290.237356 C445.119556,289.848689 445.339556,289.507689 445.618222,289.214356 C445.896889,288.921023 446.230556,288.690023 446.619222,288.521356 C447.007889,288.352689 447.444222,288.268356 447.928222,288.268356 C448.397556,288.268356 448.826556,288.352689 449.215222,288.521356 C449.603889,288.690023 449.941222,288.917356 450.227222,289.203356 C450.513222,289.489356 450.740556,289.830356 450.909222,290.226356 C451.077889,290.622356 451.176889,291.040356 451.206222,291.480356 Z M459.764222,298.256356 L462.052222,289.214356 L462.096222,289.214356 L464.406222,298.256356 L466.386222,298.256356 L470.016222,286.882356 L468.080222,286.882356 L465.528222,296.188356 L465.484222,296.188356 L463.108222,286.882356 L461.062222,286.882356 L458.774222,296.188356 L458.730222,296.188356 L456.156222,286.882356 L454.088222,286.882356 L457.740222,298.256356 L459.764222,298.256356 Z M480.554222,298.256356 L480.554222,288.532356 L482.754222,288.532356 L482.754222,286.882356 L480.554222,286.882356 L480.554222,285.298356 C480.554222,284.799689 480.678889,284.462356 480.928222,284.286356 C481.177556,284.110356 481.529556,284.022356 481.984222,284.022356 C482.145556,284.022356 482.321556,284.033356 482.512222,284.055356 C482.702889,284.077356 482.878889,284.117689 483.040222,284.176356 L483.040222,282.548356 C482.864222,282.489689 482.662556,282.445689 482.435222,282.416356 C482.207889,282.387023 482.006222,282.372356 481.830222,282.372356 C480.803556,282.372356 480.022556,282.610689 479.487222,283.087356 C478.951889,283.564023 478.684222,284.264356 478.684222,285.188356 L478.684222,286.882356 L476.770222,286.882356 L476.770222,288.532356 L478.684222,288.532356 L478.684222,298.256356 L480.554222,298.256356 Z M489.332222,298.498356 C490.241556,298.498356 491.037222,298.348023 491.719222,298.047356 C492.401222,297.746689 492.976889,297.328689 493.446222,296.793356 C493.915556,296.258023 494.267556,295.631023 494.502222,294.912356 C494.736889,294.193689 494.854222,293.416356 494.854222,292.580356 C494.854222,291.744356 494.736889,290.963356 494.502222,290.237356 C494.267556,289.511356 493.915556,288.880689 493.446222,288.345356 C492.976889,287.810023 492.401222,287.388356 491.719222,287.080356 C491.037222,286.772356 490.241556,286.618356 489.332222,286.618356 C488.437556,286.618356 487.645556,286.772356 486.956222,287.080356 C486.266889,287.388356 485.687556,287.810023 485.218222,288.345356 C484.748889,288.880689 484.396889,289.511356 484.162222,290.237356 C483.927556,290.963356 483.810222,291.744356 483.810222,292.580356 C483.810222,293.416356 483.927556,294.193689 484.162222,294.912356 C484.396889,295.631023 484.748889,296.258023 485.218222,296.793356 C485.687556,297.328689 486.266889,297.746689 486.956222,298.047356 C487.645556,298.348023 488.437556,298.498356 489.332222,298.498356 Z M489.332222,296.870356 C488.848222,296.870356 488.389889,296.775023 487.957222,296.584356 C487.524556,296.393689 487.146889,296.118689 486.824222,295.759356 C486.501556,295.400023 486.248556,294.952689 486.065222,294.417356 C485.881889,293.882023 485.790222,293.269689 485.790222,292.580356 C485.790222,291.891023 485.881889,291.278689 486.065222,290.743356 C486.248556,290.208023 486.501556,289.757023 486.824222,289.390356 C487.146889,289.023689 487.524556,288.745023 487.957222,288.554356 C488.389889,288.363689 488.848222,288.268356 489.332222,288.268356 C489.816222,288.268356 490.274556,288.363689 490.707222,288.554356 C491.139889,288.745023 491.517556,289.023689 491.840222,289.390356 C492.162889,289.757023 492.415889,290.208023 492.599222,290.743356 C492.782556,291.278689 492.874222,291.891023 492.874222,292.580356 C492.874222,293.269689 492.782556,293.882023 492.599222,294.417356 C492.415889,294.952689 492.162889,295.400023 491.840222,295.759356 C491.517556,296.118689 491.139889,296.393689 490.707222,296.584356 C490.274556,296.775023 489.816222,296.870356 489.332222,296.870356 Z M498.858222,298.256356 L498.858222,293.196356 C498.858222,292.463023 498.931556,291.814023 499.078222,291.249356 C499.224889,290.684689 499.459556,290.204356 499.782222,289.808356 C500.104889,289.412356 500.530222,289.111689 501.058222,288.906356 C501.586222,288.701023 502.224222,288.598356 502.972222,288.598356 L502.972222,286.618356 C501.960222,286.589023 501.124222,286.794356 500.464222,287.234356 C499.804222,287.674356 499.246889,288.356356 498.792222,289.280356 L498.748222,289.280356 L498.748222,286.882356 L496.988222,286.882356 L496.988222,298.256356 L498.858222,298.256356 Z M515.556222,298.256356 L519.186222,285.056356 L519.230222,285.056356 L522.816222,298.256356 L524.994222,298.256356 L529.196222,282.548356 L527.106222,282.548356 L523.916222,295.616356 L523.872222,295.616356 L520.396222,282.548356 L518.130222,282.548356 L514.610222,295.616356 L514.566222,295.616356 L511.486222,282.548356 L509.352222,282.548356 L513.378222,298.256356 L515.556222,298.256356 Z M534.520222,298.498356 C535.429556,298.498356 536.225222,298.348023 536.907222,298.047356 C537.589222,297.746689 538.164889,297.328689 538.634222,296.793356 C539.103556,296.258023 539.455556,295.631023 539.690222,294.912356 C539.924889,294.193689 540.042222,293.416356 540.042222,292.580356 C540.042222,291.744356 539.924889,290.963356 539.690222,290.237356 C539.455556,289.511356 539.103556,288.880689 538.634222,288.345356 C538.164889,287.810023 537.589222,287.388356 536.907222,287.080356 C536.225222,286.772356 535.429556,286.618356 534.520222,286.618356 C533.625556,286.618356 532.833556,286.772356 532.144222,287.080356 C531.454889,287.388356 530.875556,287.810023 530.406222,288.345356 C529.936889,288.880689 529.584889,289.511356 529.350222,290.237356 C529.115556,290.963356 528.998222,291.744356 528.998222,292.580356 C528.998222,293.416356 529.115556,294.193689 529.350222,294.912356 C529.584889,295.631023 529.936889,296.258023 530.406222,296.793356 C530.875556,297.328689 531.454889,297.746689 532.144222,298.047356 C532.833556,298.348023 533.625556,298.498356 534.520222,298.498356 Z M534.520222,296.870356 C534.036222,296.870356 533.577889,296.775023 533.145222,296.584356 C532.712556,296.393689 532.334889,296.118689 532.012222,295.759356 C531.689556,295.400023 531.436556,294.952689 531.253222,294.417356 C531.069889,293.882023 530.978222,293.269689 530.978222,292.580356 C530.978222,291.891023 531.069889,291.278689 531.253222,290.743356 C531.436556,290.208023 531.689556,289.757023 532.012222,289.390356 C532.334889,289.023689 532.712556,288.745023 533.145222,288.554356 C533.577889,288.363689 534.036222,288.268356 534.520222,288.268356 C535.004222,288.268356 535.462556,288.363689 535.895222,288.554356 C536.327889,288.745023 536.705556,289.023689 537.028222,289.390356 C537.350889,289.757023 537.603889,290.208023 537.787222,290.743356 C537.970556,291.278689 538.062222,291.891023 538.062222,292.580356 C538.062222,293.269689 537.970556,293.882023 537.787222,294.417356 C537.603889,294.952689 537.350889,295.400023 537.028222,295.759356 C536.705556,296.118689 536.327889,296.393689 535.895222,296.584356 C535.462556,296.775023 535.004222,296.870356 534.520222,296.870356 Z M544.046222,298.256356 L544.046222,293.196356 C544.046222,292.463023 544.119556,291.814023 544.266222,291.249356 C544.412889,290.684689 544.647556,290.204356 544.970222,289.808356 C545.292889,289.412356 545.718222,289.111689 546.246222,288.906356 C546.774222,288.701023 547.412222,288.598356 548.160222,288.598356 L548.160222,286.618356 C547.148222,286.589023 546.312222,286.794356 545.652222,287.234356 C544.992222,287.674356 544.434889,288.356356 543.980222,289.280356 L543.936222,289.280356 L543.936222,286.882356 L542.176222,286.882356 L542.176222,298.256356 L544.046222,298.256356 Z M551.548222,298.256356 L551.548222,293.944356 L553.308222,292.316356 L557.202222,298.256356 L559.578222,298.256356 L554.738222,291.018356 L559.248222,286.882356 L556.740222,286.882356 L551.548222,291.854356 L551.548222,282.548356 L549.678222,282.548356 L549.678222,298.256356 L551.548222,298.256356 Z M563.384222,298.256356 L563.384222,291.062356 L570.600222,291.062356 L570.600222,289.302356 L563.384222,289.302356 L563.384222,284.308356 L571.612222,284.308356 L571.612222,282.548356 L561.294222,282.548356 L561.294222,298.256356 L563.384222,298.256356 Z M575.594222,298.256356 L575.594222,282.548356 L573.724222,282.548356 L573.724222,298.256356 L575.594222,298.256356 Z M583.404222,298.498356 C584.313556,298.498356 585.109222,298.348023 585.791223,298.047356 C586.473223,297.746689 587.048889,297.328689 587.518222,296.793356 C587.987556,296.258023 588.339556,295.631023 588.574222,294.912356 C588.808889,294.193689 588.926222,293.416356 588.926222,292.580356 C588.926222,291.744356 588.808889,290.963356 588.574222,290.237356 C588.339556,289.511356 587.987556,288.880689 587.518222,288.345356 C587.048889,287.810023 586.473223,287.388356 585.791223,287.080356 C585.109222,286.772356 584.313556,286.618356 583.404222,286.618356 C582.509556,286.618356 581.717556,286.772356 581.028222,287.080356 C580.338889,287.388356 579.759556,287.810023 579.290222,288.345356 C578.820889,288.880689 578.468889,289.511356 578.234222,290.237356 C577.999556,290.963356 577.882222,291.744356 577.882222,292.580356 C577.882222,293.416356 577.999556,294.193689 578.234222,294.912356 C578.468889,295.631023 578.820889,296.258023 579.290222,296.793356 C579.759556,297.328689 580.338889,297.746689 581.028222,298.047356 C581.717556,298.348023 582.509556,298.498356 583.404222,298.498356 Z M583.404222,296.870356 C582.920222,296.870356 582.461889,296.775023 582.029222,296.584356 C581.596556,296.393689 581.218889,296.118689 580.896222,295.759356 C580.573556,295.400023 580.320556,294.952689 580.137223,294.417356 C579.953889,293.882023 579.862222,293.269689 579.862222,292.580356 C579.862222,291.891023 579.953889,291.278689 580.137223,290.743356 C580.320556,290.208023 580.573556,289.757023 580.896222,289.390356 C581.218889,289.023689 581.596556,288.745023 582.029222,288.554356 C582.461889,288.363689 582.920222,288.268356 583.404222,288.268356 C583.888222,288.268356 584.346556,288.363689 584.779222,288.554356 C585.211889,288.745023 585.589556,289.023689 585.912222,289.390356 C586.234889,289.757023 586.487889,290.208023 586.671222,290.743356 C586.854556,291.278689 586.946222,291.891023 586.946222,292.580356 C586.946222,293.269689 586.854556,293.882023 586.671222,294.417356 C586.487889,294.952689 586.234889,295.400023 585.912222,295.759356 C585.589556,296.118689 585.211889,296.393689 584.779222,296.584356 C584.346556,296.775023 583.888222,296.870356 583.404222,296.870356 Z M595.768222,298.256356 L598.056222,289.214356 L598.100222,289.214356 L600.410222,298.256356 L602.390222,298.256356 L606.020222,286.882356 L604.084222,286.882356 L601.532222,296.188356 L601.488222,296.188356 L599.112222,286.882356 L597.066222,286.882356 L594.778222,296.188356 L594.734222,296.188356 L592.160222,286.882356 L590.092222,286.882356 L593.744222,298.256356 L595.768222,298.256356 Z M608.968222,302.810356 C609.378889,302.810356 609.741889,302.755356 610.057222,302.645356 C610.372556,302.535356 610.658556,302.359356 610.915222,302.117356 C611.171889,301.875356 611.406556,301.563689 611.619222,301.182356 C611.831889,300.801023 612.048222,300.331689 612.268222,299.774356 L612.268222,299.774356 L617.218222,286.882356 L615.238222,286.882356 L612.048222,296.188356 L612.004222,296.188356 L608.682222,286.882356 L606.570222,286.882356 L611.080222,298.190356 L610.310222,300.104356 C610.178222,300.441689 609.983889,300.702023 609.727222,300.885356 C609.470556,301.068689 609.151556,301.160356 608.770222,301.160356 C608.623556,301.160356 608.443889,301.134689 608.231222,301.083356 C608.018556,301.032023 607.831556,300.969689 607.670222,300.896356 L607.670222,300.896356 L607.670222,302.612356 C607.875556,302.685689 608.088222,302.737023 608.308222,302.766356 C608.528222,302.795689 608.748222,302.810356 608.968222,302.810356 Z" id="path-3"></path>
        <filter x="-0.3%" y="-4.9%" width="101.2%" height="119.6%" filterUnits="objectBoundingBox" id="filter-4">
            <feOffset dx="2" dy="2" in="SourceAlpha" result="shadowOffsetOuter1"></feOffset>
            <feColorMatrix values="0 0 0 0 0   0 0 0 0 0   0 0 0 0 0  0 0 0 0.5 0" type="matrix" in="shadowOffsetOuter1"></feColorMatrix>
        </filter>
    </defs>
    <g id="multiflow-featured" stroke="none" stroke-width="1" fill="none" fill-rule="evenodd">
        <rect fill="#428AB3" x="0" y="0" width="700" height="394"></rect>
        <g id="icon-128-symbol" transform="translate(31.512327, 65.354394)">
            <rect id="background" fill="#428AB3" x="0" y="0" width="263.291213" height="263.291213"></rect>
            <path d="M316.857873,476.887485 L41.3459872,201.3756 L40.7323085,200.743222 L40.1155366,200.066473 L40.0034999,199.938748 C38.4618223,198.175228 37.172271,196.268869 36.1337474,194.266106 L35.6525075,193.292919 L35.4929265,192.946845 C35.2297355,192.370317 34.9873747,191.786856 34.7650189,191.197568 C33.6941116,188.368265 33.0567229,185.324968 32.9334376,182.149742 L32.9149217,181.464958 L32.9149217,81.8012817 L32.933664,81.142846 C33.06786,77.6794073 33.8134652,74.3741867 35.0653906,71.3306713 L35.2741654,70.8354331 L35.730604,69.8335853 L36.1353379,69.025874 C37.0241377,67.3085626 38.0985345,65.6626416 39.3575269,64.1169766 L40.1155014,63.2247446 L40.4247,62.879771 L40.880362,62.3919167 L41.3459872,61.9156132 C41.5544093,61.707191 41.7652315,61.5026314 41.9783646,61.3019345 L42.6551136,60.6851626 L42.7828386,60.5731259 C44.5463584,59.0314483 46.452718,57.741897 48.4554809,56.7033734 L49.4286678,56.2221335 L50.2656549,55.8439687 L50.9904849,55.5417976 L51.5240191,55.3346449 C53.490246,54.5902811 55.5601736,54.0554212 57.7058607,53.7570161 L59.0065797,53.6063156 L60.0624496,53.5278402 L60.7488556,53.4969006 L61.1436739,53.4864635 L61.7087459,53.4810206 L62.1613492,53.4810206 L62.844536,53.50329 L63.4314774,53.5322762 L64.4113463,53.6062915 L64.786237,53.6449306 C67.2640582,53.9068797 69.6466204,54.4839434 71.8949018,55.3343314 L72.6567107,55.6350166 L73.1519489,55.8437914 L74.1537967,56.30023 L74.961508,56.7049639 C76.6788194,57.5937637 78.3247404,58.6681605 79.8704054,59.9271529 L80.7626374,60.6851274 L81.107611,60.994326 L81.6448973,61.4974548 L82.0717688,61.9156132 L102.850126,82.6940034 L102.852183,81.8012817 L102.870392,81.142846 C103.004588,77.6794073 103.750194,74.3741867 105.002119,71.3306713 L105.210894,70.8354331 L105.667332,69.8335853 L106.072066,69.025874 C106.960866,67.3085626 108.035263,65.6626416 109.294255,64.1169766 L110.05223,63.2247446 L110.361428,62.879771 L110.81709,62.3919167 L111.282716,61.9156132 C111.491138,61.707191 111.70196,61.5026314 111.915093,61.3019345 L112.591842,60.6851626 L112.719567,60.5731259 C114.483087,59.0314483 116.389446,57.741897 118.392209,56.7033734 L119.365396,56.2221335 L120.202383,55.8439687 L120.927213,55.5417976 L121.460747,55.3346449 C123.426974,54.5902811 125.496902,54.0554212 127.642589,53.7570161 L128.943308,53.6063156 L129.999178,53.5278402 L130.685584,53.4969006 L131.080402,53.4864635 L131.645474,53.4810206 L132.098078,53.4810206 L132.781264,53.50329 L133.368206,53.5322762 L134.348075,53.6062915 L134.722965,53.6449306 C137.200787,53.9068797 139.583349,54.4839434 141.83163,55.3343314 L142.593439,55.6350166 L143.088677,55.8437914 L144.090525,56.30023 L144.898236,56.7049639 C146.615548,57.5937637 148.261469,58.6681605 149.807134,59.9271529 L150.699366,60.6851274 L151.044339,60.994326 L151.581626,61.4974548 L152.008497,61.9156132 L172.786855,82.6940034 L172.788912,81.8012817 L172.807121,81.142846 C172.941317,77.6794073 173.686922,74.3741867 174.938847,71.3306713 L175.147622,70.8354331 L175.604061,69.8335853 L176.008795,69.025874 C176.897594,67.3085626 177.971991,65.6626416 179.230984,64.1169766 L179.988958,63.2247446 L180.298157,62.879771 L180.753819,62.3919167 L181.219444,61.9156132 C181.427866,61.707191 181.638688,61.5026314 181.851821,61.3019345 L182.52857,60.6851626 L182.656295,60.5731259 C184.419815,59.0314483 186.326175,57.741897 188.328938,56.7033734 L189.302125,56.2221335 L190.139112,55.8439687 L190.863942,55.5417976 L191.397476,55.3346449 C193.363703,54.5902811 195.43363,54.0554212 197.579318,53.7570161 L198.880036,53.6063156 L199.935906,53.5278402 L200.622312,53.4969006 L201.017131,53.4864635 L201.582203,53.4810206 L202.034806,53.4810206 L202.717993,53.50329 L203.304934,53.5322762 L204.284803,53.6062915 L204.659694,53.6449306 C207.137515,53.9068797 209.520077,54.4839434 211.768359,55.3343314 L212.530168,55.6350166 L213.025406,55.8437914 L214.027253,56.30023 L214.834965,56.7049639 C216.552276,57.5937637 218.198197,58.6681605 219.743862,59.9271529 L220.636094,60.6851274 L220.981068,60.994326 L221.518354,61.4974548 L221.945226,61.9156132 L497.457111,337.427499 L497.457111,476.887485 L316.857873,476.887485 Z" id="blue-outer-shadow" fill="#000000" opacity="0.1"></path>
            <path d="M61.708878,53.4810276 C77.613285,53.4810276 90.5063544,66.374097 90.5063544,82.278504 L90.5063544,181.012709 C90.5063544,196.917116 77.613285,209.810185 61.708878,209.810185 C45.804471,209.810185 32.9114016,196.917116 32.9114016,181.012709 L32.9114016,82.278504 C32.9114016,66.374097 45.804471,53.4810276 61.708878,53.4810276 Z M131.645606,53.4810276 C147.550013,53.4810276 160.443083,66.374097 160.443083,82.278504 L160.443083,181.012709 C160.443083,196.917116 147.550013,209.810185 131.645606,209.810185 C115.741199,209.810185 102.84813,196.917116 102.84813,181.012709 L102.84813,82.278504 C102.84813,66.374097 115.741199,53.4810276 131.645606,53.4810276 Z M201.582335,53.4810276 C217.486742,53.4810276 230.379811,66.374097 230.379811,82.278504 L230.379811,181.012709 C230.379811,196.917116 217.486742,209.810185 201.582335,209.810185 C185.677928,209.810185 172.784858,196.917116 172.784858,181.012709 L172.784858,82.278504 C172.784858,66.374097 185.677928,53.4810276 201.582335,53.4810276 Z" id="blue-outer" fill="#95B6CB"></path>
            <mask id="mask-2" fill="white">
                <use xlink:href="#path-1"></use>
            </mask>
            <use id="bright-shadow-mask" fill="#95B6CB" xlink:href="#path-1"></use>
            <path d="M61.708878,65.8228032 C66.2631989,65.8228032 70.3851462,67.6728724 73.3646566,70.6624454 C75.0166758,72.320091 76.4374277,73.7437334 77.708024,75.015408 L80.0730419,77.3804403 C80.4418547,77.748944 80.7999918,78.1066391 81.1504573,78.4565639 L81.8420497,79.1469535 C83.6637668,80.9651662 85.3242382,82.6199743 87.2792024,84.572307 L88.4129338,85.7049121 C88.8032003,86.0949326 89.2068241,86.4984512 89.6268095,86.9185064 L90.4894859,87.7815658 C91.5234698,88.8162925 92.6574372,89.9520796 93.9295516,91.2275255 C96.8985714,94.2041561 98.7342048,98.3117047 98.7342048,102.84813 L98.7342048,201.582335 C98.7342048,210.669996 91.3667819,218.038036 82.278504,218.038036 C77.7252116,218.038036 73.6038813,216.188826 70.6245767,213.20006 C65.9290522,208.489752 63.4434166,205.883069 61.085703,203.455614 L60.5816779,202.937487 C59.9102318,202.248439 59.2370886,201.562801 58.5136893,200.835689 L57.9609581,200.281877 C56.0820522,198.405242 53.8131722,196.199264 50.3955837,192.962633 C47.2286512,189.963376 45.2531772,185.718834 45.2531772,181.012709 L45.2531772,82.278504 C45.2531772,73.1902673 52.6206413,65.8228032 61.708878,65.8228032 Z M131.645606,65.8228032 C136.199927,65.8228032 140.321875,67.6728724 143.301385,70.6624454 C144.402731,71.7675425 145.401292,72.7686381 146.3211,73.6900391 L147.215548,74.5857755 C147.360544,74.7309375 147.503575,74.8741109 147.644752,75.015408 L148.868301,76.2394651 C149.130413,76.5015712 149.386445,76.7575232 149.637288,77.0082212 L150.734052,78.1039365 C150.85269,78.2224174 150.970364,78.3399223 151.087186,78.4565639 L151.778778,79.1469535 C153.486638,80.8515279 155.052778,82.412485 156.852715,84.2096187 L157.586049,84.9419686 C159.330411,86.6843769 161.322051,88.6766337 163.86628,91.2275255 C166.8353,94.2041561 168.670933,98.3117047 168.670933,102.84813 L168.670933,201.582335 C168.670933,210.669996 161.30351,218.038036 152.215232,218.038036 C147.66194,218.038036 143.54061,216.188826 140.561305,213.20006 C135.865781,208.489752 133.380145,205.883069 131.022431,203.455614 L130.518406,202.937487 C129.84696,202.248439 129.173817,201.562801 128.450418,200.835689 L127.897686,200.281877 C126.018781,198.405242 123.749901,196.199264 120.332312,192.962633 C117.16538,189.963376 115.189906,185.718834 115.189906,181.012709 L115.189906,82.278504 C115.189906,73.1902673 122.55737,65.8228032 131.645606,65.8228032 Z M201.582335,65.8228032 C206.136656,65.8228032 210.258603,67.6728724 213.238113,70.6624454 C214.33946,71.7675425 215.33802,72.7686381 216.257829,73.6900391 L217.152276,74.5857755 C217.297272,74.7309375 217.440303,74.8741109 217.581481,75.015408 L218.40719,75.8415776 C218.541397,75.9758203 218.673973,76.108412 218.805029,76.2394651 L219.574016,77.0082212 C219.699437,77.1335702 219.823561,77.2576058 219.946499,77.3804403 L220.67078,78.1039365 C222.806262,80.2365921 224.629519,82.0530582 226.789443,84.2096187 L227.522777,84.9419686 C228.270361,85.688715 229.063363,86.481352 229.925817,87.3441863 L230.812311,88.23132 C231.723737,89.1436533 232.712625,90.1342862 233.803008,91.2275255 C236.772028,94.2041561 238.607662,98.3117047 238.607662,102.84813 L238.607662,201.582335 C238.607662,210.669996 231.240239,218.038036 222.151961,218.038036 C217.598668,218.038036 213.477338,216.188826 210.498033,213.20006 C205.802509,208.489752 203.316873,205.883069 200.95916,203.455614 L200.455135,202.937487 C197.937212,200.353557 195.395423,197.817579 190.269041,192.962633 C187.102108,189.963376 185.126634,185.718834 185.126634,181.012709 L185.126634,82.278504 C185.126634,73.1902673 192.494098,65.8228032 201.582335,65.8228032 Z" id="bright-shadow" fill="#0C161C" opacity="0.1" mask="url(#mask-2)"></path>
            <path d="M61.708878,65.8228032 C70.7971106,65.8228032 78.1645788,73.1902714 78.1645788,82.278504 L78.1645788,181.012709 C78.1645788,190.100941 70.7971106,197.46841 61.708878,197.46841 C52.6206454,197.46841 45.2531772,190.100941 45.2531772,181.012709 L45.2531772,82.278504 C45.2531772,73.1902714 52.6206454,65.8228032 61.708878,65.8228032 Z M131.645606,65.8228032 C140.733839,65.8228032 148.101307,73.1902714 148.101307,82.278504 L148.101307,181.012709 C148.101307,190.100941 140.733839,197.46841 131.645606,197.46841 C122.557374,197.46841 115.189906,190.100941 115.189906,181.012709 L115.189906,82.278504 C115.189906,73.1902714 122.557374,65.8228032 131.645606,65.8228032 Z M201.582335,65.8228032 C210.670567,65.8228032 218.038036,73.1902714 218.038036,82.278504 L218.038036,181.012709 C218.038036,190.100941 210.670567,197.46841 201.582335,197.46841 C192.494102,197.46841 185.126634,190.100941 185.126634,181.012709 L185.126634,82.278504 C185.126634,73.1902714 192.494102,65.8228032 201.582335,65.8228032 Z" id="Shape" fill="#FFFFFF" mask="url(#mask-2)"></path>
        </g>
        <path d="M307.821668,190.220882 L321.141301,142.936185 L321.289297,142.936185 L334.682927,190.220882 L340.010781,190.220882 L354.588379,137.386338 L349.556517,137.386338 L337.49485,183.635063 L337.346854,183.635063 L324.397211,137.386338 L318.107384,137.386338 L305.231739,183.635063 L305.083743,183.635063 L293.096074,137.386338 L287.694222,137.386338 L302.345819,190.220882 L307.821668,190.220882 Z M374.049842,191.256853 C376.960429,191.256853 379.538024,190.726534 381.782629,189.665897 C384.027234,188.605259 385.914182,187.162299 387.443473,185.337016 C388.972764,183.511733 390.132066,181.378125 390.921377,178.936193 C391.710689,176.49426 392.105345,173.891998 392.105345,171.129408 C392.105345,168.366817 391.710689,165.764556 390.921377,163.322623 C390.132066,160.88069 388.972764,158.747082 387.443473,156.921799 C385.914182,155.096516 384.027234,153.641223 381.782629,152.55592 C379.538024,151.470616 376.960429,150.927965 374.049842,150.927965 C371.139256,150.927965 368.56166,151.470616 366.317055,152.55592 C364.072451,153.641223 362.185503,155.096516 360.656211,156.921799 C359.12692,158.747082 357.967619,160.88069 357.178307,163.322623 C356.388996,165.764556 355.99434,168.366817 355.99434,171.129408 C355.99434,173.891998 356.388996,176.49426 357.178307,178.936193 C357.967619,181.378125 359.12692,183.511733 360.656211,185.337016 C362.185503,187.162299 364.072451,188.605259 366.317055,189.665897 C368.56166,190.726534 371.139256,191.256853 374.049842,191.256853 Z M374.049842,187.408959 C371.829903,187.408959 369.881291,186.940305 368.204003,186.002998 C366.526716,185.06569 365.133088,183.832391 364.023119,182.3031 C362.913149,180.773809 362.074506,179.034856 361.507188,177.086244 C360.93987,175.137631 360.656211,173.152019 360.656211,171.129408 C360.656211,169.106797 360.93987,167.121185 361.507188,165.172572 C362.074506,163.223959 362.913149,161.485007 364.023119,159.955716 C365.133088,158.426425 366.526716,157.193125 368.204003,156.255818 C369.881291,155.31851 371.829903,154.849856 374.049842,154.849856 C376.269781,154.849856 378.218394,155.31851 379.895681,156.255818 C381.572968,157.193125 382.966597,158.426425 384.076566,159.955716 C385.186535,161.485007 386.025179,163.223959 386.592497,165.172572 C387.159814,167.121185 387.443473,169.106797 387.443473,171.129408 C387.443473,173.152019 387.159814,175.137631 386.592497,177.086244 C386.025179,179.034856 385.186535,180.773809 384.076566,182.3031 C382.966597,183.832391 381.572968,185.06569 379.895681,186.002998 C378.218394,186.940305 376.269781,187.408959 374.049842,187.408959 Z M403.723024,190.220882 L403.723024,169.871442 C403.723024,167.848831 404.068348,165.986549 404.758996,164.284596 C405.449643,162.582643 406.42395,161.115017 407.681915,159.881718 C408.939881,158.648418 410.432173,157.698778 412.158792,157.032796 C413.885411,156.366815 415.809358,156.083156 417.930633,156.18182 L417.930633,151.519948 C414.477395,151.371952 411.505143,152.136598 409.013879,153.813885 C406.522614,155.491172 404.684998,157.883773 403.501031,160.991687 L403.353035,160.991687 L403.353035,152.037934 L399.061153,152.037934 L399.061153,190.220882 L403.723024,190.220882 Z M427.032382,190.220882 L427.032382,175.717281 L434.580174,169.427455 L449.675758,190.220882 L455.521597,190.220882 L438.132076,166.171544 L454.411627,152.037934 L448.195799,152.037934 L427.032382,170.537424 L427.032382,137.386338 L422.37051,137.386338 L422.37051,190.220882 L427.032382,190.220882 Z M465.289327,190.220882 L465.289327,165.061575 L490.59663,165.061575 L490.59663,160.769693 L465.289327,160.769693 L465.289327,141.678219 L493.778542,141.678219 L493.778542,137.386338 L460.257466,137.386338 L460.257466,190.220882 L465.289327,190.220882 Z M503.842265,190.220882 L503.842265,137.386338 L499.180393,137.386338 L499.180393,190.220882 L503.842265,190.220882 Z M528.927573,191.256853 C531.83816,191.256853 534.415755,190.726534 536.66036,189.665897 C538.904965,188.605259 540.791913,187.162299 542.321204,185.337016 C543.850495,183.511733 545.009797,181.378125 545.799108,178.936193 C546.58842,176.49426 546.983076,173.891998 546.983076,171.129408 C546.983076,168.366817 546.58842,165.764556 545.799108,163.322623 C545.009797,160.88069 543.850495,158.747082 542.321204,156.921799 C540.791913,155.096516 538.904965,153.641223 536.66036,152.55592 C534.415755,151.470616 531.83816,150.927965 528.927573,150.927965 C526.016987,150.927965 523.439391,151.470616 521.194787,152.55592 C518.950182,153.641223 517.063234,155.096516 515.533943,156.921799 C514.004651,158.747082 512.84535,160.88069 512.056038,163.322623 C511.266727,165.764556 510.872071,168.366817 510.872071,171.129408 C510.872071,173.891998 511.266727,176.49426 512.056038,178.936193 C512.84535,181.378125 514.004651,183.511733 515.533943,185.337016 C517.063234,187.162299 518.950182,188.605259 521.194787,189.665897 C523.439391,190.726534 526.016987,191.256853 528.927573,191.256853 Z M528.927573,187.408959 C526.707635,187.408959 524.759022,186.940305 523.081735,186.002998 C521.404447,185.06569 520.010819,183.832391 518.90085,182.3031 C517.79088,180.773809 516.952237,179.034856 516.384919,177.086244 C515.817601,175.137631 515.533943,173.152019 515.533943,171.129408 C515.533943,169.106797 515.817601,167.121185 516.384919,165.172572 C516.952237,163.223959 517.79088,161.485007 518.90085,159.955716 C520.010819,158.426425 521.404447,157.193125 523.081735,156.255818 C524.759022,155.31851 526.707635,154.849856 528.927573,154.849856 C531.147512,154.849856 533.096125,155.31851 534.773412,156.255818 C536.450699,157.193125 537.844328,158.426425 538.954297,159.955716 C540.064266,161.485007 540.90291,163.223959 541.470228,165.172572 C542.037545,167.121185 542.321204,169.106797 542.321204,171.129408 C542.321204,173.152019 542.037545,175.137631 541.470228,177.086244 C540.90291,179.034856 540.064266,180.773809 538.954297,182.3031 C537.844328,183.832391 536.450699,185.06569 534.773412,186.002998 C533.096125,186.940305 531.147512,187.408959 528.927573,187.408959 Z M567.480511,190.220882 L576.804254,158.105767 L576.95225,158.105767 L586.349991,190.220882 L591.45585,190.220882 L603.739511,152.037934 L598.781648,152.037934 L589.013917,184.745032 L588.865921,184.745032 L579.542178,152.037934 L574.288323,152.037934 L564.96458,184.745032 L564.816584,184.745032 L555.048853,152.037934 L550.09099,152.037934 L562.374652,190.220882 L567.480511,190.220882 Z M611.805289,204.280494 C613.285248,204.280494 614.506215,204.144831 615.468188,203.873505 C616.430162,203.602179 617.268805,203.158192 617.984119,202.541542 C618.699432,201.924892 619.353081,201.086249 619.945065,200.025611 C620.537048,198.964974 621.178364,197.620678 621.869012,195.992722 L638.444555,152.037934 L633.782683,152.037934 L622.017008,184.597037 L609.437354,152.037934 L604.479491,152.037934 L619.723071,190.072886 L618.095116,194.364767 C617.70046,195.252743 617.33047,196.06672 616.985146,196.8067 C616.639822,197.54668 616.220501,198.175662 615.727181,198.693648 C615.233861,199.211634 614.654211,199.618622 613.988229,199.914614 C613.322247,200.210606 612.471271,200.358602 611.435299,200.358602 C610.892648,200.358602 610.362329,200.321603 609.844343,200.247605 C609.326357,200.173607 608.796039,200.087276 608.253387,199.988612 L608.253387,203.910504 C608.648043,204.0585 609.104363,204.144831 609.622349,204.169497 C610.140335,204.194163 610.867982,204.231162 611.805289,204.280494 Z" id="WorkFlowy" fill-opacity="0.980031687" fill="#FFFFFF" fill-rule="nonzero"></path>
        <path d="M303.984071,260.256356 L303.984071,223.127575 L304.13229,223.127575 L317.101425,260.256356 L326.068656,260.256356 L339.037791,222.757028 L339.18601,222.757028 L339.18601,260.256356 L350.080084,260.256356 L350.080084,207.342284 L333.701918,207.342284 L321.992642,243.729972 L321.844423,243.729972 L309.468163,207.342284 L293.089998,207.342284 L293.089998,260.256356 L303.984071,260.256356 Z M373.202199,261.219778 C375.425479,261.219778 377.599353,260.725715 379.723821,259.737591 C381.848289,258.749466 383.577507,257.143764 384.911475,254.920483 L385.133803,254.920483 L385.133803,260.256356 L395.138565,260.256356 L395.138565,221.941825 L384.615038,221.941825 L384.615038,242.025457 C384.615038,245.92855 383.972757,248.732353 382.688195,250.436868 C381.403633,252.141383 379.328571,252.99364 376.46301,252.99364 C373.943292,252.99364 372.189371,252.215492 371.201247,250.659196 C370.213122,249.1029 369.71906,246.743752 369.71906,243.581754 L369.71906,221.941825 L359.195533,221.941825 L359.195533,245.508597 C359.195533,247.880096 359.405509,250.041618 359.825462,251.993164 C360.245415,253.94471 360.974157,255.599819 362.011688,256.95849 C363.049219,258.317162 364.469648,259.367044 366.272975,260.108137 C368.076303,260.849231 370.386044,261.219778 373.202199,261.219778 Z M413.962338,260.256356 L413.962338,207.342284 L403.438811,207.342284 L403.438811,260.256356 L413.962338,260.256356 Z M437.158563,260.626903 C438.196094,260.626903 439.258328,260.6022 440.345265,260.552793 C441.432202,260.503387 442.420327,260.404575 443.309639,260.256356 L443.309639,252.104328 C442.815576,252.203141 442.296811,252.27725 441.753343,252.326656 C441.209874,252.376062 440.641702,252.400766 440.048828,252.400766 C438.270203,252.400766 437.084454,252.104328 436.491579,251.511453 C435.898704,250.918579 435.602267,249.732829 435.602267,247.954205 L435.602267,228.982213 L443.309639,228.982213 L443.309639,221.941825 L435.602267,221.941825 L435.602267,210.454877 L425.07874,210.454877 L425.07874,221.941825 L418.705336,221.941825 L418.705336,228.982213 L425.07874,228.982213 L425.07874,251.585563 C425.07874,253.512406 425.399881,255.068702 426.042162,256.254452 C426.684443,257.440201 427.561403,258.354216 428.673043,258.996497 C429.784683,259.638778 431.069245,260.071083 432.526729,260.293411 C433.984213,260.515739 435.528158,260.626903 437.158563,260.626903 Z M459.169038,216.013077 L459.169038,207.342284 L448.645512,207.342284 L448.645512,216.013077 L459.169038,216.013077 Z M459.169038,260.256356 L459.169038,221.941825 L448.645512,221.941825 L448.645512,260.256356 L459.169038,260.256356 Z M480.216092,260.256356 L480.216092,238.3941 L502.374786,238.3941 L502.374786,229.352759 L480.216092,229.352759 L480.216092,217.124718 L505.783816,217.124718 L505.783816,207.342284 L468.580925,207.342284 L468.580925,260.256356 L480.216092,260.256356 Z M522.236091,260.256356 L522.236091,207.342284 L511.712564,207.342284 L511.712564,260.256356 L522.236091,260.256356 Z M549.137783,261.219778 C552.151563,261.219778 554.881257,260.750418 557.326865,259.8117 C559.772473,258.872982 561.859887,257.526662 563.589105,255.772741 C565.318323,254.01882 566.652291,251.906703 567.591009,249.436392 C568.529728,246.96608 568.999087,244.199331 568.999087,241.136145 C568.999087,238.072959 568.529728,235.293859 567.591009,232.798844 C566.652291,230.303829 565.318323,228.179362 563.589105,226.42544 C561.859887,224.671519 559.772473,223.312848 557.326865,222.349426 C554.881257,221.386005 552.151563,220.904294 549.137783,220.904294 C546.124003,220.904294 543.40666,221.386005 540.985755,222.349426 C538.564849,223.312848 536.489788,224.671519 534.76057,226.42544 C533.031352,228.179362 531.697384,230.303829 530.758665,232.798844 C529.819947,235.293859 529.350588,238.072959 529.350588,241.136145 C529.350588,244.199331 529.819947,246.96608 530.758665,249.436392 C531.697384,251.906703 533.031352,254.01882 534.76057,255.772741 C536.489788,257.526662 538.564849,258.872982 540.985755,259.8117 C543.40666,260.750418 546.124003,261.219778 549.137783,261.219778 Z M549.137783,253.364187 C547.359158,253.364187 545.876971,253.018343 544.691222,252.326656 C543.505472,251.634969 542.554402,250.708602 541.838012,249.547556 C541.121622,248.386509 540.615208,247.077244 540.318771,245.619761 C540.022333,244.162277 539.874115,242.667738 539.874115,241.136145 C539.874115,239.604552 540.022333,238.097662 540.318771,236.615475 C540.615208,235.133288 541.121622,233.824023 541.838012,232.68768 C542.554402,231.551337 543.505472,230.62497 544.691222,229.90858 C545.876971,229.192189 547.359158,228.833994 549.137783,228.833994 C550.916407,228.833994 552.410945,229.192189 553.621398,229.90858 C554.831851,230.62497 555.795272,231.551337 556.511662,232.68768 C557.228053,233.824023 557.734467,235.133288 558.030904,236.615475 C558.327341,238.097662 558.47556,239.604552 558.47556,241.136145 C558.47556,242.667738 558.327341,244.162277 558.030904,245.619761 C557.734467,247.077244 557.228053,248.386509 556.511662,249.547556 C555.795272,250.708602 554.831851,251.634969 553.621398,252.326656 C552.410945,253.018343 550.916407,253.364187 549.137783,253.364187 Z M595.307904,260.256356 L601.829526,234.540414 L601.977745,234.540414 L608.795805,260.256356 L619.615769,260.256356 L631.695592,221.941825 L620.875628,221.941825 L613.83524,247.880096 L613.687022,247.880096 L607.165399,221.941825 L596.93831,221.941825 L590.564906,247.954205 L590.416687,247.954205 L583.3763,221.941825 L572.259898,221.941825 L584.413831,260.256356 L595.307904,260.256356 Z" id="MultiFlow" fill-opacity="0.980031687" fill="#FFFFFF" fill-rule="nonzero"></path>
        <g id="Multi-columnviewforWorkFlowy" fill-rule="nonzero">
            <use fill="black" fill-opacity="1" filter="url(#filter-4)" xlink:href="#path-3"></use>
            <use fill="#FFFFFF" xlink:href="#path-3"></use>
        </g>
    </g>
</svg>