<svg xmlns="http://www.w3.org/2000/svg" viewBox="0 0 1280 720"><g fill="none" fill-rule="evenodd"><g fill-rule="nonzero"><g fill="#3F3F63"><path d="M827.658 398.09c-3.42-1.144-6.827-2.299-10.186-3.435-29.307-9.938-59.476-20.165-90.394-20.165-.355 0-.711.002-1.067.005a88.664 88.664 0 0 0-.074-9.334c-1.178-19.282-9.252-38.3-22.572-53.806 22.308-8.914 48.269-10.081 71.337-2.919 14.774 4.59 34.808 14.68 46.351 36.688 8.745 16.673 10.238 34.964 6.605 52.966Zm-49.126 77.25c-17.045 13.994-43.661 30.682-73.664 30.732-.471.002-.947-.004-1.424-.014 1.311-15.71-1.582-32.15-8.604-45.734a121.503 121.503 0 0 0-7.02-11.838 111.108 111.108 0 0 0 16.874-17.594c11.39-14.828 18.48-31.76 20.674-48.955 30.318-.374 60.465 9.838 89.718 19.755 3.569 1.211 7.191 2.437 10.831 3.653-7.406 26.637-25.538 52.063-47.385 69.996Zm-82.463 30.165c-20.749-2.662-42.611-14.7-51.39-35.445a101.96 101.96 0 0 0 2.161-.515c12.503-3.103 24.423-8.742 35.098-16.476a112.74 112.74 0 0 1 6.3 10.67c6.418 12.41 9.052 27.433 7.831 41.766Zm-6.456 24.523c-4.516 9.402-13.335 21.301-29.706 24.588-26.069 5.236-51.559-17.418-59.008-41.863-4.268-14.009-4.39-28.573-2.463-42.517 13.012 2.711 26.094 3.128 38.792 1.221 4.682 11.968 13.452 22.25 25.566 29.904 9.672 6.113 20.867 10.08 32.29 11.527-1.101 6.037-2.924 11.838-5.471 17.14ZM592.44 460.95a109.59 109.59 0 0 1-3.21-.95c9.173-16.007 11.925-35.993 7.511-56.125-3.377-15.416-10.621-29.514-20.541-40.666 5.004-1.82 10.05-3.689 15.063-5.686 4.871 8.175 11.008 15.819 17.52 22.41a313.149 313.149 0 0 0 9.165 8.874c-6.28 12.47-11.924 26.078-16.888 40.727-3.223 9.505-6.451 20.162-8.62 31.416Zm-10.368-3.438c-20.956-8.054-39.93-22.193-52.953-40.855-5.404-7.744-9.823-16.19-13.235-25.088a82.454 82.454 0 0 1 6.679-4.78c14.113-9.062 30.269-15.122 46.062-20.84 10.12 10.51 17.523 24.304 20.856 39.518 4.13 18.832 1.416 37.44-7.409 52.045Zm-54.446 26.714c-2.747-7.79-6.83-15.135-12.055-21.379-8.069-9.641-17.848-17.224-28.423-23.703 1.587-15.342 10.552-30.72 22.799-42.404 3.474 8.543 7.839 16.663 13.076 24.17 13.146 18.836 32.525 34.096 54.582 42.984-11.128 13.65-30.792 21.635-49.979 20.332Zm-40.555-36.32c8.514 5.571 16.315 11.964 22.8 19.71 3.78 4.516 6.906 9.774 9.266 15.388-13.053-2.938-23.193-10.5-28.331-21.34-2.105-4.441-3.308-9.065-3.735-13.757Zm36.713 66.366c-1.05 7.985-4.506 19.057-15.028 26.458-8.734 6.144-19.002 7.877-30.517 5.15-18.35-4.344-37.573-20.095-47.834-39.196-14.569-27.125-18.38-58.577-11.766-86.6.566.07 1.134.134 1.703.19 4.25.425 8.576.517 12.915.28 1.188.585 2.355 1.151 3.505 1.7 3.84 1.832 7.787 3.66 11.604 5.429 10.46 4.843 21.087 9.764 31.038 15.516-.098 7.562 1.461 14.843 4.687 21.647 6.725 14.193 20.424 23.647 37.842 26.235 2.125 7.716 2.829 15.737 1.85 23.191ZM413.21 411.613c-7.68-1.64-14.923-4.514-21.318-8.577a56.4 56.4 0 0 1-3.202-2.196 140.74 140.74 0 0 0 8.19-3.29c5.37 4.588 11.112 8.65 16.88 12.26-.187.599-.371 1.198-.55 1.802Zm-31.03-16.336c-14.915-14.623-24-37.783-15.265-57.674a29.304 29.304 0 0 1 2.457-4.463c-1.69 9.81-1.052 19.69 2.074 28.903 3.98 11.737 11.005 21.64 19.446 30.008a153.51 153.51 0 0 1-8.712 3.226Zm-2.355-72.172c5.588-3.556 12.277-5.842 19.279-6.351 11.894-.86 21.757 3.52 27.07 12.022 9.492 15.193 2.053 36.467-10.63 48.256-5.156 4.795-10.977 8.578-17.344 11.737-8.64-8.074-15.838-17.68-19.717-29.115-3.917-11.55-3.333-24.363 1.342-36.549Zm10.619-18.317c13.836-17.249 34.334-26.667 53.504-24.58 18.531 2.017 35.996 14.187 46.712 32.555 4.52 7.749 7.55 16.002 9.04 24.276a105.74 105.74 0 0 0-12.785 2.591c-23.32 6.234-43.636 19.881-57.204 38.428-5.49 7.506-9.984 15.75-13.42 24.558-4.105-2.629-8.176-5.499-12.064-8.63 5.923-3.166 11.435-6.914 16.378-11.512 7.693-7.152 13.515-17.024 15.97-27.087 2.713-11.126 1.26-21.975-4.099-30.551-6.72-10.752-19.392-16.545-33.907-15.496a49.446 49.446 0 0 0-13.353 2.87 71.93 71.93 0 0 1 5.228-7.422Zm109.926 51.357c-.645 5.616-2.06 11.061-4.26 16.176-7.498 17.442-23.5 31.056-43.904 37.35A79.971 79.971 0 0 1 434.752 413a223.124 223.124 0 0 1-11.996-6.452c3.24-8.609 7.562-16.732 12.953-24.102 15.432-21.092 39.453-34.43 64.172-37.978.008 3.907.169 7.803.489 11.677Zm2.568 19.113.215-.502a135.448 135.448 0 0 0 3.998 14.459c-9.08 8.102-16.617 17.991-21.478 28.388-2.752 5.885-4.6 11.73-5.542 17.456-9.3-5.166-19.04-9.674-28.642-14.12-1.554-.72-3.13-1.45-4.71-2.184a86.907 86.907 0 0 0 7.618-1.982c22.487-6.937 40.18-22.07 48.54-41.515Zm5.074-31.601c15.04-.837 30.023 2.017 43.171 9.014a67.824 67.824 0 0 1 11.313 7.598c-15.025 5.486-30.246 11.469-43.95 20.267a86.887 86.887 0 0 0-5.235 3.636c-2.811-8.976-4.647-18.335-5.486-27.848.435-4.165.496-8.405.187-12.667Zm10.59-54.008c13.84-31.67 39.49-54.42 66.942-59.377 16.161-2.916 34.053 1.413 47.867 11.581 11.489 8.456 18.667 19.989 20.213 32.477.261 2.101.377 4.178.363 6.223-7.584-1.769-15.331-2.447-23.057-1.964-20.145 1.26-36.933 10.34-44.91 24.292-8.622 15.081-6.116 32.261 1.664 48.064-5.72 2.263-11.505 4.37-17.208 6.434-4.818-4.442-10.118-8.246-15.798-11.27-12.485-6.643-26.637-10.014-41.365-10.014-1.92 0-3.85.056-5.788.171.92-15.88 4.583-31.757 11.077-46.617Zm75.935 58.488c-6.981-13.921-9.357-28.813-2.063-41.564 6.73-11.776 21.28-19.464 38.92-20.565a69.697 69.697 0 0 1 4.387-.138c5.888 0 11.768.737 17.549 2.174-4.132 24.737-27.06 44.633-47.99 55.116a197.194 197.194 0 0 1-10.803 4.977Zm94.195-41.057a90.265 90.265 0 0 1 2.064 1.879l-.336.176c-21.179 11.175-39.938 28.424-55.754 51.264-4.639 6.7-9.04 13.899-13.19 21.568a298.552 298.552 0 0 1-7.446-7.257c-5.87-5.942-11.428-12.785-15.89-20.048a199.593 199.593 0 0 0 10.488-4.856c15.434-7.731 29.082-18.724 38.428-30.953 7.002-9.167 11.497-18.87 13.346-28.67 10.032 3.554 19.635 9.25 28.29 16.897ZM656.328 413.2c14.072-16.523 35.63-28.207 57.264-30.56 1.396-.15 2.79-.278 4.186-.38-3.369 22.83-16.151 44.605-34.345 60.06-7.967-10.594-17.344-20.094-27.105-29.12Zm-5.707 7.597c.374-.568.753-1.129 1.142-1.69 9.352 8.677 18.289 17.78 25.825 27.82-9.74 7.12-20.761 12.48-32.537 15.406-.914.226-1.836.44-2.757.638-4.447-17.472 1.971-32.484 8.327-42.174Zm-15.67 43.449c-11.609 1.546-23.572.96-35.281-1.516 2.094-11.008 5.266-21.48 8.427-30.81 4.636-13.68 9.815-26.326 15.519-37.916 3.937 3.556 7.908 7.048 11.82 10.486 3.594 3.162 7.211 6.341 10.795 9.567a83.093 83.093 0 0 0-1.825 2.662c-10.074 15.36-13.312 31.716-9.454 47.527Zm58.978-148.537c.77-.407 1.544-.8 2.324-1.187 13.154 14.579 21.14 32.727 22.265 51.092.187 3.046.192 6.1.023 9.142a128.81 128.81 0 0 0-5.753.496c-23.367 2.543-46.658 15.125-61.954 32.948-3.487-3.134-7-6.221-10.491-9.29-4.38-3.853-8.837-7.773-13.227-11.764 17.676-33.37 40.043-57.31 66.813-71.437Zm149.204 87.378c-.601-.187-1.205-.366-1.804-.553a568.432 568.432 0 0 1-6.661-2.13c4.505-21.181 2.147-41.23-7.033-58.734-9.927-18.93-27.945-33.254-50.729-40.332-25.58-7.944-54.492-6.306-78.94 4.213a97.811 97.811 0 0 0-4.314-4.04c-9.832-8.688-20.815-15.06-32.312-18.88a53.537 53.537 0 0 0-.338-9.213c-1.8-14.535-10.035-27.873-23.186-37.552-15.429-11.357-35.463-16.182-53.59-12.908-15.617 2.819-30.754 10.69-43.777 22.764-11.835 10.972-21.744 25.131-28.656 40.95-4.552 10.416-7.785 21.309-9.723 32.365a84.507 84.507 0 0 0-4.99-10.02c-5.66-9.702-13.225-18.106-21.877-24.31-9.362-6.709-19.607-10.71-30.452-11.89-11.12-1.209-22.702.873-33.495 6.023-10.099 4.82-19.302 12.186-26.61 21.297-4.56 5.683-8.19 11.768-10.85 18.048-6.162 4.372-10.865 10.01-13.686 16.43-5.527 12.585-5.37 27.425.446 41.787 3.153 7.785 7.88 15.124 13.667 21.404a507.796 507.796 0 0 1-9.86 2.831c-75.736 21.033-156.766 38.749-236.192 26.04a3.718 3.718 0 0 0-4.257 3.086 3.714 3.714 0 0 0 3.083 4.254c80.83 12.933 162.808-4.958 239.354-26.22 4.724-1.31 9.398-2.651 13.975-4.108a66.74 66.74 0 0 0 7.58 5.62c7.097 4.51 14.94 7.705 23.399 9.543-1.78 7.76-2.821 15.833-3.093 24.125-.752 23.163 4.803 47.038 15.645 67.226 5.399 10.048 13.117 19.4 22.32 27.044 9.572 7.946 20.066 13.432 30.35 15.867 13.48 3.192 26.103 1.013 36.505-6.303 10.076-7.086 16.34-18.005 18.12-31.573 1.005-7.649.504-15.672-1.319-23.465 9.344.264 18.842-1.387 27.745-4.853 11.047-4.299 20.342-11.118 26.885-19.72a48 48 0 0 0 .461-.614c2.076.69 4.163 1.323 6.247 1.894-2.164 15.081-2.095 30.979 2.618 46.441 4.322 14.175 13.681 27.42 25.68 36.342 10.207 7.588 21.56 11.548 32.74 11.548 3.077 0 6.139-.3 9.162-.906 15.114-3.037 27.525-13.215 34.941-28.66 2.932-6.105 4.995-12.805 6.193-19.773.791.023 1.585.036 2.373.033 25.485-.043 52.585-11.253 78.372-32.42 20.828-17.098 37.811-40.489 46.59-64.171a123.842 123.842 0 0 0 3.033-9.278c2.004.653 4.006 1.29 5.998 1.915 1.085-2.437 2.57-4.687 4.262-6.464"/><path d="M140.73 428.884c0 8.21-6.656 14.866-14.866 14.866s-14.866-6.656-14.866-14.866 6.656-14.865 14.866-14.865 14.866 6.656 14.866 14.865M975.867 472.072c-33.413 0-57.467-15.834-82.908-32.587-19.454-12.807-39.573-26.053-65.708-33.674l2.21-7.583c27.276 7.954 47.897 21.533 67.84 34.66 25.868 17.032 48.197 31.729 80 31.276 19.358-.282 35.735-7.012 47.365-19.464 12.382-13.26 18.585-32.074 17.459-52.974l7.885-.425c1.244 23.066-5.71 43.945-19.574 58.79-13.128 14.06-31.463 21.656-53.02 21.97-.52.008-1.035.01-1.55.01"/></g><g><path d="M1111.532 245.391c-.054-37.36-30.283-67.607-67.515-67.558-37.236.046-67.377 30.372-67.323 67.732.061 42.258 38.55 101.673 38.561 107.63.02 14.557 47.025 9.411 58.03-.074-.01-5.957 38.305-68.208 38.247-107.73" fill="#FFD970"/><path d="M1050.885 239.721c-1.016.018-1.953 1.226-2.42 1.946-3.071 4.72-3.33 11.32-.672 17.218.942 2.097 2.235 4.114 3.855 6.021.13-.43.253-.875.371-1.334a56.913 56.913 0 0 0 1.488-19.176c-.108-1.168-.259-2.386-.781-3.341-.435-.799-1.168-1.334-1.82-1.334h-.02Zm-17.262 16.89c-.287.326-.35 1.035-.187 2.108.584 3.845 2.23 7.465 4.526 10.086.924-3.371.576-7.099-1.026-10.16-.564-1.078-1.145-1.762-1.774-2.095a1.734 1.734 0 0 0-.804-.194c-.32 0-.589.092-.735.256Zm36.69 4.081c-1.615.226-3.067 1.657-4.57 4.498a66.385 66.385 0 0 0-3.527 7.924c1.377.496 2.949.76 4.554.76 3.927-.005 7.316-1.51 8.637-3.835 1.047-1.84.781-4.134-.796-6.815-.898-1.533-2.463-2.562-3.886-2.562-.138 0-.279.01-.412.03Zm-58.98 9.355c-.092 1.492 1.006 2.982 1.943 3.97 2.8 2.955 6.815 4.66 11.036 4.693-.174-.597-.35-1.19-.53-1.78-1.062-3.484-2.444-7.357-5.452-9.195-.727-.445-1.667-.689-2.647-.689-2.02.003-4.23 1.055-4.35 3Zm43.784 77.655c-.996-12.368-2.025-25.155-1.851-37.809.192-13.88 1.856-25.418 5.084-35.22a42.982 42.982 0 0 1-5.673-4.247c-.845 1.428-1.823 2.58-2.926 3.438-1.533 1.198-3.256 1.804-5.12 1.807-1.833.003-3.71-.591-5.51-1.733-2.388 3.866-6.235 6.528-10.784 7.506 6.517 24.161 8.094 49.825 9.62 74.662.312 5.064.632 10.281.99 15.404 4.16-1.226 14.08-4.153 17.496-5.161-.302-5.927-.801-12.12-1.326-18.647Zm-18.483 27.159a1.572 1.572 0 0 1-.671-1.178c-.417-5.76-.78-11.668-1.132-17.385-1.525-24.824-3.102-50.48-9.633-74.46-.246.01-.491.015-.735.015-5.13.008-10.035-2.06-13.458-5.67-1.986-2.094-2.928-4.224-2.798-6.33.11-1.798 1.037-3.39 2.612-4.489 1.346-.939 3.072-1.459 4.861-1.461 1.57 0 3.052.397 4.28 1.147 3.945 2.414 5.589 6.924 6.818 10.964.24.789.478 1.59.711 2.394 3.922-.789 7.21-3.088 9.157-6.441-3.228-3.129-5.552-7.806-6.307-12.775-.203-1.323-.323-3.248.95-4.677.75-.84 1.837-1.303 3.064-1.303a4.837 4.837 0 0 1 2.265.556c1.229.647 2.212 1.733 3.093 3.415 1.185 2.268 1.838 4.866 1.886 7.518a17.344 17.344 0 0 1-1.085 6.395c1.385.942 2.793 1.434 4.114 1.431 2.77-.002 4.595-2.199 5.722-4.367-2.322-2.478-4.14-5.158-5.41-7.98-1.454-3.228-2.173-6.766-2.078-10.234.1-3.694 1.128-7.15 2.982-9.997 1.41-2.174 3.136-3.338 4.99-3.372 1.845-.03 3.63 1.111 4.643 2.967.81 1.483 1.02 3.131 1.15 4.562a59.99 59.99 0 0 1-1.57 20.237 28.31 28.31 0 0 1-.972 3.118 39.054 39.054 0 0 0 5.34 4.17 69.614 69.614 0 0 1 3.553-7.913c1.267-2.398 3.361-5.644 6.902-6.138.276-.041.56-.06.842-.062 2.537-.002 5.123 1.61 6.592 4.111 2.724 4.637 1.948 7.98.817 9.97-.98 1.725-2.642 3.14-4.805 4.098-1.946.86-4.212 1.315-6.549 1.32-1.979.003-3.878-.317-5.588-.934-6.959 21.563-4.831 47.985-2.947 71.365.563 7.012 1.098 13.632 1.393 19.986.02.494-.208 1.311-1.18 1.598l-20.486 6.046a1.566 1.566 0 0 1-1.334-.218" fill="#FFF"/><path d="M976.694 245.565c-.044-30.958 17.991-60.067 55.9-66.752-37.276 13.033-48.305 42.834-46.897 72.157 2.15 44.812 33.424 98.91 46.618 109.383.514.407-17.052-1.305-17.06-7.157-.01-5.958-38.5-65.373-38.561-107.63" fill="#FFC627"/><path d="M1058.87 402.053c.01 7.972-6.42 14.441-14.364 14.451-7.947.01-14.395-6.443-14.408-14.415-.01-7.972 6.42-14.441 14.364-14.451 7.946-.01 14.395 6.443 14.408 14.415" fill="#29293D"/><path d="m1074.964 366.892-61.248.076c-3.883.005-7.037-3.148-7.042-7.045-.005-3.899 3.138-7.06 7.022-7.065l61.248-.08c3.884-.005 7.037 3.149 7.043 7.048.005 3.896-3.139 7.06-7.023 7.066" fill="#E7E7EE"/><path d="m1074.982 379.963-61.248.08c-3.883.004-7.037-3.152-7.042-7.048-.005-3.9 3.138-7.06 7.022-7.066l61.248-.08c3.883-.005 7.037 3.152 7.042 7.048.008 3.897-3.138 7.06-7.022 7.066" fill="#E7E7EE"/><path d="m1075.003 393.126-61.248.08c-3.884.005-7.038-3.149-7.043-7.048-.007-3.896 3.139-7.06 7.022-7.066l61.248-.076c3.884-.005 7.038 3.148 7.043 7.045.005 3.899-3.139 7.06-7.022 7.065" fill="#E7E7EE"/><path d="m1068.628 405.74-48.279.061c-3.883.005-7.037-3.149-7.042-7.048-.005-3.896 3.138-7.06 7.022-7.065l48.279-.062c3.884-.005 7.037 3.152 7.043 7.048.005 3.896-3.139 7.06-7.023 7.066" fill="#E7E7EE"/><path d="m1013.696 352.858 7.148-.01a7.06 7.06 0 0 0-4.163 6.45 7.06 7.06 0 0 0 4.39 6.531 7.052 7.052 0 0 0-4.37 6.54c.003 3.001 1.874 5.561 4.509 6.578a7.055 7.055 0 0 0-4.49 6.589c.004 3.896 3.158 7.05 7.042 7.048l2.235-.005a7.044 7.044 0 0 0-2.68 5.552c.005 3.897 3.159 7.053 7.042 7.048l-10.01.622c-3.883.005-7.037-3.149-7.042-7.048a7.049 7.049 0 0 1 2.683-5.55l-2.235.003c-3.884.005-7.038-3.149-7.043-7.048a7.053 7.053 0 0 1 4.488-6.587 7.063 7.063 0 0 1-4.508-6.576 7.062 7.062 0 0 1 4.372-6.544 7.055 7.055 0 0 1-4.39-6.528c-.005-3.899 3.138-7.06 7.022-7.065" fill="#CECEDE"/><path d="M1042.714 156.012c.563.002 1.12.02 1.682.033V87.532h-5.049v68.436a78.01 78.01 0 0 1 3.367.044M973.407 185.446c.594-.588 1.2-1.172 1.82-1.748.576-.62 1.16-1.226 1.75-1.82l-48.634-48.635-3.571 3.569 48.635 48.634M1111.427 319.488c-.576.62-1.16 1.226-1.749 1.82l46.95 46.95 3.572-3.568-46.953-46.953c-.594.591-1.2 1.175-1.82 1.751M1138.294 251.185c.02.563.028 1.12.036 1.682h66.76v-5.049h-67.25l.454 3.367M948.588 252.867l-.226-1.682a74.114 74.114 0 0 1-.046-3.367H879.88v5.049h68.708M1110.607 183.698c.315.315.617.64.927.96l47.846-47.846-3.57-3.57-48.165 48.165c.989.763 1.974 1.525 2.962 2.29M974.408 319.488a93.602 93.602 0 0 1-2.563-2.69l-47.892 47.892 3.57 3.569 47.95-47.95c-.356-.273-.71-.547-1.065-.821" fill="#FFD970"/></g></g></g></svg>