<?xml version="1.0" encoding="UTF-8"?>
<svg width="640px" height="360px" viewBox="0 0 640 360" version="1.1" xmlns="http://www.w3.org/2000/svg" xmlns:xlink="http://www.w3.org/1999/xlink">
    <title>clearbank-logo-light</title>
    <g id="clearbank-logo-light" stroke="none" stroke-width="1" fill="none" fill-rule="evenodd">
        <rect fill="#E1EFF9" x="0" y="0" width="640" height="360"></rect>
        <g transform="translate(65.500000, 139.500000)" fill-rule="nonzero">
            <path d="M252.417,62.931 C257.137378,62.931 260.964,66.7576222 260.964,71.478 C260.964,76.1983778 257.137378,80.025 252.417,80.025 C247.696622,80.025 243.87,76.1983778 243.87,71.478 C243.905921,66.7725814 247.711581,62.9669208 252.417,62.931" id="Path" fill="#69B0E1"></path>
            <path d="M36.3,10.1639559 C46.8365325,10.1475109 56.8494825,14.7558806 63.69,22.77 L53.625,31.416 C49.2098798,26.5048222 42.9038779,23.71817 36.3,23.76 C30.5844728,23.6427937 25.0670019,25.8548148 21.0153393,29.8878061 C16.9636767,33.9207975 14.7261945,39.4279924 14.817,45.144 C14.7343551,50.8456526 16.9788492,56.3347607 21.0326859,60.3450078 C25.0865225,64.3552548 30.599574,66.5402777 36.3,66.396 C42.9078738,66.4032167 49.2024852,63.5802517 53.592,58.641 L63.789,67.287 C56.9510623,75.3767165 46.8924853,80.0377138 36.3,80.0250259 C16.5,80.0250259 0,65.34 0,45.144 C0,24.948 16.5,10.1639559 36.3,10.1639559 M68.442,10.164 L83.16,10.164 L83.16,60.291 C83.16,64.812 84.843,66.693 88.869,66.693 C90.0577397,66.7053869 91.2435355,66.5724005 92.4,66.297 L92.4,79.2 C90.089531,79.6882478 87.7323319,79.9206477 85.371,79.893 C78.375,79.893 68.409,77.715 68.409,62.436 L68.442,10.164 Z M93.786,53.889 C93.786,38.016 105.237,27.852 120.714,27.852 C127.514708,27.5844735 134.122034,30.1480958 138.962641,34.9324163 C143.803247,39.7167368 146.44397,46.2936287 146.256,53.097 C146.256,53.097 146.256,55.539 146.058,57.816 L108.504,57.816 C108.801,63.723 113.916,67.716 121.704,67.716 C126.276408,67.8215655 130.682862,66.0015086 133.848,62.7 L142.428,70.917 C136.912559,76.8579354 129.115219,80.1498789 121.011,79.959 C104.841,79.959 93.786,69.828 93.786,54.252 L93.786,53.889 Z M131.472,48.246 C131.472,43.725 126.654,39.963 120.714,39.963 C114.774,39.963 109.098,43.626 108.702,48.246 L131.472,48.246 Z M174.603,28.446 C182.193,28.446 188.001,31.482 189.387,35.838 L189.387,29.238 L204.072,29.238 L204.072,61.479 C204.072,65.505 205.161,66.99 207.735,66.99 C208.5632,66.9732103 209.389664,66.9070931 210.21,66.792 L210.21,79.2 C208.055474,79.7587908 205.835563,80.02518 203.61,79.992 C200.80814,80.0861167 198.027679,79.4732805 195.525,78.21 C193.454406,77.0197301 191.883898,75.1210554 191.103,72.864 C188.232,77.121 183.315,80.091 174.603,80.091 C167.868927,80.0519539 161.439872,77.2778362 156.791412,72.405354 C152.142952,67.5328718 149.674281,60.9804571 149.952,54.252 C149.701805,47.5403412 152.182741,41.0138835 156.828178,36.1632262 C161.473615,31.312569 167.886799,28.5519947 174.603,28.512 M177.243,66.66 C181.834627,66.8967163 186.182484,64.5817523 188.549368,60.6400614 C190.916253,56.6983705 190.916253,51.7726295 188.549368,47.8309386 C186.182484,43.8892477 181.834627,41.5742837 177.243,41.811 C172.651373,41.5742837 168.303516,43.8892477 165.936632,47.8309386 C163.569747,51.7726295 163.569747,56.6983705 165.936632,60.6400614 C168.303516,64.5817523 172.651373,66.8967163 177.243,66.66 M214.698,29.337 L229.383,29.337 L229.383,35.937 C232.146159,30.6436258 237.822329,27.5321473 243.771,28.05 C245.062574,28.0760446 246.351637,28.1752033 247.632,28.347 L247.632,42.24 C246.003756,41.9029653 244.344741,41.7370638 242.682,41.745 C234.3,41.745 229.482,46.563 229.482,54.681 L229.482,78.936 L214.731,78.936 L214.698,29.337 Z M271.755,10.197 L299.046,10.197 C310.002,10.197 318.681,17.589 318.681,27.753 C319.078142,33.7737572 315.525299,39.3567959 309.903,41.547 C318.259179,42.7522794 324.281684,50.1833891 323.73,58.608 C323.807698,64.1270262 321.60835,69.4343093 317.649631,73.280636 C313.690911,77.1269626 308.322501,79.1725813 302.808,78.936 L271.755,78.936 L271.755,10.197 Z M296.604,37.62 C298.577412,37.7037883 300.496428,36.9611492 301.899347,35.5707559 C303.302267,34.1803626 304.062086,32.2680843 303.996,30.294 C304.052779,28.3517981 303.299274,26.4734667 301.915986,25.1089568 C300.532698,23.7444468 298.644245,23.016683 296.703,23.1 L286.803,23.1 L286.803,37.62 L296.604,37.62 Z M299.904,65.802 C302.208989,65.9287463 304.464832,65.1030068 306.143294,63.5181397 C307.821755,61.9332726 308.775429,59.728464 308.781,57.42 C308.702768,55.1263174 307.67264,52.9688829 305.938114,51.466045 C304.203589,49.9632071 301.921447,49.2508045 299.64,49.5 L286.638,49.5 L286.638,66 L299.904,65.802 Z M352.407,28.446 C359.997,28.446 365.805,31.482 367.191,35.838 L367.191,29.238 L381.876,29.238 L381.876,61.479 C381.876,65.505 382.965,66.99 385.539,66.99 C386.3672,66.9732103 387.193664,66.9070931 388.014,66.792 L388.014,79.2 C385.859474,79.7587908 383.639563,80.02518 381.414,79.992 C378.61214,80.0861167 375.831679,79.4732805 373.329,78.21 C371.258406,77.0197301 369.687898,75.1210554 368.907,72.864 C366.036,77.121 361.119,80.091 352.407,80.091 C345.675892,80.0427155 339.252347,77.2657358 334.605893,72.3953553 C329.959438,67.5249749 327.487648,60.9779301 327.756,54.252 C327.515099,47.5428801 329.999119,41.0217542 334.642566,36.1731748 C339.286013,31.3245955 345.693737,28.56117 352.407,28.512 M355.08,66.66 C359.671627,66.8967163 364.019484,64.5817523 366.386368,60.6400614 C368.753253,56.6983705 368.753253,51.7726295 366.386368,47.8309386 C364.019484,43.8892477 359.671627,41.5742837 355.08,41.811 C350.488373,41.5742837 346.140516,43.8892477 343.773632,47.8309386 C341.406747,51.7726295 341.406747,56.6983705 343.773632,60.6400614 C346.140516,64.5817523 350.488373,66.8967163 355.08,66.66 M392.7,29.337 L407.385,29.337 L407.385,35.442 C410.380544,30.4990181 415.913649,27.6749618 421.674,28.149 C433.818,28.149 440.517,35.937 440.517,48.741 L440.517,61.281 C440.517,64.911 441.21,66.495 443.817,66.495 L445.401,66.495 L445.401,78.936 C443.303305,79.4906418 441.133688,79.7242928 438.966,79.629 C431.079,79.629 425.766,75.867 425.766,65.406 L425.766,50.523 C426.078656,48.0425747 425.263307,45.552575 423.544086,43.7374871 C421.824866,41.9223991 419.382727,40.9732665 416.889,41.151 C414.274946,41.0915682 411.754914,42.1268712 409.937619,44.0068316 C408.120324,45.8867921 407.171016,48.440461 407.319,51.051 L407.319,78.969 L392.7,78.969 L392.7,29.337 Z M450.12,10.197 L464.805,10.197 L464.805,48.147 L481.041,29.337 L498.102,29.337 L478.401,51.711 L499.917,78.936 L483.351,78.936 L468.93,60.588 L464.805,65.01 L464.805,78.936 L450.12,78.936 L450.12,10.197 L450.12,10.197 Z M487.937946,10.197 C487.929229,7.49562647 488.996203,4.90188745 490.903274,2.98862445 C492.810345,1.07536145 495.400612,-1.42382511e-05 498.102,5.09874261e-14 C500.790646,-0.0541665088 503.385644,0.987755589 505.290299,2.88618656 C507.194955,4.78461754 508.245365,7.37619095 508.2,10.065 C508.181816,15.6655306 503.63656,20.1960295 498.036,20.196 C495.37622,20.2492063 492.806949,19.2297096 490.907293,17.3673013 C489.007636,15.5048931 487.937468,12.9563118 487.937946,10.296 M507.012,10.296 C507.047766,7.91912432 506.121606,5.62864093 504.443821,3.94464161 C502.766036,2.2606423 500.478992,1.32602143 498.102,1.353 C495.710247,1.33513443 493.411742,2.27962854 491.723576,3.97400083 C490.03541,5.66837312 489.099358,7.97032874 489.126,10.362 C489.090234,12.7388757 490.016394,15.0293591 491.694179,16.7133584 C493.371964,18.3973577 495.659008,19.3319786 498.036,19.305 C500.427753,19.3228656 502.726258,18.3783715 504.414424,16.6839992 C506.10259,14.9896269 507.038642,12.6876713 507.012,10.296 M493.812,4.62 L498.597,4.62 C499.811492,4.5595399 500.999724,4.98730325 501.897,5.808 C502.490611,6.4414078 502.810732,7.28320798 502.788,8.151 C502.852362,9.65702078 501.888033,11.01523 500.445,11.451 L503.085,15.345 L500.313,15.345 L498.3,11.748 L496.419,11.748 L496.419,15.246 L494.043,15.246 L493.812,4.62 Z M498.564,9.867 C499.752,9.867 500.412,9.24 500.412,8.349 C500.412,7.326 499.686,6.798 498.498,6.798 L496.188,6.798 L496.188,10.098 L498.564,9.867 Z" id="Shape" fill="#0D326E"></path>
        </g>
    </g>
</svg>