<?xml version="1.0" encoding="UTF-8"?>
<svg width="79px" height="44px" viewBox="0 0 79 44" version="1.1" xmlns="http://www.w3.org/2000/svg" xmlns:xlink="http://www.w3.org/1999/xlink">
    <title>mac-finder</title>
    <g id="mac-finder" stroke="none" stroke-width="1" fill="none" fill-rule="evenodd">
        <g id="mac" transform="translate(24.000000, 6.000000)">
            <g id="body" transform="translate(3.000000, 0.000000)">
                <path d="M24,0 L24,1 L25,1 L25,27 L24,27 L24,32 L1,32 L1,27 L0,27 L0,1 L1,1 L1,0 L24,0 Z" id="body-bg" fill="#000000"></path>
                <rect id="bottom" fill="#D8D8D8" x="2" y="28" width="21" height="3"></rect>
                <rect id="top" fill="#D8D8D8" x="1" y="1" width="23" height="26"></rect>
            </g>
            <g id="light" transform="translate(6.000000, 22.000000)">
                <rect id="green" fill="#00BF00" x="0" y="0" width="2" height="1"></rect>
                <rect id="red" fill="#FF0000" x="0" y="1" width="2" height="1"></rect>
            </g>
            <g id="face" transform="translate(6.000000, 3.000000)">
                <path d="M18,20 L18,21 L10,21 L10,20 L18,20 Z M18,14 L18,15 L1,15 L1,14 L18,14 Z M19,1 L19,14 L18,14 L18,1 L19,1 Z" id="edge-light" fill="#FFFFFF"></path>
                <path d="M18,19 L18,20 L10,20 L10,19 L18,19 Z M1,1 L1,14 L0,14 L0,1 L1,1 Z M18,0 L18,1 L1,1 L1,0 L18,0 Z" id="edge-dark" fill="#3F4544"></path>
                <rect id="screen" fill="#CCCAFF" x="1" y="1" width="17" height="13"></rect>
                <polygon id="smile" fill="#000000" points="6 10 7 10 7 12 11 12 11 10 12 10 12 11 6 11"></polygon>
                <polygon id="nose" fill="#000000" points="9 4 9 8 8 8 8 9 10 9 10 4"></polygon>
            </g>
            <g id="shades" transform="translate(0.000000, 2.000000)">
                <polygon fill="#000000" points="0 5 0.0114555359 6.00223923 1.01103687 6.00223923 1 7 2 7 2 8 3 8 3 9 4 9 4 10 5 10 5 11 11 11 11 10 12 10 12 9 13 9 13 8 14 8 14 6 17 6 17 8 18 8 18 9 19 9 19 10 20 10 20 11 26 11 26 10 27 10 27 9 28 9 28 8 29 8 29 7 30 7 30 5"></polygon>
                <path d="M30,4 L30,5 L29,5 L29,4 L30,4 Z M1,4 L1,5 L0,5 L0,4 L1,4 Z M31,3 L31,4 L30,4 L30,3 L31,3 Z M2,3 L2,4 L1,4 L1,3 L2,3 Z M32,2 L32,3 L31,3 L31,2 L32,2 Z M3,2 L3,3 L2,3 L2,2 L3,2 Z" id="legs" fill="#000000"></path>
                <rect id="Rectangle" fill="#000000" opacity="0.417627244" x="32" y="1" width="1" height="1"></rect>
                <rect id="Rectangle" fill="#000000" opacity="0.196117583" x="33" y="0" width="1" height="1"></rect>
                <path d="M7,9 L7,10 L6,10 L6,9 L7,9 Z M9,9 L9,10 L8,10 L8,9 L9,9 Z M22,9 L22,10 L21,10 L21,9 L22,9 Z M24,9 L24,10 L23,10 L23,9 L24,9 Z M6,8 L6,9 L5,9 L5,8 L6,8 Z M8,8 L8,9 L7,9 L7,8 L8,8 Z M21,8 L21,9 L20,9 L20,8 L21,8 Z M23,8 L23,9 L22,9 L22,8 L23,8 Z M5,7 L5,8 L4,8 L4,7 L5,7 Z M7,7 L7,8 L6,8 L6,7 L7,7 Z M20,7 L20,8 L19,8 L19,7 L20,7 Z M22,7 L22,8 L21,8 L21,7 L22,7 Z" id="shine" fill="#FFFFFF"></path>
            </g>
        </g>
    </g>
</svg>