<?xml version="1.0" encoding="UTF-8"?>
<svg viewBox="0 0 79 44" version="1.1" xmlns="http://www.w3.org/2000/svg" xmlns:xlink="http://www.w3.org/1999/xlink">
    <title>mac-finder</title>
    <g id="mac-finder" stroke="none" stroke-width="1" fill="none" fill-rule="evenodd">
        <g id="mac" transform="translate(24.000000, 6.000000)">
            <g id="body" transform="translate(3.000000, 0.000000)">
                <path d="M24,0 L24,1 L25,1 L25,27 L24,27 L24,32 L1,32 L1,27 L0,27 L0,1 L1,1 L1,0 L24,0 Z" id="body-bg" fill="#000000"></path>
                <rect id="bottom" fill="#D8D8D8" x="2" y="28" width="21" height="3"></rect>
                <rect id="top" fill="#D8D8D8" x="1" y="1" width="23" height="26"></rect>
            </g>
            <path d="M24,23 L24,24 L16,24 L16,23 L24,23 Z M24,17 L24,18 L7,18 L7,17 L24,17 Z M25,4 L25,17 L24,17 L24,4 L25,4 Z" id="edge-light" fill="#FFFFFF"></path>
            <path d="M24,22 L24,23 L16,23 L16,22 L24,22 Z M7,4 L7,17 L6,17 L6,4 L7,4 Z M24,3 L24,4 L7,4 L7,3 L24,3 Z" id="edge-dark" fill="#3F4544"></path>
            <rect id="screen" fill="#CCCAFF" x="7" y="4" width="17" height="13"></rect>
            <path d="M17,14 L17,15 L13,15 L13,14 L17,14 Z M13,13 L13,14 L12,14 L12,13 L13,13 Z M18,13 L18,14 L17,14 L17,13 L18,13 Z M16,7 L16,12 L14,12 L14,11 L15,11 L15,7 L16,7 Z M20,7 L20,9 L19,9 L19,7 L20,7 Z M12,7 L12,9 L11,9 L11,7 L12,7 Z" id="face" fill="#000000"></path>
            <g id="shades" transform="translate(0.000000, 2.000000)">
                <polygon fill="#000000" points="0 5 0.0114555359 6.00223923 1.01103687 6.00223923 1 7 2 7 2 8 3 8 3 9 4 9 4 10 5 10 5 11 11 11 11 10 12 10 12 9 13 9 13 8 14 8 14 6 17 6 17 8 18 8 18 9 19 9 19 10 20 10 20 11 26 11 26 10 27 10 27 9 28 9 28 8 29 8 29 7 30 7 30 5"></polygon>
                <path d="M30,4 L30,5 L29,5 L29,4 L30,4 Z M1,4 L1,5 L0,5 L0,4 L1,4 Z M31,3 L31,4 L30,4 L30,3 L31,3 Z M2,3 L2,4 L1,4 L1,3 L2,3 Z M32,2 L32,3 L31,3 L31,2 L32,2 Z M3,2 L3,3 L2,3 L2,2 L3,2 Z" id="legs" fill="#000000"></path>
                <rect id="Rectangle" fill="#000000" opacity="0.417627244" x="32" y="1" width="1" height="1"></rect>
                <rect id="Rectangle" fill="#000000" opacity="0.196117583" x="33" y="0" width="1" height="1"></rect>
                <path d="M7,9 L7,10 L6,10 L6,9 L7,9 Z M9,9 L9,10 L8,10 L8,9 L9,9 Z M22,9 L22,10 L21,10 L21,9 L22,9 Z M24,9 L24,10 L23,10 L23,9 L24,9 Z M6,8 L6,9 L5,9 L5,8 L6,8 Z M8,8 L8,9 L7,9 L7,8 L8,8 Z M21,8 L21,9 L20,9 L20,8 L21,8 Z M23,8 L23,9 L22,9 L22,8 L23,8 Z M5,7 L5,8 L4,8 L4,7 L5,7 Z M7,7 L7,8 L6,8 L6,7 L7,7 Z M20,7 L20,8 L19,8 L19,7 L20,7 Z M22,7 L22,8 L21,8 L21,7 L22,7 Z" id="shine" fill="#FFFFFF"></path>
            </g>
            <g id="apple-logo" transform="translate(5.882318, 21.350000)">
                <path d="M0.11771053,0.969423398 C0.118509907,0.968093665 0.119357436,0.966783451 0.120204967,0.965497584 C0.257192028,0.752162954 0.473278784,0.627300909 0.676484036,0.627300909 C0.883402033,0.627300909 1.013474,0.742031776 1.18451157,0.742031776 C1.35046878,0.742031776 1.45155134,0.627135287 1.69077664,0.627135287 C1.87152234,0.627135287 2.06315588,0.72668887 2.19965175,0.898831426 C2.16191251,0.919736751 2.12786683,0.943471945 2.09743752,0.969559776 L0.11771053,0.969423721 L0.11771053,0.969423721 L0.11771053,0.969423398 Z" id="path5" fill="#61BB46"></path>
                <path d="M1.50931831,0.43492032 C1.59615174,0.322118289 1.66220137,0.162844268 1.63826341,0 C1.49629231,0.00984382347 1.33023878,0.10126808 1.23324942,0.220280327 C1.14524101,0.328396694 1.0725845,0.488742244 1.10087084,0.644499564 C1.25586792,0.649375196 1.4162054,0.555763993 1.50931831,0.43492032 Z" id="path7" fill="#61BB46"></path>
                <path d="M0.110643969,0.966279841 C0.0516508528,1.05976388 0.0108321786,1.1937534 0,1.31127807 L1.91386524,1.31122841 C1.93455834,1.18265228 2.00336473,1.0598126 2.11242349,0.966421971 L0.110643969,0.966279841 L0.110756913,0.966279841 L0.110643969,0.966279841 Z" id="path9" fill="#FDB827"></path>
                <path d="M0.0173792055,1.65321055 C-0.00121832635,1.53317544 -0.00422802485,1.41745096 0.0074544221,1.31128288 L1.90641074,1.31123368 C1.88783727,1.42636883 1.90342513,1.54618472 1.95040534,1.6532831 L0.0173792055,1.65320988 L0.0173792055,1.65320988 L0.0173792055,1.65321055 Z" id="path11" fill="#F5821F"></path>
                <path d="M0.110183875,1.99511387 C0.065341769,1.88024175 0.0346380252,1.76486794 0.0173792055,1.65321055 L1.95040534,1.65328377 C2.01024777,1.78975285 2.12099505,1.90569165 2.276936,1.96527086 C2.27230348,1.97568944 2.26783466,1.985655 2.2635344,1.99526013 L0.110183875,1.99511415 L0.110183875,1.99511415 L0.110183875,1.99511387 Z" id="path13" fill="#E03A3E"></path>
                <path d="M2.26352961,1.99525512 C2.20999066,2.11431121 2.17895466,2.17610176 2.10486311,2.29016529 C2.09489497,2.30548382 2.08459457,2.32115321 2.07387039,2.33696859 L0.289590832,2.33713491 C0.283874805,2.32852327 0.278211754,2.31991671 0.272635389,2.3113783 C0.205926009,2.20860925 0.151919972,2.10206128 0.110183875,1.995109 L2.26352961,1.99525498 L2.26352961,1.99525498 L2.26352961,1.99525512 Z" id="path15" fill="#963D97"></path>
                <path d="M2.07387039,2.3369679 C1.96472185,2.49869259 1.81818564,2.67666046 1.64037741,2.67835063 C1.4668743,2.67994333 1.42236445,2.56414576 1.18697229,2.5654511 C0.951580112,2.56678093 0.902437765,2.68037205 0.72893466,2.67873062 C0.543436064,2.67699655 0.399394287,2.50221407 0.289590832,2.33713421 L2.07387039,2.3369679 L2.07387039,2.3369679 L2.07387039,2.3369679 Z" id="path19" fill="#009DDC"></path>
            </g>
        </g>
    </g>
</svg>
