<?xml version="1.0" encoding="UTF-8"?>
<svg width="1280px" height="720px" viewBox="0 0 1280 720" version="1.1" xmlns="http://www.w3.org/2000/svg" xmlns:xlink="http://www.w3.org/1999/xlink">
    <title>emoji-doing</title>
    <g id="emoji-doing" stroke="none" stroke-width="1" fill="none" fill-rule="evenodd">
        <rect fill="#FFFFFF" x="0" y="0" width="1280" height="720"></rect>
        <path d="M512.625,410.05 C518.025,410.05 522.8125,408.8625 526.9875,406.4875 C531.1625,404.1125 534.875,400.95 538.125,397 L538.125,397 L539.325,406.225 C539.825,408.075 541.025,409 542.925,409 L542.925,409 L550.875,409 L550.875,298.525 L537.525,298.525 L537.525,340.675 C534.925,337.825 531.975,335.6125 528.675,334.0375 C525.375,332.4625 521.4,331.675 516.75,331.675 C511.6,331.675 507,332.6875 502.95,334.7125 C498.9,336.7375 495.4625,339.525 492.6375,343.075 C489.8125,346.625 487.65,350.8125 486.15,355.6375 C484.65,360.4625 483.9,365.675 483.9,371.275 C483.9,377.575 484.575,383.15 485.925,388 C487.275,392.85 489.2,396.9 491.7,400.15 C494.2,403.4 497.225,405.8625 500.775,407.5375 C504.325,409.2125 508.275,410.05 512.625,410.05 Z M517.05,399.25 C513.95,399.25 511.2,398.725 508.8,397.675 C506.4,396.625 504.375,394.9625 502.725,392.6875 C501.075,390.4125 499.825,387.5125 498.975,383.9875 C498.125,380.4625 497.7,376.225 497.7,371.275 C497.7,361.925 499.6,354.725 503.4,349.675 C507.2,344.625 512.65,342.1 519.75,342.1 C523.3,342.1 526.5375,342.7625 529.4625,344.0875 C532.3875,345.4125 535.075,347.725 537.525,351.025 L537.525,351.025 L537.525,387.775 C534.775,391.425 531.7625,394.25 528.4875,396.25 C525.2125,398.25 521.4,399.25 517.05,399.25 Z M604.05,410.05 C609.6,410.05 614.6125,409.1375 619.0875,407.3125 C623.5625,405.4875 627.3625,402.875 630.4875,399.475 C633.6125,396.075 636.0125,391.975 637.6875,387.175 C639.3625,382.375 640.2,376.975 640.2,370.975 C640.2,365.025 639.3625,359.6375 637.6875,354.8125 C636.0125,349.9875 633.6125,345.875 630.4875,342.475 C627.3625,339.075 623.5625,336.45 619.0875,334.6 C614.6125,332.75 609.6,331.825 604.05,331.825 C598.5,331.825 593.4875,332.75 589.0125,334.6 C584.5375,336.45 580.725,339.075 577.575,342.475 C574.425,345.875 572,349.9875 570.3,354.8125 C568.6,359.6375 567.75,365.025 567.75,370.975 C567.75,376.975 568.6,382.375 570.3,387.175 C572,391.975 574.425,396.075 577.575,399.475 C580.725,402.875 584.5375,405.4875 589.0125,407.3125 C593.4875,409.1375 598.5,410.05 604.05,410.05 Z M604.05,399.625 C600.25,399.625 596.95,398.975 594.15,397.675 C591.35,396.375 589.0125,394.5125 587.1375,392.0875 C585.2625,389.6625 583.8625,386.675 582.9375,383.125 C582.0125,379.575 581.55,375.55 581.55,371.05 C581.55,366.55 582.0125,362.5125 582.9375,358.9375 C583.8625,355.3625 585.2625,352.35 587.1375,349.9 C589.0125,347.45 591.35,345.575 594.15,344.275 C596.95,342.975 600.25,342.325 604.05,342.325 C611.55,342.325 617.15,344.85 620.85,349.9 C624.55,354.95 626.4,362 626.4,371.05 C626.4,380.05 624.55,387.0625 620.85,392.0875 C617.15,397.1125 611.55,399.625 604.05,399.625 Z M664.95,318.625 C666.25,318.625 667.475,318.375 668.625,317.875 C669.775,317.375 670.7875,316.6875 671.6625,315.8125 C672.5375,314.9375 673.2375,313.9375 673.7625,312.8125 C674.2875,311.6875 674.55,310.475 674.55,309.175 C674.55,307.875 674.2875,306.6375 673.7625,305.4625 C673.2375,304.2875 672.5375,303.2625 671.6625,302.3875 C670.7875,301.5125 669.775,300.825 668.625,300.325 C667.475,299.825 666.25,299.575 664.95,299.575 C663.65,299.575 662.4375,299.825 661.3125,300.325 C660.1875,300.825 659.1875,301.5125 658.3125,302.3875 C657.4375,303.2625 656.75,304.2875 656.25,305.4625 C655.75,306.6375 655.5,307.875 655.5,309.175 C655.5,310.475 655.75,311.6875 656.25,312.8125 C656.75,313.9375 657.4375,314.9375 658.3125,315.8125 C659.1875,316.6875 660.1875,317.375 661.3125,317.875 C662.4375,318.375 663.65,318.625 664.95,318.625 Z M671.55,409 L671.55,333.025 L658.2,333.025 L658.2,409 L671.55,409 Z M708.45,409 L708.45,353.05 C711.35,349.8 714.5125,347.225 717.9375,345.325 C721.3625,343.425 725.05,342.475 729,342.475 C734.4,342.475 738.4125,344.0625 741.0375,347.2375 C743.6625,350.4125 744.975,354.875 744.975,360.625 L744.975,360.625 L744.975,409 L758.325,409 L758.325,360.625 C758.325,356.325 757.775,352.4 756.675,348.85 C755.575,345.3 753.9625,342.2625 751.8375,339.7375 C749.7125,337.2125 747.0625,335.2625 743.8875,333.8875 C740.7125,332.5125 737.05,331.825 732.9,331.825 C727.55,331.825 722.8375,332.95 718.7625,335.2 C714.6875,337.45 711,340.4 707.7,344.05 L707.7,344.05 L706.65,335.8 C706.15,333.95 704.95,333.025 703.05,333.025 L703.05,333.025 L695.1,333.025 L695.1,409 L708.45,409 Z M804.525,436.375 C810.075,436.375 815.05,435.6625 819.45,434.2375 C823.85,432.8125 827.575,430.9125 830.625,428.5375 C833.675,426.1625 836.0125,423.45 837.6375,420.4 C839.2625,417.35 840.075,414.2 840.075,410.95 C840.075,407.45 839.35,404.6 837.9,402.4 C836.45,400.2 834.525,398.475 832.125,397.225 C829.725,395.975 827,395.075 823.95,394.525 C820.9,393.975 817.7875,393.5875 814.6125,393.3625 C811.4375,393.1375 808.325,392.975 805.275,392.875 C802.225,392.775 799.5,392.525 797.1,392.125 C794.7,391.725 792.775,391.0625 791.325,390.1375 C789.875,389.2125 789.15,387.85 789.15,386.05 C789.15,384.95 789.5625,383.825 790.3875,382.675 C791.2125,381.525 792.425,380.45 794.025,379.45 C797.175,380.3 800.525,380.725 804.075,380.725 C808.225,380.725 812.0375,380.15 815.5125,379 C818.9875,377.85 821.9875,376.2 824.5125,374.05 C827.0375,371.9 829.0125,369.3125 830.4375,366.2875 C831.8625,363.2625 832.575,359.9 832.575,356.2 C832.575,352.2 831.725,348.575 830.025,345.325 L830.025,345.325 L838.65,344.125 C840.75,343.675 841.8,342.625 841.8,340.975 L841.8,340.975 L841.8,336.025 L821.175,336.025 C818.825,334.625 816.2125,333.5625 813.3375,332.8375 C810.4625,332.1125 807.375,331.75 804.075,331.75 C799.875,331.75 796.0125,332.325 792.4875,333.475 C788.9625,334.625 785.925,336.2625 783.375,338.3875 C780.825,340.5125 778.8375,343.0875 777.4125,346.1125 C775.9875,349.1375 775.275,352.5 775.275,356.2 C775.275,360.85 776.3375,364.9125 778.4625,368.3875 C780.5875,371.8625 783.525,374.65 787.275,376.75 C785.675,377.55 784.275,378.475 783.075,379.525 C781.875,380.575 780.8625,381.675 780.0375,382.825 C779.2125,383.975 778.6,385.1375 778.2,386.3125 C777.8,387.4875 777.6,388.625 777.6,389.725 C777.6,392.525 778.2375,394.7625 779.5125,396.4375 C780.7875,398.1125 782.5,399.45 784.65,400.45 C780.5,402 777.2375,404.0875 774.8625,406.7125 C772.4875,409.3375 771.3,412.525 771.3,416.275 C771.3,418.925 771.9875,421.4625 773.3625,423.8875 C774.7375,426.3125 776.8,428.45 779.55,430.3 C782.3,432.15 785.7625,433.625 789.9375,434.725 C794.1125,435.825 798.975,436.375 804.525,436.375 Z M804.075,371.875 C801.425,371.875 799.075,371.5 797.025,370.75 C794.975,370 793.25,368.95 791.85,367.6 C790.45,366.25 789.3875,364.6375 788.6625,362.7625 C787.9375,360.8875 787.575,358.825 787.575,356.575 C787.575,351.925 788.9875,348.225 791.8125,345.475 C794.6375,342.725 798.725,341.35 804.075,341.35 C809.475,341.35 813.5875,342.725 816.4125,345.475 C819.2375,348.225 820.65,351.925 820.65,356.575 C820.65,358.825 820.3,360.8875 819.6,362.7625 C818.9,364.6375 817.85,366.25 816.45,367.6 C815.05,368.95 813.3125,370 811.2375,370.75 C809.1625,371.5 806.775,371.875 804.075,371.875 Z M804.75,426.625 C801.05,426.625 797.8375,426.3125 795.1125,425.6875 C792.3875,425.0625 790.125,424.2125 788.325,423.1375 C786.525,422.0625 785.1875,420.7875 784.3125,419.3125 C783.4375,417.8375 783,416.25 783,414.55 C783,411.85 783.8875,409.525 785.6625,407.575 C787.4375,405.625 789.75,403.975 792.6,402.625 C795.05,403.025 797.625,403.3 800.325,403.45 C803.025,403.6 805.675,403.7375 808.275,403.8625 C810.875,403.9875 813.35,404.2 815.7,404.5 C818.05,404.8 820.125,405.2625 821.925,405.8875 C823.725,406.5125 825.15,407.4 826.2,408.55 C827.25,409.7 827.775,411.225 827.775,413.125 C827.775,415.125 827.25,416.95 826.2,418.6 C825.15,420.25 823.6375,421.675 821.6625,422.875 C819.6875,424.075 817.275,425 814.425,425.65 C811.575,426.3 808.35,426.625 804.75,426.625 Z" id="doing" fill="#22292F" fill-rule="nonzero"></path>
        <g id="todo_done" transform="translate(238.500000, 241.000000)">
            <g id="Group" stroke="#E5EBEE" stroke-width="20">
                <g id="todo_done">
                    <rect id="Rectangle" x="30" y="60" width="130" height="130"></rect>
                </g>
            </g>
            <rect id="dot" fill="#7F7F7F" x="80" y="110" width="30" height="30"></rect>
        </g>
    </g>
</svg>