<?xml version="1.0" encoding="UTF-8"?>
<svg width="1280px" height="720px" viewBox="0 0 1280 720" version="1.1" xmlns="http://www.w3.org/2000/svg" xmlns:xlink="http://www.w3.org/1999/xlink">
    <title>emoji-done</title>
    <g id="emoji-done" stroke="none" stroke-width="1" fill="none" fill-rule="evenodd">
        <rect fill="#FFFFFF" x="0" y="0" width="1280" height="720"></rect>
        <path d="M512.625,410.05 C518.025,410.05 522.8125,408.8625 526.9875,406.4875 C531.1625,404.1125 534.875,400.95 538.125,397 L538.125,397 L539.325,406.225 C539.825,408.075 541.025,409 542.925,409 L542.925,409 L550.875,409 L550.875,298.525 L537.525,298.525 L537.525,340.675 C534.925,337.825 531.975,335.6125 528.675,334.0375 C525.375,332.4625 521.4,331.675 516.75,331.675 C511.6,331.675 507,332.6875 502.95,334.7125 C498.9,336.7375 495.4625,339.525 492.6375,343.075 C489.8125,346.625 487.65,350.8125 486.15,355.6375 C484.65,360.4625 483.9,365.675 483.9,371.275 C483.9,377.575 484.575,383.15 485.925,388 C487.275,392.85 489.2,396.9 491.7,400.15 C494.2,403.4 497.225,405.8625 500.775,407.5375 C504.325,409.2125 508.275,410.05 512.625,410.05 Z M517.05,399.25 C513.95,399.25 511.2,398.725 508.8,397.675 C506.4,396.625 504.375,394.9625 502.725,392.6875 C501.075,390.4125 499.825,387.5125 498.975,383.9875 C498.125,380.4625 497.7,376.225 497.7,371.275 C497.7,361.925 499.6,354.725 503.4,349.675 C507.2,344.625 512.65,342.1 519.75,342.1 C523.3,342.1 526.5375,342.7625 529.4625,344.0875 C532.3875,345.4125 535.075,347.725 537.525,351.025 L537.525,351.025 L537.525,387.775 C534.775,391.425 531.7625,394.25 528.4875,396.25 C525.2125,398.25 521.4,399.25 517.05,399.25 Z M604.05,410.05 C609.6,410.05 614.6125,409.1375 619.0875,407.3125 C623.5625,405.4875 627.3625,402.875 630.4875,399.475 C633.6125,396.075 636.0125,391.975 637.6875,387.175 C639.3625,382.375 640.2,376.975 640.2,370.975 C640.2,365.025 639.3625,359.6375 637.6875,354.8125 C636.0125,349.9875 633.6125,345.875 630.4875,342.475 C627.3625,339.075 623.5625,336.45 619.0875,334.6 C614.6125,332.75 609.6,331.825 604.05,331.825 C598.5,331.825 593.4875,332.75 589.0125,334.6 C584.5375,336.45 580.725,339.075 577.575,342.475 C574.425,345.875 572,349.9875 570.3,354.8125 C568.6,359.6375 567.75,365.025 567.75,370.975 C567.75,376.975 568.6,382.375 570.3,387.175 C572,391.975 574.425,396.075 577.575,399.475 C580.725,402.875 584.5375,405.4875 589.0125,407.3125 C593.4875,409.1375 598.5,410.05 604.05,410.05 Z M604.05,399.625 C600.25,399.625 596.95,398.975 594.15,397.675 C591.35,396.375 589.0125,394.5125 587.1375,392.0875 C585.2625,389.6625 583.8625,386.675 582.9375,383.125 C582.0125,379.575 581.55,375.55 581.55,371.05 C581.55,366.55 582.0125,362.5125 582.9375,358.9375 C583.8625,355.3625 585.2625,352.35 587.1375,349.9 C589.0125,347.45 591.35,345.575 594.15,344.275 C596.95,342.975 600.25,342.325 604.05,342.325 C611.55,342.325 617.15,344.85 620.85,349.9 C624.55,354.95 626.4,362 626.4,371.05 C626.4,380.05 624.55,387.0625 620.85,392.0875 C617.15,397.1125 611.55,399.625 604.05,399.625 Z M670.05,409 L670.05,353.05 C672.95,349.8 676.1125,347.225 679.5375,345.325 C682.9625,343.425 686.65,342.475 690.6,342.475 C696,342.475 700.0125,344.0625 702.6375,347.2375 C705.2625,350.4125 706.575,354.875 706.575,360.625 L706.575,360.625 L706.575,409 L719.925,409 L719.925,360.625 C719.925,356.325 719.375,352.4 718.275,348.85 C717.175,345.3 715.5625,342.2625 713.4375,339.7375 C711.3125,337.2125 708.6625,335.2625 705.4875,333.8875 C702.3125,332.5125 698.65,331.825 694.5,331.825 C689.15,331.825 684.4375,332.95 680.3625,335.2 C676.2875,337.45 672.6,340.4 669.3,344.05 L669.3,344.05 L668.25,335.8 C667.75,333.95 666.55,333.025 664.65,333.025 L664.65,333.025 L656.7,333.025 L656.7,409 L670.05,409 Z M770.925,410.05 C773.675,410.05 776.45,409.8125 779.25,409.3375 C782.05,408.8625 784.7625,408.15 787.3875,407.2 C790.0125,406.25 792.475,405.0375 794.775,403.5625 C797.075,402.0875 799.05,400.35 800.7,398.35 L800.7,398.35 L796.95,393.475 C796.35,392.625 795.5,392.2 794.4,392.2 C793.55,392.2 792.5375,392.5875 791.3625,393.3625 C790.1875,394.1375 788.725,394.975 786.975,395.875 C785.225,396.775 783.1375,397.6125 780.7125,398.3875 C778.2875,399.1625 775.4,399.55 772.05,399.55 C768.45,399.55 765.2,398.9625 762.3,397.7875 C759.4,396.6125 756.9,394.8375 754.8,392.4625 C752.7,390.0875 751.05,387.125 749.85,383.575 C748.65,380.025 748,375.85 747.9,371.05 L747.9,371.05 L798.45,371.05 C799.7,371.05 800.55,370.7 801,370 C801.45,369.3 801.675,367.9 801.675,365.8 C801.675,360.4 800.8875,355.5875 799.3125,351.3625 C797.7375,347.1375 795.55,343.5875 792.75,340.7125 C789.95,337.8375 786.625,335.6375 782.775,334.1125 C778.925,332.5875 774.725,331.825 770.175,331.825 C764.675,331.825 759.725,332.7875 755.325,334.7125 C750.925,336.6375 747.2,339.2875 744.15,342.6625 C741.1,346.0375 738.7625,350.025 737.1375,354.625 C735.5125,359.225 734.7,364.175 734.7,369.475 C734.7,376.025 735.6,381.825 737.4,386.875 C739.2,391.925 741.7125,396.1625 744.9375,399.5875 C748.1625,403.0125 751.9875,405.6125 756.4125,407.3875 C760.8375,409.1625 765.675,410.05 770.925,410.05 Z M789.675,362.725 L748.35,362.725 C749.25,356.125 751.55,350.9625 755.25,347.2375 C758.95,343.5125 764.025,341.65 770.475,341.65 C773.525,341.65 776.2375,342.1625 778.6125,343.1875 C780.9875,344.2125 783,345.6625 784.65,347.5375 C786.3,349.4125 787.55,351.6375 788.4,354.2125 C789.25,356.7875 789.675,359.625 789.675,362.725 L789.675,362.725 Z" id="done" fill="#22292F" fill-rule="nonzero"></path>
        <g id="todo_done" transform="translate(238.500000, 241.000000)">
            <path d="M110,50 L109.999,70 L40,70 L40,180 L150,180 L150,140 L170,140 L170,200 L20,200 L20,50 L110,50 Z" id="checkbox" fill="#E5EBEE" fill-rule="nonzero"></path>
            <g id="tick" transform="translate(125.000000, 85.000000) rotate(-315.000000) translate(-125.000000, -85.000000) translate(90.000000, 10.000000)" fill="#20B616">
                <path d="M70,150 L0,150 L0,120 L40,120 L40,0 L70,0 L70,150 Z" id="tick-short-2"></path>
            </g>
        </g>
    </g>
</svg>