<?xml version="1.0" encoding="UTF-8"?>
<svg width="1280px" height="720px" viewBox="0 0 1280 720" version="1.1" xmlns="http://www.w3.org/2000/svg" xmlns:xlink="http://www.w3.org/1999/xlink">
    <title>emoji-todo</title>
    <g id="emoji-todo" stroke="none" stroke-width="1" fill="none" fill-rule="evenodd">
        <rect fill="#FFFFFF" x="0" y="0" width="1280" height="720"></rect>
        <path d="M512.475,410.2 C515.925,410.2 519.275,409.5875 522.525,408.3625 C525.775,407.1375 528.55,405.45 530.85,403.3 L530.85,403.3 L526.95,396.925 C526.4,396.075 525.775,395.65 525.075,395.65 C524.675,395.65 524.2125,395.8375 523.6875,396.2125 C523.1625,396.5875 522.525,397 521.775,397.45 C521.025,397.9 520.1375,398.3125 519.1125,398.6875 C518.0875,399.0625 516.875,399.25 515.475,399.25 C513.025,399.25 511.025,398.475 509.475,396.925 C507.925,395.375 507.15,393 507.15,389.8 L507.15,389.8 L507.15,344.2 L528.9,344.2 L528.9,334.525 L507.15,334.525 L507.15,308.35 L500.4,308.35 C499.55,308.35 498.85,308.5875 498.3,309.0625 C497.75,309.5375 497.425,310.15 497.325,310.9 L497.325,310.9 L494.25,334.375 L481.8,335.95 L481.8,341.275 C481.8,342.275 482.075,343.0125 482.625,343.4875 C483.175,343.9625 483.85,344.2 484.65,344.2 L484.65,344.2 L493.8,344.2 L493.8,390.7 C493.8,397 495.4125,401.825 498.6375,405.175 C501.8625,408.525 506.475,410.2 512.475,410.2 Z M576.15,410.05 C581.7,410.05 586.7125,409.1375 591.1875,407.3125 C595.6625,405.4875 599.4625,402.875 602.5875,399.475 C605.7125,396.075 608.1125,391.975 609.7875,387.175 C611.4625,382.375 612.3,376.975 612.3,370.975 C612.3,365.025 611.4625,359.6375 609.7875,354.8125 C608.1125,349.9875 605.7125,345.875 602.5875,342.475 C599.4625,339.075 595.6625,336.45 591.1875,334.6 C586.7125,332.75 581.7,331.825 576.15,331.825 C570.6,331.825 565.5875,332.75 561.1125,334.6 C556.6375,336.45 552.825,339.075 549.675,342.475 C546.525,345.875 544.1,349.9875 542.4,354.8125 C540.7,359.6375 539.85,365.025 539.85,370.975 C539.85,376.975 540.7,382.375 542.4,387.175 C544.1,391.975 546.525,396.075 549.675,399.475 C552.825,402.875 556.6375,405.4875 561.1125,407.3125 C565.5875,409.1375 570.6,410.05 576.15,410.05 Z M576.15,399.625 C572.35,399.625 569.05,398.975 566.25,397.675 C563.45,396.375 561.1125,394.5125 559.2375,392.0875 C557.3625,389.6625 555.9625,386.675 555.0375,383.125 C554.1125,379.575 553.65,375.55 553.65,371.05 C553.65,366.55 554.1125,362.5125 555.0375,358.9375 C555.9625,355.3625 557.3625,352.35 559.2375,349.9 C561.1125,347.45 563.45,345.575 566.25,344.275 C569.05,342.975 572.35,342.325 576.15,342.325 C583.65,342.325 589.25,344.85 592.95,349.9 C596.65,354.95 598.5,362 598.5,371.05 C598.5,380.05 596.65,387.0625 592.95,392.0875 C589.25,397.1125 583.65,399.625 576.15,399.625 Z M651.975,410.05 C657.375,410.05 662.1625,408.8625 666.3375,406.4875 C670.5125,404.1125 674.225,400.95 677.475,397 L677.475,397 L678.675,406.225 C679.175,408.075 680.375,409 682.275,409 L682.275,409 L690.225,409 L690.225,298.525 L676.875,298.525 L676.875,340.675 C674.275,337.825 671.325,335.6125 668.025,334.0375 C664.725,332.4625 660.75,331.675 656.1,331.675 C650.95,331.675 646.35,332.6875 642.3,334.7125 C638.25,336.7375 634.8125,339.525 631.9875,343.075 C629.1625,346.625 627,350.8125 625.5,355.6375 C624,360.4625 623.25,365.675 623.25,371.275 C623.25,377.575 623.925,383.15 625.275,388 C626.625,392.85 628.55,396.9 631.05,400.15 C633.55,403.4 636.575,405.8625 640.125,407.5375 C643.675,409.2125 647.625,410.05 651.975,410.05 Z M656.4,399.25 C653.3,399.25 650.55,398.725 648.15,397.675 C645.75,396.625 643.725,394.9625 642.075,392.6875 C640.425,390.4125 639.175,387.5125 638.325,383.9875 C637.475,380.4625 637.05,376.225 637.05,371.275 C637.05,361.925 638.95,354.725 642.75,349.675 C646.55,344.625 652,342.1 659.1,342.1 C662.65,342.1 665.8875,342.7625 668.8125,344.0875 C671.7375,345.4125 674.425,347.725 676.875,351.025 L676.875,351.025 L676.875,387.775 C674.125,391.425 671.1125,394.25 667.8375,396.25 C664.5625,398.25 660.75,399.25 656.4,399.25 Z M743.4,410.05 C748.95,410.05 753.9625,409.1375 758.4375,407.3125 C762.9125,405.4875 766.7125,402.875 769.8375,399.475 C772.9625,396.075 775.3625,391.975 777.0375,387.175 C778.7125,382.375 779.55,376.975 779.55,370.975 C779.55,365.025 778.7125,359.6375 777.0375,354.8125 C775.3625,349.9875 772.9625,345.875 769.8375,342.475 C766.7125,339.075 762.9125,336.45 758.4375,334.6 C753.9625,332.75 748.95,331.825 743.4,331.825 C737.85,331.825 732.8375,332.75 728.3625,334.6 C723.8875,336.45 720.075,339.075 716.925,342.475 C713.775,345.875 711.35,349.9875 709.65,354.8125 C707.95,359.6375 707.1,365.025 707.1,370.975 C707.1,376.975 707.95,382.375 709.65,387.175 C711.35,391.975 713.775,396.075 716.925,399.475 C720.075,402.875 723.8875,405.4875 728.3625,407.3125 C732.8375,409.1375 737.85,410.05 743.4,410.05 Z M743.4,399.625 C739.6,399.625 736.3,398.975 733.5,397.675 C730.7,396.375 728.3625,394.5125 726.4875,392.0875 C724.6125,389.6625 723.2125,386.675 722.2875,383.125 C721.3625,379.575 720.9,375.55 720.9,371.05 C720.9,366.55 721.3625,362.5125 722.2875,358.9375 C723.2125,355.3625 724.6125,352.35 726.4875,349.9 C728.3625,347.45 730.7,345.575 733.5,344.275 C736.3,342.975 739.6,342.325 743.4,342.325 C750.9,342.325 756.5,344.85 760.2,349.9 C763.9,354.95 765.75,362 765.75,371.05 C765.75,380.05 763.9,387.0625 760.2,392.0875 C756.5,397.1125 750.9,399.625 743.4,399.625 Z" id="todo" fill="#22292F" fill-rule="nonzero"></path>
        <g id="Group" transform="translate(238.500000, 241.000000)" stroke="#E5EBEE" stroke-width="20">
            <g id="todo_done">
                <rect id="Rectangle" x="30" y="60" width="130" height="130"></rect>
            </g>
        </g>
    </g>
</svg>