<?xml version="1.0" encoding="UTF-8"?>
<svg width="1280px" height="720px" viewBox="0 0 1280 720" version="1.1" xmlns="http://www.w3.org/2000/svg" xmlns:xlink="http://www.w3.org/1999/xlink">
    <title>emoji-cancelled</title>
    <g id="emoji-cancelled" stroke="none" stroke-width="1" fill="none" fill-rule="evenodd">
        <rect fill="#FFFFFF" x="0" y="0" width="1280" height="720"></rect>
        <path d="M517.575,410.05 C523.075,410.05 528.3,409.1125 533.25,407.2375 C538.2,405.3625 542.325,402.4 545.625,398.35 L545.625,398.35 L541.875,393.475 C541.325,392.625 540.475,392.2 539.325,392.2 C538.425,392.2 537.525,392.5875 536.625,393.3625 C535.725,394.1375 534.575,395 533.175,395.95 C531.775,396.9 530.025,397.7625 527.925,398.5375 C525.825,399.3125 523.15,399.7 519.9,399.7 C516.5,399.7 513.4375,399.0625 510.7125,397.7875 C507.9875,396.5125 505.675,394.6625 503.775,392.2375 C501.875,389.8125 500.4,386.8125 499.35,383.2375 C498.3,379.6625 497.775,375.575 497.775,370.975 C497.775,366.575 498.2625,362.6 499.2375,359.05 C500.2125,355.5 501.6625,352.475 503.5875,349.975 C505.5125,347.475 507.9,345.5625 510.75,344.2375 C513.6,342.9125 516.875,342.25 520.575,342.25 C523.375,342.25 525.7375,342.5625 527.6625,343.1875 C529.5875,343.8125 531.225,344.5 532.575,345.25 C533.925,346 535.0375,346.6875 535.9125,347.3125 C536.7875,347.9375 537.6,348.25 538.35,348.25 C539.1,348.25 539.675,348.1 540.075,347.8 C540.475,347.5 540.875,347.075 541.275,346.525 L541.275,346.525 L544.8,341.725 C541.65,338.575 538.025,336.1375 533.925,334.4125 C529.825,332.6875 525.125,331.825 519.825,331.825 C514.075,331.825 508.975,332.8 504.525,334.75 C500.075,336.7 496.3375,339.4125 493.3125,342.8875 C490.2875,346.3625 487.9875,350.5 486.4125,355.3 C484.8375,360.1 484.05,365.325 484.05,370.975 C484.05,377.175 484.9125,382.7 486.6375,387.55 C488.3625,392.4 490.725,396.4875 493.725,399.8125 C496.725,403.1375 500.2625,405.675 504.3375,407.425 C508.4125,409.175 512.825,410.05 517.575,410.05 Z M576.675,410.2 C579.575,410.2 582.2125,409.95 584.5875,409.45 C586.9625,408.95 589.2,408.2125 591.3,407.2375 C593.4,406.2625 595.4,405.0625 597.3,403.6375 C599.2,402.2125 601.15,400.6 603.15,398.8 L603.15,398.8 L604.65,405.85 C604.9,407.15 605.425,408 606.225,408.4 C607.025,408.8 608.075,409 609.375,409 L609.375,409 L615.3,409 L615.3,360.4 C615.3,356.15 614.725,352.25 613.575,348.7 C612.425,345.15 610.725,342.125 608.475,339.625 C606.225,337.125 603.45,335.175 600.15,333.775 C596.85,332.375 593.075,331.675 588.825,331.675 C582.925,331.675 577.55,332.675 572.7,334.675 C567.85,336.675 563.325,339.7 559.125,343.75 L559.125,343.75 L561.525,348.025 C561.925,348.725 562.4625,349.3125 563.1375,349.7875 C563.8125,350.2625 564.6,350.5 565.5,350.5 C566.65,350.5 567.8125,350.0875 568.9875,349.2625 C570.1625,348.4375 571.5625,347.5125 573.1875,346.4875 C574.8125,345.4625 576.7375,344.5375 578.9625,343.7125 C581.1875,342.8875 583.925,342.475 587.175,342.475 C592.125,342.475 595.8625,343.9875 598.3875,347.0125 C600.9125,350.0375 602.175,354.5 602.175,360.4 L602.175,360.4 L602.175,366.325 C593.575,366.525 586.3,367.3125 580.35,368.6875 C574.4,370.0625 569.5875,371.825 565.9125,373.975 C562.2375,376.125 559.575,378.5875 557.925,381.3625 C556.275,384.1375 555.45,387.025 555.45,390.025 C555.45,393.475 556.0125,396.4625 557.1375,398.9875 C558.2625,401.5125 559.775,403.6 561.675,405.25 C563.575,406.9 565.8125,408.1375 568.3875,408.9625 C570.9625,409.7875 573.725,410.2 576.675,410.2 Z M580.65,400.825 C578.9,400.825 577.275,400.6125 575.775,400.1875 C574.275,399.7625 572.975,399.0875 571.875,398.1625 C570.775,397.2375 569.9,396.05 569.25,394.6 C568.6,393.15 568.275,391.425 568.275,389.425 C568.275,387.325 568.8875,385.425 570.1125,383.725 C571.3375,382.025 573.3,380.55 576,379.3 C578.7,378.05 582.2,377.0375 586.5,376.2625 C590.8,375.4875 596.025,375 602.175,374.8 L602.175,374.8 L602.175,390.625 C600.675,392.225 599.1375,393.65 597.5625,394.9 C595.9875,396.15 594.3375,397.2125 592.6125,398.0875 C590.8875,398.9625 589.05,399.6375 587.1,400.1125 C585.15,400.5875 583,400.825 580.65,400.825 Z M648.9,409 L648.9,353.05 C651.8,349.8 654.9625,347.225 658.3875,345.325 C661.8125,343.425 665.5,342.475 669.45,342.475 C674.85,342.475 678.8625,344.0625 681.4875,347.2375 C684.1125,350.4125 685.425,354.875 685.425,360.625 L685.425,360.625 L685.425,409 L698.775,409 L698.775,360.625 C698.775,356.325 698.225,352.4 697.125,348.85 C696.025,345.3 694.4125,342.2625 692.2875,339.7375 C690.1625,337.2125 687.5125,335.2625 684.3375,333.8875 C681.1625,332.5125 677.5,331.825 673.35,331.825 C668,331.825 663.2875,332.95 659.2125,335.2 C655.1375,337.45 651.45,340.4 648.15,344.05 L648.15,344.05 L647.1,335.8 C646.6,333.95 645.4,333.025 643.5,333.025 L643.5,333.025 L635.55,333.025 L635.55,409 L648.9,409 Z M747.075,410.05 C752.575,410.05 757.8,409.1125 762.75,407.2375 C767.7,405.3625 771.825,402.4 775.125,398.35 L775.125,398.35 L771.375,393.475 C770.825,392.625 769.975,392.2 768.825,392.2 C767.925,392.2 767.025,392.5875 766.125,393.3625 C765.225,394.1375 764.075,395 762.675,395.95 C761.275,396.9 759.525,397.7625 757.425,398.5375 C755.325,399.3125 752.65,399.7 749.4,399.7 C746,399.7 742.9375,399.0625 740.2125,397.7875 C737.4875,396.5125 735.175,394.6625 733.275,392.2375 C731.375,389.8125 729.9,386.8125 728.85,383.2375 C727.8,379.6625 727.275,375.575 727.275,370.975 C727.275,366.575 727.7625,362.6 728.7375,359.05 C729.7125,355.5 731.1625,352.475 733.0875,349.975 C735.0125,347.475 737.4,345.5625 740.25,344.2375 C743.1,342.9125 746.375,342.25 750.075,342.25 C752.875,342.25 755.2375,342.5625 757.1625,343.1875 C759.0875,343.8125 760.725,344.5 762.075,345.25 C763.425,346 764.5375,346.6875 765.4125,347.3125 C766.2875,347.9375 767.1,348.25 767.85,348.25 C768.6,348.25 769.175,348.1 769.575,347.8 C769.975,347.5 770.375,347.075 770.775,346.525 L770.775,346.525 L774.3,341.725 C771.15,338.575 767.525,336.1375 763.425,334.4125 C759.325,332.6875 754.625,331.825 749.325,331.825 C743.575,331.825 738.475,332.8 734.025,334.75 C729.575,336.7 725.8375,339.4125 722.8125,342.8875 C719.7875,346.3625 717.4875,350.5 715.9125,355.3 C714.3375,360.1 713.55,365.325 713.55,370.975 C713.55,377.175 714.4125,382.7 716.1375,387.55 C717.8625,392.4 720.225,396.4875 723.225,399.8125 C726.225,403.1375 729.7625,405.675 733.8375,407.425 C737.9125,409.175 742.325,410.05 747.075,410.05 Z M819.825,410.05 C822.575,410.05 825.35,409.8125 828.15,409.3375 C830.95,408.8625 833.6625,408.15 836.2875,407.2 C838.9125,406.25 841.375,405.0375 843.675,403.5625 C845.975,402.0875 847.95,400.35 849.6,398.35 L849.6,398.35 L845.85,393.475 C845.25,392.625 844.4,392.2 843.3,392.2 C842.45,392.2 841.4375,392.5875 840.2625,393.3625 C839.0875,394.1375 837.625,394.975 835.875,395.875 C834.125,396.775 832.0375,397.6125 829.6125,398.3875 C827.1875,399.1625 824.3,399.55 820.95,399.55 C817.35,399.55 814.1,398.9625 811.2,397.7875 C808.3,396.6125 805.8,394.8375 803.7,392.4625 C801.6,390.0875 799.95,387.125 798.75,383.575 C797.55,380.025 796.9,375.85 796.8,371.05 L796.8,371.05 L847.35,371.05 C848.6,371.05 849.45,370.7 849.9,370 C850.35,369.3 850.575,367.9 850.575,365.8 C850.575,360.4 849.7875,355.5875 848.2125,351.3625 C846.6375,347.1375 844.45,343.5875 841.65,340.7125 C838.85,337.8375 835.525,335.6375 831.675,334.1125 C827.825,332.5875 823.625,331.825 819.075,331.825 C813.575,331.825 808.625,332.7875 804.225,334.7125 C799.825,336.6375 796.1,339.2875 793.05,342.6625 C790,346.0375 787.6625,350.025 786.0375,354.625 C784.4125,359.225 783.6,364.175 783.6,369.475 C783.6,376.025 784.5,381.825 786.3,386.875 C788.1,391.925 790.6125,396.1625 793.8375,399.5875 C797.0625,403.0125 800.8875,405.6125 805.3125,407.3875 C809.7375,409.1625 814.575,410.05 819.825,410.05 Z M838.575,362.725 L797.25,362.725 C798.15,356.125 800.45,350.9625 804.15,347.2375 C807.85,343.5125 812.925,341.65 819.375,341.65 C822.425,341.65 825.1375,342.1625 827.5125,343.1875 C829.8875,344.2125 831.9,345.6625 833.55,347.5375 C835.2,349.4125 836.45,351.6375 837.3,354.2125 C838.15,356.7875 838.575,359.625 838.575,362.725 L838.575,362.725 Z M882.45,409 L882.45,298.525 L869.1,298.525 L869.1,409 L882.45,409 Z M920.85,409 L920.85,298.525 L907.5,298.525 L907.5,409 L920.85,409 Z M975.225,410.05 C977.975,410.05 980.75,409.8125 983.55,409.3375 C986.35,408.8625 989.0625,408.15 991.6875,407.2 C994.3125,406.25 996.775,405.0375 999.075,403.5625 C1001.375,402.0875 1003.35,400.35 1005,398.35 L1005,398.35 L1001.25,393.475 C1000.65,392.625 999.8,392.2 998.7,392.2 C997.85,392.2 996.8375,392.5875 995.6625,393.3625 C994.4875,394.1375 993.025,394.975 991.275,395.875 C989.525,396.775 987.4375,397.6125 985.0125,398.3875 C982.5875,399.1625 979.7,399.55 976.35,399.55 C972.75,399.55 969.5,398.9625 966.6,397.7875 C963.7,396.6125 961.2,394.8375 959.1,392.4625 C957,390.0875 955.35,387.125 954.15,383.575 C952.95,380.025 952.3,375.85 952.2,371.05 L952.2,371.05 L1002.75,371.05 C1004,371.05 1004.85,370.7 1005.3,370 C1005.75,369.3 1005.975,367.9 1005.975,365.8 C1005.975,360.4 1005.1875,355.5875 1003.6125,351.3625 C1002.0375,347.1375 999.85,343.5875 997.05,340.7125 C994.25,337.8375 990.925,335.6375 987.075,334.1125 C983.225,332.5875 979.025,331.825 974.475,331.825 C968.975,331.825 964.025,332.7875 959.625,334.7125 C955.225,336.6375 951.5,339.2875 948.45,342.6625 C945.4,346.0375 943.0625,350.025 941.4375,354.625 C939.8125,359.225 939,364.175 939,369.475 C939,376.025 939.9,381.825 941.7,386.875 C943.5,391.925 946.0125,396.1625 949.2375,399.5875 C952.4625,403.0125 956.2875,405.6125 960.7125,407.3875 C965.1375,409.1625 969.975,410.05 975.225,410.05 Z M993.975,362.725 L952.65,362.725 C953.55,356.125 955.85,350.9625 959.55,347.2375 C963.25,343.5125 968.325,341.65 974.775,341.65 C977.825,341.65 980.5375,342.1625 982.9125,343.1875 C985.2875,344.2125 987.3,345.6625 988.95,347.5375 C990.6,349.4125 991.85,351.6375 992.7,354.2125 C993.55,356.7875 993.975,359.625 993.975,362.725 L993.975,362.725 Z M1046.175,410.05 C1051.575,410.05 1056.3625,408.8625 1060.5375,406.4875 C1064.7125,404.1125 1068.425,400.95 1071.675,397 L1071.675,397 L1072.875,406.225 C1073.375,408.075 1074.575,409 1076.475,409 L1076.475,409 L1084.425,409 L1084.425,298.525 L1071.075,298.525 L1071.075,340.675 C1068.475,337.825 1065.525,335.6125 1062.225,334.0375 C1058.925,332.4625 1054.95,331.675 1050.3,331.675 C1045.15,331.675 1040.55,332.6875 1036.5,334.7125 C1032.45,336.7375 1029.0125,339.525 1026.1875,343.075 C1023.3625,346.625 1021.2,350.8125 1019.7,355.6375 C1018.2,360.4625 1017.45,365.675 1017.45,371.275 C1017.45,377.575 1018.125,383.15 1019.475,388 C1020.825,392.85 1022.75,396.9 1025.25,400.15 C1027.75,403.4 1030.775,405.8625 1034.325,407.5375 C1037.875,409.2125 1041.825,410.05 1046.175,410.05 Z M1050.6,399.25 C1047.5,399.25 1044.75,398.725 1042.35,397.675 C1039.95,396.625 1037.925,394.9625 1036.275,392.6875 C1034.625,390.4125 1033.375,387.5125 1032.525,383.9875 C1031.675,380.4625 1031.25,376.225 1031.25,371.275 C1031.25,361.925 1033.15,354.725 1036.95,349.675 C1040.75,344.625 1046.2,342.1 1053.3,342.1 C1056.85,342.1 1060.0875,342.7625 1063.0125,344.0875 C1065.9375,345.4125 1068.625,347.725 1071.075,351.025 L1071.075,351.025 L1071.075,387.775 C1068.325,391.425 1065.3125,394.25 1062.0375,396.25 C1058.7625,398.25 1054.95,399.25 1050.6,399.25 Z" id="cancelled" fill="#22292F" fill-rule="nonzero"></path>
        <g id="todo_done" transform="translate(238.500000, 241.000000)">
            <g id="Group" stroke="#E5EBEE" stroke-width="20">
                <g id="todo_done">
                    <rect id="Rectangle" x="30" y="60" width="130" height="130"></rect>
                </g>
            </g>
            <g id="cross" transform="translate(95.000000, 125.000000) rotate(-45.000000) translate(-95.000000, -125.000000) translate(40.000000, 70.000000)" fill="#D91E1E">
                <rect id="tick-short" x="0" y="40" width="110" height="30"></rect>
                <rect id="tick-short" transform="translate(55.000000, 55.000000) rotate(-90.000000) translate(-55.000000, -55.000000) " x="0" y="40" width="110" height="30"></rect>
            </g>
        </g>
    </g>
</svg>