<?xml version="1.0" encoding="UTF-8"?>
<svg width="1280px" height="720px" viewBox="0 0 1280 720" version="1.1" xmlns="http://www.w3.org/2000/svg" xmlns:xlink="http://www.w3.org/1999/xlink">
    <title>emoji-paused</title>
    <g id="emoji-paused" stroke="none" stroke-width="1" fill="none" fill-rule="evenodd">
        <rect fill="#FFFFFF" x="0" y="0" width="1280" height="720"></rect>
        <path d="M502.8,434.725 L502.8,401.125 C505.35,403.975 508.2875,406.175 511.6125,407.725 C514.9375,409.275 518.95,410.05 523.65,410.05 C528.75,410.05 533.3375,409.0375 537.4125,407.0125 C541.4875,404.9875 544.925,402.2125 547.725,398.6875 C550.525,395.1625 552.675,390.9875 554.175,386.1625 C555.675,381.3375 556.425,376.125 556.425,370.525 C556.425,364.225 555.75,358.65 554.4,353.8 C553.05,348.95 551.125,344.8875 548.625,341.6125 C546.125,338.3375 543.1,335.8625 539.55,334.1875 C536,332.5125 532.05,331.675 527.7,331.675 C522.25,331.675 517.4375,332.875 513.2625,335.275 C509.0875,337.675 505.375,340.85 502.125,344.8 L502.125,344.8 L501,335.8 C500.5,333.95 499.3,333.025 497.4,333.025 L497.4,333.025 L489.45,333.025 L489.45,434.725 L502.8,434.725 Z M520.65,399.7 C517.05,399.7 513.7875,399.025 510.8625,397.675 C507.9375,396.325 505.25,394 502.8,390.7 L502.8,390.7 L502.8,353.95 C505.55,350.3 508.5625,347.475 511.8375,345.475 C515.1125,343.475 518.925,342.475 523.275,342.475 C526.325,342.475 529.05,343 531.45,344.05 C533.85,345.1 535.875,346.7625 537.525,349.0375 C539.175,351.3125 540.4375,354.225 541.3125,357.775 C542.1875,361.325 542.625,365.575 542.625,370.525 C542.625,379.875 540.725,387.075 536.925,392.125 C533.125,397.175 527.7,399.7 520.65,399.7 Z M589.425,410.2 C592.325,410.2 594.9625,409.95 597.3375,409.45 C599.7125,408.95 601.95,408.2125 604.05,407.2375 C606.15,406.2625 608.15,405.0625 610.05,403.6375 C611.95,402.2125 613.9,400.6 615.9,398.8 L615.9,398.8 L617.4,405.85 C617.65,407.15 618.175,408 618.975,408.4 C619.775,408.8 620.825,409 622.125,409 L622.125,409 L628.05,409 L628.05,360.4 C628.05,356.15 627.475,352.25 626.325,348.7 C625.175,345.15 623.475,342.125 621.225,339.625 C618.975,337.125 616.2,335.175 612.9,333.775 C609.6,332.375 605.825,331.675 601.575,331.675 C595.675,331.675 590.3,332.675 585.45,334.675 C580.6,336.675 576.075,339.7 571.875,343.75 L571.875,343.75 L574.275,348.025 C574.675,348.725 575.2125,349.3125 575.8875,349.7875 C576.5625,350.2625 577.35,350.5 578.25,350.5 C579.4,350.5 580.5625,350.0875 581.7375,349.2625 C582.9125,348.4375 584.3125,347.5125 585.9375,346.4875 C587.5625,345.4625 589.4875,344.5375 591.7125,343.7125 C593.9375,342.8875 596.675,342.475 599.925,342.475 C604.875,342.475 608.6125,343.9875 611.1375,347.0125 C613.6625,350.0375 614.925,354.5 614.925,360.4 L614.925,360.4 L614.925,366.325 C606.325,366.525 599.05,367.3125 593.1,368.6875 C587.15,370.0625 582.3375,371.825 578.6625,373.975 C574.9875,376.125 572.325,378.5875 570.675,381.3625 C569.025,384.1375 568.2,387.025 568.2,390.025 C568.2,393.475 568.7625,396.4625 569.8875,398.9875 C571.0125,401.5125 572.525,403.6 574.425,405.25 C576.325,406.9 578.5625,408.1375 581.1375,408.9625 C583.7125,409.7875 586.475,410.2 589.425,410.2 Z M593.4,400.825 C591.65,400.825 590.025,400.6125 588.525,400.1875 C587.025,399.7625 585.725,399.0875 584.625,398.1625 C583.525,397.2375 582.65,396.05 582,394.6 C581.35,393.15 581.025,391.425 581.025,389.425 C581.025,387.325 581.6375,385.425 582.8625,383.725 C584.0875,382.025 586.05,380.55 588.75,379.3 C591.45,378.05 594.95,377.0375 599.25,376.2625 C603.55,375.4875 608.775,375 614.925,374.8 L614.925,374.8 L614.925,390.625 C613.425,392.225 611.8875,393.65 610.3125,394.9 C608.7375,396.15 607.0875,397.2125 605.3625,398.0875 C603.6375,398.9625 601.8,399.6375 599.85,400.1125 C597.9,400.5875 595.75,400.825 593.4,400.825 Z M671.925,410.2 C677.225,410.2 681.925,409.0875 686.025,406.8625 C690.125,404.6375 693.825,401.7 697.125,398.05 L697.125,398.05 L698.175,406.225 C698.675,408.075 699.875,409 701.775,409 L701.775,409 L709.725,409 L709.725,333.025 L696.375,333.025 L696.375,389.05 C693.475,392.35 690.3,394.925 686.85,396.775 C683.4,398.625 679.725,399.55 675.825,399.55 C670.475,399.55 666.475,397.975 663.825,394.825 C661.175,391.675 659.85,387.225 659.85,381.475 L659.85,381.475 L659.85,333.025 L646.5,333.025 L646.5,381.475 C646.5,385.775 647.0375,389.7 648.1125,393.25 C649.1875,396.8 650.8,399.825 652.95,402.325 C655.1,404.825 657.7625,406.7625 660.9375,408.1375 C664.1125,409.5125 667.775,410.2 671.925,410.2 Z M750.75,410.2 C755.4,410.2 759.5,409.575 763.05,408.325 C766.6,407.075 769.6,405.3625 772.05,403.1875 C774.5,401.0125 776.35,398.4375 777.6,395.4625 C778.85,392.4875 779.475,389.25 779.475,385.75 C779.475,382.7 778.9125,380.0875 777.7875,377.9125 C776.6625,375.7375 775.175,373.9 773.325,372.4 C771.475,370.9 769.375,369.65 767.025,368.65 C764.675,367.65 762.2625,366.7375 759.7875,365.9125 C757.3125,365.0875 754.9,364.3125 752.55,363.5875 C750.2,362.8625 748.1,362.025 746.25,361.075 C744.4,360.125 742.9125,359 741.7875,357.7 C740.6625,356.4 740.1,354.775 740.1,352.825 C740.1,351.275 740.4375,349.8375 741.1125,348.5125 C741.7875,347.1875 742.7625,346.025 744.0375,345.025 C745.3125,344.025 746.85,343.2375 748.65,342.6625 C750.45,342.0875 752.475,341.8 754.725,341.8 C757.325,341.8 759.575,342.0875 761.475,342.6625 C763.375,343.2375 765.0125,343.8625 766.3875,344.5375 C767.7625,345.2125 768.925,345.825 769.875,346.375 C770.825,346.925 771.675,347.2 772.425,347.2 C773.675,347.2 774.6,346.65 775.2,345.55 L775.2,345.55 L778.2,340.675 C775.3,337.925 771.8625,335.7625 767.8875,334.1875 C763.9125,332.6125 759.425,331.825 754.425,331.825 C750.125,331.825 746.3,332.425 742.95,333.625 C739.6,334.825 736.775,336.4375 734.475,338.4625 C732.175,340.4875 730.425,342.8375 729.225,345.5125 C728.025,348.1875 727.425,350.975 727.425,353.875 C727.425,357.125 727.9875,359.8875 729.1125,362.1625 C730.2375,364.4375 731.725,366.35 733.575,367.9 C735.425,369.45 737.5375,370.7375 739.9125,371.7625 C742.2875,372.7875 744.7125,373.7 747.1875,374.5 C749.6625,375.3 752.0875,376.0625 754.4625,376.7875 C756.8375,377.5125 758.95,378.3625 760.8,379.3375 C762.65,380.3125 764.1375,381.4875 765.2625,382.8625 C766.3875,384.2375 766.95,385.975 766.95,388.075 C766.95,389.775 766.6375,391.375 766.0125,392.875 C765.3875,394.375 764.425,395.7 763.125,396.85 C761.825,398 760.2,398.9125 758.25,399.5875 C756.3,400.2625 754.025,400.6 751.425,400.6 C748.375,400.6 745.8375,400.25 743.8125,399.55 C741.7875,398.85 740.0625,398.075 738.6375,397.225 C737.2125,396.375 736,395.6 735,394.9 C734,394.2 733.05,393.85 732.15,393.85 C731.25,393.85 730.525,394.025 729.975,394.375 C729.425,394.725 728.95,395.225 728.55,395.875 L728.55,395.875 L725.4,400.975 C728.4,403.675 732.05,405.8875 736.35,407.6125 C740.65,409.3375 745.45,410.2 750.75,410.2 Z M827.625,410.05 C830.375,410.05 833.15,409.8125 835.95,409.3375 C838.75,408.8625 841.4625,408.15 844.0875,407.2 C846.7125,406.25 849.175,405.0375 851.475,403.5625 C853.775,402.0875 855.75,400.35 857.4,398.35 L857.4,398.35 L853.65,393.475 C853.05,392.625 852.2,392.2 851.1,392.2 C850.25,392.2 849.2375,392.5875 848.0625,393.3625 C846.8875,394.1375 845.425,394.975 843.675,395.875 C841.925,396.775 839.8375,397.6125 837.4125,398.3875 C834.9875,399.1625 832.1,399.55 828.75,399.55 C825.15,399.55 821.9,398.9625 819,397.7875 C816.1,396.6125 813.6,394.8375 811.5,392.4625 C809.4,390.0875 807.75,387.125 806.55,383.575 C805.35,380.025 804.7,375.85 804.6,371.05 L804.6,371.05 L855.15,371.05 C856.4,371.05 857.25,370.7 857.7,370 C858.15,369.3 858.375,367.9 858.375,365.8 C858.375,360.4 857.5875,355.5875 856.0125,351.3625 C854.4375,347.1375 852.25,343.5875 849.45,340.7125 C846.65,337.8375 843.325,335.6375 839.475,334.1125 C835.625,332.5875 831.425,331.825 826.875,331.825 C821.375,331.825 816.425,332.7875 812.025,334.7125 C807.625,336.6375 803.9,339.2875 800.85,342.6625 C797.8,346.0375 795.4625,350.025 793.8375,354.625 C792.2125,359.225 791.4,364.175 791.4,369.475 C791.4,376.025 792.3,381.825 794.1,386.875 C795.9,391.925 798.4125,396.1625 801.6375,399.5875 C804.8625,403.0125 808.6875,405.6125 813.1125,407.3875 C817.5375,409.1625 822.375,410.05 827.625,410.05 Z M846.375,362.725 L805.05,362.725 C805.95,356.125 808.25,350.9625 811.95,347.2375 C815.65,343.5125 820.725,341.65 827.175,341.65 C830.225,341.65 832.9375,342.1625 835.3125,343.1875 C837.6875,344.2125 839.7,345.6625 841.35,347.5375 C843,349.4125 844.25,351.6375 845.1,354.2125 C845.95,356.7875 846.375,359.625 846.375,362.725 L846.375,362.725 Z M898.575,410.05 C903.975,410.05 908.7625,408.8625 912.9375,406.4875 C917.1125,404.1125 920.825,400.95 924.075,397 L924.075,397 L925.275,406.225 C925.775,408.075 926.975,409 928.875,409 L928.875,409 L936.825,409 L936.825,298.525 L923.475,298.525 L923.475,340.675 C920.875,337.825 917.925,335.6125 914.625,334.0375 C911.325,332.4625 907.35,331.675 902.7,331.675 C897.55,331.675 892.95,332.6875 888.9,334.7125 C884.85,336.7375 881.4125,339.525 878.5875,343.075 C875.7625,346.625 873.6,350.8125 872.1,355.6375 C870.6,360.4625 869.85,365.675 869.85,371.275 C869.85,377.575 870.525,383.15 871.875,388 C873.225,392.85 875.15,396.9 877.65,400.15 C880.15,403.4 883.175,405.8625 886.725,407.5375 C890.275,409.2125 894.225,410.05 898.575,410.05 Z M903,399.25 C899.9,399.25 897.15,398.725 894.75,397.675 C892.35,396.625 890.325,394.9625 888.675,392.6875 C887.025,390.4125 885.775,387.5125 884.925,383.9875 C884.075,380.4625 883.65,376.225 883.65,371.275 C883.65,361.925 885.55,354.725 889.35,349.675 C893.15,344.625 898.6,342.1 905.7,342.1 C909.25,342.1 912.4875,342.7625 915.4125,344.0875 C918.3375,345.4125 921.025,347.725 923.475,351.025 L923.475,351.025 L923.475,387.775 C920.725,391.425 917.7125,394.25 914.4375,396.25 C911.1625,398.25 907.35,399.25 903,399.25 Z" id="paused" fill="#22292F" fill-rule="nonzero"></path>
        <g id="todo_done" transform="translate(238.500000, 241.000000)">
            <g id="checkbox" transform="translate(20.000000, 50.000000)" stroke="#E5EBEE" stroke-width="20">
                <rect id="Rectangle" x="10" y="10" width="130" height="130"></rect>
            </g>
            <rect id="dot" fill="#50A0D2" x="60" y="110" width="70" height="30"></rect>
        </g>
    </g>
</svg>