<svg xmlns="http://www.w3.org/2000/svg" viewBox="0 0 1280 720">
    <g fill="none" fill-rule="nonzero">
        <path d="M435 293.624v129.168h26.21v-84.388h1.061l33.075 83.757h17.848l33.075-83.442h1.06v84.073h26.211V293.624h-33.324l-35.197 86.785h-1.497l-35.197-86.785H435ZM634.138 425c23.64 0 39.565-11.59 43.297-29.445l-24.51-1.629c-2.674 7.33-9.518 11.152-18.352 11.152-13.25 0-21.648-8.834-21.648-23.18v-.063h65.07v-7.33c0-32.702-19.657-48.865-44.915-48.865-28.118 0-46.345 20.11-46.345 49.805 0 30.51 17.978 49.555 47.403 49.555Zm-21.213-59.704c.56-10.963 8.833-19.734 20.59-19.734 11.51 0 19.472 8.27 19.534 19.734h-40.124Zm128.197-38.53h-18.005V303.56h-26.54v23.206h-13.084v20.18h13.083v50.447c-.124 18.982 12.647 28.377 31.9 27.558 6.853-.253 11.712-1.64 14.391-2.523l-4.174-19.99c-1.308.253-4.112.883-6.604.883-5.296 0-8.972-2.018-8.972-9.46v-46.916h18.005v-20.179ZM781.275 425c14.158 0 23.327-6.207 28.006-15.171h.75v13.353h25.196v-64.945c0-22.943-19.336-32.597-40.668-32.597-22.953 0-38.047 11.033-41.726 28.586l24.574 2.006c1.81-6.395 7.485-11.097 17.028-11.097 9.044 0 14.223 4.577 14.223 12.475v.376c0 6.206-6.55 7.022-23.205 8.651-18.961 1.756-35.989 8.15-35.989 29.651 0 19.057 13.535 28.712 31.81 28.712Zm7.609-18.43c-8.17 0-14.034-3.825-14.034-11.159 0-7.522 6.175-11.221 15.53-12.537 5.802-.815 15.282-2.195 18.461-4.326v10.218c0 10.093-8.294 17.804-19.957 17.804Zm88.125-112.946h-26.388v129.168h26.388V293.624Zm16.386 129.168h26.413v-96.34h-26.413v96.34Zm13.27-108.759c7.873 0 14.326-6.084 14.326-13.548 0-7.4-6.453-13.485-14.326-13.485-7.81 0-14.262 6.085-14.262 13.485 0 7.464 6.452 13.548 14.262 13.548Zm55.411 52.685c.065-12.504 7.487-19.828 18.307-19.828 10.755 0 17.228 7.072 17.171 18.943v56.959h26.792v-61.757c0-22.607-13.21-36.499-33.337-36.499-14.338 0-24.714 7.072-29.054 18.375h-1.135V325.8h-25.536v96.993h26.792v-56.074Zm77.663 56.074h26.647v-30.778l7.19-8.262 26.214 39.04H1131l-37.471-54.934 35.661-41.942h-30.593l-30.77 36.77h-1.441v-69.062h-26.647v129.168Z" fill="#333"/>
        <g>
            <path d="M358.639 358.187c1.04-2.794 2.113-5.705 3.118-8.65 1.42-4.146 2.472-7.64 3.324-10.992a230.151 230.151 0 0 0 2.957-13.408 115.046 115.046 0 0 0 1.846-26.323c-.365-8.733-2.035-16.665-5.105-24.253a56.809 56.809 0 0 0-7.309-12.988 53.666 53.666 0 0 0-10.938-10.788 55.99 55.99 0 0 0-14.007-7.482 69.59 69.59 0 0 0-16.132-3.681A98.867 98.867 0 0 0 305.55 239a77.779 77.779 0 0 0-19.154 2.295c-1.089.273-2.087.577-2.97.84-.524.159-1.057.31-1.526.447a51.621 51.621 0 0 0-11.075 1.21c-.302.066-.61.134-.925.209-1.13 0-2.488 0-3.776.087-2.91.173-5.177.363-9.99 1.39l-.751.161c-1.018 0-1.95.038-2.784.087-2.91.171-5.177.36-9.987 1.387a63.227 63.227 0 0 0-12.463 3.87 83.587 83.587 0 0 0-20.147 11.75 124.659 124.659 0 0 0-22.645 23.034c-4.906 6.517-8.956 12.355-12.386 17.895-4.704 7.6-8.5 14.518-13.098 23.856-2.762 5.518-5.022 11.099-7.21 16.496-.542 1.33-1.1 2.711-1.65 4.052a101.987 101.987 0 0 0-3.847 10.996c-1.002 3.153-1.188 6.707-1.167 9.17.025 3.443.483 6.87 1.367 10.205l.083.31.096.31.415 1.241c1.531 4.612 3.114 9.386 5.163 14.15 2.826 6.579 6.25 14.325 10.186 21.891a153.695 153.695 0 0 0 16.612 25.38c8.753 10.863 17.924 19.242 28.036 25.626a93.27 93.27 0 0 0 15.17 7.787 83.65 83.65 0 0 0 16.842 4.741A76.874 76.874 0 0 0 254.947 481c2.811 0 5.62-.167 8.41-.51 2.35-.288 4.563-.716 6.535-1.138a68.644 68.644 0 0 0 6.993-.496c2.348-.289 4.59-.723 6.603-1.155a69.11 69.11 0 0 0 8.028-.512 92.744 92.744 0 0 0 9.023-1.685l1.856-.41h.32l1.835-.475.346-.084c1.173-.14 2.464-.23 3.828-.328 2.226-.159 4.75-.339 7.386-.78a94.042 94.042 0 0 0 11.847-2.944c7.247-2.223 13.335-5.425 18.624-9.798a46.32 46.32 0 0 0 10.741-12.774 60.08 60.08 0 0 0 5.78-14.182c1.545-5.587 2.152-10.94 2.544-15.437.713-8.19.183-15.987-.357-21.858-.4-4.346-1.043-8.966-1.907-13.712-1.024-5.616-2.248-10.964-3.305-15.455-.577-2.448-1.248-4.782-1.897-7.041l-.125-.44.593-1.612-.01.013Z" fill="#FFF"/>
            <path d="M347.114 354.198c1.014-2.737 2.061-5.568 3.021-8.379 1.313-3.845 2.283-7.054 3.054-10.096a222.435 222.435 0 0 0 2.81-12.724 103.742 103.742 0 0 0 1.654-23.698c-.322-7.4-1.71-14.08-4.275-20.421a44.99 44.99 0 0 0-5.78-10.306 41.496 41.496 0 0 0-8.484-8.38c-6.586-4.86-14.473-7.759-24.11-8.82a85.373 85.373 0 0 0-9.434-.547 65.535 65.535 0 0 0-16.056 1.915c-.8.202-1.606.444-2.395.683a32.615 32.615 0 0 1-4.012 1.024c-.154.078-1.354.422-1.512.484-10.16 4.035-18.994 9.99-26.974 17.234a135.075 135.075 0 0 0-21.65 25.29c-4.65 6.992-8.93 14.223-13.107 21.492-2.672 4.655-5.022 9.503-7.222 14.388-2.67 5.918-5.186 11.91-7.47 17.978-1.782 4.724-1.965 9.667-1.406 14.695.517 4.674 2.247 8.956 4.088 13.18 3.246 7.448 6.5 14.897 10.276 22.094 3.268 6.207 7.112 12.132 11.017 18a110.921 110.921 0 0 0 18.74 21.312c8.18 7.277 17.283 13.205 27.639 17.205 5.485 2.117 11.127 3.758 17.02 4.414 2.841.31 5.699.523 8.547.782.145.021.288.052.427.093-.066.03-.127.068-.195.096h.068c.632-.17 1.275-.3 1.926-.385 1.503-.184 3.041-.292 4.524-.397 2.04-.146 4.147-.31 6.175-.64a81.62 81.62 0 0 0 10.245-2.566c5.648-1.729 10.342-4.184 14.347-7.501a34.564 34.564 0 0 0 8.008-9.543 48.48 48.48 0 0 0 4.644-11.484c1.284-4.692 1.824-9.394 2.17-13.37.643-7.289.145-14.42-.349-19.821-.37-4.016-.964-8.289-1.77-12.7-.963-5.362-2.157-10.529-3.185-14.878-.514-2.172-1.143-4.382-1.757-6.517-.321-1.148-.668-2.33-.986-3.5a1.956 1.956 0 0 1 .039-1.121c.559-1.505 1.133-3.06 1.69-4.565Zm-10.434 5.85c1.043 3.414 2.222 7.246 3.188 11.098 1.067 4.26 1.973 8.559 2.788 12.573a130.112 130.112 0 0 1 2.568 20.455c.251 5.896.351 12.261-.606 18.651-1.05 6.998-3.128 12.7-6.355 17.43-2.881 4.206-6.953 7.521-11.73 9.552-5.032 2.197-9.724 3.588-14.342 4.248-3.189.459-6.41.692-9.633.692a64.43 64.43 0 0 1-8.128-.512 70.262 70.262 0 0 1-19.383-5.462c-7.241-3.193-14.029-7.582-20.75-13.413-8.705-7.56-16.496-16.964-23.817-28.748a173.746 173.746 0 0 1-12.492-24.331 150.87 150.87 0 0 1-5.459-14.639 20.446 20.446 0 0 1 .12-12.326c1.367-4.25 3.078-8.408 4.733-12.433a207.913 207.913 0 0 1 11.823-24.424c2.839-4.966 6.162-10.301 10.459-16.793a122.105 122.105 0 0 1 16.3-19.649c7.494-7.367 14.894-12.799 22.632-16.6 5.209-2.567 9.99-4.286 14.61-5.257 6.035-1.27 12.615-1.552 20.11-.845 5.01.472 9.311 1.453 13.165 3.005a35.382 35.382 0 0 1 8.953 5.145 31.614 31.614 0 0 1 6.852 7.61c2.605 4.034 4.438 8.534 5.607 13.72 1.114 4.938 1.606 9.932 1.606 16.688v.021a92.92 92.92 0 0 0-.113 2.36 68.625 68.625 0 0 1-.684 8.286c-1.165 7.225-2.376 13.105-3.815 18.508-1.245 4.693-2.857 9.373-4.418 13.898-.475 1.384-.963 2.818-1.445 4.227a47.683 47.683 0 0 1-1.991 4.745l-.228.493a2.563 2.563 0 0 0-.125 2.026Z" fill="#000"/>
            <path d="M294.415 454.235a64.43 64.43 0 0 0 8.127.512 68.224 68.224 0 0 0 9.634-.692c4.618-.661 9.312-2.051 14.341-4.249 4.778-2.03 8.85-5.346 11.73-9.553 3.212-4.73 5.305-10.43 6.356-17.429.962-6.39.857-12.74.606-18.651a129.999 129.999 0 0 0-2.57-20.455c-.814-4.013-1.72-8.311-2.786-12.573-.963-3.852-2.145-7.7-3.188-11.097a2.56 2.56 0 0 1 .112-2.027l.228-.493a47.464 47.464 0 0 0 1.99-4.746c.476-1.41.964-2.843 1.446-4.227 1.56-4.525 3.172-9.205 4.418-13.898 1.439-5.402 2.65-11.283 3.815-18.508.395-2.747.624-5.514.684-8.287a88.32 88.32 0 0 1 .112-2.358v-.022c0-6.76-.481-11.75-1.605-16.688-1.169-5.186-3.003-9.673-5.607-13.72a31.6 31.6 0 0 0-6.827-7.61 35.392 35.392 0 0 0-8.949-5.145c-3.854-1.552-8.173-2.533-13.166-3.004-7.495-.702-14.075-.426-20.108.844-4.621.971-9.403 2.69-14.611 5.257-7.742 3.802-15.14 9.233-22.639 16.601a122.056 122.056 0 0 0-16.3 19.648c-4.296 6.501-7.627 11.83-10.459 16.793a207.913 207.913 0 0 0-11.823 24.424c-1.654 4.035-3.366 8.184-4.733 12.433a20.446 20.446 0 0 0-.12 12.326 150.887 150.887 0 0 0 5.46 14.64 173.852 173.852 0 0 0 12.491 24.331c7.321 11.793 15.112 21.187 23.817 28.747 6.721 5.831 13.51 10.22 20.75 13.413a70.309 70.309 0 0 0 19.374 5.463Zm31.96-98.042c-.558 1.526-1.133 3.103-1.63 4.683a6.976 6.976 0 0 0-.09 3.516 285.342 285.342 0 0 0 1.544 6.375c.822 3.264 1.67 6.645 2.303 9.999.69 3.672 1.082 7.47 1.46 11.144.113 1.078.226 2.195.348 3.294a65.788 65.788 0 0 1-.44 17.02c-.823 5.436-2.464 10.01-5.016 13.987-2.553 3.974-6.31 6.936-11.5 9.07-5.099 2.1-10.555 3.153-16.675 3.228a49.606 49.606 0 0 1-17.758-3.693c-9.387-3.82-17.71-10.108-25.439-19.241-5.517-6.517-10.34-13.985-14.752-22.857-3.228-6.496-6.13-13.522-9.136-22.11-1.477-4.224-1.666-7.467-.607-10.52l.122-.357c1.034-2.983 2.104-6.068 3.343-9.02 2.229-5.306 4.344-10.091 6.477-14.629a156.527 156.527 0 0 1 11.532-20.306c4.443-6.684 8.99-12.255 13.853-17.025 5.227-5.111 10.596-8.948 16.396-11.72 5.68-2.712 11.817-4.033 18.699-4.033.699 0 1.412 0 2.128.04 5.87.226 10.793 1.359 15.047 3.463a27.062 27.062 0 0 1 8.314 6.294 30.303 30.303 0 0 1 5.36 8.854c2.19 5.431 3.212 11.573 3.131 18.77a81.378 81.378 0 0 1-1.185 12.724c-.9 5.22-2.09 10.604-3.641 16.449-.591 2.23-1.4 4.454-2.187 6.6Z" fill="#FFF"/>
            <path d="M320.476 413.737v.233a37.63 37.63 0 0 1-.816 4.785l-.09.426c-.796 3.724-3.237 6.206-7.257 7.448-4.618 1.396-8.93 2.103-12.844 2.103-.402 0-.797 0-1.19-.024-6.858.145-13.425-1.3-20.074-4.42-6.78-3.177-12.81-7.74-18.44-13.965-1.605-1.776-3.114-3.687-4.565-5.537-.585-.745-1.189-1.515-1.79-2.262a.854.854 0 0 1-.093-.21.633.633 0 0 1 .126-.621.656.656 0 0 1 .275-.196.697.697 0 0 1 .339-.038h.041c1.557.401 3.134.832 4.659 1.242 3.289.9 6.69 1.83 10.077 2.513a93.38 93.38 0 0 0 26.634 1.552c3.477-.31 7.006-.7 10.417-1.086 2.144-.24 4.36-.49 6.543-.713a40.615 40.615 0 0 1 4.448-.209c1.352 0 2.364.757 3.006 2.216.966 2.237.777 4.54.594 6.763ZM321.614 314.183c-.064.277-.128.562-.17.838-.388 2.53-1.794 3.948-4.175 4.218-.619.068-1.248.145-1.856.22-1.785.218-3.635.444-5.459.521-2.132.09-4.302.07-6.4.047-.796 0-1.604-.016-2.43-.016 0 0-4.611 0-6.743-.077-4.878-.201-9.923-.31-14.884-.537-4.865-.214-10.642-.478-16.589-.798h-.238c-.934-.05-1.451-.077-1.654-.459-.202-.381.055-.854.642-1.768a63.79 63.79 0 0 1 7.935-9.888 54.3 54.3 0 0 1 9.955-7.967 41.37 41.37 0 0 1 14.733-5.614 40.97 40.97 0 0 1 20.253 1.57c3.953 1.319 6.367 4.183 6.791 8.069.321 2.818.399 5.698.489 8.482.012.493.029.985.048 1.48a6.569 6.569 0 0 1-.248 1.679Z" fill="#FFF"/>
            <path d="M330.261 301.65a30.302 30.302 0 0 0-5.359-8.836 27.086 27.086 0 0 0-8.314-6.294c-4.254-2.104-9.178-3.237-15.047-3.463a54.425 54.425 0 0 0-2.13-.04c-6.88 0-13.018 1.328-18.698 4.034-5.806 2.771-11.17 6.607-16.396 11.72-4.878 4.769-9.409 10.34-13.854 17.025a156.487 156.487 0 0 0-11.53 20.303 372.22 372.22 0 0 0-6.478 14.629c-1.24 2.952-2.31 6.037-3.343 9.02l-.122.356c-1.06 3.054-.87 6.297.608 10.52 3.005 8.588 5.908 15.614 9.135 22.11 4.413 8.872 9.235 16.349 14.752 22.857 7.73 9.121 16.056 15.409 25.44 19.241a49.611 49.611 0 0 0 17.757 3.693c6.121-.073 11.56-1.128 16.676-3.227 5.19-2.135 8.953-5.102 11.5-9.07 2.545-3.97 4.193-8.552 5.015-13.988a65.745 65.745 0 0 0 .44-17.02c-.123-1.099-.235-2.216-.347-3.293-.38-3.674-.77-7.473-1.461-11.145-.642-3.355-1.48-6.734-2.303-9.999a280.107 280.107 0 0 1-1.544-6.374 6.965 6.965 0 0 1 .09-3.516c.498-1.577 1.072-3.157 1.631-4.684.787-2.148 1.606-4.37 2.187-6.601 1.55-5.85 2.742-11.234 3.641-16.448a81.493 81.493 0 0 0 1.185-12.725c.083-7.225-.94-13.367-3.13-18.785Zm-82.697 88.83c-.893-1.606-1.78-3.224-2.54-4.89a30.634 30.634 0 0 1-2.89-14.174c.27-6.297 4.268-10.645 10.674-11.703 1.188-.199 2.405-.258 3.61-.379h1.968c.121.025.245.04.369.047 3.535-.024 7.02.804 10.14 2.408 4.21 2.093 7.493 5.588 9.243 9.838l.022.047c.074.09.151.173.222.248l.029.03a.788.788 0 0 0 .629.108.792.792 0 0 0 .293-.14.756.756 0 0 0 .207-.243v-.022c3.58-7.038 9.76-9.45 16.786-7.696 7.738 1.93 12.176 7.488 14.604 14.586a30.805 30.805 0 0 1 1.567 12.085c-.27 4.034-1.519 6.886-6.457 7.951a69.94 69.94 0 0 1-11.5 1.35 108.193 108.193 0 0 1-25.863-1.8c-5.276-1.034-10.494-2.337-15.715-3.619a8.398 8.398 0 0 1-3.15-1.452 8.05 8.05 0 0 1-2.248-2.58Zm72.917 23.255v.233a37.788 37.788 0 0 1-.816 4.786l-.09.425c-.796 3.724-3.238 6.207-7.258 7.448-4.617 1.397-8.93 2.104-12.845 2.104-.4 0-.796 0-1.187-.025-6.86.146-13.426-1.3-20.077-4.419-6.779-3.178-12.81-7.74-18.439-13.966-1.605-1.775-3.114-3.686-4.565-5.536-.586-.745-1.19-1.514-1.79-2.263a.839.839 0 0 1-.093-.21.646.646 0 0 1 .125-.62v-.001a.686.686 0 0 1 .614-.233h.042c1.557.4 3.134.832 4.659 1.241 3.289.9 6.689 1.831 10.077 2.514a93.416 93.416 0 0 0 26.634 1.552c3.477-.31 7.006-.702 10.416-1.087 2.145-.238 4.362-.49 6.545-.713 1.478-.15 2.962-.22 4.448-.209 1.351 0 2.363.758 3.005 2.216.967 2.239.777 4.542.595 6.763Zm1.146-99.556c-.064.276-.13.561-.17.837-.39 2.53-1.796 3.948-4.175 4.218-.62.069-1.249.146-1.856.22-1.786.218-3.635.444-5.46.522-2.131.09-4.302.068-6.399.046-.796 0-1.606-.015-2.431-.015 0 0-4.611 0-6.744-.078-4.877-.201-9.922-.31-14.884-.536-4.865-.215-10.641-.478-16.588-.798h-.238c-.935-.05-1.45-.077-1.653-.46-.203-.381.054-.853.642-1.768a63.875 63.875 0 0 1 7.934-9.888 54.374 54.374 0 0 1 9.955-7.967 41.37 41.37 0 0 1 14.733-5.614 40.995 40.995 0 0 1 20.253 1.57c3.953 1.32 6.368 4.184 6.792 8.069.32 2.818.398 5.698.487 8.482 0 .494.03.988.046 1.48a6.452 6.452 0 0 1-.244 1.68Z" fill="#000"/>
            <path d="M256.508 359.33h1.891c.122.024.246.04.37.047 3.535-.024 7.02.804 10.14 2.408 4.21 2.092 7.493 5.587 9.242 9.838.058.13.153.243.274.323a.8.8 0 0 0 .83.029.765.765 0 0 0 .299-.302v-.022c3.58-7.039 9.76-9.45 16.786-7.696 7.738 1.93 12.176 7.488 14.603 14.585a30.83 30.83 0 0 1 1.568 12.086c-.27 4.034-1.52 6.886-6.458 7.95a69.953 69.953 0 0 1-11.5 1.35 108.189 108.189 0 0 1-25.863-1.8c-5.275-1.033-10.493-2.337-15.715-3.618a8.384 8.384 0 0 1-3.168-1.448 8.047 8.047 0 0 1-2.261-2.586c-.894-1.608-1.78-3.225-2.54-4.892a30.62 30.62 0 0 1-2.891-14.173c.27-6.298 4.268-10.645 10.674-11.703 1.188-.199 2.405-.258 3.609-.379l.11.003Z" fill="#FE247D"/>
            <path d="M268.486 467.52c-2.207.489-4.415.932-6.65 1.22a60.58 60.58 0 0 1-17.71-.533c-9.98-1.704-19.036-5.474-27.462-10.785-9.801-6.18-17.903-14.09-25.047-22.965a141.227 141.227 0 0 1-15.343-23.444c-3.584-6.887-6.744-13.99-9.817-21.104-2.026-4.714-3.61-9.62-5.228-14.477-1.284-4.69-1.172-10.397-.292-12.976a89.698 89.698 0 0 1 3.487-10.006c2.736-6.653 5.292-13.36 8.52-19.797a255.943 255.943 0 0 1 12.555-22.935c3.607-5.825 7.627-11.5 11.77-16.994a112.504 112.504 0 0 1 20.458-20.793 71.31 71.31 0 0 1 17.189-10.037 51.057 51.057 0 0 1 10.356-3.224c4.11-.876 5.749-.994 8.099-1.13a50.387 50.387 0 0 1 3.446-.062c-3.471.828-5.437 1.583-8.375 2.793a71.33 71.33 0 0 0-17.19 10.033 112.293 112.293 0 0 0-20.458 20.793c-4.142 5.49-8.163 11.173-11.77 16.996a255.088 255.088 0 0 0-12.568 22.903c-3.227 6.437-5.78 13.143-8.522 19.797a90.307 90.307 0 0 0-3.484 10.003c-.88 2.579-.993 8.29.292 12.979 1.605 4.865 3.21 9.76 5.228 14.474 3.06 7.138 6.233 14.226 9.816 21.104 4.31 8.28 9.45 16.132 15.343 23.443 7.158 8.888 15.257 16.8 25.048 22.966 8.425 5.31 17.481 9.081 27.461 10.785 3.58.63 7.21.956 10.848.974Z" fill="#F6ACA0"/>
            <path d="M282.175 465.856c-2.248.5-4.522.974-6.81 1.242-2.281.28-4.577.418-6.876.418a64.185 64.185 0 0 1-10.834-.95c-9.98-1.704-19.036-5.474-27.463-10.784-9.803-6.18-17.902-14.09-25.047-22.965a141.283 141.283 0 0 1-15.343-23.445c-3.584-6.89-6.743-13.99-9.817-21.103-2.023-4.714-3.609-9.621-5.227-14.475-1.285-4.69-1.172-10.399-.292-12.979a90.419 90.419 0 0 1 3.484-10.002c2.738-6.653 5.295-13.36 8.522-19.797a255.105 255.105 0 0 1 12.568-22.904c3.594-5.834 7.62-11.517 11.757-17.007a112.293 112.293 0 0 1 20.458-20.793 71.327 71.327 0 0 1 17.174-10.03c2.938-1.198 4.903-1.952 8.375-2.793.61-.143 1.265-.292 1.981-.444 4.11-.875 5.748-.993 8.095-1.133 1.523-.09 3.353-.071 4.496-.037a57.992 57.992 0 0 0-8.468 3c-3.982 1.795-11.728 5.897-16.872 9.932a112.309 112.309 0 0 0-20.496 20.728c-4.143 5.493-8.192 11.095-11.734 16.957-4.496 7.449-8.67 15.118-12.556 22.883-3.211 6.44-5.966 13.115-8.702 19.768-1.414 3.433-2.444 7.02-3.462 10.59-.886 3.13-1.284 8.224.267 12.392 1.605 4.866 3.21 9.763 5.227 14.475 3.06 7.137 6.233 14.23 9.817 21.103a141.315 141.315 0 0 0 15.343 23.444c7.158 8.888 15.26 16.799 25.048 22.965 8.426 5.31 17.48 9.081 27.462 10.788 3.276.574 6.596.894 9.925.956Z" fill="#FA27F0"/>
            <path d="M301.52 463.097a1.37 1.37 0 0 1-.282.124c-3.75.762-7.472 1.76-11.265 2.224a56.647 56.647 0 0 1-7.803.41 64.592 64.592 0 0 1-9.907-.93c-9.98-1.707-19.036-5.479-27.462-10.789-9.8-6.179-17.902-14.089-25.047-22.965a141.253 141.253 0 0 1-15.346-23.466c-3.583-6.887-6.743-13.99-9.816-21.104-2.024-4.71-3.61-9.62-5.228-14.474-1.564-4.167-1.153-9.26-.267-12.392 1.018-3.57 2.05-7.157 3.462-10.589 2.736-6.654 5.458-13.344 8.702-19.77 3.892-7.758 8.057-15.427 12.556-22.88 3.532-5.863 7.59-11.465 11.733-16.958a112.28 112.28 0 0 1 20.497-20.728c5.138-4.035 12.89-8.132 16.872-9.932a57.992 57.992 0 0 1 8.468-3c.79-.215 1.509-.389 2.126-.522 5.459-1.18 9.402-.91 9.585-.881-.154.077-1.356.422-1.513.484-10.16 4.034-18.994 9.99-26.973 17.233a135.075 135.075 0 0 0-21.65 25.29c-4.65 6.992-8.93 14.223-13.108 21.492-2.672 4.655-5.022 9.503-7.222 14.388-2.669 5.918-5.186 11.911-7.47 17.978-1.782 4.724-1.965 9.668-1.406 14.695.518 4.674 2.248 8.957 4.088 13.18 3.247 7.448 6.5 14.898 10.276 22.094 3.268 6.207 7.112 12.132 11.017 18a110.892 110.892 0 0 0 18.74 21.312c8.18 7.277 17.283 13.206 27.64 17.206 5.484 2.116 11.126 3.758 17.018 4.413 2.843.31 5.7.525 8.548.782.148.015.294.04.437.075Z" fill="#7623F6"/>
        </g>
    </g>
</svg>
