<?xml version="1.0" encoding="UTF-8"?>
<svg width="1280px" height="720px" viewBox="0 0 1280 720" version="1.1" xmlns="http://www.w3.org/2000/svg" xmlns:xlink="http://www.w3.org/1999/xlink">
    <title>es-kit copy</title>
    <g id="es-kit-copy" stroke="none" stroke-width="1" fill="none" fill-rule="evenodd">
        <g id="logo" transform="translate(145.000000, 196.000000)">
            <g>
                <g id="medium-navy" transform="translate(251.976002, 119.000000)">
                    <rect id="medium" stroke="#FFFFFF" stroke-width="21" fill="#D8D8D8" transform="translate(55.994667, 56.000000) rotate(-180.000000) translate(-55.994667, -56.000000) " x="-10.5" y="-10.5" width="132.989334" height="133"></rect>
                    <g id="shape" fill="#0779A1" transform="translate(55.994667, 56.000000) rotate(-180.000000) translate(-55.994667, -56.000000) ">
                        <rect id="Rectangle" x="0" y="0" width="111.989334" height="112"></rect>
                    </g>
                </g>
                <g id="medium-sky" transform="translate(0.000000, 98.000000)">
                    <rect id="medium" stroke="#FFFFFF" stroke-width="21" fill="#D8D8D8" x="-10.5" y="-10.5" width="132.989334" height="133"></rect>
                    <g id="shape" fill="#17A8E0">
                        <rect id="Rectangle" x="0" y="0" width="111.989334" height="112"></rect>
                    </g>
                </g>
                <g id="large-yellow" transform="translate(132.987335, 0.000000)">
                    <rect id="large" stroke="#FFFFFF" stroke-width="21" fill="#D8D8D8" x="-10.5" y="-10.5" width="174.985335" height="175"></rect>
                    <g id="shape" fill="#FED10A">
                        <rect id="Rectangle" x="0" y="0" width="153.985335" height="154"></rect>
                    </g>
                </g>
                <g id="small-pink" transform="translate(55.994667, 21.000000)">
                    <rect id="small" stroke="#FFFFFF" stroke-width="21" fill="#D8D8D8" x="-10.5" y="-10.5" width="76.9946672" height="77"></rect>
                    <g id="shape" fill="#EF5098">
                        <rect id="Rectangle" x="0" y="0" width="55.9946672" height="56"></rect>
                    </g>
                </g>
                <g id="large-seafoam" transform="translate(76.992667, 175.000000)">
                    <rect id="large" stroke="#FFFFFF" stroke-width="21" fill="#D8D8D8" transform="translate(76.992667, 77.000000) rotate(-180.000000) translate(-76.992667, -77.000000) " x="-10.5" y="-10.5" width="174.985335" height="175"></rect>
                    <g id="shape" fill="#24BBB1" transform="translate(76.992667, 77.000000) rotate(-180.000000) translate(-76.992667, -77.000000) ">
                        <rect id="Rectangle" x="0" y="0" width="153.985335" height="154"></rect>
                    </g>
                </g>
                <g id="small-grass" transform="translate(251.976002, 252.000000)">
                    <rect id="small" stroke="#FFFFFF" stroke-width="21" fill="#D8D8D8" transform="translate(27.997334, 28.000000) rotate(-180.000000) translate(-27.997334, -28.000000) " x="-10.5" y="-10.5" width="76.9946672" height="77"></rect>
                    <g id="shape" fill="#93C83E" transform="translate(27.997334, 28.000000) rotate(-180.000000) translate(-27.997334, -28.000000) ">
                        <rect id="Rectangle" x="0" y="0" width="55.9946672" height="56"></rect>
                    </g>
                </g>
            </g>
            <g id="text" transform="translate(443.757737, 95.200000)" fill="#262626" fill-rule="nonzero">
                <polygon id="E" points="0 0.834688347 99.0493631 0.834688347 99.0493631 22.3279133 22.2186202 22.3279133 22.2186202 65.5230352 90.5356862 65.5230352 90.5356862 87.0162602 22.2186202 87.0162602 22.2186202 130.837398 101.956472 130.837398 101.956472 152.330623 0 152.330623"></polygon>
                <path d="M214.503128,29.8401084 C209.242645,27.0578139 203.56686,24.6928636 197.475774,22.7452575 C191.384688,20.7976513 185.501253,19.8238482 179.825468,19.8238482 C172.073177,19.8238482 165.912875,21.597561 161.34456,25.1449864 C156.776246,28.6924119 154.492088,33.5266486 154.492088,39.6476965 C154.492088,43.9602529 156.01486,47.7163505 159.060403,50.9159892 C162.105946,54.1156278 166.051308,56.8979223 170.89649,59.2628726 C175.741672,61.6278229 180.863722,63.8536585 186.262639,65.9403794 C190.830953,67.6097561 195.364659,69.5921409 199.863757,71.8875339 C204.362854,74.1829268 208.446651,77 212.115146,80.3387534 C215.783641,83.6775068 218.69075,87.8161698 220.836473,92.7547425 C222.982197,97.6933153 224.055058,103.710027 224.055058,110.804878 C224.055058,118.873532 222.082377,126.177055 218.137015,132.715447 C214.191652,139.253839 208.515868,144.435863 201.109661,148.261518 C193.703454,152.087173 184.739867,154 174.218901,154 C167.850947,154 161.656036,153.269648 155.634167,151.808943 C149.612298,150.348238 143.936513,148.400632 138.606813,145.966125 C133.277113,143.531617 128.466539,140.853659 124.175093,137.932249 L134.142324,120.612466 C137.464735,122.977416 141.271663,125.238031 145.56311,127.394309 C149.854557,129.550587 154.319046,131.254743 158.956578,132.506775 C163.594109,133.758808 167.989381,134.384824 172.142394,134.384824 C176.710709,134.384824 181.209806,133.584914 185.639687,131.985095 C190.069568,130.385276 193.738062,127.88121 196.645172,124.4729 C199.552281,121.064589 201.005835,116.578139 201.005835,111.01355 C201.005835,106.28365 199.725323,102.284101 197.164298,99.0149051 C194.603274,95.7457091 191.211646,92.928636 186.989416,90.5636856 C182.767186,88.1987353 178.23348,86.1120145 173.388298,84.303523 C168.68155,82.4950316 163.905585,80.4778681 159.060403,78.2520325 C154.215221,76.0261969 149.716123,73.3482385 145.56311,70.2181572 C141.410097,67.0880759 138.053078,63.1928636 135.492053,58.5325203 C132.931029,53.8721771 131.650516,48.1336947 131.650516,41.3170732 C131.650516,33.2484192 133.553981,26.1883469 137.360909,20.1368564 C141.167838,14.0853659 146.46293,9.32068654 153.246184,5.84281843 C160.029439,2.36495032 167.850947,0.417344173 176.710709,0 C186.816374,0 195.606918,1.25203252 203.082342,3.75609756 C210.557766,6.2601626 217.202587,9.25112918 223.016805,12.7289973 L214.503128,29.8401084 Z" id="S"></path>
                <polygon id="K" points="318.577637 60.5149051 317.954685 68.0271003 321.069445 63.6449864 380.042231 0.834688347 408.698022 0.834688347 346.402825 66.5663957 411.605131 152.330623 383.572293 152.330623 330.206074 80.5474255 318.577637 92.0243902 318.577637 152.330623 296.151366 152.330623 296.151366 0.834688347 318.577637 0.834688347"></polygon>
                <path d="M433.40845,64.897019 L454.796468,64.897019 L454.796468,152.330623 L433.40845,152.330623 L433.40845,64.897019 Z M432.162546,33.596206 C432.162546,30.2574526 433.477667,27.4751581 436.107909,25.2493225 C438.73815,23.0234869 441.576043,21.9105691 444.621586,21.9105691 C447.805562,21.9105691 450.643455,23.0234869 453.135263,25.2493225 C455.62707,27.4751581 456.872974,30.2574526 456.872974,33.596206 C456.872974,36.9349593 455.62707,39.6824752 453.135263,41.8387534 C450.643455,43.9950316 447.805562,45.0731707 444.621586,45.0731707 C441.576043,45.0731707 438.73815,43.9950316 436.107909,41.8387534 C433.477667,39.6824752 432.162546,36.9349593 432.162546,33.596206 Z" id="i"></path>
                <polygon id="t" points="495.703647 26.501355 517.091665 26.501355 517.091665 65.1056911 540.348538 65.1056911 540.348538 82.0081301 517.091665 82.0081301 517.091665 152.330623 495.703647 152.330623 495.703647 82.0081301 480.337499 82.0081301 480.337499 65.1056911 495.703647 65.1056911"></polygon>
            </g>
        </g>
    </g>
</svg>