<?xml version="1.0" encoding="UTF-8"?>
<svg width="1280px" height="720px" viewBox="0 0 1280 720" version="1.1" xmlns="http://www.w3.org/2000/svg" xmlns:xlink="http://www.w3.org/1999/xlink">
    <title>featured-hi-res</title>
    <g id="featured-hi-res" stroke="none" stroke-width="1" fill="none" fill-rule="evenodd">
        <g id="hi-res-02-copy" transform="translate(-211.587259, 0.000000)">
            <rect id="Rectangle" fill="#1D2337" x="0" y="0" width="1639.24304" height="1641"></rect>
            <path d="M358.4197,479.788767 L358.4197,1104.32914 C358.4197,1121.40331 365.929493,1137.61138 378.950353,1148.63957 L738.908085,1453.51065 C758.909175,1470.45085 788.8413,1467.95212 805.763357,1447.9296 C813.009779,1439.35548 816.986081,1428.48781 816.986081,1417.25666 L816.986081,229.778558 C816.986081,203.551247 795.747409,182.289812 769.54818,182.289812 C760.131739,182.289812 750.928331,185.095248 743.109905,190.34888 L384.085911,431.596939 C368.043899,442.376454 358.4197,460.447205 358.4197,479.788767 Z" id="left-red" fill="#E66348"></path>
            <path d="M818.523421,330.252449 L818.523421,1298.59371 L501.898575,1117.99565 C484.039567,1107.80913 472.921318,1088.93174 472.628006,1068.39867 L472.622056,1067.56536 L472.622056,524.241141 C472.622056,501.698886 485.65669,481.221394 506.006394,471.680442 L506.719225,471.352068 L818.523421,330.252449 Z" id="left-yellow" fill="#F7B144"></path>
            <path d="M818.523421,496.480012 L818.523421,1126.56069 L625.080397,1056.50622 C602.364747,1048.27984 587.150727,1026.83112 586.829595,1002.70523 L586.824411,1001.92606 L586.824411,606.778489 C586.824411,581.148576 603.610819,558.586456 628.065793,551.207943 L628.80919,550.989012 L818.523421,496.480012 Z" id="left-white" fill="#FFFFFF"></path>
            <path d="M1038.36296,235.175905 L1037.35046,235.175905 C1030.92268,235.323714 1024.59027,236.760392 1018.73227,239.411291 L816.895619,330.746297 L816.766461,330.946635 L816.766461,1297.71549 L816.877356,1297.90651 L1014.76984,1410.783 L1015.45614,1411.16712 C1038.24594,1423.6806 1066.88602,1415.58718 1079.77074,1392.94923 C1083.8666,1385.75297 1086.02048,1377.61324 1086.02048,1369.33083 L1086.02048,282.884507 L1086.01411,282.097412 C1085.59274,256.080141 1064.38978,235.175905 1038.36296,235.175905 Z" id="middle-green" fill="#50A490" fill-rule="nonzero"></path>
            <polygon id="middle-mint" stroke="#B2F9F4" stroke-width="0.5" fill="#B2F9F4" points="1085.80086 419.689031 1085.80086 1223.35339 816.986081 1126.00322 816.986081 496.92332"></polygon>
            <path d="M1292.02101,362.271523 L1293.12381,362.258225 C1318.90898,362.258225 1339.91655,382.970265 1340.33401,408.745812 L1340.34034,409.529342 L1340.34034,1247.93408 C1340.34034,1253.41703 1339.38742,1258.85818 1337.52421,1264.01413 C1328.75195,1288.2891 1302.15005,1301.01921 1277.79571,1292.6438 L1277.05754,1292.38322 L1086.02048,1223.19753 L1086.02048,419.851521 L1280.09592,364.092949 C1283.97718,362.977803 1287.98493,362.365762 1292.02101,362.271523 Z" id="Path" stroke="#4F5E96" stroke-width="0.25" fill="#4F5E96" fill-rule="nonzero"></path>
        </g>
    </g>
</svg>