<?xml version="1.0" encoding="UTF-8"?>
<svg width="1280px" height="720px" viewBox="0 0 1280 720" version="1.1" xmlns="http://www.w3.org/2000/svg" xmlns:xlink="http://www.w3.org/1999/xlink">
    <title>axios-actions</title>
    <g id="axios-actions" stroke="none" stroke-width="1" fill="none" fill-rule="evenodd">
        <g id="logo" transform="translate(70.000000, 195.000000)">
            <path d="M48.789,118.336 C60.2743333,118.336 69.1803333,116.438 75.507,112.642 C77.4536667,111.474 79.1326667,110.087 80.544,108.481 C81.9553333,106.875 82.661,104.806667 82.661,102.276 L82.661,102.276 L82.661,69.572 C82.661,64.9973333 81.8336667,61.031 80.179,57.673 C78.5243333,54.315 76.164,51.541 73.098,49.351 C70.032,47.161 66.3333333,45.5306667 62.002,44.46 C57.6706667,43.3893333 52.877,42.854 47.621,42.854 C44.2143333,42.854 40.5886667,43.0973333 36.744,43.584 C32.8993333,44.0706667 29.5656667,44.8493333 26.743,45.92 C24.2123333,46.9906667 22.3386667,48.2803333 21.122,49.789 C19.9053333,51.2976667 19.297,53.3173333 19.297,55.848 C19.297,57.7946667 19.735,59.6683333 20.611,61.469 C21.487,63.2696667 22.5576667,64.608 23.823,65.484 C26.6456667,64.316 29.809,63.3426667 33.313,62.564 C36.817,61.7853333 40.4183333,61.396 44.117,61.396 C48.789,61.396 52.366,62.0043333 54.848,63.221 C57.33,64.4376667 58.571,66.4573333 58.571,69.28 L58.571,69.28 L58.571,70.302 L39.445,72.346 C31.0743333,73.222 24.8936667,75.4606667 20.903,79.062 C16.9123333,82.6633333 14.917,87.822 14.917,94.538 C14.917,98.5286667 15.72,102.032667 17.326,105.05 C18.932,108.067333 21.2193333,110.549333 24.188,112.496 C27.1566667,114.442667 30.7093333,115.902667 34.846,116.876 C38.9826667,117.849333 43.6303333,118.336 48.789,118.336 Z M48.789,100.232 C45.1876667,100.232 42.6326667,99.6236667 41.124,98.407 C39.6153333,97.1903333 38.861,95.6086667 38.861,93.662 C38.861,91.7153333 39.737,90.2553333 41.489,89.282 C43.241,88.3086667 45.4796667,87.7246667 48.205,87.53 L48.205,87.53 L58.717,86.654 L58.717,98.334 C57.7436667,98.918 56.2593333,99.3803333 54.264,99.721 C52.2686667,100.061667 50.4436667,100.232 48.789,100.232 Z M150.551,117.606 C153.957667,117.606 156.877667,116.535333 159.311,114.394 C161.744333,112.252667 163.204333,109.332667 163.691,105.634 L163.691,105.634 L144.565,80.376 L154.201,69.572 C155.661,67.7226667 156.926333,66.1166667 157.997,64.754 C159.067667,63.3913333 159.943667,62.1746667 160.625,61.104 C161.306333,60.0333333 161.817333,58.987 162.158,57.965 C162.498667,56.943 162.669,55.7993333 162.669,54.534 C162.669,51.322 161.111667,48.767 157.997,46.869 C154.882333,44.971 150.648333,44.022 145.295,44.022 L145.295,44.022 L129.673,65.192 L120.329,52.928 C118.187667,50.1053333 116.241,47.9153333 114.489,46.358 C112.737,44.8006667 110.255,44.022 107.043,44.022 C103.636333,44.022 100.789333,45.19 98.502,47.526 C96.2146667,49.862 94.6816667,52.8793333 93.903,56.578 L93.903,56.578 L113.467,79.5 L101.787,93.078 C99.0616667,96.1926667 97.1393333,98.6503333 96.02,100.451 C94.9006667,102.251667 94.341,104.32 94.341,106.656 C94.341,109.673333 95.6306667,112.204 98.21,114.248 C100.789333,116.292 104.561,117.314 109.525,117.314 C109.914333,117.314 110.401,117.289667 110.985,117.241 C111.569,117.192333 112.104333,117.168 112.591,117.168 L112.591,117.168 L127.483,95.706 L135.367,106.948 C137.411,109.868 139.528,112.35 141.718,114.394 C143.908,116.438 146.852333,117.508667 150.551,117.606 Z M187.197,38.474 C191.285,38.474 194.57,37.2086667 197.052,34.678 C199.534,32.1473333 200.775,29.0326667 200.775,25.334 C200.775,21.6353333 199.534,18.5206667 197.052,15.99 C194.57,13.4593333 191.285,12.194 187.197,12.194 C183.109,12.194 179.824,13.4593333 177.342,15.99 C174.86,18.5206667 173.619,21.6353333 173.619,25.334 C173.619,29.0326667 174.86,32.1473333 177.342,34.678 C179.824,37.2086667 183.109,38.474 187.197,38.474 Z M188.511,117.168 C190.652333,117.168 192.769333,116.997667 194.862,116.657 C196.954667,116.316333 198.536333,116.048667 199.607,115.854 L199.607,115.854 L199.607,56.432 C199.607,53.9986667 199.290667,52.0276667 198.658,50.519 C198.025333,49.0103333 197.125,47.818 195.957,46.942 C194.789,46.066 193.353333,45.482 191.65,45.19 C189.946667,44.898 188.024333,44.752 185.883,44.752 C183.741667,44.752 181.624667,44.9223333 179.532,45.263 C177.439333,45.6036667 175.857667,45.8713333 174.787,46.066 L174.787,46.066 L174.787,105.488 C174.787,107.921333 175.103333,109.892333 175.736,111.401 C176.368667,112.909667 177.269,114.102 178.437,114.978 C179.605,115.854 181.040667,116.438 182.744,116.73 C184.447333,117.022 186.369667,117.168 188.511,117.168 Z M250.561,118.336 C256.303667,118.336 261.511,117.508667 266.183,115.854 C270.855,114.199333 274.87,111.766 278.228,108.554 C281.586,105.342 284.189667,101.375667 286.039,96.655 C287.888333,91.9343333 288.813,86.5566667 288.813,80.522 C288.813,74.8766667 287.888333,69.718 286.039,65.046 C284.189667,60.374 281.586,56.4076667 278.228,53.147 C274.87,49.8863333 270.855,47.3556667 266.183,45.555 C261.511,43.7543333 256.303667,42.854 250.561,42.854 C244.818333,42.854 239.611,43.73 234.939,45.482 C230.267,47.234 226.252,49.7403333 222.894,53.001 C219.536,56.2616667 216.932333,60.228 215.083,64.9 C213.233667,69.572 212.309,74.7793333 212.309,80.522 C212.309,86.362 213.233667,91.618 215.083,96.29 C216.932333,100.962 219.536,104.928333 222.894,108.189 C226.252,111.449667 230.267,113.956 234.939,115.708 C239.611,117.46 244.818333,118.336 250.561,118.336 Z M250.707,98.918 C246.619,98.918 243.431333,97.3363333 241.144,94.173 C238.856667,91.0096667 237.713,86.4593333 237.713,80.522 C237.713,74.682 238.832333,70.1803333 241.071,67.017 C243.309667,63.8536667 246.473,62.272 250.561,62.272 C254.649,62.272 257.812333,63.8536667 260.051,67.017 C262.289667,70.1803333 263.409,74.682 263.409,80.522 C263.409,86.362 262.314,90.888 260.124,94.1 C257.934,97.312 254.795,98.918 250.707,98.918 Z M327.941,118.482 C338.745,118.482 346.921,116.389333 352.469,112.204 C358.017,108.018667 360.791,102.227333 360.791,94.83 C360.791,88.8926667 358.82,84.0503333 354.878,80.303 C350.936,76.5556667 344.293,73.6113333 334.949,71.47 L334.949,71.47 L330.423,70.448 C327.697667,69.864 325.848333,69.2313333 324.875,68.55 C323.901667,67.8686667 323.415,66.9926667 323.415,65.922 C323.415,64.3646667 324.291,63.221 326.043,62.491 C327.795,61.761 330.277,61.396 333.489,61.396 C335.046333,61.396 336.774,61.542 338.672,61.834 C340.57,62.126 342.443667,62.491 344.293,62.929 C346.142333,63.367 347.845667,63.8536667 349.403,64.389 C350.960333,64.9243333 352.128333,65.4353333 352.907,65.922 C354.172333,64.8513333 355.218667,63.513 356.046,61.907 C356.873333,60.301 357.287,58.3786667 357.287,56.14 C357.287,53.804 356.605667,51.7843333 355.243,50.081 C353.880333,48.3776667 352.031,46.9906667 349.695,45.92 C347.359,44.8493333 344.609333,44.0463333 341.446,43.511 C338.282667,42.9756667 334.900333,42.708 331.299,42.708 C326.529667,42.708 322.174,43.2433333 318.232,44.314 C314.29,45.3846667 310.907667,46.8933333 308.085,48.84 C305.262333,50.7866667 303.072333,53.22 301.515,56.14 C299.957667,59.06 299.179,62.3206667 299.179,65.922 C299.179,72.5406667 301.247333,77.6263333 305.384,81.179 C309.520667,84.7316667 315.823,87.3353333 324.291,88.99 L324.291,88.99 L328.671,89.866 C331.396333,90.3526667 333.343,90.9853333 334.511,91.764 C335.679,92.5426667 336.263,93.6133333 336.263,94.976 C336.263,96.436 335.46,97.604 333.854,98.48 C332.248,99.356 329.936333,99.794 326.919,99.794 C322.149667,99.794 317.94,99.1856667 314.29,97.969 C310.64,96.7523333 307.403667,95.3653333 304.581,93.808 C303.218333,94.8786667 302.050333,96.217 301.077,97.823 C300.103667,99.429 299.617,101.4 299.617,103.736 C299.617,106.266667 300.322667,108.456667 301.734,110.306 C303.145333,112.155333 305.092,113.688333 307.574,114.905 C310.056,116.121667 313.049,117.022 316.553,117.606 C320.057,118.19 323.853,118.482 327.941,118.482 Z" id="axios" fill="#85BF43" fill-rule="nonzero"></path>
            <g id="actions" transform="translate(47.275000, 85.590000)" fill-rule="nonzero">
                <path d="M71.92,225.37 C96.3066667,225.37 115.216667,221.34 128.65,213.28 C132.783333,210.8 136.348333,207.855 139.345,204.445 C142.341667,201.035 143.84,196.643333 143.84,191.27 L143.84,191.27 L143.84,121.83 C143.84,112.116667 142.083333,103.695 138.57,96.565 C135.056667,89.435 130.045,83.545 123.535,78.895 C117.025,74.245 109.171667,70.7833333 99.975,68.51 C90.7783333,66.2366667 80.6,65.1 69.44,65.1 C62.2066667,65.1 54.5083333,65.6166667 46.345,66.65 C38.1816667,67.6833333 31.1033333,69.3366667 25.11,71.61 C19.7366667,73.8833333 15.7583333,76.6216667 13.175,79.825 C10.5916667,83.0283333 9.3,87.3166667 9.3,92.69 C9.3,96.8233333 10.23,100.801667 12.09,104.625 C13.95,108.448333 16.2233333,111.29 18.91,113.15 C24.9033333,110.67 31.62,108.603333 39.06,106.95 C46.5,105.296667 54.1466667,104.47 62,104.47 C71.92,104.47 79.515,105.761667 84.785,108.345 C90.055,110.928333 92.69,115.216667 92.69,121.21 L92.69,121.21 L92.69,123.38 L52.08,127.72 C34.3066667,129.58 21.1833333,134.333333 12.71,141.98 C4.23666667,149.626667 0,160.58 0,174.84 C0,183.313333 1.705,190.753333 5.115,197.16 C8.525,203.566667 13.3816667,208.836667 19.685,212.97 C25.9883333,217.103333 33.5316667,220.203333 42.315,222.27 C51.0983333,224.336667 60.9666667,225.37 71.92,225.37 Z M71.92,186.93 C64.2733333,186.93 58.8483333,185.638333 55.645,183.055 C52.4416667,180.471667 50.84,177.113333 50.84,172.98 C50.84,168.846667 52.7,165.746667 56.42,163.68 C60.14,161.613333 64.8933333,160.373333 70.68,159.96 L70.68,159.96 L93,158.1 L93,182.9 C90.9333333,184.14 87.7816667,185.121667 83.545,185.845 C79.3083333,186.568333 75.4333333,186.93 71.92,186.93 Z M263.5,225.06 C277.76,225.06 288.92,222.735 296.98,218.085 C305.04,213.435 309.07,206.873333 309.07,198.4 C309.07,193.646667 308.036667,189.565 305.97,186.155 C303.903333,182.745 300.803333,179.593333 296.67,176.7 C293.156667,178.353333 289.126667,179.903333 284.58,181.35 C280.033333,182.796667 274.66,183.52 268.46,183.52 C257.92,183.52 248.981667,180.316667 241.645,173.91 C234.308333,167.503333 230.64,157.893333 230.64,145.08 C230.64,138.673333 231.673333,133.093333 233.74,128.34 C235.806667,123.586667 238.545,119.608333 241.955,116.405 C245.365,113.201667 249.395,110.773333 254.045,109.12 C258.695,107.466667 263.603333,106.64 268.77,106.64 C274.556667,106.64 279.93,107.415 284.89,108.965 C289.85,110.515 294.086667,112.116667 297.6,113.77 C300.08,111.29 302.25,108.345 304.11,104.935 C305.97,101.525 306.9,97.8566667 306.9,93.93 C306.9,85.4566667 302.87,78.5333333 294.81,73.16 C286.75,67.7866667 275.28,65.1 260.4,65.1 C249.24,65.1 238.648333,66.7533333 228.625,70.06 C218.601667,73.3666667 209.766667,78.3266667 202.12,84.94 C194.473333,91.5533333 188.428333,99.975 183.985,110.205 C179.541667,120.435 177.32,132.37 177.32,146.01 C177.32,157.79 179.386667,168.536667 183.52,178.25 C187.653333,187.963333 193.491667,196.281667 201.035,203.205 C208.578333,210.128333 217.62,215.501667 228.16,219.325 C238.7,223.148333 250.48,225.06 263.5,225.06 Z M400.52,225.06 C415.4,225.06 425.785,222.58 431.675,217.62 C437.565,212.66 440.51,206.253333 440.51,198.4 C440.51,194.473333 439.838333,191.115 438.495,188.325 C437.151667,185.535 435.55,183.003333 433.69,180.73 C431.21,181.556667 428.316667,182.228333 425.01,182.745 C421.703333,183.261667 418.5,183.52 415.4,183.52 C409.2,183.52 404.395,182.383333 400.985,180.11 C397.575,177.836667 395.87,174.013333 395.87,168.64 L395.87,168.64 L395.87,121.83 L424.08,121.83 C429.453333,121.83 433.741667,120.228333 436.945,117.025 C440.148333,113.821667 441.75,108.603333 441.75,101.37 C441.75,97.2366667 441.181667,93.465 440.045,90.055 C438.908333,86.645 437.72,83.8033333 436.48,81.53 L436.48,81.53 L395.87,81.53 L395.87,61.69 C395.87,51.3566667 393.338333,44.5883333 388.275,41.385 C383.211667,38.1816667 376.133333,36.58 367.04,36.58 C362.286667,36.58 357.791667,36.9416667 353.555,37.665 C349.318333,38.3883333 346.063333,39.06 343.79,39.68 L343.79,39.68 L343.79,172.36 C343.79,190.96 348.698333,204.393333 358.515,212.66 C368.331667,220.926667 382.333333,225.06 400.52,225.06 Z M502.51,55.8 C511.19,55.8 518.165,53.1133333 523.435,47.74 C528.705,42.3666667 531.34,35.7533333 531.34,27.9 C531.34,20.0466667 528.705,13.4333333 523.435,8.06 C518.165,2.68666667 511.19,0 502.51,0 C493.83,0 486.855,2.68666667 481.585,8.06 C476.315,13.4333333 473.68,20.0466667 473.68,27.9 C473.68,35.7533333 476.315,42.3666667 481.585,47.74 C486.855,53.1133333 493.83,55.8 502.51,55.8 Z M505.3,222.89 C509.846667,222.89 514.341667,222.528333 518.785,221.805 C523.228333,221.081667 526.586667,220.513333 528.86,220.1 L528.86,220.1 L528.86,93.93 C528.86,88.7633333 528.188333,84.5783333 526.845,81.375 C525.501667,78.1716667 523.59,75.64 521.11,73.78 C518.63,71.92 515.581667,70.68 511.965,70.06 C508.348333,69.44 504.266667,69.13 499.72,69.13 C495.173333,69.13 490.678333,69.4916667 486.235,70.215 C481.791667,70.9383333 478.433333,71.5066667 476.16,71.92 L476.16,71.92 L476.16,198.09 C476.16,203.256667 476.831667,207.441667 478.175,210.645 C479.518333,213.848333 481.43,216.38 483.91,218.24 C486.39,220.1 489.438333,221.34 493.055,221.96 C496.671667,222.58 500.753333,222.89 505.3,222.89 Z" id="acti" fill="#2C3E50"></path>
                <path d="M644.8,225.37 C656.993333,225.37 668.05,223.613333 677.97,220.1 C687.89,216.586667 696.415,211.42 703.545,204.6 C710.675,197.78 716.203333,189.358333 720.13,179.335 C724.056667,169.311667 726.02,157.893333 726.02,145.08 C726.02,133.093333 724.056667,122.14 720.13,112.22 C716.203333,102.3 710.675,93.8783333 703.545,86.955 C696.415,80.0316667 687.89,74.6583333 677.97,70.835 C668.05,67.0116667 656.993333,65.1 644.8,65.1 C632.606667,65.1 621.55,66.96 611.63,70.68 C601.71,74.4 593.185,79.7216667 586.055,86.645 C578.925,93.5683333 573.396667,101.99 569.47,111.91 C565.543333,121.83 563.58,132.886667 563.58,145.08 C563.58,157.48 565.543333,168.64 569.47,178.56 C573.396667,188.48 578.925,196.901667 586.055,203.825 C593.185,210.748333 601.71,216.07 611.63,219.79 C621.55,223.51 632.606667,225.37 644.8,225.37 Z M645.11,184.14 C636.43,184.14 629.661667,180.781667 624.805,174.065 C619.948333,167.348333 617.52,157.686667 617.52,145.08 C617.52,132.68 619.896667,123.121667 624.65,116.405 C629.403333,109.688333 636.12,106.33 644.8,106.33 C653.48,106.33 660.196667,109.688333 664.95,116.405 C669.703333,123.121667 672.08,132.68 672.08,145.08 C672.08,157.48 669.755,167.09 665.105,173.91 C660.455,180.73 653.79,184.14 645.11,184.14 Z" id="o" fill="#FFFFFF"></path>
                <path d="M884.12,222.89 C888.873333,222.89 893.471667,222.58 897.915,221.96 C902.358333,221.34 905.613333,220.72 907.68,220.1 L907.68,220.1 L907.68,123.07 C907.68,104.883333 901.376667,90.675 888.77,80.445 C876.163333,70.215 858.183333,65.1 834.83,65.1 C821.81,65.1 809.978333,66.65 799.335,69.75 C788.691667,72.85 779.856667,76.88 772.83,81.84 C768.696667,84.7333333 765.441667,87.9366667 763.065,91.45 C760.688333,94.9633333 759.5,99.51 759.5,105.09 L759.5,105.09 L759.5,198.09 C759.5,203.256667 760.171667,207.441667 761.515,210.645 C762.858333,213.848333 764.77,216.38 767.25,218.24 C769.73,220.1 772.778333,221.34 776.395,221.96 C780.011667,222.58 784.093333,222.89 788.64,222.89 C793.393333,222.89 797.991667,222.58 802.435,221.96 C806.878333,221.34 810.133333,220.72 812.2,220.1 L812.2,220.1 L812.2,112.53 C815.093333,110.463333 818.555,108.913333 822.585,107.88 C826.615,106.846667 830.696667,106.33 834.83,106.33 C841.03,106.33 845.938333,107.828333 849.555,110.825 C853.171667,113.821667 854.98,118.523333 854.98,124.93 L854.98,124.93 L854.98,198.09 C854.98,203.256667 855.651667,207.441667 856.995,210.645 C858.338333,213.848333 860.25,216.38 862.73,218.24 C865.21,220.1 868.258333,221.34 871.875,221.96 C875.491667,222.58 879.573333,222.89 884.12,222.89 Z M1005.33,225.68 C1028.27,225.68 1045.63,221.236667 1057.41,212.35 C1069.19,203.463333 1075.08,191.166667 1075.08,175.46 C1075.08,162.853333 1070.895,152.571667 1062.525,144.615 C1054.155,136.658333 1040.05,130.406667 1020.21,125.86 L1020.21,125.86 L1010.6,123.69 C1004.81333,122.45 1000.88667,121.106667 998.82,119.66 C996.753333,118.213333 995.72,116.353333 995.72,114.08 C995.72,110.773333 997.58,108.345 1001.3,106.795 C1005.02,105.245 1010.29,104.47 1017.11,104.47 C1020.41667,104.47 1024.085,104.78 1028.115,105.4 C1032.145,106.02 1036.12333,106.795 1040.05,107.725 C1043.97667,108.655 1047.59333,109.688333 1050.9,110.825 C1054.20667,111.961667 1056.68667,113.046667 1058.34,114.08 C1061.02667,111.806667 1063.24833,108.965 1065.005,105.555 C1066.76167,102.145 1067.64,98.0633333 1067.64,93.31 C1067.64,88.35 1066.19333,84.0616667 1063.3,80.445 C1060.40667,76.8283333 1056.48,73.8833333 1051.52,71.61 C1046.56,69.3366667 1040.72167,67.6316667 1034.005,66.495 C1027.28833,65.3583333 1020.10667,64.79 1012.46,64.79 C1002.33333,64.79 993.085,65.9266667 984.715,68.2 C976.345,70.4733333 969.163333,73.6766667 963.17,77.81 C957.176667,81.9433333 952.526667,87.11 949.22,93.31 C945.913333,99.51 944.26,106.433333 944.26,114.08 C944.26,128.133333 948.651667,138.931667 957.435,146.475 C966.218333,154.018333 979.6,159.546667 997.58,163.06 L997.58,163.06 L1006.88,164.92 C1012.66667,165.953333 1016.8,167.296667 1019.28,168.95 C1021.76,170.603333 1023,172.876667 1023,175.77 C1023,178.87 1021.295,181.35 1017.885,183.21 C1014.475,185.07 1009.56667,186 1003.16,186 C993.033333,186 984.095,184.708333 976.345,182.125 C968.595,179.541667 961.723333,176.596667 955.73,173.29 C952.836667,175.563333 950.356667,178.405 948.29,181.815 C946.223333,185.225 945.19,189.41 945.19,194.37 C945.19,199.743333 946.688333,204.393333 949.685,208.32 C952.681667,212.246667 956.815,215.501667 962.085,218.085 C967.355,220.668333 973.71,222.58 981.15,223.82 C988.59,225.06 996.65,225.68 1005.33,225.68 Z" id="ns" fill="#2C3E50"></path>
            </g>
            <g id="button-flat" transform="translate(598.000000, 134.000000)">
                <path d="M188,98 C188,152.12388 145.914742,196 94,196 C42.0852578,196 0,152.12388 0,98 C0,43.8761198 42.0852578,0 94,0 C145.914742,0 188,43.8761198 188,98 Z" id="circle-outer" fill-opacity="0.15" fill="#0A8A44"></path>
                <path d="M170.033402,97.454433 C170.033402,141.534707 135.75778,177.268866 93.476701,177.268866 C51.195622,177.268866 16.92,141.534707 16.92,97.454433 C16.92,53.3741591 51.195622,17.64 93.476701,17.64 C135.75778,17.64 170.033402,53.3741591 170.033402,97.454433 Z" id="circle-inner" fill="#85BF43"></path>
                <path d="M68.6584406,48.3851282 C64.5879548,50.4225766 62.04,54.4484553 62.04,58.8387729 C62.04,80.884135 62.04,114.263337 62.04,136.270337 C62.04,140.652129 64.579038,144.673746 68.6361488,146.715457 C72.6910305,148.752905 77.5974595,148.477977 81.3736934,145.995103 C98.8348742,134.516341 124.158379,117.871496 140.030153,107.441294 C143.371697,105.244004 145.371273,101.616664 145.380206,97.7421024 C145.386877,93.863278 143.402905,90.2295442 140.070278,88.0215981 C124.214109,77.5104104 98.8883745,60.7249046 81.4138187,49.1417121 C77.639814,46.6417885 72.7244682,46.3498111 68.6584406,48.3851282 Z" id="triangle-inner" fill="#FFFFFE"></path>
            </g>
        </g>
    </g>
</svg>