<?xml version="1.0" encoding="UTF-8"?>
<svg width="1280px" height="720px" viewBox="0 0 1280 720" version="1.1" xmlns="http://www.w3.org/2000/svg" xmlns:xlink="http://www.w3.org/1999/xlink">
    <title>todo-emojis-logo</title>
    <g id="todo-emojis-logo" stroke="none" stroke-width="1" fill="none" fill-rule="evenodd">
        <rect fill="none" x="0" y="0" width="1280" height="720"></rect>
        <path d="M412.475,410.2 C415.925,410.2 419.275,409.5875 422.525,408.3625 C425.775,407.1375 428.55,405.45 430.85,403.3 L430.85,403.3 L426.95,396.925 C426.4,396.075 425.775,395.65 425.075,395.65 C424.675,395.65 424.2125,395.8375 423.6875,396.2125 C423.1625,396.5875 422.525,397 421.775,397.45 C421.025,397.9 420.1375,398.3125 419.1125,398.6875 C418.0875,399.0625 416.875,399.25 415.475,399.25 C413.025,399.25 411.025,398.475 409.475,396.925 C407.925,395.375 407.15,393 407.15,389.8 L407.15,389.8 L407.15,344.2 L428.9,344.2 L428.9,334.525 L407.15,334.525 L407.15,308.35 L400.4,308.35 C399.55,308.35 398.85,308.5875 398.3,309.0625 C397.75,309.5375 397.425,310.15 397.325,310.9 L397.325,310.9 L394.25,334.375 L381.8,335.95 L381.8,341.275 C381.8,342.275 382.075,343.0125 382.625,343.4875 C383.175,343.9625 383.85,344.2 384.65,344.2 L384.65,344.2 L393.8,344.2 L393.8,390.7 C393.8,397 395.4125,401.825 398.6375,405.175 C401.8625,408.525 406.475,410.2 412.475,410.2 Z M476.15,410.05 C481.7,410.05 486.7125,409.1375 491.1875,407.3125 C495.6625,405.4875 499.4625,402.875 502.5875,399.475 C505.7125,396.075 508.1125,391.975 509.7875,387.175 C511.4625,382.375 512.3,376.975 512.3,370.975 C512.3,365.025 511.4625,359.6375 509.7875,354.8125 C508.1125,349.9875 505.7125,345.875 502.5875,342.475 C499.4625,339.075 495.6625,336.45 491.1875,334.6 C486.7125,332.75 481.7,331.825 476.15,331.825 C470.6,331.825 465.5875,332.75 461.1125,334.6 C456.6375,336.45 452.825,339.075 449.675,342.475 C446.525,345.875 444.1,349.9875 442.4,354.8125 C440.7,359.6375 439.85,365.025 439.85,370.975 C439.85,376.975 440.7,382.375 442.4,387.175 C444.1,391.975 446.525,396.075 449.675,399.475 C452.825,402.875 456.6375,405.4875 461.1125,407.3125 C465.5875,409.1375 470.6,410.05 476.15,410.05 Z M476.15,399.625 C472.35,399.625 469.05,398.975 466.25,397.675 C463.45,396.375 461.1125,394.5125 459.2375,392.0875 C457.3625,389.6625 455.9625,386.675 455.0375,383.125 C454.1125,379.575 453.65,375.55 453.65,371.05 C453.65,366.55 454.1125,362.5125 455.0375,358.9375 C455.9625,355.3625 457.3625,352.35 459.2375,349.9 C461.1125,347.45 463.45,345.575 466.25,344.275 C469.05,342.975 472.35,342.325 476.15,342.325 C483.65,342.325 489.25,344.85 492.95,349.9 C496.65,354.95 498.5,362 498.5,371.05 C498.5,380.05 496.65,387.0625 492.95,392.0875 C489.25,397.1125 483.65,399.625 476.15,399.625 Z M551.975,410.05 C557.375,410.05 562.1625,408.8625 566.3375,406.4875 C570.5125,404.1125 574.225,400.95 577.475,397 L577.475,397 L578.675,406.225 C579.175,408.075 580.375,409 582.275,409 L582.275,409 L590.225,409 L590.225,298.525 L576.875,298.525 L576.875,340.675 C574.275,337.825 571.325,335.6125 568.025,334.0375 C564.725,332.4625 560.75,331.675 556.1,331.675 C550.95,331.675 546.35,332.6875 542.3,334.7125 C538.25,336.7375 534.8125,339.525 531.9875,343.075 C529.1625,346.625 527,350.8125 525.5,355.6375 C524,360.4625 523.25,365.675 523.25,371.275 C523.25,377.575 523.925,383.15 525.275,388 C526.625,392.85 528.55,396.9 531.05,400.15 C533.55,403.4 536.575,405.8625 540.125,407.5375 C543.675,409.2125 547.625,410.05 551.975,410.05 Z M556.4,399.25 C553.3,399.25 550.55,398.725 548.15,397.675 C545.75,396.625 543.725,394.9625 542.075,392.6875 C540.425,390.4125 539.175,387.5125 538.325,383.9875 C537.475,380.4625 537.05,376.225 537.05,371.275 C537.05,361.925 538.95,354.725 542.75,349.675 C546.55,344.625 552,342.1 559.1,342.1 C562.65,342.1 565.8875,342.7625 568.8125,344.0875 C571.7375,345.4125 574.425,347.725 576.875,351.025 L576.875,351.025 L576.875,387.775 C574.125,391.425 571.1125,394.25 567.8375,396.25 C564.5625,398.25 560.75,399.25 556.4,399.25 Z M643.4,410.05 C648.95,410.05 653.9625,409.1375 658.4375,407.3125 C662.9125,405.4875 666.7125,402.875 669.8375,399.475 C672.9625,396.075 675.3625,391.975 677.0375,387.175 C678.7125,382.375 679.55,376.975 679.55,370.975 C679.55,365.025 678.7125,359.6375 677.0375,354.8125 C675.3625,349.9875 672.9625,345.875 669.8375,342.475 C666.7125,339.075 662.9125,336.45 658.4375,334.6 C653.9625,332.75 648.95,331.825 643.4,331.825 C637.85,331.825 632.8375,332.75 628.3625,334.6 C623.8875,336.45 620.075,339.075 616.925,342.475 C613.775,345.875 611.35,349.9875 609.65,354.8125 C607.95,359.6375 607.1,365.025 607.1,370.975 C607.1,376.975 607.95,382.375 609.65,387.175 C611.35,391.975 613.775,396.075 616.925,399.475 C620.075,402.875 623.8875,405.4875 628.3625,407.3125 C632.8375,409.1375 637.85,410.05 643.4,410.05 Z M643.4,399.625 C639.6,399.625 636.3,398.975 633.5,397.675 C630.7,396.375 628.3625,394.5125 626.4875,392.0875 C624.6125,389.6625 623.2125,386.675 622.2875,383.125 C621.3625,379.575 620.9,375.55 620.9,371.05 C620.9,366.55 621.3625,362.5125 622.2875,358.9375 C623.2125,355.3625 624.6125,352.35 626.4875,349.9 C628.3625,347.45 630.7,345.575 633.5,344.275 C636.3,342.975 639.6,342.325 643.4,342.325 C650.9,342.325 656.5,344.85 660.2,349.9 C663.9,354.95 665.75,362 665.75,371.05 C665.75,380.05 663.9,387.0625 660.2,392.0875 C656.5,397.1125 650.9,399.625 643.4,399.625 Z M755.825,410.05 C758.575,410.05 761.35,409.8125 764.15,409.3375 C766.95,408.8625 769.6625,408.15 772.2875,407.2 C774.9125,406.25 777.375,405.0375 779.675,403.5625 C781.975,402.0875 783.95,400.35 785.6,398.35 L785.6,398.35 L781.85,393.475 C781.25,392.625 780.4,392.2 779.3,392.2 C778.45,392.2 777.4375,392.5875 776.2625,393.3625 C775.0875,394.1375 773.625,394.975 771.875,395.875 C770.125,396.775 768.0375,397.6125 765.6125,398.3875 C763.1875,399.1625 760.3,399.55 756.95,399.55 C753.35,399.55 750.1,398.9625 747.2,397.7875 C744.3,396.6125 741.8,394.8375 739.7,392.4625 C737.6,390.0875 735.95,387.125 734.75,383.575 C733.55,380.025 732.9,375.85 732.8,371.05 L732.8,371.05 L783.35,371.05 C784.6,371.05 785.45,370.7 785.9,370 C786.35,369.3 786.575,367.9 786.575,365.8 C786.575,360.4 785.7875,355.5875 784.2125,351.3625 C782.6375,347.1375 780.45,343.5875 777.65,340.7125 C774.85,337.8375 771.525,335.6375 767.675,334.1125 C763.825,332.5875 759.625,331.825 755.075,331.825 C749.575,331.825 744.625,332.7875 740.225,334.7125 C735.825,336.6375 732.1,339.2875 729.05,342.6625 C726,346.0375 723.6625,350.025 722.0375,354.625 C720.4125,359.225 719.6,364.175 719.6,369.475 C719.6,376.025 720.5,381.825 722.3,386.875 C724.1,391.925 726.6125,396.1625 729.8375,399.5875 C733.0625,403.0125 736.8875,405.6125 741.3125,407.3875 C745.7375,409.1625 750.575,410.05 755.825,410.05 Z M774.575,362.725 L733.25,362.725 C734.15,356.125 736.45,350.9625 740.15,347.2375 C743.85,343.5125 748.925,341.65 755.375,341.65 C758.425,341.65 761.1375,342.1625 763.5125,343.1875 C765.8875,344.2125 767.9,345.6625 769.55,347.5375 C771.2,349.4125 772.45,351.6375 773.3,354.2125 C774.15,356.7875 774.575,359.625 774.575,362.725 L774.575,362.725 Z M816.95,409 L816.95,352.375 C819.3,349.325 821.8875,346.9125 824.7125,345.1375 C827.5375,343.3625 830.6,342.475 833.9,342.475 C838.6,342.475 842.175,343.975 844.625,346.975 C847.075,349.975 848.3,354.525 848.3,360.625 L848.3,360.625 L848.3,409 L861.65,409 L861.65,360.625 C861.65,357.625 862.0875,354.9875 862.9625,352.7125 C863.8375,350.4375 865.025,348.55 866.525,347.05 C868.025,345.55 869.7625,344.4125 871.7375,343.6375 C873.7125,342.8625 875.8,342.475 878,342.475 C882.95,342.475 886.725,344.0125 889.325,347.0875 C891.925,350.1625 893.225,354.675 893.225,360.625 L893.225,360.625 L893.225,409 L906.575,409 L906.575,360.625 C906.575,356.025 906,351.9375 904.85,348.3625 C903.7,344.7875 902.0375,341.775 899.8625,339.325 C897.6875,336.875 895.0375,335.0125 891.9125,333.7375 C888.7875,332.4625 885.225,331.825 881.225,331.825 C878.725,331.825 876.2625,332.125 873.8375,332.725 C871.4125,333.325 869.125,334.275 866.975,335.575 C864.825,336.875 862.8875,338.525 861.1625,340.525 C859.4375,342.525 858.05,344.9 857,347.65 C855.6,342.8 853.3125,338.95 850.1375,336.1 C846.9625,333.25 842.8,331.825 837.65,331.825 C833.05,331.825 829.0125,332.925 825.5375,335.125 C822.0625,337.325 818.925,340.15 816.125,343.6 L816.125,343.6 L815.15,335.8 C814.65,333.95 813.45,333.025 811.55,333.025 L811.55,333.025 L803.6,333.025 L803.6,409 L816.95,409 Z M957.5,410.05 C963.05,410.05 968.0625,409.1375 972.5375,407.3125 C977.0125,405.4875 980.8125,402.875 983.9375,399.475 C987.0625,396.075 989.4625,391.975 991.1375,387.175 C992.8125,382.375 993.65,376.975 993.65,370.975 C993.65,365.025 992.8125,359.6375 991.1375,354.8125 C989.4625,349.9875 987.0625,345.875 983.9375,342.475 C980.8125,339.075 977.0125,336.45 972.5375,334.6 C968.0625,332.75 963.05,331.825 957.5,331.825 C951.95,331.825 946.9375,332.75 942.4625,334.6 C937.9875,336.45 934.175,339.075 931.025,342.475 C927.875,345.875 925.45,349.9875 923.75,354.8125 C922.05,359.6375 921.2,365.025 921.2,370.975 C921.2,376.975 922.05,382.375 923.75,387.175 C925.45,391.975 927.875,396.075 931.025,399.475 C934.175,402.875 937.9875,405.4875 942.4625,407.3125 C946.9375,409.1375 951.95,410.05 957.5,410.05 Z M957.5,399.625 C953.7,399.625 950.4,398.975 947.6,397.675 C944.8,396.375 942.4625,394.5125 940.5875,392.0875 C938.7125,389.6625 937.3125,386.675 936.3875,383.125 C935.4625,379.575 935,375.55 935,371.05 C935,366.55 935.4625,362.5125 936.3875,358.9375 C937.3125,355.3625 938.7125,352.35 940.5875,349.9 C942.4625,347.45 944.8,345.575 947.6,344.275 C950.4,342.975 953.7,342.325 957.5,342.325 C965,342.325 970.6,344.85 974.3,349.9 C978,354.95 979.85,362 979.85,371.05 C979.85,380.05 978,387.0625 974.3,392.0875 C970.6,397.1125 965,399.625 957.5,399.625 Z M1018.4,318.625 C1019.7,318.625 1020.925,318.375 1022.075,317.875 C1023.225,317.375 1024.2375,316.6875 1025.1125,315.8125 C1025.9875,314.9375 1026.6875,313.9375 1027.2125,312.8125 C1027.7375,311.6875 1028,310.475 1028,309.175 C1028,307.875 1027.7375,306.6375 1027.2125,305.4625 C1026.6875,304.2875 1025.9875,303.2625 1025.1125,302.3875 C1024.2375,301.5125 1023.225,300.825 1022.075,300.325 C1020.925,299.825 1019.7,299.575 1018.4,299.575 C1017.1,299.575 1015.8875,299.825 1014.7625,300.325 C1013.6375,300.825 1012.6375,301.5125 1011.7625,302.3875 C1010.8875,303.2625 1010.2,304.2875 1009.7,305.4625 C1009.2,306.6375 1008.95,307.875 1008.95,309.175 C1008.95,310.475 1009.2,311.6875 1009.7,312.8125 C1010.2,313.9375 1010.8875,314.9375 1011.7625,315.8125 C1012.6375,316.6875 1013.6375,317.375 1014.7625,317.875 C1015.8875,318.375 1017.1,318.625 1018.4,318.625 Z M1003.55,436.3 C1007.35,436.3 1010.6125,435.7375 1013.3375,434.6125 C1016.0625,433.4875 1018.2875,431.95 1020.0125,430 C1021.7375,428.05 1023,425.7625 1023.8,423.1375 C1024.6,420.5125 1025,417.675 1025,414.625 L1025,414.625 L1025,333.025 L1011.65,333.025 L1011.65,414.625 C1011.65,418.675 1010.825,421.6125 1009.175,423.4375 C1007.525,425.2625 1004.75,426.175 1000.85,426.175 C1000.2,426.175 999.65,426.1625 999.2,426.1375 C998.75,426.1125 998.325,426.1 997.925,426.1 C997.175,426.1 996.625,426.1875 996.275,426.3625 C995.925,426.5375 995.7,426.95 995.6,427.6 L995.6,427.6 L995,434.8 C996.35,435.3 997.7,435.675 999.05,435.925 C1000.4,436.175 1001.9,436.3 1003.55,436.3 Z M1056.5,318.625 C1057.8,318.625 1059.025,318.375 1060.175,317.875 C1061.325,317.375 1062.3375,316.6875 1063.2125,315.8125 C1064.0875,314.9375 1064.7875,313.9375 1065.3125,312.8125 C1065.8375,311.6875 1066.1,310.475 1066.1,309.175 C1066.1,307.875 1065.8375,306.6375 1065.3125,305.4625 C1064.7875,304.2875 1064.0875,303.2625 1063.2125,302.3875 C1062.3375,301.5125 1061.325,300.825 1060.175,300.325 C1059.025,299.825 1057.8,299.575 1056.5,299.575 C1055.2,299.575 1053.9875,299.825 1052.8625,300.325 C1051.7375,300.825 1050.7375,301.5125 1049.8625,302.3875 C1048.9875,303.2625 1048.3,304.2875 1047.8,305.4625 C1047.3,306.6375 1047.05,307.875 1047.05,309.175 C1047.05,310.475 1047.3,311.6875 1047.8,312.8125 C1048.3,313.9375 1048.9875,314.9375 1049.8625,315.8125 C1050.7375,316.6875 1051.7375,317.375 1052.8625,317.875 C1053.9875,318.375 1055.2,318.625 1056.5,318.625 Z M1063.1,409 L1063.1,333.025 L1049.75,333.025 L1049.75,409 L1063.1,409 Z M1105.7,410.2 C1110.35,410.2 1114.45,409.575 1118,408.325 C1121.55,407.075 1124.55,405.3625 1127,403.1875 C1129.45,401.0125 1131.3,398.4375 1132.55,395.4625 C1133.8,392.4875 1134.425,389.25 1134.425,385.75 C1134.425,382.7 1133.8625,380.0875 1132.7375,377.9125 C1131.6125,375.7375 1130.125,373.9 1128.275,372.4 C1126.425,370.9 1124.325,369.65 1121.975,368.65 C1119.625,367.65 1117.2125,366.7375 1114.7375,365.9125 C1112.2625,365.0875 1109.85,364.3125 1107.5,363.5875 C1105.15,362.8625 1103.05,362.025 1101.2,361.075 C1099.35,360.125 1097.8625,359 1096.7375,357.7 C1095.6125,356.4 1095.05,354.775 1095.05,352.825 C1095.05,351.275 1095.3875,349.8375 1096.0625,348.5125 C1096.7375,347.1875 1097.7125,346.025 1098.9875,345.025 C1100.2625,344.025 1101.8,343.2375 1103.6,342.6625 C1105.4,342.0875 1107.425,341.8 1109.675,341.8 C1112.275,341.8 1114.525,342.0875 1116.425,342.6625 C1118.325,343.2375 1119.9625,343.8625 1121.3375,344.5375 C1122.7125,345.2125 1123.875,345.825 1124.825,346.375 C1125.775,346.925 1126.625,347.2 1127.375,347.2 C1128.625,347.2 1129.55,346.65 1130.15,345.55 L1130.15,345.55 L1133.15,340.675 C1130.25,337.925 1126.8125,335.7625 1122.8375,334.1875 C1118.8625,332.6125 1114.375,331.825 1109.375,331.825 C1105.075,331.825 1101.25,332.425 1097.9,333.625 C1094.55,334.825 1091.725,336.4375 1089.425,338.4625 C1087.125,340.4875 1085.375,342.8375 1084.175,345.5125 C1082.975,348.1875 1082.375,350.975 1082.375,353.875 C1082.375,357.125 1082.9375,359.8875 1084.0625,362.1625 C1085.1875,364.4375 1086.675,366.35 1088.525,367.9 C1090.375,369.45 1092.4875,370.7375 1094.8625,371.7625 C1097.2375,372.7875 1099.6625,373.7 1102.1375,374.5 C1104.6125,375.3 1107.0375,376.0625 1109.4125,376.7875 C1111.7875,377.5125 1113.9,378.3625 1115.75,379.3375 C1117.6,380.3125 1119.0875,381.4875 1120.2125,382.8625 C1121.3375,384.2375 1121.9,385.975 1121.9,388.075 C1121.9,389.775 1121.5875,391.375 1120.9625,392.875 C1120.3375,394.375 1119.375,395.7 1118.075,396.85 C1116.775,398 1115.15,398.9125 1113.2,399.5875 C1111.25,400.2625 1108.975,400.6 1106.375,400.6 C1103.325,400.6 1100.7875,400.25 1098.7625,399.55 C1096.7375,398.85 1095.0125,398.075 1093.5875,397.225 C1092.1625,396.375 1090.95,395.6 1089.95,394.9 C1088.95,394.2 1088,393.85 1087.1,393.85 C1086.2,393.85 1085.475,394.025 1084.925,394.375 C1084.375,394.725 1083.9,395.225 1083.5,395.875 L1083.5,395.875 L1080.35,400.975 C1083.35,403.675 1087,405.8875 1091.3,407.6125 C1095.6,409.3375 1100.4,410.2 1105.7,410.2 Z" id="todoemojis" fill="#22292F" fill-rule="nonzero"></path>
        <g id="todo_done" transform="translate(138.500000, 241.000000)">
            <path d="M110,50 L109.999,70 L40,70 L40,180 L150,180 L150,140 L170,140 L170,200 L20,200 L20,50 L110,50 Z" id="checkbox" fill="#E5EBEE" fill-rule="nonzero"></path>
            <g id="tick" transform="translate(125.000000, 85.000000) rotate(-315.000000) translate(-125.000000, -85.000000) translate(90.000000, 10.000000)" fill="#20B616">
                <path d="M70,150 L0,150 L0,120 L40,120 L40,0 L70,0 L70,150 Z" id="tick-short-2"></path>
            </g>
        </g>
    </g>
</svg>
