<svg xmlns="http://www.w3.org/2000/svg" viewBox="0 0 1280 720">
    <g fill="none" fill-rule="evenodd">
        <path d="M0 0h1280v720H0z"/>
        <path d="M412.475 410.2c3.45 0 6.8-.613 10.05-1.837 3.25-1.226 6.025-2.913 8.325-5.063l-3.9-6.375c-.55-.85-1.175-1.275-1.875-1.275-.4 0-.863.188-1.387.563a29.03 29.03 0 01-1.913 1.237c-.75.45-1.637.863-2.662 1.238-1.026.375-2.238.562-3.638.562-2.45 0-4.45-.775-6-2.325-1.55-1.55-2.325-3.925-2.325-7.125v-45.6h21.75v-9.675h-21.75V308.35h-6.75c-.85 0-1.55.237-2.1.712-.55.476-.875 1.088-.975 1.838l-3.075 23.475-12.45 1.575v5.325c0 1 .275 1.738.825 2.213.55.474 1.225.712 2.025.712h9.15v46.5c0 6.3 1.613 11.125 4.837 14.475 3.226 3.35 7.838 5.025 13.838 5.025zm63.675-.15c5.55 0 10.563-.913 15.038-2.738s8.274-4.437 11.4-7.837c3.124-3.4 5.524-7.5 7.2-12.3 1.674-4.8 2.512-10.2 2.512-16.2 0-5.95-.837-11.338-2.512-16.163-1.675-4.825-4.076-8.937-7.2-12.337-3.126-3.4-6.925-6.025-11.4-7.875-4.476-1.85-9.488-2.775-15.038-2.775-5.55 0-10.563.925-15.037 2.775-4.476 1.85-8.288 4.475-11.438 7.875-3.15 3.4-5.575 7.512-7.275 12.337-1.7 4.825-2.55 10.213-2.55 16.163 0 6 .85 11.4 2.55 16.2 1.7 4.8 4.125 8.9 7.275 12.3 3.15 3.4 6.962 6.012 11.438 7.837 4.474 1.825 9.487 2.738 15.037 2.738zm0-10.425c-3.8 0-7.1-.65-9.9-1.95a18.675 18.675 0 01-7.012-5.588c-1.875-2.424-3.276-5.412-4.2-8.962-.925-3.55-1.388-7.575-1.388-12.075 0-4.5.463-8.538 1.388-12.113.924-3.575 2.325-6.587 4.2-9.037a18.53 18.53 0 017.012-5.625c2.8-1.3 6.1-1.95 9.9-1.95 7.5 0 13.1 2.525 16.8 7.575 3.7 5.05 5.55 12.1 5.55 21.15 0 9-1.85 16.012-5.55 21.037-3.7 5.026-9.3 7.538-16.8 7.538zm75.825 10.425c5.4 0 10.188-1.188 14.362-3.563 4.176-2.375 7.888-5.537 11.138-9.487l1.2 9.225c.5 1.85 1.7 2.775 3.6 2.775h7.95V298.525h-13.35v42.15c-2.6-2.85-5.55-5.063-8.85-6.637-3.3-1.576-7.275-2.363-11.925-2.363-5.15 0-9.75 1.012-13.8 3.037a30.407 30.407 0 00-10.313 8.363c-2.824 3.55-4.987 7.738-6.487 12.563s-2.25 10.037-2.25 15.637c0 6.3.675 11.875 2.025 16.725 1.35 4.85 3.275 8.9 5.775 12.15 2.5 3.25 5.525 5.713 9.075 7.388 3.55 1.674 7.5 2.512 11.85 2.512zm4.425-10.8c-3.1 0-5.85-.525-8.25-1.575-2.4-1.05-4.425-2.713-6.075-4.988-1.65-2.274-2.9-5.175-3.75-8.7-.85-3.525-1.275-7.762-1.275-12.712 0-9.35 1.9-16.55 5.7-21.6 3.8-5.05 9.25-7.575 16.35-7.575 3.55 0 6.788.662 9.712 1.987 2.925 1.326 5.613 3.638 8.063 6.938v36.75c-2.75 3.65-5.763 6.475-9.038 8.475-3.274 2-7.087 3-11.437 3zm87 10.8c5.55 0 10.563-.913 15.038-2.738s8.274-4.437 11.4-7.837c3.125-3.4 5.524-7.5 7.2-12.3 1.674-4.8 2.512-10.2 2.512-16.2 0-5.95-.837-11.338-2.512-16.163-1.676-4.825-4.076-8.937-7.2-12.337-3.125-3.4-6.925-6.025-11.4-7.875-4.476-1.85-9.488-2.775-15.038-2.775-5.55 0-10.563.925-15.038 2.775-4.474 1.85-8.287 4.475-11.437 7.875-3.15 3.4-5.575 7.512-7.275 12.337-1.7 4.825-2.55 10.213-2.55 16.163 0 6 .85 11.4 2.55 16.2 1.7 4.8 4.125 8.9 7.275 12.3 3.15 3.4 6.963 6.012 11.438 7.837 4.474 1.825 9.487 2.738 15.037 2.738zm0-10.425c-3.8 0-7.1-.65-9.9-1.95a18.675 18.675 0 01-7.013-5.588c-1.875-2.424-3.274-5.412-4.2-8.962-.925-3.55-1.387-7.575-1.387-12.075 0-4.5.462-8.538 1.388-12.113.924-3.575 2.324-6.587 4.2-9.037a18.53 18.53 0 017.012-5.625c2.8-1.3 6.1-1.95 9.9-1.95 7.5 0 13.1 2.525 16.8 7.575 3.7 5.05 5.55 12.1 5.55 21.15 0 9-1.85 16.012-5.55 21.037-3.7 5.026-9.3 7.538-16.8 7.538zm112.425 10.425c2.75 0 5.525-.238 8.325-.713a46.923 46.923 0 008.138-2.137 36.892 36.892 0 007.387-3.637c2.3-1.476 4.275-3.213 5.925-5.213l-3.75-4.875c-.6-.85-1.45-1.275-2.55-1.275-.85 0-1.862.387-3.037 1.163-1.176.774-2.638 1.612-4.388 2.512-1.75.9-3.837 1.738-6.263 2.512-2.424.776-5.312 1.163-8.662 1.163-3.6 0-6.85-.588-9.75-1.762-2.9-1.175-5.4-2.95-7.5-5.326-2.1-2.375-3.75-5.337-4.95-8.887-1.2-3.55-1.85-7.725-1.95-12.525h50.55c1.25 0 2.1-.35 2.55-1.05.45-.7.675-2.1.675-4.2 0-5.4-.788-10.213-2.363-14.438-1.574-4.225-3.762-7.775-6.562-10.65-2.8-2.875-6.125-5.075-9.975-6.6-3.85-1.525-8.05-2.287-12.6-2.287-5.5 0-10.45.963-14.85 2.887-4.4 1.925-8.125 4.576-11.175 7.95-3.05 3.376-5.387 7.363-7.012 11.963-1.625 4.6-2.438 9.55-2.438 14.85 0 6.55.9 12.35 2.7 17.4 1.8 5.05 4.313 9.288 7.538 12.712 3.225 3.425 7.05 6.026 11.475 7.8 4.424 1.776 9.262 2.663 14.512 2.663zm18.75-47.325H733.25c.9-6.6 3.2-11.763 6.9-15.488 3.7-3.725 8.775-5.587 15.225-5.587 3.05 0 5.763.513 8.138 1.538 2.375 1.024 4.387 2.475 6.037 4.35 1.65 1.875 2.9 4.1 3.75 6.674.85 2.576 1.275 5.413 1.275 8.513zM816.95 409v-56.625c2.35-3.05 4.938-5.462 7.762-7.238 2.826-1.774 5.888-2.662 9.188-2.662 4.7 0 8.275 1.5 10.725 4.5 2.45 3 3.675 7.55 3.675 13.65V409h13.35v-48.375c0-3 .438-5.637 1.313-7.913.875-2.274 2.062-4.162 3.562-5.662a15.09 15.09 0 015.212-3.413c1.976-.774 4.063-1.162 6.263-1.162 4.95 0 8.725 1.537 11.325 4.612 2.6 3.076 3.9 7.588 3.9 13.538V409h13.35v-48.375c0-4.6-.575-8.688-1.725-12.262-1.15-3.575-2.813-6.588-4.988-9.038-2.174-2.45-4.824-4.313-7.95-5.587-3.125-1.276-6.687-1.913-10.687-1.913-2.5 0-4.962.3-7.388.9-2.424.6-4.712 1.55-6.862 2.85-2.15 1.3-4.087 2.95-5.813 4.95-1.725 2-3.112 4.375-4.162 7.125-1.4-4.85-3.688-8.7-6.862-11.55-3.176-2.85-7.338-4.275-12.488-4.275-4.6 0-8.637 1.1-12.112 3.3-3.476 2.2-6.613 5.025-9.413 8.475l-.975-7.8c-.5-1.85-1.7-2.775-3.6-2.775h-7.95V409h13.35zm140.55 1.05c5.55 0 10.563-.913 15.038-2.738s8.274-4.437 11.4-7.837c3.125-3.4 5.524-7.5 7.2-12.3 1.674-4.8 2.512-10.2 2.512-16.2 0-5.95-.837-11.338-2.512-16.163-1.676-4.825-4.076-8.937-7.2-12.337-3.125-3.4-6.925-6.025-11.4-7.875-4.476-1.85-9.488-2.775-15.038-2.775-5.55 0-10.563.925-15.038 2.775-4.475 1.85-8.287 4.475-11.437 7.875-3.15 3.4-5.575 7.512-7.275 12.337-1.7 4.825-2.55 10.213-2.55 16.163 0 6 .85 11.4 2.55 16.2 1.7 4.8 4.125 8.9 7.275 12.3 3.15 3.4 6.962 6.012 11.438 7.837 4.475 1.825 9.487 2.738 15.037 2.738zm0-10.425c-3.8 0-7.1-.65-9.9-1.95a18.675 18.675 0 01-7.013-5.588c-1.875-2.424-3.274-5.412-4.2-8.962-.924-3.55-1.387-7.575-1.387-12.075 0-4.5.462-8.538 1.388-12.113.924-3.575 2.324-6.587 4.2-9.037a18.53 18.53 0 017.012-5.625c2.8-1.3 6.1-1.95 9.9-1.95 7.5 0 13.1 2.525 16.8 7.575 3.7 5.05 5.55 12.1 5.55 21.15 0 9-1.85 16.012-5.55 21.037-3.7 5.026-9.3 7.538-16.8 7.538zm60.9-81c1.3 0 2.525-.25 3.675-.75a9.756 9.756 0 003.037-2.063 10.474 10.474 0 002.1-3 8.495 8.495 0 00.788-3.637 9 9 0 00-.787-3.713 10.172 10.172 0 00-2.1-3.075 9.756 9.756 0 00-3.038-2.062 9.117 9.117 0 00-3.675-.75c-1.3 0-2.512.25-3.637.75a9.888 9.888 0 00-3 2.063 9.639 9.639 0 00-2.063 3.075 9.384 9.384 0 00-.75 3.712c0 1.3.25 2.512.75 3.637a9.888 9.888 0 002.063 3 9.888 9.888 0 003 2.063c1.125.5 2.337.75 3.637.75zM1003.55 436.3c3.8 0 7.063-.563 9.788-1.688 2.725-1.125 4.95-2.662 6.675-4.612 1.724-1.95 2.987-4.238 3.787-6.863.8-2.625 1.2-5.462 1.2-8.512v-81.6h-13.35v81.6c0 4.05-.825 6.988-2.475 8.813-1.65 1.825-4.425 2.737-8.325 2.737-.65 0-1.2-.012-1.65-.038-.45-.024-.875-.037-1.275-.037-.75 0-1.3.087-1.65.262-.35.175-.575.588-.675 1.238l-.6 7.2c1.35.5 2.7.875 4.05 1.125 1.35.25 2.85.375 4.5.375zm52.95-117.675c1.3 0 2.525-.25 3.675-.75a9.756 9.756 0 003.038-2.063 10.474 10.474 0 002.1-3 8.495 8.495 0 00.787-3.637 9 9 0 00-.787-3.713 10.172 10.172 0 00-2.1-3.075 9.756 9.756 0 00-3.038-2.062 9.117 9.117 0 00-3.675-.75c-1.3 0-2.513.25-3.638.75a9.888 9.888 0 00-3 2.063 9.639 9.639 0 00-2.062 3.075 9.384 9.384 0 00-.75 3.712c0 1.3.25 2.512.75 3.637a9.888 9.888 0 002.063 3 9.888 9.888 0 003 2.063c1.124.5 2.337.75 3.637.75zm6.6 90.375v-75.975h-13.35V409h13.35zm42.6 1.2c4.65 0 8.75-.625 12.3-1.875 3.55-1.25 6.55-2.962 9-5.137 2.45-2.175 4.3-4.75 5.55-7.726 1.25-2.974 1.875-6.212 1.875-9.712 0-3.05-.563-5.663-1.688-7.837-1.125-2.175-2.612-4.013-4.462-5.513-1.85-1.5-3.95-2.75-6.3-3.75-2.35-1-4.762-1.912-7.237-2.737a338.01 338.01 0 00-7.238-2.326c-2.35-.724-4.45-1.562-6.3-2.512-1.85-.95-3.338-2.075-4.463-3.375-1.125-1.3-1.687-2.925-1.687-4.875 0-1.55.338-2.988 1.013-4.313.674-1.325 1.65-2.487 2.924-3.487 1.275-1 2.813-1.787 4.613-2.362 1.8-.576 3.825-.863 6.075-.863 2.6 0 4.85.287 6.75.863 1.9.575 3.538 1.2 4.913 1.875a58.796 58.796 0 013.487 1.837c.95.55 1.8.825 2.55.825 1.25 0 2.175-.55 2.775-1.65l3-4.875c-2.9-2.75-6.338-4.913-10.313-6.488-3.975-1.575-8.462-2.362-13.462-2.362-4.3 0-8.125.6-11.475 1.8-3.35 1.2-6.175 2.813-8.475 4.837-2.3 2.026-4.05 4.375-5.25 7.05a20.213 20.213 0 00-1.8 8.363c0 3.25.563 6.012 1.688 8.288 1.124 2.274 2.612 4.187 4.462 5.737 1.85 1.55 3.962 2.838 6.337 3.863a81.98 81.98 0 007.275 2.737c2.476.8 4.9 1.563 7.275 2.288 2.375.724 4.488 1.575 6.338 2.55 1.85.974 3.338 2.15 4.463 3.524 1.125 1.375 1.687 3.113 1.687 5.213 0 1.7-.313 3.3-.938 4.8-.624 1.5-1.587 2.825-2.887 3.975s-2.925 2.063-4.875 2.737c-1.95.675-4.225 1.013-6.825 1.013-3.05 0-5.588-.35-7.612-1.05-2.025-.7-3.75-1.475-5.175-2.325a60.275 60.275 0 01-3.638-2.325c-1-.7-1.95-1.05-2.85-1.05-.9 0-1.625.175-2.175.525-.55.35-1.025.85-1.425 1.5l-3.15 5.1c3 2.7 6.65 4.912 10.95 6.637 4.3 1.725 9.1 2.588 14.4 2.588z"
              fill="#22292F" fill-rule="nonzero"/>
        <path d="M248.5 291l-.001 20H178.5v110h110v-40h20v60h-150V291h90z" fill="#E5EBEE" fill-rule="nonzero"/>
        <path d="M235.216 403.782l-49.498-49.498 21.213-21.213 28.285 28.284 84.853-84.852 21.213 21.213-106.066 106.066z"
              fill="#20B616"/>
    </g>
</svg>
