<?xml version="1.0" encoding="UTF-8"?>
<svg width="640px" height="360px" viewBox="0 0 640 360" version="1.1" xmlns="http://www.w3.org/2000/svg" xmlns:xlink="http://www.w3.org/1999/xlink">
    <title>sentiance-logo-red</title>
    <g id="sentiance-logo-red" stroke="none" stroke-width="1" fill="none" fill-rule="evenodd">
        <rect fill="#FF143E" x="0" y="0" width="640" height="360"></rect>
        <g id="sentiance-logo" transform="translate(82.500000, 134.500000)" fill="#FFFFFF" fill-rule="nonzero">
            <rect id="Rectangle" x="47.785" y="85.595" width="57.665" height="4.94"></rect>
            <rect id="Rectangle" x="418.285" y="85.595" width="56.715" height="4.94"></rect>
            <path d="M14.725,57.475 C14.725,62.51 17.86,64.41 22.325,64.41 C25.935,64.41 28.5,63.175 28.5,59.945 C28.5,56.335 24.795,55.955 15.865,52.915 C8.075,50.255 1.235,48.165 1.235,39.045 C1.235,29.26 9.405,24.605 22.135,24.605 C35.91,24.605 42.56,31.54 42.56,40.66 L27.74,40.66 C27.74,36.765 25.65,34.485 21.565,34.485 C18.525,34.485 15.96,35.815 15.96,38.665 C15.96,42.085 19.95,42.845 28.025,45.315 C36.385,47.88 43.225,50.065 43.225,59.28 C43.225,70.49 33.63,74.48 21.85,74.48 C8.36,74.575 0,68.4 0,57.38 L14.725,57.475 Z" id="Path"></path>
            <path d="M100.035,58.33 C98.42,67.26 90.25,74.575 76.665,74.575 C60.04,74.575 51.11,63.555 51.11,49.59 C51.11,35.72 59.85,24.605 76.285,24.605 C91.105,24.605 100.605,34.58 100.605,46.265 C100.605,48.26 100.605,50.35 100.13,53.2 L66.31,53.2 C66.31,58.9 68.97,63.745 76.665,63.745 C81.89,63.745 84.36,61.37 85.405,58.33 L100.035,58.33 L100.035,58.33 Z M66.31,44.935 L85.975,44.935 C85.975,38.855 81.985,35.245 76.285,35.245 C70.49,35.245 66.31,38.57 66.31,44.935 Z" id="Shape"></path>
            <path d="M111.815,73.245 L111.815,25.935 L126.825,25.935 L126.825,32.775 C129.485,27.645 134.995,24.7 142.31,24.7 C148.39,24.7 153.045,26.79 155.61,30.115 C158.555,33.725 159.315,38.38 159.315,45.125 L159.315,73.245 L144.4,73.245 L144.4,49.02 C144.4,42.275 142.31,37.525 136.04,37.525 C129.96,37.525 126.92,42.275 126.92,49.495 L126.92,73.245 L111.815,73.245 Z" id="Path"></path>
            <path d="M167.675,25.935 L175.18,25.935 L175.18,11.875 L190,11.875 L190,25.935 L200.83,25.935 L200.83,37.145 L190,37.145 L190,54.055 C190,61.085 192.755,62.13 196.46,62.13 C198.36,62.13 200.45,62.035 201.875,61.845 L201.875,73.34 C199.595,73.72 196.27,74.1 191.9,74.1 C184.87,74.1 175.085,73.245 175.085,57.38 L175.085,37.145 L167.58,37.145 L167.675,25.935 L167.675,25.935 Z" id="Path"></path>
            <path d="M220.115,0.665 C225.625,0.665 229.805,4.94 229.805,10.165 C229.805,15.39 225.625,19.665 220.115,19.665 C214.7,19.665 210.52,15.295 210.52,10.165 C210.425,4.94 214.7,0.665 220.115,0.665 Z M212.61,25.935 L227.62,25.935 L227.62,73.245 L212.61,73.245 L212.61,25.935 Z" id="Shape"></path>
            <path d="M277.78,25.935 L292.79,25.935 L292.79,73.245 L277.78,73.245 L277.78,66.595 C275.5,70.965 269.42,74.48 263.34,74.48 C249.66,74.48 240.255,63.745 240.255,49.59 C240.255,35.435 249.66,24.7 263.34,24.7 C269.42,24.7 275.5,28.31 277.78,32.68 L277.78,25.935 Z M277.78,49.59 C277.78,43.13 273.315,37.525 266.475,37.525 C259.635,37.525 255.17,43.13 255.17,49.59 C255.17,56.145 259.635,61.655 266.475,61.655 C273.315,61.655 277.78,56.145 277.78,49.59 Z" id="Shape"></path>
            <path d="M306.375,73.245 L306.375,25.935 L321.385,25.935 L321.385,32.775 C324.045,27.645 329.555,24.7 336.87,24.7 C342.95,24.7 347.605,26.79 350.17,30.115 C353.115,33.725 353.875,38.38 353.875,45.125 L353.875,73.245 L338.865,73.245 L338.865,49.02 C338.865,42.275 336.775,37.525 330.505,37.525 C324.425,37.525 321.385,42.275 321.385,49.495 L321.385,73.245 L306.375,73.245 Z" id="Path"></path>
            <path d="M398.62,44.46 C398.05,40.28 395.39,37.43 389.31,37.43 C382.185,37.43 378.765,43.13 378.765,49.59 C378.765,56.145 381.995,61.75 389.88,61.75 C395.105,61.75 397.48,59.47 398.715,55.48 L413.725,55.48 C412.3,66.215 404.225,74.575 389.215,74.575 C372.59,74.575 363.755,62.795 363.755,49.59 C363.755,36.575 372.59,24.605 389.215,24.605 C405.27,24.605 412.68,34.2 413.63,44.46 C413.63,44.46 398.62,44.46 398.62,44.46 Z" id="Path"></path>
            <path d="M470.63,58.33 C469.015,67.26 460.845,74.575 447.26,74.575 C430.635,74.575 421.705,63.555 421.705,49.59 C421.705,35.72 430.445,24.605 446.88,24.605 C461.7,24.7 471.2,34.675 471.2,46.265 C471.2,48.26 471.2,50.35 470.725,53.2 L436.81,53.2 C436.81,58.9 439.47,63.745 447.165,63.745 C452.39,63.745 454.86,61.37 455.905,58.33 L470.63,58.33 L470.63,58.33 Z M436.81,44.935 L456.475,44.935 C456.475,38.855 452.485,35.245 446.785,35.245 C441.085,35.245 436.81,38.57 436.81,44.935 Z" id="Shape"></path>
        </g>
    </g>
</svg>