<?xml version="1.0" encoding="UTF-8"?>
<svg width="640px" height="360px" viewBox="0 0 640 360" version="1.1" xmlns="http://www.w3.org/2000/svg" xmlns:xlink="http://www.w3.org/1999/xlink">
    <title>fairsquare-logo-old</title>
    <g id="fairsquare-logo-old" stroke="none" stroke-width="1" fill="none" fill-rule="evenodd">
        <rect fill="#FFFFFF" x="0" y="0" width="640" height="360"></rect>
        <g id="fairsquare-logo-full" transform="translate(67.608696, 131.000000)" fill-rule="nonzero">
            <path d="M4.63026087,30.3395217 L24.7245217,30.3395217 L24.7245217,27.0160435 L0.991478261,27.0160435 L0.991478261,61.7847391 L4.61321739,61.7847391 L4.61321739,47.0591739 L22.56,47.0591739 L22.56,43.6760435 L4.63026087,43.6760435 L4.63026087,30.3395217 Z M55.7095652,51.660913 L60.2175652,61.7847391 L64.0949565,61.7847391 L48.2871304,26.7603913 L44.8784348,26.7603913 L29.0706087,61.7847391 L32.948,61.7847391 L37.4474783,51.660913 L55.7095652,51.660913 Z M54.2182609,48.3374348 L38.9387826,48.3374348 L46.5572174,31.1064783 L54.2182609,48.3374348 Z M79.2806957,27.0160435 L75.6589565,27.0160435 L75.6589565,61.7847391 L79.2806957,61.7847391 L79.2806957,27.0160435 Z M106.430957,49.1555217 L117.313217,61.7847391 L121.872348,61.7847391 L110.725913,48.8487391 C116.554783,47.7238696 120.338435,43.7868261 120.338435,38.1113478 C120.338435,31.2598696 114.918609,27.0160435 107.095652,27.0160435 L94.1596522,27.0160435 L94.1596522,61.7847391 L97.7813913,61.7847391 L97.7813913,49.1555217 L106.430957,49.1555217 Z M97.789913,45.8320435 L97.789913,30.3395217 L106.993391,30.3395217 C112.66887,30.3395217 116.708174,33.2539565 116.708174,38.1113478 C116.708174,42.9176087 112.660348,45.8320435 106.993391,45.8320435 L97.789913,45.8320435 Z M146.057043,26.249087 C137.876174,26.249087 132.251826,30.6463043 132.251826,37.6000435 C132.251826,43.1221304 135.473043,46.3348261 142.324522,47.8261304 L148.05113,49.1043913 C151.016696,49.6668261 151.732522,50.8939565 151.732522,52.0699565 C151.732522,53.9617826 150.045217,55.1377826 146.832522,55.1377826 C142.742087,55.1377826 140.083304,53.297087 139.52087,50.2377826 L130.871304,50.2377826 C131.689391,58.8276957 138.753913,62.509087 146.568348,62.509087 C155.260522,62.509087 160.98713,58.163 160.98713,51.2177826 C160.98713,45.2355217 156.845565,42.679 150.505391,41.2984783 L145.648,40.1736087 C143.040348,39.6111739 141.659826,38.793087 141.659826,36.9012609 C141.659826,34.6515217 143.653913,33.4243913 146.619478,33.4243913 C147.949511,33.2554659 149.291906,33.6249792 150.348133,34.4507567 C151.40436,35.2765342 152.08685,36.4901124 152.243826,37.8216087 L160.936,37.8216087 C160.066783,28.4476957 151.681391,26.249087 146.057043,26.249087 Z M206.953391,44.4003913 C206.986776,39.5265015 205.0413,34.8476138 201.562087,31.4342585 C198.082874,28.0209033 193.367666,26.1651862 188.495304,26.2916957 C183.630662,26.1756594 178.92674,28.036441 175.457951,31.4490223 C171.989163,34.8616036 170.051791,39.5345031 170.088348,44.4003913 C170.051791,49.2662795 171.989163,53.9391791 175.457951,57.3517603 C178.92674,60.7643416 183.630662,62.6251232 188.495304,62.509087 C190.205966,62.5253638 191.910275,62.2986964 193.557217,61.8358696 L200.400174,69.8633478 L206.535826,64.2901304 L201.073391,57.8476957 C204.845408,54.3974404 206.981497,49.5122968 206.953391,44.4003913 L206.953391,44.4003913 Z M178.831652,44.4003913 C178.744273,41.7739145 179.720956,39.2233986 181.54028,37.3270663 C183.359604,35.430734 185.867463,34.349214 188.495304,34.3276957 C191.123146,34.349214 193.631005,35.430734 195.450329,37.3270663 C197.269653,39.2233986 198.246336,41.7739145 198.158957,44.4003913 C198.246336,47.0268681 197.269653,49.577384 195.450329,51.4737163 C193.631005,53.3700486 191.123146,54.4515686 188.495304,54.473087 C185.867463,54.4515686 183.359604,53.3700486 181.54028,51.4737163 C179.720956,49.577384 178.744273,47.0268681 178.831652,44.4003913 L178.831652,44.4003913 Z M248.829217,27.0160435 L240.137043,27.0160435 L240.137043,45.7297826 C240.137043,51.0558696 237.171478,54.4645652 232.62087,54.4645652 C228.070261,54.4645652 225.164348,51.0388261 225.164348,45.7297826 L225.164348,27.0160435 L216.472174,27.0160435 L216.472174,45.5763913 C216.472174,56.364913 222.710087,62.5516957 232.629391,62.5516957 C242.599826,62.5516957 248.837739,56.3734348 248.837739,45.5763913 L248.829217,27.0160435 Z M281.092522,55.8024783 L283.444522,61.7847391 L292.605391,61.7847391 L277.879826,26.8115217 L269.639304,26.8115217 L254.862609,61.7847391 L264.066087,61.7847391 L266.366957,55.8024783 L281.092522,55.8024783 Z M278.229217,48.4396957 L269.230261,48.4396957 L273.729739,36.8842174 L278.229217,48.4396957 Z M315.443652,51.7120435 L322.917217,61.7847391 L333.356348,61.7847391 L324.408522,50.0247391 C328.549833,48.0451223 331.149671,43.8253865 331.055478,39.2362174 C331.055478,31.7200435 325.277739,27.0160435 316.687826,27.0160435 L301.450957,27.0160435 L301.450957,61.7847391 L310.092,61.7847391 L310.092,51.7120435 L315.443652,51.7120435 Z M310.074957,43.9402174 L310.074957,34.6344783 L316.466261,34.6344783 C319.789739,34.6344783 322.448522,36.4240435 322.448522,39.2362174 C322.448522,42.0995217 319.789739,43.9402174 316.466261,43.9402174 L310.074957,43.9402174 Z M350.314609,34.5322174 L367.954609,34.5322174 L367.954609,27.0160435 L341.682087,27.0160435 L341.682087,61.7847391 L367.96313,61.7847391 L367.96313,54.2685652 L350.32313,54.2685652 L350.32313,48.2351739 L365.721913,48.2351739 L365.721913,40.8723913 L350.331652,40.8723913 L350.314609,34.5322174 Z" id="Shape" fill="#404040"></path>
            <g id="Group" transform="translate(403.769348, 0.000000)">
                <rect id="Rectangle" fill="#F51F98" x="66.836" y="0" width="30.3778696" height="30.3778696"></rect>
                <path d="M33.4265217,30.3778696 L63.8043913,30.3778696 L63.8043913,0 L33.4265217,0 L33.4265217,30.3778696 Z M48.6058696,33.4286522 L33.4265217,33.4286522 L33.4265217,63.8043913 L63.8043913,63.8043913 L63.8043913,48.6058696 C63.8038285,44.5769056 62.201767,40.7133997 59.3510616,37.8662907 C56.5003563,35.0191817 52.634831,33.4219986 48.6058696,33.4265122" id="Shape" fill="#C01CA4"></path>
                <path d="M3.01980663e-14,97.230913 L30.3778696,97.230913 L30.3778696,66.836 L3.01980663e-14,66.836 L3.01980663e-14,97.230913 Z M3.01980663e-14,63.8043913 L30.3778696,63.8043913 L30.3778696,33.4265217 L3.01980663e-14,33.4265217 L3.01980663e-14,63.8043913 Z M15.1985217,-5.3922154e-06 C11.1665832,-0.00339531844 7.2988067,1.59678256 4.44779463,4.44779463 C1.59678256,7.2988067 -0.00339531844,11.1665832 -5.39221518e-06,15.1985217 L-5.39221518e-06,30.3970435 L30.3778696,30.3970435 L30.3778696,-5.3922154e-06 L15.1985217,-5.3922154e-06 Z" id="Shape" fill="#4E45A2"></path>
            </g>
        </g>
    </g>
</svg>