<?xml version="1.0" encoding="UTF-8"?>
<svg width="640px" height="360px" viewBox="0 0 640 360" version="1.1" xmlns="http://www.w3.org/2000/svg" xmlns:xlink="http://www.w3.org/1999/xlink">
    <title>fairsquare-logo-small</title>
    <g id="fairsquare-logo-small" stroke="none" stroke-width="1" fill="none" fill-rule="evenodd">
        <rect fill="#FFFFFF" x="0" y="0" width="640" height="360"></rect>
        <g id="fairsquare-small-logo" transform="translate(75.500000, 152.500000)" fill="#404040" fill-rule="nonzero">
            <path d="M4.83545062,5.44839506 L31.6006914,5.44839506 L31.6006914,1.02157407 L0,1.02157407 L0,47.3329321 L4.83545062,47.3329321 L4.83545062,27.7026852 L28.740284,27.7026852 L28.740284,23.223784 L4.83545062,23.223784 L4.83545062,5.44839506 Z M72.872284,33.8481543 L78.8655185,47.3329321 L84.0414938,47.3329321 L62.9970679,0.681049383 L58.434037,0.681049383 L37.3896111,47.3329321 L42.5655864,47.3329321 L48.5748457,33.8481543 L72.872284,33.8481543 Z M70.8972407,29.4213333 L50.5338642,29.4213333 L60.6815,6.46996914 L70.8972407,29.4213333 Z M104.26866,1.02157407 L99.4332099,1.02157407 L99.4332099,47.3329321 L104.26866,47.3329321 L104.26866,1.02157407 Z M140.432383,30.5070062 L154.938735,47.3329321 L161.000074,47.3329321 L146.153198,30.1063889 C153.460824,29.3300675 158.99764,23.1530574 158.972951,15.8043519 C158.972951,6.67829012 151.76184,1.02558025 141.34579,1.02558025 L124.119247,1.02558025 L124.119247,47.3329321 L128.954698,47.3329321 L128.954698,30.5070062 L140.432383,30.5070062 Z M128.922648,26.100216 L128.922648,5.46441975 L141.181537,5.46441975 C148.741185,5.46441975 154.121475,9.34640123 154.121475,15.8163704 C154.121475,22.2262469 148.741185,26.100216 141.181537,26.100216 L128.922648,26.100216 Z M193.21371,0.0160246914 C182.31692,0.0160246914 174.825377,5.87304938 174.825377,15.135321 C174.825377,22.4906543 179.115988,26.7812654 188.242049,28.7563086 L195.853778,30.4589321 C199.803864,31.2080864 200.757333,32.8426049 200.757333,34.4090185 C200.757333,36.9289012 198.50987,38.4953148 194.219259,38.4953148 C188.770864,38.4953148 185.229407,36.043537 184.480253,31.9572407 L172.986543,31.9572407 C174.076222,43.3828457 183.474704,48.2864012 193.894759,48.2864012 C205.472599,48.2864012 213.100352,42.4974815 213.100352,33.2352099 C213.100352,25.2669321 207.583852,21.8616852 199.13884,20.0148395 L192.66887,18.5165309 C189.195519,17.7753889 187.360691,16.6857099 187.360691,14.1658272 C187.360691,11.1692099 190.016784,9.53469136 193.96687,9.53469136 C195.738446,9.30973173 197.52647,9.80193519 198.933337,10.9018493 C200.340204,12.0017635 201.249281,13.6182028 201.458414,15.391716 L213.036253,15.391716 C211.874463,2.92851235 200.705253,0 193.21371,0 L193.21371,0.0160246914 Z M274.326691,24.1772531 C274.370111,17.6859284 271.778322,11.4546774 267.144199,6.90890164 C262.510075,2.36312592 256.230095,-0.108253527 249.740809,0.0600925926 C243.263286,-0.0939740211 236.999751,2.38315483 232.379818,6.92608886 C227.759885,11.4690229 225.177844,17.6900442 225.223031,24.1692407 C225.175666,30.6498224 227.756748,36.8729331 232.376925,41.4176167 C236.997101,45.9623003 243.261887,48.4405166 249.740809,48.2864012 C252.01884,48.3117481 254.288939,48.0136542 256.483198,47.401037 L265.609259,58.0935123 L273.781852,50.6700741 L266.494623,42.0888519 C271.518664,37.493004 274.363855,30.986175 274.326691,24.1772531 Z M236.868975,24.1772531 C236.752214,20.6787243 238.053018,17.2812632 240.476408,14.7552952 C242.899799,12.2293272 246.240446,10.7888741 249.740809,10.7605802 C253.241171,10.7888741 256.581818,12.2293272 259.005209,14.7552952 C261.4286,17.2812632 262.729403,20.6787243 262.612642,24.1772531 C262.729403,27.6757818 261.4286,31.0732429 259.005209,33.5992109 C256.581818,36.125179 253.241171,37.5656321 249.740809,37.5939259 C246.240446,37.5656321 242.899799,36.125179 240.476408,33.5992109 C238.053018,31.0732429 236.752214,27.6757818 236.868975,24.1772531 L236.868975,24.1772531 Z M330.104636,1.02157407 L318.526796,1.02157407 L318.526796,25.9479815 C318.526796,33.0308951 314.57671,37.5939259 308.511364,37.5939259 C302.446019,37.5939259 298.572049,33.0308951 298.572049,25.9479815 L298.572049,1.02157407 L286.99421,1.02157407 L286.99421,25.7436667 C286.99421,40.121821 295.303012,48.3545062 308.51537,48.3545062 C321.795833,48.3545062 330.104636,40.1138086 330.104636,25.7436667 L330.104636,1.02157407 Z M373.078852,39.3646543 L376.211679,47.3329321 L388.402463,47.3329321 L368.772216,0.749154321 L357.823346,0.749154321 L338.141019,47.3329321 L350.411926,47.3329321 L353.476648,39.3646543 L373.078852,39.3646543 Z M369.264975,29.5575432 L357.278506,29.5575432 L363.287765,14.1658272 L369.264975,29.5575432 Z M418.84537,33.9162593 L428.788691,47.3329321 L442.682099,47.3329321 L430.763735,31.6687963 C436.280133,29.0322398 439.743179,23.4114483 439.617377,17.2986543 C439.617377,7.28322222 431.921519,1.02157407 420.479889,1.02157407 L400.184617,1.02157407 L400.184617,47.3329321 L411.70637,47.3329321 L411.70637,33.9162593 L418.84537,33.9162593 Z M411.70637,23.5643086 L411.70637,11.1692099 L420.219488,11.1692099 C424.646309,11.1692099 428.187765,13.5729136 428.187765,17.2986543 C428.187765,21.1125309 424.646309,23.5643086 420.219488,23.5643086 L411.70637,23.5643086 Z M465.304957,11.033 L488.80116,11.033 L488.80116,1.0175679 L453.771185,1.0175679 L453.771185,47.3329321 L488.777123,47.3329321 L488.777123,37.3175 L465.28092,37.3175 L465.28092,29.2851235 L485.780506,29.2851235 L485.780506,19.4780123 L465.28092,19.4780123 L465.304957,11.033 Z" id="Shape"></path>
        </g>
    </g>
</svg>