<?xml version="1.0" encoding="UTF-8"?>
<svg width="640px" height="360px" viewBox="0 0 640 360" version="1.1" xmlns="http://www.w3.org/2000/svg" xmlns:xlink="http://www.w3.org/1999/xlink">
    <title>fairsquare-logo</title>
    <g id="fairsquare-logo" stroke="none" stroke-width="1" fill="none" fill-rule="evenodd">
        <g id="Group" transform="translate(433.940442, 91.000000)" fill-rule="nonzero">
            <rect id="Rectangle" fill="#4E7CF9" x="26.7765568" y="0" width="40.1648352" height="40.1648352" rx="5"></rect>
            <rect id="Rectangle-Copy" fill="#FC23B7" x="-1.84741111e-13" y="26.0327635" width="40.1648352" height="40.1648352" rx="5"></rect>
            <rect id="Rectangle" fill="#4E7CF9" x="73.6355311" y="31.2393162" width="23.0575906" height="23.0575906" rx="5"></rect>
            <rect id="Rectangle" fill="#805DC4" x="127.932438" y="29.0079365" width="22.3137973" height="23.0575906" rx="5"></rect>
            <rect id="Rectangle" fill="#4E7CF9" x="96.6931217" y="63.966219" width="23.0575906" height="23.0575906" rx="5"></rect>
        </g>
        <g id="fairsquare-small-logo" transform="translate(63.706417, 167.714286)" fill="#404040" fill-rule="nonzero">
            <path d="M4.53103968,5.10539683 L29.6113016,5.10539683 L29.6113016,0.957261905 L0,0.957261905 L0,44.3531349 L4.53103968,44.3531349 L4.53103968,25.9586905 L26.9309683,25.9586905 L26.9309683,21.761754 L4.53103968,21.761754 L4.53103968,5.10539683 Z M68.2846825,31.7172778 L73.900619,44.3531349 L78.750746,44.3531349 L59.0311508,0.638174603 L54.755381,0.638174603 L35.0357857,44.3531349 L39.8859127,44.3531349 L45.5168651,31.7172778 L68.2846825,31.7172778 Z M66.4339762,27.5691429 L47.3525556,27.5691429 L56.8613571,6.06265873 L66.4339762,27.5691429 Z M97.7045317,0.957261905 L93.1734921,0.957261905 L93.1734921,44.3531349 L97.7045317,44.3531349 L97.7045317,0.957261905 Z M131.591603,28.5864683 L145.184722,44.3531349 L150.864476,44.3531349 L136.95227,28.2110714 C143.799852,27.4836226 148.988103,21.69548 148.964968,14.8094048 C148.964968,6.25786508 142.207825,0.961015873 132.447508,0.961015873 L116.305444,0.961015873 L116.305444,44.3531349 L120.836484,44.3531349 L120.836484,28.5864683 L131.591603,28.5864683 Z M120.806452,24.4571032 L120.806452,5.1204127 L132.293595,5.1204127 C139.377333,5.1204127 144.418913,8.75800794 144.418913,14.8206667 C144.418913,20.8270159 139.377333,24.4571032 132.293595,24.4571032 L120.806452,24.4571032 Z M181.050135,0.015015873 C170.839341,0.015015873 163.819421,5.50331746 163.819421,14.1824921 C163.819421,21.0747778 167.839921,25.0952778 176.39146,26.9459841 L183.524,28.5414206 C187.225413,29.2434127 188.118857,30.7750317 188.118857,32.2428333 C188.118857,34.6040794 186.012881,36.071881 181.992381,36.071881 C176.886984,36.071881 173.568476,33.7744524 172.866484,29.9454048 L162.096349,29.9454048 C163.117429,40.6517222 171.924238,45.2465794 181.68831,45.2465794 C192.537278,45.2465794 199.684833,39.8220952 199.684833,31.1429206 C199.684833,23.6762778 194.515619,20.4854048 186.602254,18.7548254 L180.539595,17.3508413 C177.284905,16.6563571 175.565587,15.6352778 175.565587,13.2740317 C175.565587,10.4660635 178.054468,8.93444444 181.755881,8.93444444 C183.415928,8.72364693 185.09139,9.18486421 186.409689,10.2155344 C187.727988,11.2462045 188.579834,12.7608825 188.775802,14.422746 L199.62477,14.422746 C198.536119,2.74415079 188.070056,0 181.050135,0 L181.050135,0.015015873 Z M257.05673,22.6551984 C257.097416,16.5725286 254.668791,10.7335597 250.326404,6.47395868 C245.984017,2.2143577 240.099387,-0.101438535 234.018627,0.0563095238 C227.948891,-0.088057981 222.07967,2.23312571 217.75058,6.4900639 C213.421491,10.7470021 211.001999,16.5763852 211.044341,22.6476905 C210.999958,28.7202936 213.418551,34.5516347 217.747869,38.8102123 C222.077187,43.0687899 227.947579,45.3909926 234.018627,45.2465794 C236.153247,45.2703305 238.280435,44.9910029 240.336556,44.4169524 L248.888095,54.4362937 L256.54619,47.4801905 L249.717722,39.4391905 C254.425479,35.1326696 257.091554,29.0354715 257.05673,22.6551984 Z M221.957127,22.6551984 C221.847717,19.376916 223.066629,16.1933387 225.337458,13.8263904 C227.608286,11.4594422 230.738627,10.1096714 234.018627,10.0831587 C237.298627,10.1096714 240.428968,11.4594422 242.699796,13.8263904 C244.970625,16.1933387 246.189537,19.376916 246.080127,22.6551984 C246.189537,25.9334808 244.970625,29.1170582 242.699796,31.4840064 C240.428968,33.8509546 237.298627,35.2007255 234.018627,35.2272381 C230.738627,35.2007255 227.608286,33.8509546 225.337458,31.4840064 C223.066629,29.1170582 221.847717,25.9334808 221.957127,22.6551984 L221.957127,22.6551984 Z M309.32323,0.957261905 L298.474262,0.957261905 L298.474262,24.3144524 C298.474262,30.9514683 294.772849,35.2272381 289.089341,35.2272381 C283.405833,35.2272381 279.775746,30.9514683 279.775746,24.3144524 L279.775746,0.957261905 L268.926778,0.957261905 L268.926778,24.123 C268.926778,37.5959921 276.712508,45.3103968 289.093095,45.3103968 C301.5375,45.3103968 309.32323,37.5884841 309.32323,24.123 L309.32323,0.957261905 Z M349.592048,36.8864921 L352.527651,44.3531349 L363.950976,44.3531349 L345.556532,0.701992063 L335.296937,0.701992063 L316.85369,44.3531349 L328.352095,44.3531349 L331.223881,36.8864921 L349.592048,36.8864921 Z M346.01827,27.6967778 L334.786397,27.6967778 L340.417349,13.2740317 L346.01827,27.6967778 Z M392.477381,31.7810952 L401.79473,44.3531349 L414.813492,44.3531349 L403.645437,29.675119 C408.814555,27.2045444 412.059589,21.9376041 411.941706,16.2096349 C411.941706,6.82471429 404.730333,0.957261905 394.009,0.957261905 L374.991397,0.957261905 L374.991397,44.3531349 L385.78781,44.3531349 L385.78781,31.7810952 L392.477381,31.7810952 Z M385.78781,22.0808413 L385.78781,10.4660635 L393.764992,10.4660635 C397.913127,10.4660635 401.231635,12.7184444 401.231635,16.2096349 C401.231635,19.7834127 397.913127,22.0808413 393.764992,22.0808413 L385.78781,22.0808413 Z M436.012151,10.3384286 L458.029175,10.3384286 L458.029175,0.953507937 L425.204476,0.953507937 L425.204476,44.3531349 L458.006651,44.3531349 L458.006651,34.9682143 L435.989627,34.9682143 L435.989627,27.4415079 L455.198683,27.4415079 L455.198683,18.2517937 L435.989627,18.2517937 L436.012151,10.3384286 Z" id="Shape"></path>
        </g>
    </g>
</svg>