<?xml version="1.0" encoding="UTF-8"?>
<svg width="640px" height="360px" viewBox="0 0 640 360" version="1.1" xmlns="http://www.w3.org/2000/svg" xmlns:xlink="http://www.w3.org/1999/xlink">
    <title>small-promo-tile</title>
    <g id="small-promo-tile" stroke="none" stroke-width="1" fill="none" fill-rule="evenodd">
        <rect fill="#FFFFFF" x="0" y="0" width="640" height="360"></rect>
        <g id="Group" transform="translate(37.000000, 79.100000)" fill="#FFFFFF" stroke="#FFFFFF" stroke-width="11">
            <path d="M177.860341,71.1568421 C180.272643,71.1568421 182.476156,71.6096306 184.470944,72.5152212 C186.465732,73.4208117 188.170555,74.7095174 189.585463,76.381377 C191.000371,78.0532365 192.09053,80.0385399 192.855972,82.3373467 C193.621414,84.6361535 194.004129,87.1787351 194.004129,89.9651676 C194.004129,92.7980407 193.586622,95.3638421 192.751594,97.662649 C191.916566,99.9614558 190.745226,101.935149 189.237537,103.583788 C187.729848,105.232428 185.95544,106.497913 183.914262,107.380284 C181.873083,108.262654 179.669571,108.703833 177.303659,108.703833 C175.679994,108.703833 174.299899,108.494853 173.163334,108.076888 C172.026768,107.658924 171.087376,107.194525 170.345129,106.683679 C169.510102,106.079952 168.791061,105.383354 168.187985,104.593865 L168.048815,104.593865 C168.048815,104.826068 168.072009,105.104707 168.1184,105.429791 C168.1184,105.708434 168.129997,106.033513 168.153193,106.405037 C168.176388,106.776562 168.187985,107.19452 168.187985,107.658926 L168.187985,117.968674 C168.187985,120.522904 166.912268,121.8 164.360794,121.8 L159.97692,121.8 C157.425447,121.8 156.149729,120.522904 156.149729,117.968674 L156.149729,75.8240932 C156.149729,73.2698634 157.425447,71.9927677 159.97692,71.9927677 L163.108259,71.9927677 C164.3608,71.9927677 165.31179,72.2830167 165.961256,72.8635235 C166.610722,73.4440303 166.93545,74.1986778 166.93545,75.1274886 L166.93545,75.8937537 C166.93545,75.9866348 166.923852,76.0679045 166.900657,76.1375653 C166.877462,76.2072262 166.865865,76.2884959 166.865865,76.381377 L166.865865,76.5903584 L167.005035,76.5903584 C167.700892,75.615107 168.559102,74.70953 169.579691,73.8736002 C170.461109,73.2234326 171.574463,72.6081047 172.919785,72.0275979 C174.265108,71.4470911 175.911943,71.1568421 177.860341,71.1568421 Z M289.686216,71.1568421 C292.336316,71.1568421 294.6958,71.6012532 296.764738,72.4900889 C298.833676,73.3789245 300.577137,74.5952076 301.995173,76.1389747 C303.413209,77.6827418 304.482531,79.5071665 305.203173,81.6123035 C305.923814,83.7174405 306.284129,85.9862763 306.284129,88.418879 C306.284129,89.3544955 305.912191,90.2550128 305.168303,91.120458 C304.424415,91.9859032 303.448077,92.4186193 302.23926,92.4186193 L283.339955,92.4186193 C283.804885,94.6640987 284.827716,96.3014029 286.408477,97.330581 C287.989239,98.3597591 289.755946,98.8743404 291.708651,98.8743404 C292.917469,98.8743404 294.079776,98.71061 295.195608,98.3831442 C296.311439,98.0556785 297.33427,97.6580475 298.264129,97.1902392 C299.426454,96.6756502 300.426038,96.5119198 301.262912,96.6990431 C302.099786,96.8861663 302.820416,97.541088 303.424825,98.6638278 L304.401173,100.488271 C304.959089,101.56423 305.145058,102.558307 304.959086,103.470533 C304.773114,104.382759 304.145468,105.142936 303.076129,105.751087 C301.774326,106.49958 300.08898,107.224672 298.020042,107.926384 C295.951104,108.628096 293.521882,108.978947 290.732303,108.978947 C287.524287,108.978947 284.688258,108.440976 282.224129,107.365017 C279.760001,106.289058 277.702717,104.87396 276.052216,103.119679 C274.401715,101.365398 273.146423,99.3421577 272.286303,97.0498975 C271.426183,94.7576372 270.996129,92.4186312 270.996129,90.0328093 C270.996129,87.3663025 271.426183,84.8869561 272.286303,82.5946958 C273.146423,80.3024356 274.378469,78.3142805 275.982477,76.6301709 C277.586485,74.9460613 279.550784,73.6128279 281.875434,72.6304306 C284.200083,71.6480334 286.803651,71.1568421 289.686216,71.1568421 Z M254.568068,71.1568421 C257.328698,71.1568421 259.66818,71.495998 261.586583,72.1743199 C263.504987,72.8526418 265.049045,73.5894287 266.218804,74.3847027 C267.201401,75.0396342 267.751179,75.8232012 267.868155,76.7354272 C267.98513,77.6476532 267.71609,78.6183407 267.061025,79.6475188 L265.867878,81.4719617 C265.212813,82.5479206 264.464179,83.1443672 263.621953,83.2613192 C262.779727,83.3782713 261.797145,83.1560657 260.674176,82.5946958 C259.972321,82.2204493 259.176898,81.9046834 258.287881,81.6473889 C257.398865,81.3900944 256.416283,81.2614491 255.340105,81.2614491 C253.889604,81.2614491 252.626284,81.5070447 251.550107,81.9982433 C250.473929,82.489442 249.573228,83.1443636 248.847978,83.963028 C248.122728,84.7816924 247.584647,85.7055998 247.23372,86.7347779 C246.882792,87.7639559 246.707331,88.8165086 246.707331,89.8924675 C246.707331,90.9684264 246.89449,92.0443692 247.268812,93.1203281 C247.643135,94.196287 248.204611,95.1552795 248.953256,95.9973342 C249.701901,96.839389 250.637694,97.5293958 251.760662,98.0673753 C252.88363,98.6053547 254.217135,98.8743404 255.761216,98.8743404 C256.977765,98.8743404 258.147505,98.6638299 259.270473,98.2428025 C260.393441,97.8217751 261.399419,97.3539739 262.288435,96.8393848 C263.458193,96.1844533 264.475868,95.9505527 265.341489,96.137676 C266.20711,96.3247993 266.944047,97.003111 267.552321,98.1726316 L268.464728,99.9269036 C268.979422,101.002863 269.166581,101.985245 269.02621,102.874081 C268.885839,103.762916 268.347758,104.534788 267.411951,105.18972 C266.148612,106.031775 264.44079,106.873817 262.288435,107.715871 C260.13608,108.557926 257.56265,108.978947 254.568068,108.978947 C251.339535,108.978947 248.47367,108.464366 245.970387,107.435188 C243.467104,106.40601 241.36157,105.014301 239.653723,103.260021 C237.945876,101.50574 236.647464,99.4824995 235.758447,97.1902392 C234.869431,94.897979 234.424929,92.5121928 234.424929,90.0328093 C234.424929,87.6002066 234.869431,85.2495055 235.758447,82.9806357 C236.647464,80.7117658 237.945876,78.7002207 239.653723,76.9459398 C241.36157,75.191659 243.467104,73.7882554 245.970387,72.7356869 C248.47367,71.6831185 251.339535,71.1568421 254.568068,71.1568421 Z M214.447663,71.1568421 C219.416182,71.1568421 223.32825,72.4549904 226.183987,75.051326 C229.039724,77.6476616 230.467572,81.2614259 230.467572,85.8927273 L230.467572,104.277498 C230.467572,106.850443 229.190635,108.136897 226.636724,108.136897 L223.293439,108.136897 C220.739528,108.136897 219.462591,106.827053 219.462591,104.207327 L219.462591,103.435448 C219.462591,103.341886 219.485808,103.271716 219.532243,103.224935 L219.392939,103.224935 C218.696418,104.300894 217.837388,105.259886 216.815824,106.101941 C215.933564,106.850434 214.819146,107.517051 213.472539,108.101811 C212.125931,108.686572 210.57039,108.978947 208.80587,108.978947 C207.087784,108.978947 205.509026,108.698267 204.069549,108.136897 C202.630072,107.575527 201.399569,106.803655 200.378005,105.821258 C199.35644,104.83886 198.555453,103.669357 197.975019,102.312714 C197.394584,100.95607 197.104372,99.5058861 197.104372,97.9621189 C197.104372,95.5295162 197.74284,93.517971 199.019795,91.9274231 C200.296751,90.3368752 201.933551,89.0738119 203.930245,88.1381955 C205.92694,87.2025791 208.10934,86.5476574 210.477512,86.1734108 C212.845684,85.7991642 215.14417,85.6120437 217.373038,85.6120437 L218.417815,85.6120437 L218.417815,84.9805058 C218.417815,83.4835195 217.90704,82.4426618 216.885476,81.8579016 C215.863911,81.2731413 214.679843,80.9807656 213.333235,80.9807656 C212.172366,80.9807656 211.034732,81.144496 209.920298,81.4719617 C208.805864,81.7994275 207.784315,82.1736684 206.85562,82.5946958 C204.487448,83.6238739 202.769388,83.0625125 201.701389,80.9105947 L200.865567,79.1563226 C200.354785,78.0803637 200.215483,77.0862862 200.447657,76.1740602 C200.67983,75.2618341 201.329907,74.5250472 202.397906,73.9636774 C203.744514,73.3087459 205.439357,72.6772143 207.482486,72.0690636 C209.525615,71.4609129 211.847317,71.1568421 214.447663,71.1568421 Z M138.439413,71.1568421 C140.694843,71.1568421 142.662562,71.4141328 144.342627,71.9287218 C146.022693,72.4433108 147.415055,72.9578922 148.519755,73.4724812 C149.578427,73.9870702 150.199812,74.7121621 150.383928,75.6477785 C150.568045,76.583395 150.406945,77.5891676 149.900624,78.6651265 L149.072103,80.3492276 C148.565782,81.4719673 147.898369,82.1502791 147.069843,82.3841832 C146.241318,82.6180873 145.228691,82.501137 144.031932,82.0333288 C143.203406,81.705863 142.282836,81.3900972 141.270194,81.0860219 C140.257552,80.7819465 139.152868,80.6299111 137.956109,80.6299111 C136.667291,80.6299111 135.815764,80.8170316 135.401501,81.1912782 C134.987238,81.5655248 134.78011,82.0099359 134.78011,82.5245249 C134.78011,83.2262373 135.194367,83.7759037 136.022892,84.1735407 C136.851418,84.5711777 137.875552,84.9688087 139.095325,85.3664457 C140.315099,85.7640826 141.649926,86.1967988 143.099845,86.664607 C144.549765,87.1324152 145.884591,87.7990319 147.104365,88.6644771 C148.324138,89.5299223 149.348273,90.6292551 150.176798,91.9625085 C151.005324,93.295762 151.41958,95.0149314 151.41958,97.1200684 C151.41958,98.8041779 151.085873,100.371312 150.41845,101.821517 C149.751027,103.271723 148.784428,104.523091 147.518626,105.57566 C146.252823,106.628228 144.710868,107.458575 142.892715,108.066726 C141.074562,108.674877 139.0378,108.978947 136.78237,108.978947 C134.112677,108.978947 131.788237,108.616401 129.808982,107.891299 C127.829727,107.166196 126.218729,106.429409 124.975941,105.680916 C123.91727,105.072765 123.330406,104.300893 123.215333,103.365277 C123.10026,102.42966 123.364924,101.423888 124.009333,100.347929 L125.044985,98.7339986 C125.735422,97.7048206 126.483386,97.1200691 127.288897,96.9797266 C128.094407,96.8393841 129.095527,97.0498947 130.292286,97.6112645 C131.166841,97.9855111 132.156454,98.3948371 133.261154,98.839255 C134.365855,99.2836728 135.631639,99.5058783 137.058544,99.5058783 C138.255303,99.5058783 139.095323,99.3070628 139.57863,98.9094258 C140.061936,98.5117889 140.303586,98.0322926 140.303586,97.4709228 C140.303586,96.7692104 139.889329,96.207849 139.060804,95.7868216 C138.232278,95.3657942 137.208144,94.9564682 135.98837,94.5588312 C134.768597,94.1611942 133.43377,93.716783 131.983851,93.2255844 C130.533931,92.7343858 129.199105,92.056074 127.979331,91.1906288 C126.759557,90.3251836 125.735423,89.2024608 124.906898,87.8224265 C124.078372,86.4423923 123.664116,84.6998328 123.664116,82.5946958 C123.664116,80.723463 124.043851,79.0744637 124.803333,77.6476487 C125.562814,76.2208336 126.609963,75.0279405 127.944809,74.0689337 C129.279656,73.1099269 130.844625,72.384835 132.639763,71.8936364 C134.434902,71.4024377 136.368099,71.1568421 138.439413,71.1568421 Z M96,78.9 L96,108.9 L66,108.9 L66,96.9 L84,96.9 L84,78.9 L96,78.9 Z M12,78.899 L12,96.9 L30,96.9 L30,108.9 L-2.38742359e-12,108.9 L1.64845915e-12,78.9 L12,78.899 Z M218.918772,92.3115789 L217.794801,92.3115789 C216.858154,92.3115789 215.886397,92.3848414 214.879501,92.5313684 C213.872606,92.6778955 212.959389,92.9221036 212.139823,93.264 C211.320257,93.6058964 210.641198,94.0576814 210.102626,94.6193684 C209.564054,95.1810554 209.294772,95.9014693 209.294772,96.7806316 C209.294772,97.6597939 209.587469,98.4168389 210.172874,99.0517895 C210.758278,99.68674 211.612956,100.004211 212.736932,100.004211 C213.626747,100.004211 214.446301,99.7966337 215.195618,99.3814737 C215.944936,98.9663137 216.600579,98.4412663 217.162567,97.8063158 C217.724555,97.1713652 218.157748,96.4631618 218.462158,95.6816842 C218.766569,94.9002066 218.918772,94.1187407 218.918772,93.3372632 L218.918772,92.3115789 Z M174.114529,81.4136842 C173.182828,81.4136842 172.297726,81.5867667 171.459195,81.9329368 C170.620664,82.279107 169.875314,82.8098933 169.223123,83.5253116 C168.570933,84.2407299 168.046859,85.1522976 167.650886,86.2600421 C167.254913,87.3677866 167.056929,88.6832134 167.056929,90.2063621 C167.056929,91.2679506 167.196682,92.3179843 167.476193,93.3564947 C167.755703,94.3950052 168.198254,95.3065729 168.80386,96.0912253 C169.409466,96.8758776 170.143169,97.5105134 171.004993,97.9951516 C171.866816,98.4797898 172.903318,98.7221053 174.114529,98.7221053 C176.024516,98.7221053 177.678261,97.9951588 179.075812,96.5412442 C180.473364,95.0873296 181.172129,92.9757233 181.172129,90.2063621 C181.172129,87.5293129 180.519948,85.394629 179.215567,83.8022463 C177.911185,82.2098636 176.210857,81.4136842 174.114529,81.4136842 Z M289.065085,79.4905263 C287.270818,79.4905263 285.925138,80.0649703 285.028005,81.2138756 C284.130871,82.3627809 283.517052,83.7114755 283.186529,85.26 L294.093729,85.26 C294.093729,83.6615231 293.645169,82.3003405 292.748036,81.1764115 C291.850902,80.0524824 290.623264,79.4905263 289.065085,79.4905263 Z M51.8079017,44.5079017 L70.8474102,63.5474102 C73.6514716,66.3514716 73.6514716,70.8977533 70.8474102,73.7018147 C68.0433488,76.5058761 63.497067,76.5058761 60.6930057,73.7018147 L48,61.0088091 L35.3069943,73.7018147 C32.502933,76.5058761 27.9566512,76.5058761 25.1525898,73.7018147 C22.3485284,70.8977533 22.3485284,66.3514716 25.1525898,63.5474102 L44.1920983,44.5079017 C46.2951443,42.4048557 49.7048557,42.4048557 51.8079017,44.5079017 Z M321.28469,13.4621053 C324.144072,13.4621053 326.827632,13.9182114 329.335451,14.8304375 C331.84327,15.7426635 334.022931,17.0291168 335.874498,18.689836 C337.726065,20.3505551 339.190891,22.3504053 340.269018,24.6894463 C341.347146,27.0284874 341.886202,29.6247841 341.886202,32.4784142 C341.886202,35.2852635 341.347146,37.8464751 340.269018,40.1621258 C339.190891,42.4777764 337.726065,44.4659315 335.874498,46.1266507 C334.022931,47.7873699 331.854989,49.0621282 329.370607,49.9509638 C326.886226,50.8397994 324.214384,51.2842105 321.355002,51.2842105 C318.49562,51.2842105 315.823778,50.8397994 313.339396,49.9509638 C310.855015,49.0621282 308.687073,47.7873699 306.835506,46.1266507 C304.983939,44.4659315 303.519113,42.4777764 302.440985,40.1621258 C301.362858,37.8464751 300.823802,35.2852635 300.823802,32.4784142 C300.823802,29.6247841 301.362858,27.0284874 302.440985,24.6894463 C303.519113,22.3504053 304.983939,20.3505551 306.835506,18.689836 C308.687073,17.0291168 310.855015,15.7426635 313.339396,14.8304375 C315.823778,13.9182114 318.472182,13.4621053 321.28469,13.4621053 Z M142.543139,13.4621053 C145.303769,13.4621053 147.64325,13.8012611 149.561654,14.479583 C151.480058,15.157905 153.024116,15.8946919 154.193874,16.6899658 C155.176471,17.3448973 155.72625,18.1284643 155.843225,19.0406904 C155.960201,19.9529164 155.691161,20.9236039 155.036096,21.952782 L153.842949,23.7772249 C153.187884,24.8531838 152.43925,25.4496303 151.597024,25.5665824 C150.754798,25.6835344 149.772215,25.4613288 148.649247,24.899959 C147.947392,24.5257124 147.151968,24.2099466 146.262952,23.9526521 C145.373936,23.6953576 144.391353,23.5667122 143.315176,23.5667122 C141.864675,23.5667122 140.601355,23.8123079 139.525177,24.3035065 C138.449,24.7947051 137.548299,25.4496268 136.823049,26.2682912 C136.097799,27.0869556 135.559718,28.0108629 135.20879,29.040041 C134.857863,30.0692191 134.682402,31.1217718 134.682402,32.1977307 C134.682402,33.2736896 134.86956,34.3496324 135.243883,35.4255913 C135.618206,36.5015502 136.179681,37.4605426 136.928327,38.3025974 C137.676972,39.1446522 138.612765,39.834659 139.735733,40.3726384 C140.858701,40.9106179 142.192205,41.1796036 143.736287,41.1796036 C144.952835,41.1796036 146.122576,40.969093 147.245544,40.5480656 C148.368512,40.1270382 149.374489,39.659237 150.263506,39.144648 C151.433264,38.4897165 152.450939,38.2558159 153.31656,38.4429392 C154.182181,38.6300625 154.919118,39.3083742 155.527392,40.4778947 L156.439799,42.2321668 C156.954493,43.3081257 157.141651,44.2905082 157.00128,45.1793438 C156.860909,46.0681794 156.322829,46.8400514 155.387022,47.4949829 C154.123683,48.3370377 152.415861,49.1790799 150.263506,50.0211347 C148.11115,50.8631894 145.53772,51.2842105 142.543139,51.2842105 C139.314606,51.2842105 136.448741,50.7696292 133.945458,49.7404511 C131.442175,48.711273 129.336641,47.3195645 127.628794,45.5652837 C125.920947,43.8110028 124.622534,41.7877627 123.733518,39.4955024 C122.844502,37.2032421 122.4,34.817456 122.4,32.3380725 C122.4,29.9054697 122.844502,27.5547687 123.733518,25.2858988 C124.622534,23.017029 125.920947,21.0054838 127.628794,19.251203 C129.336641,17.4969222 131.442175,16.0935186 133.945458,15.0409501 C136.448741,13.9883816 139.314606,13.4621053 142.543139,13.4621053 Z M179.432088,13.4621053 C182.29147,13.4621053 184.97503,13.9182114 187.482849,14.8304375 C189.990668,15.7426635 192.170329,17.0291168 194.021896,18.689836 C195.873463,20.3505551 197.338289,22.3504053 198.416416,24.6894463 C199.494544,27.0284874 200.0336,29.6247841 200.0336,32.4784142 C200.0336,35.2852635 199.494544,37.8464751 198.416416,40.1621258 C197.338289,42.4777764 195.873463,44.4659315 194.021896,46.1266507 C192.170329,47.7873699 190.002387,49.0621282 187.518005,49.9509638 C185.033624,50.8397994 182.361782,51.2842105 179.5024,51.2842105 C176.643018,51.2842105 173.971176,50.8397994 171.486795,49.9509638 C169.002413,49.0621282 166.834471,47.7873699 164.982904,46.1266507 C163.131337,44.4659315 161.666511,42.4777764 160.588384,40.1621258 C159.510256,37.8464751 158.9712,35.2852635 158.9712,32.4784142 C158.9712,29.6247841 159.510256,27.0284874 160.588384,24.6894463 C161.666511,22.3504053 163.131337,20.3505551 164.982904,18.689836 C166.834471,17.0291168 169.002413,15.7426635 171.486795,14.8304375 C173.971176,13.9182114 176.61958,13.4621053 179.432088,13.4621053 Z M354.452403,-5.68434189e-14 C356.979931,-5.68434189e-14 358.243676,1.27318902 358.243676,3.81960526 L358.243676,35.9042895 C358.243676,37.2469453 358.438982,38.1497521 358.8296,38.6127368 C359.220218,39.0757216 359.69125,39.3535083 360.242711,39.4461053 C361.069902,39.5387022 361.73624,39.8396378 362.241745,40.3489211 C362.747251,40.8582043 363,41.6452666 363,42.7101316 L363,46.1130526 C363,47.316813 362.701297,48.2659176 362.103881,48.9603947 C361.506465,49.6548719 360.518447,50.0021053 359.139795,50.0021053 C357.623278,50.0021053 356.095296,49.8632119 354.555802,49.5854211 C353.016307,49.3076302 351.637677,48.6941846 350.419868,47.7450658 C349.202059,46.795947 348.21404,45.4301624 347.455782,43.6476711 C346.697523,41.8651797 346.3184,39.4692694 346.3184,36.4598684 L346.3184,3.81960526 C346.3184,1.27318902 347.582145,-5.68434189e-14 350.109673,-5.68434189e-14 L354.452403,-5.68434189e-14 Z M295.566007,13.4621053 C296.773443,13.4621053 297.620958,13.7900251 298.108576,14.4458745 C298.596194,15.1017239 298.84,16.0620605 298.84,17.326913 L298.84,21.2619899 C298.84,23.8385412 297.562923,25.1267976 295.008731,25.1267976 C293.569096,25.1267976 292.315239,25.4195831 291.247122,26.005163 C290.179006,26.5907428 289.296662,27.375408 288.600064,28.3591822 C287.903466,29.3429563 287.381026,30.4906756 287.032727,31.8023745 C286.684428,33.1140734 286.510281,34.4960211 286.510281,35.9482591 L286.510281,46.1372976 C286.510281,48.7138489 285.233204,50.0021053 282.679013,50.0021053 L278.290469,50.0021053 C275.736277,50.0021053 274.4592,48.7138489 274.4592,46.1372976 L274.4592,17.6782591 C274.4592,15.1017078 275.736277,13.8134514 278.290469,13.8134514 L282.191397,13.8134514 C284.745588,13.8134514 286.022665,15.1017078 286.022665,17.6782591 L286.022665,19.9268745 C286.022665,20.2547992 286.011055,20.5358733 285.987835,20.7701053 C285.964616,21.0043372 285.953006,21.2385656 285.953006,21.4727976 C285.906566,21.7070295 285.883346,21.9412579 285.883346,22.1754899 L286.022665,22.1754899 C286.301304,21.2385621 286.742476,20.2548027 287.346194,19.2241822 C287.949912,18.1935616 288.669719,17.2566479 289.505637,16.413413 C290.341554,15.570178 291.281947,14.8674927 292.326843,14.305336 C293.37174,13.7431794 294.45145,13.4621053 295.566007,13.4621053 Z M257.410971,4.48736842 C259.980979,4.48736842 261.265963,5.75357251 261.265963,8.28601869 L261.265963,14.709191 L264.980773,14.709191 C267.55078,14.709191 268.835765,15.9753951 268.835765,18.5078412 L268.835765,20.2345004 C268.835765,22.7669466 267.574144,24.0331507 265.050864,24.0331507 L261.265963,24.0331507 L261.265963,34.8075042 C261.265963,36.3269719 261.698185,37.4205118 262.562642,38.0881567 C263.427099,38.7558016 264.396678,39.1586847 265.471408,39.2968181 C266.873231,39.480996 267.866173,39.8263244 268.450266,40.3328137 C269.034358,40.8393029 269.3264,41.7601786 269.3264,43.0954684 L269.3264,46.203455 C269.3264,47.6308337 268.90586,48.6207751 268.064766,49.1733088 C267.223673,49.7258426 265.985415,50.0021053 264.349956,50.0021053 C262.994862,50.0021053 261.45288,49.8179301 259.723966,49.4495743 C257.995052,49.0812185 256.336254,48.4135836 254.747523,47.4466496 C253.158791,46.4797156 251.82708,45.1559568 250.75235,43.4753334 C249.677619,41.7947101 249.140262,39.6421631 249.140262,37.017628 L249.140262,24.0331507 L248.088901,24.0331507 C245.565621,24.0331507 244.304,22.7669466 244.304,20.2345004 L244.304,18.5078412 C244.304,15.9753951 245.588984,14.709191 248.158992,14.709191 L249.490716,14.709191 L249.490716,8.28601869 C249.490716,5.75357251 250.7757,4.48736842 253.345708,4.48736842 L257.410971,4.48736842 Z M227.54765,13.4621053 C229.361581,13.4621053 231.059209,13.6932225 232.640584,14.1554639 C234.221959,14.6177053 235.582387,15.3688363 236.721908,16.4088795 C237.861428,17.4489226 238.76838,18.8240701 239.44279,20.5343633 C240.1172,22.2446565 240.4544,24.3478233 240.4544,26.8439269 L240.4544,46.1886328 C240.4544,48.7309605 239.175366,50.0021053 236.617258,50.0021053 L232.221987,50.0021053 C229.66388,50.0021053 228.384845,48.7309605 228.384845,46.1886328 L228.384845,29.0626745 C228.384845,27.3986055 228.059273,26.1967959 227.408118,25.4572096 C226.756963,24.7176234 225.756991,24.3478358 224.408171,24.3478358 C223.059351,24.3478358 221.896592,24.6020648 220.91986,25.1105303 C219.943128,25.6189959 219.129197,26.3123476 218.478043,27.1906062 C217.826888,28.0688649 217.350157,29.0857807 217.047835,30.2413842 C216.745514,31.3969877 216.594355,32.5987973 216.594355,33.8468491 L216.594355,46.1886328 C216.594355,48.7309605 215.31532,50.0021053 212.757213,50.0021053 L208.361942,50.0021053 C205.803834,50.0021053 204.5248,48.7309605 204.5248,46.1886328 L204.5248,18.1076081 C204.5248,15.5652804 205.803834,14.2941356 208.361942,14.2941356 L212.26885,14.2941356 C214.780446,14.2941356 216.036225,15.5652804 216.036225,18.1076081 L216.036225,18.7316309 C216.036225,18.8240792 216.024598,18.9165261 216.001342,19.0089743 C215.978087,19.1014226 215.966459,19.1938695 215.966459,19.2863178 L215.966459,19.6329971 L216.105991,19.6329971 C216.524591,18.939635 217.05946,18.2231716 217.710614,17.4835853 C218.361769,16.7439991 219.152445,16.085315 220.082666,15.5075132 C221.012886,14.9297115 222.094252,14.4443653 223.326795,14.0514601 C224.559337,13.6585549 225.966275,13.4621053 227.54765,13.4621053 Z M96,12.9 L96,42.9 L84,42.9 L84,24.9 L66,24.9 L66,12.9 L96,12.9 Z M30,12.9 L30,24.9 L12,24.9 L12,42.899 L1.64845915e-12,42.9 L-2.38742359e-12,12.9 L30,12.9 Z M321.675802,23.7189474 C320.579044,23.7189474 319.550849,23.9258189 318.591186,24.339568 C317.631524,24.7533172 316.786119,25.3394531 316.054947,26.0979933 C315.323775,26.8565335 314.741132,27.7759623 314.306998,28.8563074 C313.872865,29.9366525 313.655802,31.1434029 313.655802,32.4765947 C313.655802,33.8097865 313.872865,35.005044 314.306998,36.062403 C314.741132,37.119762 315.323775,38.0162052 316.054947,38.7517593 C316.786119,39.4873134 317.631524,40.0504636 318.591186,40.4412267 C319.550849,40.8319898 320.579044,41.0273684 321.675802,41.0273684 C322.772559,41.0273684 323.800754,40.8319898 324.760417,40.4412267 C325.72008,40.0504636 326.565485,39.4873134 327.296657,38.7517593 C328.027828,38.0162052 328.610472,37.119762 329.044605,36.062403 C329.478739,35.005044 329.695802,33.8097865 329.695802,32.4765947 C329.695802,31.1434029 329.478739,29.9366525 329.044605,28.8563074 C328.610472,27.7759623 328.027828,26.8565335 327.296657,26.0979933 C326.565485,25.3394531 325.72008,24.7533172 324.760417,24.339568 C323.800754,23.9258189 322.772559,23.7189474 321.675802,23.7189474 Z M179.1816,23.7189474 C178.084842,23.7189474 177.056648,23.9258189 176.096985,24.339568 C175.137322,24.7533172 174.291917,25.3394531 173.560745,26.0979933 C172.829574,26.8565335 172.24693,27.7759623 171.812797,28.8563074 C171.378663,29.9366525 171.1616,31.1434029 171.1616,32.4765947 C171.1616,33.8097865 171.378663,35.005044 171.812797,36.062403 C172.24693,37.119762 172.829574,38.0162052 173.560745,38.7517593 C174.291917,39.4873134 175.137322,40.0504636 176.096985,40.4412267 C177.056648,40.8319898 178.084842,41.0273684 179.1816,41.0273684 C180.278358,41.0273684 181.306552,40.8319898 182.266215,40.4412267 C183.225878,40.0504636 184.071283,39.4873134 184.802455,38.7517593 C185.533626,38.0162052 186.11627,37.119762 186.550403,36.062403 C186.984537,35.005044 187.2016,33.8097865 187.2016,32.4765947 C187.2016,31.1434029 186.984537,29.9366525 186.550403,28.8563074 C186.11627,27.7759623 185.533626,26.8565335 184.802455,26.0979933 C184.071283,25.3394531 183.225878,24.7533172 182.266215,24.339568 C181.306552,23.9258189 180.278358,23.7189474 179.1816,23.7189474 Z" id="Combined-Shape"></path>
        </g>
        <g id="text-copy" transform="translate(64.562500, 113.000000)">
            <g id="text" transform="translate(170.850000, -18.006250)" fill="#2A2228">
                <path d="M233.503677,99.3230921 C237.202775,99.3230921 240.496221,99.943416 243.384113,101.184082 C246.272006,102.424749 248.705587,104.122477 250.684929,106.277319 C252.664271,108.43216 254.156867,110.978753 255.162762,113.917174 C256.168657,116.855594 256.671597,120.022511 256.671597,123.418019 C256.671597,124.723983 256.152433,125.980955 255.11409,127.188973 C254.075746,128.39699 252.712941,129.000989 251.025633,129.000989 L224.645354,129.000989 C225.294319,132.135304 226.72202,134.420708 228.928499,135.857269 C231.134979,137.29383 233.601007,138.0121 236.326659,138.0121 C238.013967,138.0121 239.636354,137.78356 241.193869,137.326472 C242.751384,136.869385 244.179085,136.314358 245.477014,135.661376 C247.099425,134.943095 248.494678,134.714555 249.662814,134.975748 C250.830951,135.236941 251.836831,136.151102 252.680485,137.71826 L254.043304,140.264878 C254.822061,141.766737 255.081643,143.154304 254.822057,144.427619 C254.562471,145.700935 253.686382,146.762015 252.193764,147.610892 C250.376663,148.655664 248.024202,149.667771 245.136309,150.647245 C242.248417,151.626718 238.857627,152.116447 234.96384,152.116447 C230.485984,152.116447 226.527359,151.365529 223.087847,149.86367 C219.648335,148.36181 216.776709,146.386569 214.472885,143.937885 C212.169061,141.489201 210.416883,138.665095 209.216298,135.465482 C208.015714,132.265869 207.41543,129.001006 207.41543,125.670796 C207.41543,121.948797 208.015714,118.488043 209.216298,115.28843 C210.416883,112.088816 212.136613,109.313683 214.375541,106.962947 C216.614469,104.612211 219.356303,102.751239 222.601126,101.379976 C225.845949,100.008713 229.480096,99.3230921 233.503677,99.3230921 Z M232.636681,110.955526 C230.132184,110.955526 228.253839,111.757354 227.00159,113.361035 C225.749341,114.964715 224.892552,116.847268 224.431197,119.00875 L239.65583,119.00875 C239.65583,116.777543 239.029715,114.877559 237.777467,113.308741 C236.525218,111.739923 234.81164,110.955526 232.636681,110.955526 Z" id="e"></path>
                <path d="M156.36813,125.670796 C156.36813,122.275288 156.98858,118.994101 158.229499,115.827137 C159.470418,112.660173 161.282785,109.852391 163.666655,107.403708 C166.050525,104.955024 168.989499,102.996107 172.483665,101.526896 C175.977831,100.057686 179.978101,99.3230921 184.484595,99.3230921 C188.337974,99.3230921 191.603501,99.7964972 194.281273,100.743322 C196.959045,101.690146 199.114292,102.718578 200.74708,103.828647 C202.118622,104.742823 202.88602,105.836552 203.049299,107.109867 C203.212578,108.383183 202.837042,109.738101 201.922681,111.174662 L200.257246,113.72128 C199.342885,115.223139 198.297916,116.055679 197.122309,116.218925 C195.946702,116.38217 194.575181,116.072008 193.007705,115.28843 C192.028032,114.766044 190.917753,114.325287 189.676834,113.966147 C188.435916,113.607007 187.064394,113.427439 185.56223,113.427439 C183.537573,113.427439 181.774189,113.77025 180.272024,114.455881 C178.769859,115.141513 177.512631,116.055674 176.500303,117.198393 C175.487974,118.341112 174.736903,119.630733 174.247067,121.067294 C173.757231,122.503855 173.512316,123.973043 173.512316,125.474903 C173.512316,126.976762 173.773558,128.478599 174.29605,129.980458 C174.818543,131.482317 175.602269,132.820911 176.647253,133.996279 C177.692237,135.171647 178.998448,136.134782 180.565924,136.885711 C182.1334,137.636641 183.99475,138.0121 186.15003,138.0121 C187.84813,138.0121 189.480893,137.718263 191.048369,137.130578 C192.615845,136.542894 194.020022,135.889922 195.260941,135.171641 C196.893728,134.257466 198.314232,133.93098 199.522495,134.192173 C200.730758,134.453366 201.759399,135.400176 202.608449,137.032632 L203.882017,139.481303 C204.600443,140.983162 204.861686,142.354405 204.665751,143.595071 C204.469816,144.835737 203.718745,145.913142 202.412515,146.827317 C200.649104,148.002685 198.26527,149.178036 195.260941,150.353404 C192.256611,151.528772 188.664532,152.116447 184.484595,152.116447 C179.978101,152.116447 175.977831,151.398178 172.483665,149.961617 C168.989499,148.525055 166.050525,146.582462 163.666655,144.133779 C161.282785,141.685095 159.470418,138.860989 158.229499,135.661376 C156.98858,132.461762 156.36813,129.131603 156.36813,125.670796 Z" id="c"></path>
                <path d="M128.483197,99.3230921 C135.41842,99.3230921 140.879016,101.135091 144.865149,104.759143 C148.851282,108.383194 150.844319,113.427407 150.844319,119.891932 L150.844319,145.554008 C150.844319,149.145411 149.061928,150.941085 145.497094,150.941085 L140.830425,150.941085 C137.265591,150.941085 135.4832,149.112762 135.4832,145.456061 L135.4832,144.378646 C135.4832,144.248049 135.515607,144.150103 135.580422,144.084805 L135.385978,144.084805 C134.41375,145.586664 133.214688,146.925258 131.788754,148.100626 C130.557266,149.145398 129.001725,150.075884 127.122085,150.892112 C125.242445,151.70834 123.07117,152.116447 120.608193,152.116447 C118.210032,152.116447 116.006349,151.724664 113.997079,150.941085 C111.987809,150.157506 110.270232,149.080102 108.844299,147.708839 C107.418365,146.337576 106.30032,144.705145 105.49013,142.811496 C104.679941,140.917847 104.274852,138.893633 104.274852,136.738791 C104.274852,133.343283 105.166047,130.535501 106.948464,128.315361 C108.730882,126.095222 111.015582,124.332196 113.802634,123.026231 C116.589687,121.720267 119.635954,120.806105 122.941528,120.283719 C126.247101,119.761333 129.455404,119.500144 132.566532,119.500144 L134.024866,119.500144 L134.024866,118.618623 C134.024866,116.529079 133.31191,115.076215 131.885976,114.259988 C130.460043,113.44376 128.80728,113.035652 126.927641,113.035652 C125.307261,113.035652 123.719313,113.264192 122.163749,113.72128 C120.608185,114.178368 119.182273,114.700746 117.88597,115.28843 C114.580396,116.724991 112.182271,115.941424 110.691522,112.937705 L109.524854,110.489034 C108.811888,108.987174 108.617445,107.599608 108.941521,106.326292 C109.265597,105.052977 110.172995,104.024545 111.663744,103.240966 C113.543384,102.326791 115.909103,101.445278 118.76097,100.596401 C121.612837,99.7475242 124.853547,99.3230921 128.483197,99.3230921 Z M134.724119,128.851579 L133.155243,128.851579 C131.84784,128.851579 130.491429,128.953841 129.085971,129.158368 C127.680512,129.362896 126.405814,129.70377 125.261836,130.181 C124.117858,130.65823 123.170005,131.288847 122.418248,132.072868 C121.666491,132.85689 121.290619,133.862468 121.290619,135.089632 C121.290619,136.316796 121.699176,137.373504 122.516303,138.259789 C123.33343,139.146075 124.526417,139.589211 126.095301,139.589211 C127.337334,139.589211 128.481295,139.299468 129.527217,138.719974 C130.57314,138.14048 131.488308,137.407601 132.27275,136.521316 C133.057192,135.635031 133.661857,134.646497 134.086763,133.555684 C134.511669,132.464872 134.724119,131.374076 134.724119,130.283263 L134.724119,128.851579 Z" id="a"></path>
                <path d="M77.4133927,99.3230921 C80.7805646,99.3230921 83.8563005,99.9551094 86.6406926,101.219163 C89.4250848,102.483216 91.8047331,104.282035 93.7797089,106.615672 C95.7546847,108.949309 97.2763646,111.720462 98.3447941,114.929213 C99.4132237,118.137964 99.9474304,121.686984 99.9474304,125.57638 C99.9474304,129.530598 99.3646594,133.11203 98.1990999,136.320781 C97.0335404,139.529532 95.398544,142.284479 93.2940615,144.585705 C91.1895791,146.88693 88.7128023,148.653338 85.8636568,149.884979 C83.0145114,151.116621 79.9387755,151.732433 76.6363569,151.732433 C74.3699912,151.732433 72.4436092,151.440733 70.8571533,150.857323 C69.2706973,150.273914 67.9594625,149.625691 66.9234096,148.912635 C65.7578501,148.069933 64.7541889,147.097599 63.9123959,145.995604 L63.718137,145.995604 C63.718137,146.31972 63.7505132,146.708653 63.8152665,147.162416 C63.8152665,147.551356 63.8314545,148.005112 63.8638312,148.523698 C63.8962079,149.042284 63.9123959,149.625684 63.9123959,150.273917 L63.9123959,164.664608 C63.9123959,168.229887 62.1317067,170.0125 58.5702749,170.0125 L52.4511181,170.0125 C48.8896863,170.0125 47.1089971,168.229887 47.1089971,164.664608 L47.1089971,105.837797 C47.1089971,102.272518 48.8896863,100.489905 52.4511181,100.489905 L56.8219444,100.489905 C58.5702837,100.489905 59.8977065,100.895044 60.8042528,101.705335 C61.7107991,102.515626 62.1640654,103.568988 62.1640654,104.865453 L62.1640654,105.935031 C62.1640654,106.064678 62.1478773,106.178117 62.1155007,106.275352 C62.083124,106.372587 62.0669359,106.486025 62.0669359,106.615672 L62.0669359,106.907375 L62.2611949,106.907375 C63.2324945,105.546087 64.4304127,104.282052 65.8549854,103.115234 C67.0852982,102.207708 68.6393542,101.348813 70.5172001,100.538522 C72.395046,99.7282314 74.6937538,99.3230921 77.4133927,99.3230921 Z M72.1848638,113.639934 C70.8843644,113.639934 69.6489086,113.881529 68.4784591,114.364724 C67.3080097,114.84792 66.2676259,115.588809 65.3572763,116.587414 C64.4469268,117.586019 63.7154068,118.858415 63.1626946,120.404642 C62.6099824,121.950869 62.3336304,123.786985 62.3336304,125.913047 C62.3336304,127.394848 62.5287024,128.86052 62.9188522,130.310107 C63.309002,131.759695 63.9267299,133.032091 64.7720545,134.127335 C65.6173791,135.222579 66.641507,136.108425 67.8444689,136.784899 C69.0474308,137.461373 70.4942146,137.799605 72.1848638,137.799605 C74.8508874,137.799605 77.1592392,136.784909 79.1099882,134.755487 C81.0607372,132.726064 82.0360971,129.778614 82.0360971,125.913047 C82.0360971,122.176333 81.1257612,119.19667 79.3050621,116.973969 C77.484363,114.751268 75.1109873,113.639934 72.1848638,113.639934 Z" id="p"></path>
                <path d="M3.59558451,147.512945 C2.11785563,146.664068 1.29869213,145.586664 1.13806943,144.280699 C0.977446723,142.974734 1.3468734,141.570843 2.24636054,140.068984 L3.69195765,137.816206 C4.65569387,136.379645 5.69972578,135.56343 6.82408471,135.367535 C7.94844363,135.17164 9.34584019,135.465478 11.0163163,136.249057 C12.2370489,136.771443 13.6183834,137.342794 15.1603613,137.963127 C16.7023393,138.58346 18.4691625,138.893622 20.4608841,138.893622 C22.1313602,138.893622 23.3038883,138.616109 23.9785037,138.061074 C24.653119,137.506039 24.9904217,136.836742 24.9904217,136.053163 C24.9904217,135.07369 24.4121886,134.290123 23.2557051,133.702438 C22.0992217,133.114754 20.669701,132.543403 18.9671004,131.988369 C17.2644997,131.433334 15.4013043,130.81301 13.3774583,130.127378 C11.3536122,129.441747 9.49041677,128.494937 7.78781611,127.286919 C6.08521545,126.078902 4.65569483,124.511768 3.49921137,122.58547 C2.3427279,120.659173 1.76449484,118.22685 1.76449484,115.28843 C1.76449484,112.6765 2.29454181,110.374772 3.35465165,108.383176 C4.4147615,106.39158 5.87640618,104.7265 7.73962954,103.387887 C9.6028529,102.049273 11.7872889,101.037166 14.2930031,100.351534 C16.7987173,99.6659027 19.4971382,99.3230921 22.3883469,99.3230921 C25.5365519,99.3230921 28.2831589,99.682227 30.6282504,100.400508 C32.9733418,101.118788 34.9168474,101.837058 36.4588254,102.555338 C37.9365542,103.273619 38.8039038,104.285726 39.0609002,105.591691 C39.3178965,106.897655 39.0930281,108.301546 38.3862882,109.803406 L37.2298105,112.15413 C36.5230706,113.721288 35.5914729,114.668098 34.4349894,114.994589 C33.2785059,115.32108 31.8650474,115.157837 30.1945712,114.504855 C29.0380878,114.047767 27.7531254,113.607011 26.3396456,113.182572 C24.9261658,112.758134 23.384211,112.545918 21.7137349,112.545918 C19.9147606,112.545918 18.7261704,112.807107 18.1479287,113.329492 C17.569687,113.851878 17.2805704,114.472202 17.2805704,115.190483 C17.2805704,116.169956 17.8588035,116.937199 19.015287,117.492234 C20.1717704,118.047269 21.601291,118.602295 23.3038917,119.15733 C25.0064924,119.712365 26.8696878,120.316365 28.8935338,120.969347 C30.9173799,121.62233 32.7805753,122.552815 34.483176,123.760833 C36.1857766,124.96885 37.6152973,126.503335 38.7717807,128.364335 C39.9282642,130.225334 40.5064973,132.625008 40.5064973,135.563429 C40.5064973,137.914165 40.0406984,140.101623 39.1090867,142.125868 C38.177475,144.150113 36.8282646,145.896815 35.0614148,147.366025 C33.2945651,148.835235 31.1422531,149.994261 28.6044144,150.843138 C26.0665757,151.692015 23.2235965,152.116447 20.0753915,152.116447 C16.3489448,152.116447 13.1044148,151.610394 10.3417043,150.598271 C7.57899383,149.586149 5.33030971,148.557717 3.59558451,147.512945 Z" id="s"></path>
                <path d="M312.552767,5.33153235 C312.552767,1.77715968 314.316744,0 317.844752,0 L323.90648,0 C327.434487,0 329.198464,1.77715968 329.198464,5.33153235 L329.198464,50.1164041 C329.198464,51.9905278 329.471079,53.2506956 330.016317,53.8969452 C330.561554,54.5431948 331.219037,54.9309387 331.988784,55.0601886 C333.143404,55.1894385 334.073502,55.6094944 334.779103,56.320369 C335.484705,57.0312435 335.8375,58.1298513 335.8375,59.6162253 L335.8375,64.366136 C335.8375,66.0463849 335.42056,67.3711766 334.586667,68.340551 C333.752775,69.3099254 332.373665,69.7946053 330.449297,69.7946053 C328.332493,69.7946053 326.199684,69.6007333 324.050806,69.2129836 C321.901929,68.8252338 319.97759,67.968966 318.277732,66.6441543 C316.577874,65.3193427 315.198764,63.412935 314.140362,60.9248742 C313.08196,58.4368133 312.552767,55.0925219 312.552767,50.8918997 L312.552767,5.33153235 Z" id="l"></path>
                <path d="M277.609879,18.7908553 C281.6011,18.7908553 285.346903,19.4275035 288.847401,20.700819 C292.347898,21.9741344 295.390341,23.7698088 297.97482,26.087896 C300.559299,28.4059832 302.603951,31.1974407 304.108838,34.4623522 C305.613725,37.7272637 306.366157,41.3512611 306.366157,45.3344532 C306.366157,49.252347 305.613725,52.8273715 304.108838,56.0596339 C302.603951,59.2918963 300.559299,62.0670294 297.97482,64.3851166 C295.390341,66.7032038 292.364255,68.4825539 288.896473,69.7232203 C285.42869,70.9638866 281.699245,71.5842105 277.708023,71.5842105 C273.716802,71.5842105 269.987356,70.9638866 266.519574,69.7232203 C263.051792,68.4825539 260.025706,66.7032038 257.441227,64.3851166 C254.856748,62.0670294 252.812096,59.2918963 251.307209,56.0596339 C249.802322,52.8273715 249.04989,49.252347 249.04989,45.3344532 C249.04989,41.3512611 249.802322,37.7272637 251.307209,34.4623522 C252.812096,31.1974407 254.856748,28.4059832 257.441227,26.087896 C260.025706,23.7698088 263.051792,21.9741344 266.519574,20.700819 C269.987356,19.4275035 273.684088,18.7908553 277.609879,18.7908553 Z M278.155807,33.1076974 C276.624916,33.1076974 275.189727,33.3964555 273.850198,33.9739804 C272.510668,34.5515053 271.330624,35.3696533 270.31003,36.428449 C269.289437,37.4872446 268.476163,38.7706141 267.870185,40.2785957 C267.264208,41.7865774 266.961223,43.4709998 266.961223,45.3319134 C266.961223,47.192827 267.264208,48.8612072 267.870185,50.3371042 C268.476163,51.8130012 269.289437,53.0642864 270.31003,54.0909973 C271.330624,55.1177083 272.510668,55.903772 273.850198,56.4492122 C275.189727,56.9946524 276.624916,57.2673684 278.155807,57.2673684 C279.686698,57.2673684 281.121886,56.9946524 282.461416,56.4492122 C283.800945,55.903772 284.980989,55.1177083 286.001583,54.0909973 C287.022177,53.0642864 287.835451,51.8130012 288.441428,50.3371042 C289.047406,48.8612072 289.35039,47.192827 289.35039,45.3319134 C289.35039,43.4709998 289.047406,41.7865774 288.441428,40.2785957 C287.835451,38.7706141 287.022177,37.4872446 286.001583,36.428449 C284.980989,35.3696533 283.800945,34.5515053 282.461416,33.9739804 C281.121886,33.3964555 279.686698,33.1076974 278.155807,33.1076974 Z" id="o"></path>
                <path d="M212.2493,24.6759033 C212.2493,21.0794671 214.031886,19.2812759 217.597112,19.2812759 L223.042158,19.2812759 C226.607384,19.2812759 228.38997,21.0794671 228.38997,24.6759033 L228.38997,27.8145956 C228.38997,28.2723239 228.373765,28.6646565 228.341354,28.9916053 C228.308942,29.318554 228.292737,29.6454979 228.292737,29.9724466 C228.227915,30.2993954 228.195504,30.6263392 228.195504,30.953288 L228.38997,30.953288 C228.778904,29.645493 229.394706,28.2723288 230.237396,26.8337543 C231.080086,25.3951798 232.084816,24.0874044 233.251618,22.9103889 C234.418419,21.7333734 235.731051,20.7525419 237.189552,19.9678649 C238.648054,19.1831879 240.15515,18.7908553 241.710885,18.7908553 C243.396264,18.7908553 244.579253,19.2485766 245.259887,20.1640331 C245.940521,21.0794896 246.280833,22.4199594 246.280833,24.1854827 L246.280833,29.6781942 C246.280833,33.2746305 244.498247,35.0728216 240.933021,35.0728216 C238.92353,35.0728216 237.173354,35.4815014 235.682442,36.2988733 C234.191529,37.1162452 232.959924,38.2115071 231.987589,39.5846918 C231.015255,40.9578766 230.286015,42.5599014 229.799848,44.3908144 C229.313681,46.2217274 229.070601,48.1506961 229.070601,50.1777783 L229.070601,64.3999779 C229.070601,67.9964141 227.288014,69.7946053 223.722788,69.7946053 L217.597112,69.7946053 C214.031886,69.7946053 212.2493,67.9964141 212.2493,64.3999779 L212.2493,24.6759033 Z" id="r"></path>
                <path d="M176.908283,33.5462729 L175.440757,33.5462729 C171.918679,33.5462729 170.157667,31.778863 170.157667,28.2439902 L170.157667,25.8338617 C170.157667,22.2989889 171.951291,20.531579 175.538592,20.531579 L177.397458,20.531579 L177.397458,11.5659011 C177.397458,8.0310283 179.191082,6.26361842 182.778383,6.26361842 L188.452814,6.26361842 C192.040116,6.26361842 193.83374,8.0310283 193.83374,11.5659011 L193.83374,20.531579 L199.018996,20.531579 C202.606298,20.531579 204.399922,22.2989889 204.399922,25.8338617 L204.399922,28.2439902 C204.399922,31.778863 202.638909,33.5462729 199.116831,33.5462729 L193.83374,33.5462729 L193.83374,48.5854746 C193.83374,50.7063983 194.43705,52.2327977 195.643688,53.1647187 C196.850326,54.0966397 198.203697,54.6589974 199.703841,54.8518087 C201.660551,55.1088903 203.046533,55.5909112 203.861829,56.2978858 C204.677125,57.0048603 205.084767,58.2902493 205.084767,60.1540913 L205.084767,64.4923226 C205.084767,66.4847054 204.497762,67.8664986 203.323736,68.6377436 C202.14971,69.4089886 200.421309,69.7946053 198.138481,69.7946053 C196.246994,69.7946053 194.094645,69.5375275 191.68137,69.0233641 C189.268094,68.5092008 186.952688,67.5772938 184.735084,66.2276151 C182.517479,64.8779364 180.658632,63.0301897 179.158488,60.6843196 C177.658344,58.3384495 176.908283,55.3338527 176.908283,51.6704391 L176.908283,33.5462729 Z" id="t"></path>
                <path d="M114.632533,25.275203 C114.632533,21.7265372 116.417852,19.952231 119.988544,19.952231 L125.441936,19.952231 C128.947706,19.952231 130.700564,21.7265372 130.700564,25.275203 L130.700564,26.1462348 C130.700564,26.2752772 130.684334,26.4043176 130.651873,26.53336 C130.619413,26.6624024 130.603182,26.7914429 130.603182,26.9204852 L130.603182,27.4043918 L130.797946,27.4043918 C131.382241,26.4365739 132.128829,25.4365103 133.037733,24.4041712 C133.946636,23.3718321 135.050288,22.4524188 136.348721,21.6459039 C137.647154,20.8393889 139.15656,20.1619266 140.876984,19.6134964 C142.597408,19.0650662 144.561259,18.7908553 146.768595,18.7908553 C149.30054,18.7908553 151.670145,19.1134564 153.877482,19.7586684 C156.084818,20.4038803 157.983749,21.452334 159.574329,22.9040609 C161.16491,24.3557878 162.430863,26.2752646 163.372228,28.6625488 C164.313592,31.049833 164.784267,33.9855034 164.784267,37.469648 L164.784267,64.4716333 C164.784267,68.020299 162.998948,69.7946053 159.428256,69.7946053 L153.29319,69.7946053 C149.722498,69.7946053 147.93718,68.020299 147.93718,64.4716333 L147.93718,40.5666499 C147.93718,38.2438868 147.482735,36.5663609 146.573831,35.5340218 C145.664928,34.5016826 144.269133,33.9855208 142.386405,33.9855208 C140.503677,33.9855208 138.88066,34.3403821 137.517305,35.0501152 C136.15395,35.7598484 135.017838,36.7276518 134.108935,37.9535545 C133.200031,39.1794572 132.534594,40.5989022 132.112603,42.2119321 C131.690613,43.824962 131.47962,45.5024879 131.47962,47.2445602 L131.47962,64.4716333 C131.47962,68.020299 129.694302,69.7946053 126.12361,69.7946053 L119.988544,69.7946053 C116.417852,69.7946053 114.632533,68.020299 114.632533,64.4716333 L114.632533,25.275203 Z" id="n"></path>
                <path d="M79.607289,18.7908553 C83.5985102,18.7908553 87.3443132,19.4275035 90.8448105,20.700819 C94.3453078,21.9741344 97.3877504,23.7698088 99.9722297,26.087896 C102.556709,28.4059832 104.601361,31.1974407 106.106248,34.4623522 C107.611135,37.7272637 108.363567,41.3512611 108.363567,45.3344532 C108.363567,49.252347 107.611135,52.8273715 106.106248,56.0596339 C104.601361,59.2918963 102.556709,62.0670294 99.9722297,64.3851166 C97.3877504,66.7032038 94.361665,68.4825539 90.8938826,69.7232203 C87.4261003,70.9638866 83.6966545,71.5842105 79.7054333,71.5842105 C75.7142122,71.5842105 71.9847663,70.9638866 68.516984,69.7232203 C65.0492017,68.4825539 62.0231163,66.7032038 59.438637,64.3851166 C56.8541577,62.0670294 54.8095054,59.2918963 53.3046187,56.0596339 C51.799732,52.8273715 51.0473,49.252347 51.0473,45.3344532 C51.0473,41.3512611 51.799732,37.7272637 53.3046187,34.4623522 C54.8095054,31.1974407 56.8541577,28.4059832 59.438637,26.087896 C62.0231163,23.7698088 65.0492017,21.9741344 68.516984,20.700819 C71.9847663,19.4275035 75.6814977,18.7908553 79.607289,18.7908553 Z M79.25765,33.1076974 C77.7267592,33.1076974 76.2915705,33.3964555 74.952041,33.9739804 C73.6125115,34.5515053 72.4324675,35.3696533 71.4118736,36.428449 C70.3912797,37.4872446 69.5780062,38.7706141 68.9720286,40.2785957 C68.3660509,41.7865774 68.0630667,43.4709998 68.0630667,45.3319134 C68.0630667,47.192827 68.3660509,48.8612072 68.9720286,50.3371042 C69.5780062,51.8130012 70.3912797,53.0642864 71.4118736,54.0909973 C72.4324675,55.1177083 73.6125115,55.903772 74.952041,56.4492122 C76.2915705,56.9946524 77.7267592,57.2673684 79.25765,57.2673684 C80.7885408,57.2673684 82.2237295,56.9946524 83.563259,56.4492122 C84.9027885,55.903772 86.0828325,55.1177083 87.1034264,54.0909973 C88.1240203,53.0642864 88.9372938,51.8130012 89.5432714,50.3371042 C90.1492491,48.8612072 90.4522333,47.192827 90.4522333,45.3319134 C90.4522333,43.4709998 90.1492491,41.7865774 89.5432714,40.2785957 C88.9372938,38.7706141 88.1240203,37.4872446 87.1034264,36.428449 C86.0828325,35.3696533 84.9027885,34.5515053 83.563259,33.9739804 C82.2237295,33.3964555 80.7885408,33.1076974 79.25765,33.1076974 Z" id="o"></path>
                <path d="M0,45.1385595 C0,41.7430515 0.620450044,38.4618646 1.86136874,35.2949005 C3.10228745,32.1279363 4.91465468,29.3201545 7.29852481,26.8714709 C9.68239495,24.4227872 12.6213688,22.4638697 16.1155347,20.9946595 C19.6097005,19.5254493 23.6099705,18.7908553 28.1164647,18.7908553 C31.9698438,18.7908553 35.2353704,19.2642603 37.9131423,20.2110847 C40.5909143,21.157909 42.7461618,22.1863407 44.3789495,23.2964106 C45.7504913,24.2105859 46.51789,25.3043148 46.6811688,26.5776303 C46.8444476,27.8509458 46.468912,29.2058637 45.5545509,30.6424248 L43.8891157,33.1890431 C42.9747545,34.6909024 41.929786,35.5234423 40.7541788,35.6866879 C39.5785716,35.8499335 38.2070505,35.5397715 36.6395742,34.7561928 C35.6599016,34.2338069 34.5496225,33.7930505 33.3087038,33.4339102 C32.0677851,33.0747699 30.696264,32.8952025 29.1940993,32.8952025 C27.1694424,32.8952025 25.4060581,33.2380131 23.9038934,33.9236445 C22.4017286,34.6092759 21.1445009,35.5234374 20.1321725,36.6661564 C19.1198441,37.8088755 18.368773,39.0984962 17.8789366,40.5350572 C17.3891003,41.9716183 17.1441858,43.4408065 17.1441858,44.9426658 C17.1441858,46.4445251 17.4054279,47.9463618 17.92792,49.4482211 C18.4504121,50.9500804 19.2341385,52.2886741 20.2791226,53.4640422 C21.3241068,54.6394104 22.6303174,55.6025448 24.1977937,56.3534745 C25.7652699,57.1044041 27.6266201,57.4798633 29.7818999,57.4798633 C31.4799992,57.4798633 33.1127625,57.1860257 34.6802387,56.5983416 C36.247715,56.0106575 37.6518914,55.357685 38.8928101,54.6394045 C40.5255978,53.7252293 41.9461019,53.398743 43.1543648,53.6599359 C44.3626278,53.9211288 45.3912686,54.867939 46.2403183,56.5003947 L47.5138864,58.9490661 C48.232313,60.4509254 48.4935551,61.8221677 48.2976206,63.0628341 C48.101686,64.3035005 47.3506149,65.3809051 46.0443847,66.2950803 C44.2809739,67.4704485 41.8971396,68.645799 38.8928101,69.8211671 C35.8884806,70.9965353 32.2964014,71.5842105 28.1164647,71.5842105 C23.6099705,71.5842105 19.6097005,70.8659408 16.1155347,69.4293797 C12.6213688,67.9928186 9.68239495,66.0502254 7.29852481,63.6015418 C4.91465468,61.1528581 3.10228745,58.328752 1.86136874,55.1291388 C0.620450044,51.9295255 0,48.5993657 0,45.1385595 Z" id="c"></path>
            </g>
            <g id="icon">
                <g id="space" fill="#2A2228">
                    <path d="M134,92.125 L134,134 L92.125,134 L92.125,117.25 L117.25,117.25 L117.25,92.125 L134,92.125 Z M16.75,92.125 L16.75,117.25 L41.875,117.25 L41.875,134 L-3.33244543e-12,134 L7.03437308e-13,92.125 L16.75,92.125 Z M134,0 L134,41.875 L117.25,41.875 L117.25,16.75 L92.125,16.75 L92.125,0 L134,0 Z M41.875,0 L41.875,16.75 L16.75,16.75 L16.75,41.874 L7.03437308e-13,41.875 L-3.33244543e-12,0 L41.875,0 Z" id="space-shape"></path>
                </g>
                <g id="Group" fill="#F5A623" transform="translate(36.932710, 48.466779)">
                    <g id="control" transform="translate(30.067290, 30.067290) rotate(-315.000000) translate(-30.067290, -30.067290) ">
                        <path d="M55.1233646,10.0224299 C55.1233646,15.5576651 50.6361698,20.0448598 45.1009346,20.0448598 L20.0448598,20.0448598 L20.0448598,45.1009346 C20.0448598,50.6361698 15.5576651,55.1233646 10.0224299,55.1233646 C4.48719472,55.1233646 0,50.6361698 0,45.1009346 L0,7.51682244 C0,3.36539604 3.36539604,0 7.51682244,0 L45.1009346,0 C50.6361698,0 55.1233646,4.48719472 55.1233646,10.0224299 Z" id="arrow-shape"></path>
                    </g>
                </g>
            </g>
        </g>
    </g>
</svg>