<?xml version="1.0" encoding="UTF-8"?>
<svg width="700px" height="394px" viewBox="0 0 700 394" version="1.1" xmlns="http://www.w3.org/2000/svg" xmlns:xlink="http://www.w3.org/1999/xlink" style="background: #FFFFFF;">
    <title>logo copy 3</title>
    <defs>
        <radialGradient cx="0%" cy="12.5511777%" fx="0%" fy="12.5511777%" r="148.137838%" gradientTransform="translate(0.000000,0.125512),scale(1.000000,0.582557),rotate(73.604976),translate(-0.000000,-0.125512)" id="radialGradient-1">
            <stop stop-color="#FFFCD0" offset="0%"></stop>
            <stop stop-color="#FFCA0B" offset="62.0492788%"></stop>
            <stop stop-color="#F5A623" offset="100%"></stop>
        </radialGradient>
        <radialGradient cx="99.9729516%" cy="99.9639662%" fx="99.9729516%" fy="99.9639662%" r="216.94084%" gradientTransform="translate(0.999730,0.999640),scale(0.492782,1.000000),rotate(-146.715724),scale(1.000000,0.996794),translate(-0.999730,-0.999640)" id="radialGradient-2">
            <stop stop-color="#F5A623" offset="0.0300480769%"></stop>
            <stop stop-color="#CA6C30" offset="53.8625437%"></stop>
            <stop stop-color="#863E0F" offset="83.946132%"></stop>
            <stop stop-color="#361403" offset="100%"></stop>
        </radialGradient>
    </defs>
    <g id="logo-copy-3" stroke="none" stroke-width="1" fill="none" fill-rule="evenodd">
        <rect fill="#FFFFFF" x="0" y="0" width="700" height="394"></rect>
        <g id="text" transform="translate(257.302249, 102.500000)" fill="#2A2228">
            <path d="M250.929324,106.735263 C254.904475,106.735263 258.4437,107.40188 261.547107,108.735133 C264.650514,110.068387 267.265705,111.892811 269.392759,114.208462 C271.519813,116.524113 273.123797,119.26075 274.204759,122.418455 C275.285721,125.576161 275.826194,128.979414 275.826194,132.628319 C275.826194,134.031743 275.268286,135.382519 274.152455,136.680687 C273.036623,137.978855 271.572116,138.627929 269.75889,138.627929 L241.409933,138.627929 C242.107328,141.996148 243.641573,144.452104 246.012716,145.995871 C248.383858,147.539639 251.033918,148.311511 253.962977,148.311511 C255.776203,148.311511 257.519664,148.065915 259.193411,147.574716 C260.867159,147.083518 262.401404,146.487071 263.796194,145.785359 C265.539681,145.013475 267.039057,144.76788 268.294368,145.048565 C269.549678,145.32925 270.630624,146.311632 271.537237,147.995742 L273.001759,150.732406 C273.838633,152.346344 274.117587,153.837461 273.838629,155.2058 C273.559671,156.574139 272.618202,157.714404 271.014194,158.62663 C269.061488,159.74937 266.53347,160.837008 263.430063,161.889576 C260.326657,162.942145 256.682824,163.468421 252.498455,163.468421 C247.686431,163.468421 243.432386,162.661464 239.736194,161.047526 C236.040002,159.433587 232.954076,157.310939 230.478324,154.679518 C228.002573,152.048097 226.119635,149.013237 224.829455,145.574846 C223.539274,142.136456 222.894194,138.627947 222.894194,135.049214 C222.894194,131.049454 223.539274,127.330434 224.829455,123.892044 C226.119635,120.453653 227.967704,117.471421 230.373716,114.945256 C232.779728,112.419092 235.726176,110.419242 239.21315,108.945646 C242.700124,107.47205 246.605477,106.735263 250.929324,106.735263 Z M249.997628,119.235789 C247.306227,119.235789 245.287707,120.097455 243.942007,121.820813 C242.596307,123.544171 241.675578,125.567213 241.179794,127.89 L257.540594,127.89 C257.540594,125.492285 256.867754,123.450511 255.522054,121.764617 C254.176353,120.078724 252.334896,119.235789 249.997628,119.235789 Z" id="e"></path>
            <path d="M168.037394,135.049214 C168.037394,131.40031 168.704146,127.874258 170.037671,124.470954 C171.371195,121.067649 173.318814,118.050331 175.880585,115.41891 C178.442356,112.787489 181.600656,110.682383 185.35558,109.10353 C189.110505,107.524678 193.409302,106.735263 198.252102,106.735263 C202.393047,106.735263 205.90227,107.243997 208.779875,108.26148 C211.657481,109.278963 213.973568,110.384143 215.728205,111.577054 C217.202101,112.559451 218.026768,113.734802 218.202232,115.103141 C218.377696,116.47148 217.974135,117.927511 216.991538,119.471278 L215.201817,122.207943 C214.21922,123.821881 213.096268,124.716551 211.832929,124.891979 C210.56959,125.067407 209.095717,124.734099 207.411265,123.892044 C206.358482,123.330674 205.165346,122.857025 203.831822,122.471083 C202.498297,122.085142 201.024424,121.892174 199.410157,121.892174 C197.234407,121.892174 195.339426,122.260567 193.72516,122.997365 C192.110893,123.734163 190.759843,124.716545 189.671967,125.944542 C188.584092,127.172539 187.776971,128.5584 187.25058,130.102167 C186.724188,131.645934 186.460997,133.224763 186.460997,134.838701 C186.460997,136.45264 186.741734,138.066554 187.303218,139.680492 C187.864702,141.29443 188.706916,142.732919 189.829884,143.996001 C190.952852,145.259084 192.356541,146.294094 194.040993,147.101063 C195.725445,147.908032 197.725702,148.311511 200.041824,148.311511 C201.866647,148.311511 203.621258,147.995745 205.30571,147.364204 C206.990162,146.732663 208.499128,146.030961 209.832652,145.259077 C211.58729,144.27668 213.113802,143.925829 214.412234,144.206514 C215.710666,144.487199 216.816071,145.504667 217.728482,147.258947 L219.097093,149.890355 C219.869133,151.504294 220.149871,152.977868 219.939315,154.311121 C219.728758,155.644374 218.921637,156.802182 217.517927,157.78458 C215.622918,159.047662 213.061186,160.310725 209.832652,161.573807 C206.604119,162.836889 202.743975,163.468421 198.252102,163.468421 C193.409302,163.468421 189.110505,162.696549 185.35558,161.152782 C181.600656,159.609015 178.442356,157.521452 175.880585,154.890031 C173.318814,152.25861 171.371195,149.223749 170.037671,145.785359 C168.704146,142.346968 168.037394,138.768289 168.037394,135.049214 Z" id="c"></path>
            <path d="M138.071495,106.735263 C145.524272,106.735263 151.392376,108.682486 155.675981,112.576989 C159.959587,116.471492 162.101357,121.892139 162.101357,128.839091 L162.101357,156.416247 C162.101357,160.275665 160.185953,162.205345 156.355086,162.205345 L151.340158,162.205345 C147.509291,162.205345 145.593887,160.24058 145.593887,156.310991 L145.593887,155.153172 C145.593887,155.012829 145.628712,154.907574 145.698364,154.837403 L145.489409,154.837403 C144.444627,156.451341 143.156082,157.88983 141.623736,159.152912 C140.300345,160.275652 138.628719,161.275577 136.608808,162.152717 C134.588896,163.029857 132.255585,163.468421 129.608805,163.468421 C127.031676,163.468421 124.663539,163.0474 122.504324,162.205345 C120.345108,161.36329 118.499354,160.205482 116.967007,158.731887 C115.434661,157.258291 114.23318,155.504036 113.362528,153.46907 C112.491877,151.434105 112.056557,149.258829 112.056557,146.943178 C112.056557,143.294274 113.01426,140.276957 114.929693,137.891135 C116.845126,135.505313 119.300327,133.610718 122.295368,132.207293 C125.290409,130.803869 128.56401,129.821486 132.116268,129.260116 C135.668527,128.698746 139.116255,128.418066 142.459557,128.418066 L144.026722,128.418066 L144.026722,127.470759 C144.026722,125.225279 143.26056,123.663993 141.728213,122.786852 C140.195867,121.909712 138.419764,121.471148 136.399853,121.471148 C134.658549,121.471148 132.952098,121.716744 131.280447,122.207943 C129.608796,122.699141 128.076472,123.260503 126.68343,123.892044 C123.131172,125.435811 120.554082,124.593769 118.952083,121.365892 L117.698351,118.734484 C116.932178,117.120546 116.723224,115.629429 117.071485,114.26109 C117.419746,112.892751 118.394861,111.787571 119.99686,110.945516 C122.016771,109.963119 124.559036,109.015821 127.623729,108.103595 C130.688422,107.191369 134.170976,106.735263 138.071495,106.735263 Z M144.778157,138.467368 L143.092201,138.467368 C141.687231,138.467368 140.229596,138.577262 138.719252,138.797053 C137.208909,139.016843 135.839083,139.383155 134.609734,139.896 C133.380385,140.408845 132.361796,141.086522 131.553938,141.929053 C130.74608,142.771583 130.342157,143.852204 130.342157,145.170947 C130.342157,146.489691 130.781204,147.625258 131.659311,148.577684 C132.537417,149.53011 133.819434,150.006316 135.505398,150.006316 C136.84012,150.006316 138.069451,149.69495 139.193427,149.072211 C140.317404,148.449471 141.300868,147.661899 142.143851,146.709474 C142.986833,145.757048 143.636622,144.694743 144.093238,143.522526 C144.549853,142.35031 144.778157,141.178111 144.778157,140.005895 L144.778157,138.467368 Z" id="a"></path>
            <path d="M83.1905115,106.735263 C86.8089649,106.735263 90.1142333,107.414446 93.106416,108.772832 C96.0985986,110.131218 98.6558326,112.064276 100.778195,114.572065 C102.900557,117.079855 104.535795,120.05781 105.683958,123.50602 C106.832121,126.95423 107.406194,130.768103 107.406194,134.947751 C107.406194,139.197061 106.779933,143.045763 105.527391,146.493973 C104.274849,149.942184 102.517838,152.902724 100.256305,155.375683 C97.9947716,157.848642 95.3331607,159.74687 92.2713924,161.070426 C89.2096242,162.393981 85.9043558,163.055749 82.355488,163.055749 C79.9199905,163.055749 77.8498487,162.74228 76.1450005,162.115333 C74.4401523,161.488385 73.0310642,160.791788 71.9176939,160.025519 C70.6651523,159.119928 69.5865911,158.075032 68.6819777,156.890798 L68.4732218,156.890798 C68.4732218,157.239102 68.5080141,157.65706 68.5775998,158.144686 C68.5775998,158.562651 68.5949959,159.050269 68.6297888,159.607556 C68.6645816,160.164842 68.6819777,160.79178 68.6819777,161.488388 L68.6819777,176.953012 C68.6819777,180.784356 66.7684013,182.7 62.941191,182.7 L56.3653807,182.7 C52.5381703,182.7 50.6245939,180.784356 50.6245939,176.953012 L50.6245939,113.73614 C50.6245939,109.904795 52.5381703,107.989152 56.3653807,107.989152 L61.062388,107.989152 C62.9412004,107.989152 64.3676846,108.424525 65.3418836,109.295285 C66.3160826,110.166045 66.8031748,111.298017 66.8031748,112.691233 L66.8031748,113.840631 C66.8031748,113.979952 66.7857786,114.101857 66.7509858,114.206348 C66.716193,114.310839 66.6987968,114.432744 66.6987968,114.572065 L66.6987968,114.885538 L66.9075527,114.885538 C67.9513374,113.42266 69.2386524,112.064295 70.7695365,110.8104 C72.0916637,109.835149 73.7616941,108.912157 75.7796777,108.041397 C77.7976613,107.170637 80.2679146,106.735263 83.1905115,106.735263 Z M77.5717939,122.120526 C76.1742424,122.120526 74.8465883,122.38015 73.5887919,122.899405 C72.3309955,123.41866 71.2129711,124.21484 70.234685,125.287967 C69.2563989,126.361095 68.470288,127.728446 67.8763286,129.390063 C67.2823691,131.05168 66.9853939,133.02482 66.9853939,135.309543 C66.9853939,136.901926 67.1950235,138.476976 67.6142889,140.034742 C68.0335544,141.592508 68.6973814,142.959859 69.6057899,144.136838 C70.5141984,145.313816 71.6147538,146.26577 72.9074889,146.992727 C74.2002241,147.719685 75.7549769,148.083158 77.5717939,148.083158 C80.4367746,148.083158 82.9173913,146.992738 85.0137187,144.811866 C87.110046,142.630994 88.1581939,139.463585 88.1581939,135.309543 C88.1581939,131.293969 87.1799225,128.091944 85.2233503,125.703369 C83.2667782,123.314795 80.7162849,122.120526 77.5717939,122.120526 Z" id="p"></path>
            <path d="M3.86391171,158.521374 C2.27590456,157.609148 1.39560945,156.45134 1.22299998,155.047915 C1.05039051,153.644491 1.44738634,152.135832 2.41399939,150.521893 L3.96747687,148.100998 C5.00313371,146.557231 6.12507845,145.680104 7.33334476,145.46959 C8.54161107,145.259076 10.043291,145.574842 11.8384295,146.416897 C13.1502615,146.978267 14.6346807,147.592256 16.2917316,148.258882 C17.9487825,148.925509 19.8474583,149.258817 21.9878157,149.258817 C23.7829542,149.258817 25.0429845,148.960594 25.7679443,148.364139 C26.492904,147.767683 26.8553785,147.048439 26.8553785,146.206384 C26.8553785,145.153816 26.2339937,144.311773 24.9912055,143.680232 C23.7484173,143.048691 22.2122161,142.434702 20.3825556,141.838247 C18.5528952,141.241791 16.5506554,140.575175 14.375776,139.838377 C12.2008967,139.101579 10.1986568,138.084111 8.36899642,136.785943 C6.53933601,135.487775 5.00313474,133.803691 3.76034654,131.73364 C2.51755834,129.663588 1.89617356,127.049749 1.89617356,123.892044 C1.89617356,121.085194 2.46577627,118.611696 3.60499879,116.471473 C4.74422131,114.33125 6.31494395,112.541911 8.31721383,111.103401 C10.3194837,109.66489 12.6669373,108.577252 15.3596451,107.840455 C18.0523529,107.103657 20.9521485,106.735263 24.059119,106.735263 C27.4422647,106.735263 30.3938424,107.121199 32.9139407,107.893083 C35.434039,108.664966 37.5225823,109.436838 39.1796332,110.208722 C40.7676404,110.980605 41.6997175,112.068243 41.9758927,113.471668 C42.2520679,114.875092 42.0104182,116.383751 41.2509365,117.99769 L40.0081546,120.523841 C39.2486729,122.207951 38.2475529,123.225419 37.0047647,123.576275 C35.7619765,123.927131 34.243036,123.751705 32.4478975,123.049993 C31.2051092,122.558795 29.8242542,122.085146 28.3052908,121.629033 C26.7863275,121.17292 25.1293014,120.944867 23.3341629,120.944867 C21.4009368,120.944867 20.1236458,121.225547 19.5022517,121.786917 C18.8808576,122.348287 18.5701652,123.014904 18.5701652,123.786787 C18.5701652,124.839356 19.19155,125.663856 20.4343382,126.260311 C21.6771264,126.856766 23.2133277,127.453213 25.0429881,128.049668 C26.8726485,128.646124 28.8748884,129.295198 31.0497677,129.99691 C33.2246471,130.698623 35.2268869,131.698548 37.0565473,132.996716 C38.8862077,134.294883 40.422409,135.943883 41.6651972,137.943763 C42.9079854,139.943643 43.5293702,142.522397 43.5293702,145.680103 C43.5293702,148.206267 43.0288102,150.556968 42.0276753,152.732276 C41.0265403,154.907584 39.5766425,156.784637 37.6779383,158.363489 C35.7792341,159.942342 33.4663019,161.187863 30.7390722,162.100089 C28.0118426,163.012315 24.9567007,163.468421 21.573555,163.468421 C17.5690153,163.468421 14.0823562,162.924602 11.1134733,161.836948 C8.14459038,160.749294 5.72809401,159.644114 3.86391171,158.521374 Z" id="s"></path>
            <path d="M335.8776,5.72940789 C335.8776,1.90978353 337.773217,0 341.564509,0 L348.078605,0 C351.869897,0 353.765514,1.90978353 353.765514,5.72940789 L353.765514,53.8564342 C353.765514,55.870418 354.058473,57.2246281 354.6444,57.9191053 C355.230327,58.6135824 355.936875,59.0302625 356.764066,59.1691579 C358.004852,59.3080533 359.00436,59.7594567 359.762618,60.5233816 C360.520877,61.2873065 360.9,62.4678999 360.9,64.0651974 L360.9,69.1695789 C360.9,70.9752196 360.451945,72.3988764 359.555821,73.4405921 C358.659698,74.4823078 357.17767,75.0031579 355.109693,75.0031579 C352.834918,75.0031579 350.542944,74.7948179 348.233702,74.3781316 C345.924461,73.9614453 343.856515,73.0412769 342.029802,71.6175987 C340.203088,70.1939205 338.72106,68.1452436 337.583673,65.4715066 C336.446285,62.7977695 335.8776,59.2039041 335.8776,54.6898026 L335.8776,5.72940789 Z" id="l"></path>
            <path d="M298.327034,20.1931579 C302.616108,20.1931579 306.641448,20.8773172 310.403177,22.2456562 C314.164905,23.6139952 317.434396,25.5436752 320.211747,28.0347539 C322.989098,30.5258327 325.186336,33.5256079 326.803527,37.0341695 C328.420719,40.5427311 329.229303,44.4371761 329.229303,48.7176213 C329.229303,52.9278953 328.420719,56.7697126 326.803527,60.2431887 C325.186336,63.7166647 322.989098,66.6988973 320.211747,69.1899761 C317.434396,71.6810548 314.182483,73.5931922 310.455911,74.9264457 C306.729339,76.2596991 302.721576,76.9263158 298.432503,76.9263158 C294.143429,76.9263158 290.135667,76.2596991 286.409095,74.9264457 C282.682523,73.5931922 279.43061,71.6810548 276.653259,69.1899761 C273.875908,66.6988973 271.67867,63.7166647 270.061478,60.2431887 C268.444287,56.7697126 267.635703,52.9278953 267.635703,48.7176213 C267.635703,44.4371761 268.444287,40.5427311 270.061478,37.0341695 C271.67867,33.5256079 273.875908,30.5258327 276.653259,28.0347539 C279.43061,25.5436752 282.682523,23.6139952 286.409095,22.2456562 C290.135667,20.8773172 294.108274,20.1931579 298.327034,20.1931579 Z M298.913703,35.5784211 C297.268566,35.5784211 295.726274,35.8887283 294.28678,36.5093521 C292.847285,37.1299758 291.579178,38.0091797 290.482421,39.1469899 C289.385663,40.2848002 288.511698,41.6639435 287.860498,43.2844611 C287.209298,44.9049787 286.883703,46.7151043 286.883703,48.714892 C286.883703,50.7146797 287.209298,52.507566 287.860498,54.0936045 C288.511698,55.6796431 289.385663,57.0243078 290.482421,58.1276389 C291.579178,59.2309701 292.847285,60.0756953 294.28678,60.66184 C295.726274,61.2479847 297.268566,61.5410526 298.913703,61.5410526 C300.558839,61.5410526 302.101132,61.2479847 303.540626,60.66184 C304.98012,60.0756953 306.248227,59.2309701 307.344985,58.1276389 C308.441742,57.0243078 309.315708,55.6796431 309.966908,54.0936045 C310.618108,52.507566 310.943703,50.7146797 310.943703,48.714892 C310.943703,46.7151043 310.618108,44.9049787 309.966908,43.2844611 C309.315708,41.6639435 308.441742,40.2848002 307.344985,39.1469899 C306.248227,38.0091797 304.98012,37.1299758 303.540626,36.5093521 C302.101132,35.8887283 300.558839,35.5784211 298.913703,35.5784211 Z" id="o"></path>
            <path d="M228.0888,26.5173887 C228.0888,22.6525616 230.004415,20.7201771 233.835703,20.7201771 L239.687095,20.7201771 C243.518383,20.7201771 245.433998,22.6525616 245.433998,26.5173887 L245.433998,29.8903117 C245.433998,30.3821988 245.416583,30.80381 245.381753,31.1551579 C245.346923,31.5065058 245.329509,31.8578484 245.329509,32.2091964 C245.259849,32.5605443 245.225019,32.9118869 245.225019,33.2632348 L245.433998,33.2632348 C245.851956,31.8578432 246.513714,30.3822041 247.419291,28.8362733 C248.324869,27.2903425 249.404579,25.8849719 250.658455,24.6201194 C251.912331,23.355267 253.32292,22.301239 254.890265,21.458004 C256.45761,20.6147691 258.077176,20.1931579 259.74901,20.1931579 C261.560164,20.1931579 262.831436,20.6850376 263.562864,21.6688117 C264.294292,22.6525859 264.66,24.0930907 264.66,25.9903694 L264.66,31.8929848 C264.66,35.7578118 262.744385,37.6901964 258.913097,37.6901964 C256.753644,37.6901964 254.872858,38.1293747 253.270683,39.0077444 C251.668509,39.8861142 250.344993,41.0631121 249.300096,42.5387733 C248.255199,44.0144345 247.471539,45.7360134 246.94909,47.7035617 C246.426642,49.67111 246.165422,51.7440316 246.165422,53.9223887 L246.165422,69.2059464 C246.165422,73.0707734 244.249807,75.0031579 240.418519,75.0031579 L233.835703,75.0031579 C230.004415,75.0031579 228.0888,73.0707734 228.0888,69.2059464 L228.0888,26.5173887 Z" id="r"></path>
            <path d="M190.110393,36.0497261 L188.533351,36.0497261 C184.748431,36.0497261 182.856,34.1504199 182.856,30.3517507 L182.856,27.7617618 C182.856,23.9630926 184.783477,22.0637864 188.638487,22.0637864 L190.636074,22.0637864 L190.636074,12.429028 C190.636074,8.63035877 192.56355,6.73105263 196.418561,6.73105263 L202.516457,6.73105263 C206.371468,6.73105263 208.298945,8.63035877 208.298945,12.429028 L208.298945,22.0637864 L213.87116,22.0637864 C217.726171,22.0637864 219.653647,23.9630926 219.653647,27.7617618 L219.653647,30.3517507 C219.653647,34.1504199 217.761216,36.0497261 213.976296,36.0497261 L208.298945,36.0497261 L208.298945,52.2112563 C208.298945,54.4904578 208.947278,56.1307677 210.243963,57.132235 C211.540649,58.1337024 212.995017,58.7380271 214.607113,58.9452272 C216.709846,59.2214941 218.199259,59.7394867 219.075398,60.4992205 C219.951537,61.2589544 220.3896,62.6402679 220.3896,64.6432026 L220.3896,69.3051825 C220.3896,71.4462506 219.75879,72.9311627 218.49715,73.7599633 C217.23551,74.5887638 215.378123,75.0031579 212.924934,75.0031579 C210.892292,75.0031579 208.579321,74.7268952 205.98595,74.1743615 C203.392579,73.6218278 200.904382,72.6203754 198.521284,71.1699744 C196.138186,69.7195735 194.14062,67.7339352 192.528524,65.2130002 C190.916429,62.6920651 190.110393,59.4632447 190.110393,55.526442 L190.110393,36.0497261 Z" id="t"></path>
            <path d="M123.1872,27.1614122 C123.1872,23.3479206 125.105752,21.4412034 128.942913,21.4412034 L134.803275,21.4412034 C138.570669,21.4412034 140.454338,23.3479206 140.454338,27.1614122 L140.454338,28.0974463 C140.454338,28.2361187 140.436896,28.3747891 140.402013,28.5134615 C140.36713,28.6521339 140.349689,28.7908043 140.349689,28.9294767 L140.349689,29.4494957 L140.558987,29.4494957 C141.186886,28.4094525 141.98919,27.3347574 142.965922,26.225378 C143.942653,25.1159986 145.128667,24.1279725 146.523998,23.2612698 C147.91933,22.3945672 149.541378,21.6665479 151.390192,21.0771902 C153.239006,20.4878324 155.349413,20.1931579 157.721476,20.1931579 C160.442372,20.1931579 162.988813,20.5398337 165.360876,21.2331958 C167.732939,21.9265579 169.773581,23.0532545 171.482861,24.6133192 C173.192142,26.1733839 174.55257,28.2361052 175.564185,30.801545 C176.5758,33.3669848 177.0816,36.521735 177.0816,40.2658903 L177.0816,69.2829492 C177.0816,73.0964407 175.163048,75.0031579 171.325887,75.0031579 L164.73298,75.0031579 C160.895819,75.0031579 158.977268,73.0964407 158.977268,69.2829492 L158.977268,43.5940118 C158.977268,41.0979082 158.488909,39.2951938 157.512177,38.1858144 C156.535445,37.0764351 155.035487,36.5217537 153.012256,36.5217537 C150.989026,36.5217537 149.244888,36.9030972 147.77979,37.6657955 C146.314692,38.4284938 145.093796,39.4685213 144.117064,40.7859093 C143.140332,42.1032973 142.425236,43.628671 141.971753,45.3620763 C141.51827,47.0954816 141.291532,48.898196 141.291532,50.7702736 L141.291532,69.2829492 C141.291532,73.0964407 139.372981,75.0031579 135.53582,75.0031579 L128.942913,75.0031579 C125.105752,75.0031579 123.1872,73.0964407 123.1872,69.2829492 L123.1872,27.1614122 Z" id="n"></path>
            <path d="M85.5481315,20.1931579 C89.837205,20.1931579 93.8625456,20.8773172 97.624274,22.2456562 C101.386002,23.6139952 104.655493,25.5436752 107.432844,28.0347539 C110.210195,30.5258327 112.407433,33.5256079 114.024625,37.0341695 C115.641816,40.5427311 116.4504,44.4371761 116.4504,48.7176213 C116.4504,52.9278953 115.641816,56.7697126 114.024625,60.2431887 C112.407433,63.7166647 110.210195,66.6988973 107.432844,69.1899761 C104.655493,71.6810548 101.40358,73.5931922 97.6770082,74.9264457 C93.9504362,76.2596991 89.9426735,76.9263158 85.6536,76.9263158 C81.3645265,76.9263158 77.3567638,76.2596991 73.6301918,74.9264457 C69.9036197,73.5931922 66.651707,71.6810548 63.8743562,69.1899761 C61.0970053,66.6988973 58.899767,63.7166647 57.2825753,60.2431887 C55.6653837,56.7697126 54.8568,52.9278953 54.8568,48.7176213 C54.8568,44.4371761 55.6653837,40.5427311 57.2825753,37.0341695 C58.899767,33.5256079 61.0970053,30.5258327 63.8743562,28.0347539 C66.651707,25.5436752 69.9036197,23.6139952 73.6301918,22.2456562 C77.3567638,20.8773172 81.3293707,20.1931579 85.5481315,20.1931579 Z M85.1724,35.5784211 C83.5272636,35.5784211 81.9849713,35.8887283 80.5454769,36.5093521 C79.1059825,37.1299758 77.8378756,38.0091797 76.7411179,39.1469899 C75.6443603,40.2848002 74.7703947,41.6639435 74.1191949,43.2844611 C73.467995,44.9049787 73.1424,46.7151043 73.1424,48.714892 C73.1424,50.7146797 73.467995,52.507566 74.1191949,54.0936045 C74.7703947,55.6796431 75.6443603,57.0243078 76.7411179,58.1276389 C77.8378756,59.2309701 79.1059825,60.0756953 80.5454769,60.66184 C81.9849713,61.2479847 83.5272636,61.5410526 85.1724,61.5410526 C86.8175364,61.5410526 88.3598287,61.2479847 89.7993231,60.66184 C91.2388175,60.0756953 92.5069244,59.2309701 93.6036821,58.1276389 C94.7004397,57.0243078 95.5744053,55.6796431 96.2256051,54.0936045 C96.876805,52.507566 97.2024,50.7146797 97.2024,48.714892 C97.2024,46.7151043 96.876805,44.9049787 96.2256051,43.2844611 C95.5744053,41.6639435 94.7004397,40.2848002 93.6036821,39.1469899 C92.5069244,38.0091797 91.2388175,37.1299758 89.7993231,36.5093521 C88.3598287,35.8887283 86.8175364,35.5784211 85.1724,35.5784211 Z" id="o"></path>
            <path d="M0,48.5071087 C0,44.8582046 0.666752286,41.332153 2.00027686,37.9288483 C3.33380143,34.5255435 5.28141995,31.5082257 7.84319084,28.8768045 C10.4049617,26.2453833 13.563262,24.1402779 17.3181865,22.5614252 C21.073111,20.9825724 25.3719086,20.1931579 30.2147084,20.1931579 C34.3556531,20.1931579 37.8648756,20.7018917 40.7424813,21.7193746 C43.620087,22.7368574 45.9361738,23.8420378 47.6908114,25.0349487 C49.164707,26.017346 49.9893743,27.1926965 50.1648381,28.5610355 C50.3403018,29.9293746 49.9367413,31.3854058 48.9541442,32.9291729 L47.1644228,35.6658373 C46.1818257,37.2797757 45.0588745,38.1744455 43.7955355,38.3498735 C42.5321964,38.5253016 41.0583229,38.1919933 39.3738708,37.3499385 C38.3210883,36.7885686 37.1279526,36.3149199 35.794428,35.9289781 C34.4609034,35.5430363 32.98703,35.3500684 31.3727634,35.3500684 C29.1970128,35.3500684 27.3020326,35.7184618 25.687766,36.4552597 C24.0734994,37.1920577 22.7224487,38.1744402 21.6345734,39.4024368 C20.5466981,40.6304333 19.7395769,42.0162944 19.2131856,43.5600615 C18.6867943,45.1038286 18.4236027,46.6826577 18.4236027,48.296596 C18.4236027,49.9105344 18.7043405,51.5244485 19.2658245,53.1383869 C19.8273085,54.7523252 20.6695219,56.1908139 21.79249,57.4538961 C22.9154581,58.7169783 24.3191471,59.7519884 26.0035992,60.5589576 C27.6880513,61.3659268 29.6883081,61.7694053 32.0044298,61.7694053 C33.8292529,61.7694053 35.5838641,61.4536395 37.2683162,60.8220984 C38.9527683,60.1905573 40.461734,59.4888555 41.7952586,58.716972 C43.5498962,57.7345747 45.076408,57.3837238 46.3748398,57.6644087 C47.6732716,57.9450937 48.7786768,58.9625613 49.6910883,60.7168421 L51.0596988,63.3482502 C51.8317393,64.9621885 52.1124771,66.4357623 51.9019206,67.7690157 C51.6913641,69.1022691 50.8842429,70.2600771 49.4805328,71.2424744 C47.5855242,72.5055566 45.0237918,73.7686198 41.7952586,75.031702 C38.5667254,76.2947842 34.7065806,76.9263158 30.2147084,76.9263158 C25.3719086,76.9263158 21.073111,76.1544438 17.3181865,74.6106767 C13.563262,73.0669096 10.4049617,70.9793467 7.84319084,68.3479255 C5.28141995,65.7165043 3.33380143,62.681644 2.00027686,59.2432536 C0.666752286,55.8048632 0,52.226184 0,48.5071087 Z" id="c"></path>
        </g>
        <path d="M217.702249,229.85 L217.702249,243.35 C217.702249,255.776407 207.628656,265.85 195.202249,265.85 L181.702249,265.85 C176.731686,265.85 172.702249,261.820563 172.702249,256.85 C172.702249,251.879437 176.731686,247.85 181.702249,247.85 L190.702249,247.85 C195.672812,247.85 199.702249,243.820563 199.702249,238.85 L199.702249,229.841 C199.69775,224.870437 203.727187,220.841 208.69775,220.841 C208.69925,220.841 208.70075,220.841 208.702248,220.8455 L208.70225,220.8455 C213.671053,220.852486 217.697748,224.881195 217.702249,229.85 Z M91.7022489,229.841 L91.7022489,238.85 C91.7022489,243.820563 95.7316861,247.85 100.702249,247.85 L109.702249,247.85 C114.672812,247.85 118.702249,251.879437 118.702249,256.85 C118.702249,261.820563 114.672812,265.85 109.702249,265.85 L96.2022489,265.85 C83.775842,265.85 73.7022489,255.776407 73.7022489,243.35 L73.7022489,229.85 C73.70675,224.881195 77.7334452,220.852486 82.7022478,220.8455 L82.70225,220.8455 C87.6728099,220.838516 91.7042614,224.865938 91.7067466,229.8365 C91.7067474,229.838 91.7067478,229.8395 91.7022489,229.841 Z M118.702249,130.85 C118.702249,135.820563 114.672812,139.85 109.702249,139.85 L100.702249,139.85 C95.7316861,139.85 91.7022489,143.879437 91.7022489,148.85 L91.7022489,157.841 C91.6977478,162.809805 87.6710526,166.838514 82.70225,166.8455 L82.7022478,166.8455 C77.7316879,166.852484 73.7002364,162.825062 73.6977511,157.8545 C73.6977504,157.853 73.69775,157.8515 73.7022489,157.85 L73.7022489,144.35 C73.7022489,131.923593 83.775842,121.85 96.2022489,121.85 L109.702249,121.85 C114.672812,121.85 118.702249,125.879437 118.702249,130.85 Z M217.702249,144.35 L217.702249,157.85 C217.706748,162.820563 213.677311,166.85 208.706748,166.85 C208.705248,166.85 208.703748,166.85 208.70225,166.8455 L208.702248,166.8455 C203.733445,166.838514 199.70675,162.809805 199.702249,157.841 L199.702249,148.85 C199.702249,143.879437 195.672812,139.85 190.702249,139.85 L181.702249,139.85 C176.731686,139.85 172.702249,135.820563 172.702249,130.85 C172.702249,125.879437 176.731686,121.85 181.702249,121.85 L195.202249,121.85 C207.628656,121.85 217.702249,131.923593 217.702249,144.35 Z" id="Shape" fill="#2A2228"></path>
        <g id="Group" transform="translate(86.604649, 134.752400)">
            <g id="Group" transform="translate(22.161600, 32.335269)">
                <g id="control" transform="translate(36.936000, 36.936000) rotate(-315.000000) translate(-36.936000, -36.936000) ">
                    <path d="M21.9501517,1.82289588 L42.27348,3.51068883 L42.27348,3.51068883 L27.074088,27.074088 L29.8956058,59.1796226 C30.4459102,65.4696306 26.164622,71.0680023 20.1266744,72.310175 L18.7035182,72.5178332 C12.4135101,73.0681376 6.81513845,68.7868495 5.57296579,62.7489018 L5.36530752,61.3257456 L1.91966753,21.9419002 C1.02606081,11.7279287 8.58170933,2.72345746 18.7956808,1.82985074 C19.8450695,1.73804113 20.9003684,1.73571445 21.9501517,1.82289588 Z" id="Path" fill="url(#radialGradient-1)"></path>
                    <path d="M41.1594978,4.19538026 L41.1594978,4.19538026 L41.1594978,4.19538026 L62.4388609,4.19538026 C69.2385907,4.19538026 74.7508609,9.70765042 74.7508609,16.5073803 C74.7508609,23.3819556 69.1956904,28.964273 62.3211966,28.9977678 C61.6712419,29.0009363 60.9978112,29.0038228 60.3009045,29.0064272 C52.6684444,29.0349509 41.9253528,29.0307511 28.0716297,28.9938279 L26.8934945,21.2571908 C25.6601448,13.1579686 31.2260341,5.59242429 39.3252563,4.35907459 C39.9326899,4.26657459 40.5452839,4.2119045 41.1594978,4.19538026 Z" id="Rectangle" fill="url(#radialGradient-2)" transform="translate(49.557495, 16.610227) rotate(5.000000) translate(-49.557495, -16.610227) "></path>
                </g>
            </g>
        </g>
    </g>
</svg>