<svg width="1280" height="720" viewBox="0 0 1280 720" fill="none" xmlns="http://www.w3.org/2000/svg">
<rect width="1280" height="720" fill="#DE6E6F"/>
<path d="M252.517 337.719H274.241V501.595H252.517V337.719Z" fill="#8B545B"/>
<path d="M303.086 413.224H324.81V501.595H303.086V413.224ZM304.989 389.256C302.877 387.145 301.821 384.588 301.821 381.588C301.821 378.213 303.157 375.401 305.828 373.151C308.5 370.902 311.382 369.777 314.475 369.777C317.709 369.777 320.592 370.902 323.123 373.151C325.654 375.401 326.919 378.213 326.919 381.588C326.919 384.962 325.654 387.774 323.123 390.024C320.592 392.133 317.709 393.188 314.475 393.188C311.382 393.188 308.5 392.133 305.828 390.024C305.532 389.775 305.253 389.519 304.989 389.256Z" fill="#8B545B"/>
<path d="M353.655 501.595V337.719H375.379V501.595H353.655ZM396.892 442.541L437.386 501.595H412.077L382.55 454.984L396.892 442.541ZM368.63 474.388L366.521 453.508L420.092 411.326C420.092 411.326 422.598 413.514 425.433 415.989C426.291 416.738 427.18 417.514 428.038 418.263C430.873 420.738 433.379 422.926 433.379 422.926L368.63 474.388Z" fill="#8B545B"/>
<path d="M495.205 503.705C484.941 503.705 476.153 501.736 468.842 497.799C465.108 495.717 461.815 493.25 458.961 490.398C456.226 487.664 453.895 484.578 451.969 481.137C448.032 473.966 446.063 465.811 446.063 456.672C446.063 447.954 448.243 440.08 452.602 433.05C457.101 425.879 463.077 420.184 470.529 415.966C478.122 411.748 486.488 409.639 495.627 409.639C507.438 409.639 517.21 413.084 524.944 419.973C532.818 426.863 538.09 436.495 540.762 448.868L468.842 473.755L463.78 461.101L521.358 440.432L516.929 443.173C515.475 439.417 513.29 436.078 510.373 433.157C509.906 432.689 509.42 432.231 508.914 431.784C505.259 428.41 500.267 426.722 493.94 426.722C488.878 426.722 484.308 427.988 480.231 430.519C476.294 432.909 473.13 436.284 470.74 440.642C468.49 444.861 467.365 449.852 467.365 455.617C467.365 461.523 468.56 466.725 470.951 471.224C472.265 473.489 473.808 475.506 475.578 477.277C477.215 478.916 479.047 480.343 481.074 481.559C485.433 484.09 490.284 485.355 495.627 485.355C499.424 485.355 503.009 484.652 506.384 483.246C509.899 481.84 513.203 480.083 516.296 477.974L526.209 494.003C521.569 496.955 516.507 499.346 511.024 501.174C505.681 502.861 500.408 503.705 495.205 503.705Z" fill="#8B545B"/>
<path d="M560.66 337.719H582.384V501.595H560.66V337.719Z" fill="#8B545B"/>
<path d="M618.611 543.988L677.033 413.224H696.858L639.913 543.988H618.611ZM640.967 502.228L598.152 413.224H622.618L657.629 491.261L640.967 502.228Z" fill="#8B545B"/>
<path d="M746.277 337.719H768.001V501.595H746.277V337.719Z" fill="#8B545B"/>
<path d="M789.253 456.461C789.253 447.603 791.362 439.658 795.58 432.628C799.799 425.457 805.634 419.833 813.086 415.755C820.538 411.678 829.045 409.639 838.606 409.639C848.308 409.639 856.815 411.678 864.126 415.755C867.778 417.792 871.01 420.215 873.82 423.023C876.636 425.837 879.029 429.039 880.999 432.628C885.076 439.658 887.115 447.603 887.115 456.461C887.115 465.319 885.076 473.334 880.999 480.504C877.062 487.675 871.438 493.37 864.126 497.588C856.815 501.666 848.238 503.705 838.395 503.705C828.974 503.705 820.538 501.806 813.086 498.01C808.935 495.855 805.261 493.179 802.062 489.982C799.625 487.547 797.465 484.809 795.58 481.77C791.362 474.599 789.253 466.163 789.253 456.461ZM811.188 456.672C811.188 462.155 812.383 467.147 814.773 471.646C816.166 474.186 817.846 476.44 819.811 478.407C821.219 479.815 822.774 481.077 824.475 482.192C828.553 484.723 833.122 485.988 838.184 485.988C843.387 485.988 848.027 484.723 852.104 482.192C856.182 479.52 859.346 476.005 861.595 471.646C863.986 467.147 865.181 462.155 865.181 456.672C865.181 451.188 863.986 446.267 861.595 441.908C860.247 439.295 858.57 436.985 856.564 434.979C855.224 433.638 853.737 432.432 852.104 431.362C848.027 428.691 843.387 427.355 838.184 427.355C832.982 427.355 828.342 428.691 824.264 431.362C820.187 434.034 816.953 437.619 814.562 442.119C812.313 446.478 811.188 451.329 811.188 456.672Z" fill="#8B545B"/>
<path d="M951.823 545.465C944.934 545.465 938.958 544.691 933.896 543.145C928.834 541.598 924.265 539.419 920.187 536.606C916.25 533.935 912.454 531.053 908.798 527.959L921.663 512.985C926.022 517.062 930.522 520.296 935.162 522.686C939.802 525.217 945.215 526.483 951.402 526.483C957.588 526.483 962.861 525.428 967.22 523.319C971.719 521.351 975.164 518.539 977.554 514.883C979.945 511.227 981.14 506.868 981.14 501.806L981.351 478.817L982.827 483.035C980.437 488.8 976.008 493.721 969.54 497.799C963.072 501.736 955.128 503.705 945.707 503.705C937.692 503.705 930.24 501.666 923.351 497.588C920.149 495.654 917.247 493.387 914.646 490.787C911.766 487.908 909.254 484.621 907.111 480.926C903.033 473.896 900.994 465.952 900.994 457.093C900.994 447.813 903.103 439.658 907.321 432.628C911.68 425.457 917.375 419.833 924.405 415.755C931.435 411.537 938.958 409.428 946.972 409.428C954.846 409.428 961.877 410.975 968.063 414.068C972.373 416.124 975.931 418.556 978.74 421.363C979.964 422.586 981.045 423.881 981.984 425.246L980.718 428.832L983.038 413.224H1003.07V502.017C1003.07 510.172 1000.9 517.484 996.536 523.952C992.318 530.56 986.413 535.763 978.82 539.559C971.227 543.496 962.228 545.465 951.823 545.465ZM922.929 456.461C922.929 461.944 924.194 466.936 926.725 471.435C928.087 473.856 929.713 476.012 931.603 477.903C933.227 479.528 935.046 480.957 937.06 482.192C941.559 484.723 946.551 485.988 952.034 485.988C956.956 485.988 961.385 485.144 965.322 483.457C969.259 481.629 972.563 479.239 975.234 476.286C978.047 473.193 980.085 469.607 981.351 465.53V447.181C980.085 443.103 978.047 439.658 975.234 436.846C972.422 433.893 969.048 431.573 965.111 429.886C961.174 428.199 956.815 427.355 952.034 427.355C946.551 427.355 941.559 428.621 937.06 431.152C932.701 433.542 929.256 436.916 926.725 441.275C924.194 445.634 922.929 450.696 922.929 456.461Z" fill="#8B545B"/>
<path d="M1032.07 413.224H1053.79V501.595H1032.07V413.224ZM1033.97 389.256C1031.86 387.145 1030.8 384.588 1030.8 381.588C1030.8 378.213 1032.14 375.401 1034.81 373.151C1037.48 370.902 1040.36 369.777 1043.46 369.777C1046.69 369.777 1049.57 370.902 1052.1 373.151C1054.64 375.401 1055.9 378.213 1055.9 381.588C1055.9 384.962 1054.64 387.774 1052.1 390.024C1049.57 392.133 1046.69 393.188 1043.46 393.188C1040.36 393.188 1037.48 392.133 1034.81 390.024C1034.51 389.775 1034.23 389.519 1033.97 389.256Z" fill="#8B545B"/>
<path d="M1154.98 493.37C1151.04 496.604 1146.26 499.135 1140.64 500.963C1135.15 502.791 1129.6 503.705 1123.98 503.705C1114.27 503.705 1105.7 501.806 1098.24 498.01C1094.19 495.903 1090.63 493.319 1087.56 490.259C1085.11 487.806 1082.97 485.046 1081.16 481.981C1077.08 475.091 1075.04 466.866 1075.04 457.304C1075.04 447.884 1077.22 439.729 1081.58 432.839C1085.94 425.809 1091.71 420.465 1098.88 416.81C1106.05 413.013 1113.64 411.115 1121.66 411.115C1128.97 411.115 1135.43 412.099 1141.06 414.068C1146.68 416.036 1151.53 418.778 1155.61 422.293L1144.86 436.424C1142.47 434.456 1139.44 432.698 1135.79 431.152C1132.27 429.605 1128.19 428.832 1123.55 428.832C1118.63 428.832 1114.13 430.097 1110.06 432.628C1105.98 435.018 1102.74 438.393 1100.35 442.752C1097.96 446.97 1096.77 451.821 1096.77 457.304C1096.77 462.507 1097.96 467.358 1100.35 471.857C1101.62 474.034 1103.11 475.983 1104.83 477.704C1106.55 479.429 1108.51 480.925 1110.69 482.192C1115.05 484.723 1120.04 485.988 1125.66 485.988C1129.32 485.988 1132.69 485.496 1135.79 484.512C1138.88 483.387 1141.62 481.84 1144.01 479.872L1154.98 493.37Z" fill="#8B545B"/>
<path d="M200.723 264.201H179L252.517 337.719H274.241L200.723 264.201Z" fill="#8B545B"/>
<path d="M179 264.201V428.078L252.517 501.595V337.719L179 264.201Z" fill="#8B545B"/>
<path d="M232.31 299.634C229.639 301.883 228.303 304.696 228.303 308.07L301.821 381.588C301.821 378.213 303.157 375.401 305.828 373.151L232.31 299.634Z" fill="#8B545B"/>
<path d="M240.958 296.259C237.864 296.259 234.982 297.384 232.31 299.634L305.828 373.151C308.5 370.902 311.382 369.777 314.475 369.777L240.958 296.259Z" fill="#8B545B"/>
<path d="M228.303 308.07C228.303 311.071 229.359 313.627 231.472 315.738L304.985 389.251C302.875 387.141 301.821 384.586 301.821 381.588L228.303 308.07Z" fill="#8B545B"/>
<path d="M249.605 299.634C247.074 297.384 244.192 296.259 240.958 296.259L314.475 369.777C317.709 369.777 320.592 370.902 323.123 373.151L249.605 299.634Z" fill="#8B545B"/>
<path d="M200.723 428.078V264.201L274.241 337.719V501.595L200.723 428.078Z" fill="#8B545B"/>
<path d="M231.472 315.738C231.735 316.001 232.015 316.257 232.31 316.507L305.828 390.024C305.532 389.775 305.253 389.519 304.989 389.256L231.472 315.738Z" fill="#8B545B"/>
<path d="M232.31 316.506C234.982 318.616 237.864 319.67 240.958 319.67L314.475 393.188C311.382 393.188 308.5 392.133 305.828 390.024L232.31 316.506Z" fill="#8B545B"/>
<path d="M301.861 264.201H280.138L353.655 337.719H375.379L301.861 264.201Z" fill="#8B545B"/>
<path d="M249.605 299.634C249.994 299.98 250.354 300.339 250.683 300.712L323.123 373.151C325.654 375.401 326.919 378.213 326.919 381.588L253.401 308.07C253.401 305.215 252.495 302.762 250.683 300.712L249.605 299.634Z" fill="#8B545B"/>
<path d="M240.958 319.67C244.192 319.67 247.074 318.616 249.605 316.506L323.123 390.024C320.592 392.133 317.709 393.188 314.475 393.188L240.958 319.67Z" fill="#8B545B"/>
<path d="M249.605 316.507C252.136 314.257 253.401 311.445 253.401 308.07L326.919 381.588C326.919 384.962 325.654 387.775 323.123 390.024L249.605 316.507Z" fill="#8B545B"/>
<path d="M251.292 339.707H229.569L303.086 413.224H324.81L251.292 339.707Z" fill="#8B545B"/>
<path d="M229.569 339.707V428.078L303.086 501.596V413.224L229.569 339.707Z" fill="#8B545B"/>
<path d="M179 428.078H200.723L274.241 501.595H252.517L179 428.078Z" fill="#8B545B"/>
<path d="M280.138 264.201V428.078L353.655 501.595V337.719L280.138 264.201Z" fill="#8B545B"/>
<path d="M251.292 428.078V339.707L324.81 413.224V501.596L251.292 428.078Z" fill="#8B545B"/>
<path d="M301.861 428.078V264.201L375.379 337.719V501.595L301.861 428.078Z" fill="#8B545B"/>
<path d="M229.569 428.078H251.292L324.81 501.595H303.086L229.569 428.078Z" fill="#8B545B"/>
<path d="M346.574 337.808L293.003 379.99L366.521 453.508L420.092 411.326L346.574 337.808Z" fill="#8B545B"/>
<path d="M293.003 379.99L295.112 400.87L368.63 474.388L366.521 453.508L293.003 379.99Z" fill="#8B545B"/>
<path d="M351.916 342.471L346.574 337.808L420.092 411.326L425.433 415.989L351.916 342.471Z" fill="#8B545B"/>
<path d="M323.374 369.023L309.032 381.467L382.55 454.984L396.892 442.541L323.374 369.023Z" fill="#8B545B"/>
<path d="M354.52 344.745L351.916 342.471L425.433 415.989L428.038 418.263L354.52 344.745Z" fill="#8B545B"/>
<path d="M295.112 400.871L359.862 349.409L433.379 422.926L368.63 474.388L295.112 400.871Z" fill="#8B545B"/>
<path d="M359.861 349.408L354.52 344.745L428.038 418.263L433.379 422.926L359.861 349.408Z" fill="#8B545B"/>
<path d="M280.138 428.078H301.861L375.379 501.595H353.655L280.138 428.078Z" fill="#8B545B"/>
<path d="M309.032 381.467L338.56 428.078L412.077 501.595L382.55 454.984L309.032 381.467Z" fill="#8B545B"/>
<path d="M397.011 342.448C389.559 346.667 383.583 352.361 379.084 359.532L452.602 433.05C457.101 425.879 463.077 420.184 470.529 415.966L397.011 342.448Z" fill="#8B545B"/>
<path d="M363.869 428.078L323.374 369.023L396.892 442.541L437.386 501.595L363.869 428.078Z" fill="#8B545B"/>
<path d="M379.084 359.532C374.725 366.562 372.546 374.436 372.546 383.154L446.063 456.672C446.063 447.954 448.243 440.08 452.602 433.05L379.084 359.532Z" fill="#8B545B"/>
<path d="M422.11 336.121C412.97 336.121 404.604 338.23 397.011 342.448L470.529 415.966C478.122 411.748 486.488 409.639 495.627 409.639L422.11 336.121Z" fill="#8B545B"/>
<path d="M508.866 264.201H487.142L560.66 337.719H582.384L508.866 264.201Z" fill="#8B545B"/>
<path d="M397.222 367.125C399.612 362.766 402.776 359.392 406.713 357.001L480.231 430.519C476.294 432.909 473.13 436.284 470.74 440.643L397.222 367.125Z" fill="#8B545B"/>
<path d="M406.713 357.001C410.791 354.47 415.36 353.205 420.422 353.205L493.94 426.722C488.878 426.722 484.308 427.988 480.231 430.519L406.713 357.001Z" fill="#8B545B"/>
<path d="M393.848 382.099C393.848 376.335 394.972 371.343 397.222 367.125L470.74 440.643C468.49 444.861 467.365 449.852 467.365 455.617L393.848 382.099Z" fill="#8B545B"/>
<path d="M372.546 383.154C372.546 392.293 374.514 400.449 378.451 407.62L451.969 481.137C448.032 473.966 446.063 465.811 446.063 456.672L372.546 383.154Z" fill="#8B545B"/>
<path d="M451.426 346.456C443.693 339.566 433.92 336.121 422.11 336.121L495.627 409.639C507.438 409.639 517.21 413.084 524.944 419.973L451.426 346.456Z" fill="#8B545B"/>
<path d="M338.56 428.078H363.869L437.386 501.595H412.077L338.56 428.078Z" fill="#8B545B"/>
<path d="M420.422 353.205C426.75 353.205 431.741 354.892 435.397 358.267L508.914 431.784C505.259 428.41 500.267 426.722 493.94 426.722L420.422 353.205Z" fill="#8B545B"/>
<path d="M397.433 397.707C395.043 393.208 393.848 388.005 393.848 382.1L467.365 455.617C467.365 461.523 468.56 466.725 470.951 471.225L397.433 397.707Z" fill="#8B545B"/>
<path d="M390.262 387.583L395.324 400.238L468.842 473.755L463.78 461.101L390.262 387.583Z" fill="#8B545B"/>
<path d="M378.451 407.62C380.378 411.06 382.709 414.147 385.443 416.88L458.945 490.382C456.217 487.652 453.892 484.571 451.969 481.137L378.451 407.62Z" fill="#8B545B"/>
<path d="M435.397 358.267C435.902 358.714 436.388 359.171 436.856 359.639L510.337 433.12C509.881 432.665 509.406 432.22 508.914 431.784L435.397 358.267Z" fill="#8B545B"/>
<path d="M447.841 366.914L390.262 387.583L463.78 461.101L521.358 440.432L447.841 366.914Z" fill="#8B545B"/>
<path d="M402.06 403.76C400.29 401.989 398.748 399.971 397.433 397.707L470.951 471.224C472.265 473.489 473.808 475.506 475.578 477.277L402.06 403.76Z" fill="#8B545B"/>
<path d="M436.856 359.639C439.772 362.56 441.957 365.899 443.411 369.656L516.929 443.173C515.475 439.417 513.29 436.078 510.373 433.157L436.856 359.639Z" fill="#8B545B"/>
<path d="M407.557 408.041C405.534 406.828 403.706 405.404 402.071 403.77L475.578 477.277C477.215 478.915 479.047 480.343 481.074 481.559L407.557 408.041Z" fill="#8B545B"/>
<path d="M385.443 416.88C388.297 419.732 391.591 422.199 395.324 424.281L468.842 497.799C465.108 495.717 461.815 493.25 458.961 490.398L385.443 416.88Z" fill="#8B545B"/>
<path d="M443.411 369.656L447.841 366.914L521.358 440.432L516.929 443.174L443.411 369.656Z" fill="#8B545B"/>
<path d="M395.324 400.238L467.244 375.35L540.762 448.868L468.842 473.755L395.324 400.238Z" fill="#8B545B"/>
<path d="M451.426 346.456C452.876 347.725 454.239 349.087 455.513 350.542L524.944 419.973C532.818 426.863 538.09 436.495 540.762 448.868L467.244 375.35C465.065 365.256 461.154 356.987 455.513 350.542L451.426 346.456Z" fill="#8B545B"/>
<path d="M422.11 411.838C416.766 411.838 411.916 410.572 407.557 408.041L481.074 481.559C485.433 484.09 490.284 485.355 495.627 485.355L422.11 411.838Z" fill="#8B545B"/>
<path d="M487.142 264.201V428.078L560.66 501.595V337.719L487.142 264.201Z" fill="#8B545B"/>
<path d="M395.324 424.281C402.635 428.218 411.423 430.187 421.688 430.187L495.205 503.704C484.941 503.704 476.153 501.736 468.842 497.799L395.324 424.281Z" fill="#8B545B"/>
<path d="M432.866 409.729C429.491 411.135 425.906 411.838 422.11 411.838L495.627 485.355C499.424 485.355 503.009 484.652 506.384 483.246L432.866 409.729Z" fill="#8B545B"/>
<path d="M442.779 404.456C439.685 406.565 436.381 408.323 432.866 409.729L506.384 483.246C509.899 481.84 513.203 480.083 516.296 477.974L442.779 404.456Z" fill="#8B545B"/>
<path d="M508.866 428.078V264.201L582.384 337.719V501.595L508.866 428.078Z" fill="#8B545B"/>
<path d="M421.688 430.187C426.89 430.187 432.163 429.343 437.506 427.656L511.024 501.174C505.681 502.861 500.408 503.705 495.205 503.705L421.688 430.187Z" fill="#8B545B"/>
<path d="M452.691 420.485L442.779 404.456L516.296 477.974L526.209 494.003L452.691 420.485Z" fill="#8B545B"/>
<path d="M437.506 427.656C442.99 425.828 448.051 423.438 452.691 420.485L526.209 494.003C521.569 496.955 516.507 499.346 511.024 501.174L437.506 427.656Z" fill="#8B545B"/>
<path d="M549.1 339.707H524.635L598.152 413.224H622.618L549.1 339.707Z" fill="#8B545B"/>
<path d="M487.142 428.078H508.866L582.384 501.595H560.66L487.142 428.078Z" fill="#8B545B"/>
<path d="M524.635 339.707L567.45 428.711L640.967 502.228L598.152 413.224L524.635 339.707Z" fill="#8B545B"/>
<path d="M584.111 417.743L549.1 339.707L622.618 413.224L657.629 491.261L584.111 417.743Z" fill="#8B545B"/>
<path d="M694.483 264.201H672.759L746.277 337.719H768.001L694.483 264.201Z" fill="#8B545B"/>
<path d="M623.341 339.707H603.515L677.033 413.224H696.858L623.341 339.707Z" fill="#8B545B"/>
<path d="M603.515 339.707L545.093 470.471L618.611 543.988L677.033 413.224L603.515 339.707Z" fill="#8B545B"/>
<path d="M567.449 428.71L584.111 417.743L657.629 491.261L640.967 502.228L567.449 428.71Z" fill="#8B545B"/>
<path d="M566.395 470.471L623.341 339.707L696.858 413.224L639.913 543.988L566.395 470.471Z" fill="#8B545B"/>
<path d="M672.759 264.201V428.078L746.277 501.595V337.719L672.759 264.201Z" fill="#8B545B"/>
<path d="M545.093 470.471H566.395L639.913 543.988H618.611L545.093 470.471Z" fill="#8B545B"/>
<path d="M694.483 428.078V264.201L768.001 337.719V501.595L694.483 428.078Z" fill="#8B545B"/>
<path d="M739.568 342.238C732.116 346.315 726.281 351.939 722.063 359.11L795.58 432.628C799.799 425.457 805.634 419.833 813.086 415.755L739.568 342.238Z" fill="#8B545B"/>
<path d="M722.063 359.11C717.845 366.141 715.736 374.085 715.736 382.943L789.253 456.461C789.253 447.603 791.362 439.658 795.58 432.628L722.063 359.11Z" fill="#8B545B"/>
<path d="M765.088 336.121C755.527 336.121 747.02 338.16 739.568 342.237L813.086 415.755C820.538 411.678 829.045 409.639 838.606 409.639L765.088 336.121Z" fill="#8B545B"/>
<path d="M741.045 368.601C743.435 364.102 746.669 360.516 750.747 357.845L824.264 431.362C820.187 434.034 816.953 437.619 814.562 442.119L741.045 368.601Z" fill="#8B545B"/>
<path d="M672.759 428.078H694.483L768.001 501.595H746.277L672.759 428.078Z" fill="#8B545B"/>
<path d="M750.747 357.845C754.824 355.173 759.464 353.838 764.667 353.838L838.184 427.355C832.982 427.355 828.342 428.691 824.264 431.362L750.747 357.845Z" fill="#8B545B"/>
<path d="M715.736 382.943C715.736 392.645 717.845 401.081 722.063 408.252L795.58 481.77C791.362 474.599 789.253 466.163 789.253 456.461L715.736 382.943Z" fill="#8B545B"/>
<path d="M737.67 383.154C737.67 377.811 738.795 372.96 741.045 368.601L814.562 442.119C812.313 446.478 811.188 451.329 811.188 456.672L737.67 383.154Z" fill="#8B545B"/>
<path d="M790.608 342.237C783.297 338.16 774.79 336.121 765.088 336.121L838.606 409.639C848.308 409.639 856.815 411.678 864.126 415.755L790.608 342.237Z" fill="#8B545B"/>
<path d="M764.667 353.838C769.869 353.838 774.509 355.173 778.587 357.845L852.104 431.362C848.027 428.691 843.387 427.355 838.184 427.355L764.667 353.838Z" fill="#8B545B"/>
<path d="M741.256 398.129C738.865 393.629 737.67 388.638 737.67 383.154L811.188 456.672C811.188 462.155 812.383 467.147 814.773 471.646L741.256 398.129Z" fill="#8B545B"/>
<path d="M722.063 408.252C723.947 411.292 726.108 414.029 728.544 416.464L802.044 489.964C799.615 487.533 797.46 484.802 795.58 481.77L722.063 408.252Z" fill="#8B545B"/>
<path d="M778.587 357.845C780.22 358.915 781.706 360.12 783.046 361.461L856.554 434.968C855.216 433.632 853.733 432.43 852.104 431.362L778.587 357.845Z" fill="#8B545B"/>
<path d="M800.302 349.506C797.492 346.697 794.261 344.274 790.609 342.238L864.126 415.755C867.778 417.792 871.01 420.215 873.82 423.023L800.302 349.506Z" fill="#8B545B"/>
<path d="M746.294 404.889C744.328 402.922 742.649 400.669 741.256 398.129L814.773 471.646C816.166 474.186 817.846 476.44 819.812 478.407L746.294 404.889Z" fill="#8B545B"/>
<path d="M783.046 361.461C785.052 363.467 786.729 365.777 788.078 368.39L861.595 441.908C860.247 439.295 858.57 436.985 856.564 434.978L783.046 361.461Z" fill="#8B545B"/>
<path d="M728.544 416.464C731.743 419.661 735.418 422.337 739.568 424.492L813.086 498.01C808.936 495.855 805.261 493.179 802.062 489.982L728.544 416.464Z" fill="#8B545B"/>
<path d="M750.958 408.674C749.261 407.563 747.71 406.305 746.306 404.901L819.812 478.407C821.219 479.815 822.774 481.077 824.475 482.192L750.958 408.674Z" fill="#8B545B"/>
<path d="M807.481 359.11C805.515 355.528 803.127 352.332 800.318 349.522L873.82 423.023C876.636 425.837 879.029 429.039 880.999 432.628L807.481 359.11Z" fill="#8B545B"/>
<path d="M788.078 368.39C790.468 372.749 791.663 377.67 791.663 383.154L865.181 456.672C865.181 451.188 863.985 446.267 861.595 441.908L788.078 368.39Z" fill="#8B545B"/>
<path d="M764.667 412.47C759.605 412.47 755.035 411.205 750.957 408.674L824.475 482.192C828.553 484.723 833.122 485.988 838.184 485.988L764.667 412.47Z" fill="#8B545B"/>
<path d="M739.568 424.492C747.02 428.289 755.457 430.187 764.877 430.187L838.395 503.705C828.974 503.705 820.538 501.806 813.086 498.01L739.568 424.492Z" fill="#8B545B"/>
<path d="M791.663 383.154C791.663 388.638 790.468 393.629 788.078 398.129L861.595 471.646C863.985 467.147 865.181 462.155 865.181 456.672L791.663 383.154Z" fill="#8B545B"/>
<path d="M813.598 382.943C813.598 374.085 811.559 366.141 807.481 359.11L880.999 432.628C885.076 439.658 887.115 447.603 887.115 456.461L813.598 382.943Z" fill="#8B545B"/>
<path d="M778.587 408.674C774.509 411.205 769.869 412.47 764.667 412.47L838.184 485.988C843.387 485.988 848.027 484.723 852.104 482.192L778.587 408.674Z" fill="#8B545B"/>
<path d="M788.078 398.129C785.828 402.487 782.664 406.003 778.587 408.674L852.104 482.192C856.182 479.52 859.346 476.005 861.595 471.646L788.078 398.129Z" fill="#8B545B"/>
<path d="M850.888 342.238C843.857 346.315 838.163 351.939 833.804 359.11L907.321 432.628C911.68 425.457 917.375 419.833 924.405 415.755L850.888 342.238Z" fill="#8B545B"/>
<path d="M873.455 335.91C865.44 335.91 857.918 338.019 850.888 342.238L924.405 415.755C931.436 411.537 938.958 409.428 946.973 409.428L873.455 335.91Z" fill="#8B545B"/>
<path d="M833.804 359.11C829.586 366.141 827.477 374.296 827.477 383.576L900.994 457.094C900.994 447.813 903.103 439.658 907.321 432.628L833.804 359.11Z" fill="#8B545B"/>
<path d="M764.877 430.187C774.72 430.187 783.297 428.148 790.608 424.071L864.126 497.588C856.815 501.666 848.238 503.705 838.395 503.705L764.877 430.187Z" fill="#8B545B"/>
<path d="M807.481 406.987C811.559 399.816 813.598 391.801 813.598 382.943L887.115 456.461C887.115 465.319 885.076 473.334 880.999 480.504L807.481 406.987Z" fill="#8B545B"/>
<path d="M790.609 424.071C797.92 419.852 803.544 414.158 807.481 406.987L880.999 480.504C877.062 487.675 871.438 493.37 864.126 497.588L790.609 424.071Z" fill="#8B545B"/>
<path d="M853.208 367.758C855.738 363.399 859.183 360.024 863.542 357.634L937.06 431.152C932.701 433.542 929.256 436.916 926.725 441.275L853.208 367.758Z" fill="#8B545B"/>
<path d="M894.546 340.55C888.359 337.457 881.329 335.91 873.455 335.91L946.972 409.428C954.846 409.428 961.877 410.975 968.063 414.068L894.546 340.55Z" fill="#8B545B"/>
<path d="M827.477 383.576C827.477 392.434 829.515 400.378 833.593 407.409L907.111 480.926C903.033 473.896 900.994 465.952 900.994 457.093L827.477 383.576Z" fill="#8B545B"/>
<path d="M849.411 382.943C849.411 377.178 850.677 372.116 853.208 367.758L926.725 441.275C924.194 445.634 922.929 450.696 922.929 456.461L849.411 382.943Z" fill="#8B545B"/>
<path d="M863.542 357.634C868.042 355.103 873.033 353.838 878.517 353.838L952.034 427.355C946.551 427.355 941.559 428.621 937.06 431.152L863.542 357.634Z" fill="#8B545B"/>
<path d="M878.517 353.838C883.297 353.838 887.656 354.681 891.593 356.368L965.111 429.886C961.174 428.199 956.815 427.355 952.034 427.355L878.517 353.838Z" fill="#8B545B"/>
<path d="M853.208 397.918C850.677 393.418 849.411 388.427 849.411 382.943L922.929 456.461C922.929 461.944 924.194 466.936 926.725 471.435L853.208 397.918Z" fill="#8B545B"/>
<path d="M905.222 347.846C902.414 345.039 898.855 342.607 894.546 340.55L968.063 414.068C972.373 416.125 975.931 418.556 978.74 421.363L905.222 347.846Z" fill="#8B545B"/>
<path d="M833.593 407.409C835.736 411.103 838.248 414.391 841.129 417.27L914.628 490.769C911.755 487.894 909.249 484.613 907.111 480.926L833.593 407.409Z" fill="#8B545B"/>
<path d="M909.52 339.707L907.2 355.314L980.718 428.832L983.038 413.224L909.52 339.707Z" fill="#8B545B"/>
<path d="M891.593 356.368C895.53 358.056 898.905 360.376 901.717 363.328L974.219 435.83C974.565 436.16 974.904 436.499 975.234 436.846L974.219 435.83C971.621 433.356 968.585 431.375 965.111 429.886L891.593 356.368Z" fill="#8B545B"/>
<path d="M908.466 351.728C907.53 350.367 906.452 349.076 905.233 347.857L978.74 421.363C979.964 422.586 981.045 423.881 981.984 425.246L908.466 351.728Z" fill="#8B545B"/>
<path d="M858.086 404.385C856.195 402.494 854.569 400.338 853.208 397.918L926.725 471.435C928.087 473.856 929.713 476.012 931.603 477.903L858.086 404.385Z" fill="#8B545B"/>
<path d="M929.557 339.707H909.52L983.038 413.224H1003.07L929.557 339.707Z" fill="#8B545B"/>
<path d="M907.2 355.314L908.466 351.729L981.983 425.246L980.718 428.832L907.2 355.314Z" fill="#8B545B"/>
<path d="M961.292 299.634C958.621 301.883 957.285 304.696 957.285 308.07L1030.8 381.588C1030.8 378.213 1032.14 375.401 1034.81 373.151L961.292 299.634Z" fill="#8B545B"/>
<path d="M969.94 296.259C966.846 296.259 963.964 297.384 961.292 299.634L1034.81 373.151C1037.48 370.902 1040.36 369.777 1043.46 369.777L969.94 296.259Z" fill="#8B545B"/>
<path d="M841.129 417.27C843.729 419.869 846.631 422.136 849.833 424.07L923.351 497.588C920.148 495.654 917.247 493.387 914.646 490.787L841.129 417.27Z" fill="#8B545B"/>
<path d="M863.542 408.674C861.533 407.443 859.717 406.017 858.096 404.396L931.603 477.903C933.227 479.528 935.046 480.957 937.06 482.192L863.542 408.674Z" fill="#8B545B"/>
<path d="M957.285 308.07C957.285 311.071 958.341 313.627 960.454 315.738L1033.97 389.251C1031.86 387.141 1030.8 384.586 1030.8 381.588L957.285 308.07Z" fill="#8B545B"/>
<path d="M978.587 299.634C976.056 297.384 973.174 296.259 969.94 296.259L1043.46 369.777C1046.69 369.777 1049.57 370.902 1052.1 373.151L978.587 299.634Z" fill="#8B545B"/>
<path d="M901.717 363.328C904.529 366.141 906.568 369.585 907.833 373.663L981.351 447.181C980.085 443.103 978.047 439.658 975.234 436.846L901.717 363.328Z" fill="#8B545B"/>
<path d="M960.454 315.738C960.717 316.001 960.996 316.257 961.292 316.507L1034.81 390.024C1034.51 389.775 1034.23 389.519 1033.97 389.256L960.454 315.738Z" fill="#8B545B"/>
<path d="M878.517 412.47C873.033 412.47 868.042 411.205 863.542 408.674L937.06 482.192C941.559 484.723 946.551 485.988 952.034 485.988L878.517 412.47Z" fill="#8B545B"/>
<path d="M961.292 316.506C963.964 318.616 966.846 319.67 969.94 319.67L1043.46 393.188C1040.36 393.188 1037.48 392.133 1034.81 390.024L961.292 316.506Z" fill="#8B545B"/>
<path d="M978.587 299.634C978.976 299.98 979.336 300.339 979.665 300.712L1052.1 373.151C1054.64 375.401 1055.9 378.213 1055.9 381.588L982.383 308.07C982.383 305.215 981.477 302.762 979.665 300.712L978.587 299.634Z" fill="#8B545B"/>
<path d="M849.833 424.071C856.723 428.148 864.175 430.187 872.189 430.187L945.707 503.705C937.692 503.705 930.24 501.666 923.351 497.588L849.833 424.071Z" fill="#8B545B"/>
<path d="M848.146 439.467L835.28 454.442L908.798 527.959L921.663 512.985L848.146 439.467Z" fill="#8B545B"/>
<path d="M907.833 373.663V392.012L981.351 465.53V447.181L907.833 373.663Z" fill="#8B545B"/>
<path d="M969.94 319.67C973.174 319.67 976.056 318.616 978.587 316.506L1052.1 390.024C1049.57 392.133 1046.69 393.188 1043.46 393.188L969.94 319.67Z" fill="#8B545B"/>
<path d="M978.587 316.507C981.118 314.257 982.383 311.445 982.383 308.07L1055.9 381.588C1055.9 384.962 1054.64 387.775 1052.1 390.024L978.587 316.507Z" fill="#8B545B"/>
<path d="M891.804 409.939C887.867 411.627 883.438 412.47 878.517 412.47L952.034 485.988C956.956 485.988 961.385 485.144 965.322 483.457L891.804 409.939Z" fill="#8B545B"/>
<path d="M861.644 449.169C857.004 446.778 852.504 443.545 848.146 439.467L921.663 512.985C926.022 517.062 930.521 520.296 935.162 522.686L861.644 449.169Z" fill="#8B545B"/>
<path d="M835.28 454.442C838.936 457.535 842.732 460.417 846.669 463.089L920.187 536.606C916.25 533.935 912.454 531.052 908.798 527.959L835.28 454.442Z" fill="#8B545B"/>
<path d="M907.833 392.012C906.568 396.09 904.529 399.675 901.717 402.769L975.234 476.286C978.047 473.193 980.085 469.607 981.351 465.53L907.833 392.012Z" fill="#8B545B"/>
<path d="M901.717 402.769C899.045 405.721 895.741 408.112 891.804 409.939L965.322 483.457C969.259 481.629 972.563 479.239 975.234 476.286L901.717 402.769Z" fill="#8B545B"/>
<path d="M980.274 339.707H958.55L1032.07 413.224H1053.79L980.274 339.707Z" fill="#8B545B"/>
<path d="M872.189 430.187C881.61 430.187 889.554 428.218 896.022 424.281L969.54 497.799C963.072 501.736 955.128 503.704 945.707 503.704L872.189 430.187Z" fill="#8B545B"/>
<path d="M929.557 428.5V339.707L1003.07 413.224V502.017L929.557 428.5Z" fill="#8B545B"/>
<path d="M909.31 409.518L907.833 405.3L981.351 478.817L982.827 483.035L909.31 409.518Z" fill="#8B545B"/>
<path d="M896.022 424.282C902.49 420.204 906.919 415.283 909.309 409.518L982.827 483.035C980.437 488.8 976.008 493.722 969.54 497.799L896.022 424.282Z" fill="#8B545B"/>
<path d="M846.669 463.089C850.747 465.901 855.317 468.08 860.378 469.627L933.896 543.145C928.834 541.598 924.265 539.419 920.187 536.606L846.669 463.089Z" fill="#8B545B"/>
<path d="M877.884 452.965C871.697 452.965 866.284 451.7 861.644 449.169L935.161 522.687C939.802 525.217 945.215 526.483 951.402 526.483L877.884 452.965Z" fill="#8B545B"/>
<path d="M907.833 405.3L907.622 428.289L981.14 501.806L981.351 478.817L907.833 405.3Z" fill="#8B545B"/>
<path d="M893.702 449.802C889.343 451.911 884.071 452.965 877.884 452.965L951.402 526.483C957.588 526.483 962.861 525.428 967.22 523.319L893.702 449.802Z" fill="#8B545B"/>
<path d="M860.379 469.627C865.44 471.174 871.416 471.947 878.306 471.947L951.824 545.465C944.934 545.465 938.958 544.691 933.896 543.145L860.379 469.627Z" fill="#8B545B"/>
<path d="M907.622 428.289C907.622 433.351 906.427 437.709 904.037 441.365L977.554 514.883C979.945 511.227 981.14 506.868 981.14 501.806L907.622 428.289Z" fill="#8B545B"/>
<path d="M958.55 339.707V428.078L1032.07 501.596V413.224L958.55 339.707Z" fill="#8B545B"/>
<path d="M904.037 441.365C901.646 445.021 898.202 447.833 893.702 449.802L967.22 523.319C971.719 521.351 975.164 518.539 977.554 514.883L904.037 441.365Z" fill="#8B545B"/>
<path d="M878.306 471.947C888.711 471.947 897.709 469.979 905.302 466.042L978.82 539.559C971.227 543.496 962.228 545.465 951.823 545.465L878.306 471.947Z" fill="#8B545B"/>
<path d="M980.274 428.078V339.707L1053.79 413.224V501.596L980.274 428.078Z" fill="#8B545B"/>
<path d="M923.019 450.434C927.377 443.966 929.557 436.655 929.557 428.5L1003.07 502.017C1003.07 510.173 1000.9 517.484 996.536 523.952L923.019 450.434Z" fill="#8B545B"/>
<path d="M1025.36 343.292C1018.19 346.948 1012.42 352.291 1008.06 359.321L1081.58 432.839C1085.94 425.809 1091.71 420.466 1098.88 416.81L1025.36 343.292Z" fill="#8B545B"/>
<path d="M905.302 466.042C912.895 462.245 918.8 457.043 923.019 450.434L996.536 523.952C992.318 530.56 986.413 535.763 978.82 539.559L905.302 466.042Z" fill="#8B545B"/>
<path d="M1008.06 359.321C1003.71 366.211 1001.53 374.366 1001.53 383.787L1075.04 457.304C1075.04 447.884 1077.22 439.729 1081.58 432.839L1008.06 359.321Z" fill="#8B545B"/>
<path d="M1048.14 337.598C1040.12 337.598 1032.53 339.496 1025.36 343.292L1098.88 416.81C1106.05 413.013 1113.64 411.115 1121.66 411.115L1048.14 337.598Z" fill="#8B545B"/>
<path d="M1026.84 369.234C1029.23 364.875 1032.46 361.501 1036.54 359.11L1110.06 432.628C1105.98 435.018 1102.74 438.393 1100.35 442.752L1026.84 369.234Z" fill="#8B545B"/>
<path d="M1067.54 340.55C1061.92 338.582 1055.45 337.598 1048.14 337.598L1121.66 411.115C1128.97 411.115 1135.43 412.099 1141.06 414.068L1067.54 340.55Z" fill="#8B545B"/>
<path d="M958.55 428.078H980.274L1053.79 501.595H1032.07L958.55 428.078Z" fill="#8B545B"/>
<path d="M1036.54 359.11C1040.62 356.579 1045.11 355.314 1050.04 355.314L1123.55 428.832C1118.63 428.832 1114.13 430.097 1110.06 432.628L1036.54 359.11Z" fill="#8B545B"/>
<path d="M1001.53 383.787C1001.53 393.348 1003.57 401.574 1007.64 408.463L1081.16 481.981C1077.08 475.091 1075.04 466.866 1075.04 457.304L1001.53 383.787Z" fill="#8B545B"/>
<path d="M1023.25 383.787C1023.25 378.303 1024.45 373.452 1026.84 369.234L1100.35 442.752C1097.96 446.97 1096.77 451.821 1096.77 457.304L1023.25 383.787Z" fill="#8B545B"/>
<path d="M1050.04 355.314C1054.68 355.314 1058.75 356.087 1062.27 357.634L1135.79 431.152C1132.27 429.605 1128.19 428.832 1123.55 428.832L1050.04 355.314Z" fill="#8B545B"/>
<path d="M1026.84 398.34C1024.45 393.84 1023.25 388.989 1023.25 383.787L1096.77 457.304C1096.77 462.507 1097.96 467.358 1100.35 471.857L1026.84 398.34Z" fill="#8B545B"/>
<path d="M1082.09 348.776C1078.02 345.261 1073.17 342.519 1067.54 340.55L1141.06 414.068C1146.68 416.036 1151.53 418.778 1155.61 422.293L1082.09 348.776Z" fill="#8B545B"/>
<path d="M1007.64 408.463C1009.46 411.529 1011.59 414.288 1014.05 416.741L1087.55 490.242C1085.1 487.793 1082.97 485.04 1081.16 481.981L1007.64 408.463Z" fill="#8B545B"/>
<path d="M1062.27 357.634C1065.92 359.181 1068.95 360.938 1071.34 362.907L1144.86 436.424C1142.47 434.456 1139.44 432.698 1135.79 431.152L1062.27 357.634Z" fill="#8B545B"/>
<path d="M1031.31 404.187C1029.59 402.466 1028.1 400.517 1026.84 398.34L1100.35 471.857C1101.62 474.034 1103.11 475.983 1104.83 477.704L1031.31 404.187Z" fill="#8B545B"/>
<path d="M1071.34 362.907L1082.09 348.776L1155.61 422.293L1144.86 436.424L1071.34 362.907Z" fill="#8B545B"/>
<path d="M1014.05 416.741C1017.11 419.801 1020.67 422.385 1024.73 424.492L1098.24 498.01C1094.19 495.903 1090.63 493.319 1087.56 490.259L1014.05 416.741Z" fill="#8B545B"/>
<path d="M1037.17 408.674C1034.99 407.41 1033.04 405.918 1031.32 404.198L1104.83 477.704C1106.55 479.429 1108.51 480.925 1110.69 482.192L1037.17 408.674Z" fill="#8B545B"/>
<path d="M1052.14 412.47C1046.52 412.47 1041.53 411.205 1037.17 408.674L1110.69 482.192C1115.05 484.723 1120.04 485.988 1125.66 485.988L1052.14 412.47Z" fill="#8B545B"/>
<path d="M1024.73 424.492C1032.18 428.289 1040.76 430.187 1050.46 430.187L1123.98 503.705C1114.27 503.705 1105.7 501.806 1098.24 498.01L1024.73 424.492Z" fill="#8B545B"/>
<path d="M1062.27 410.994C1059.18 411.978 1055.8 412.471 1052.15 412.471L1125.66 485.988C1129.32 485.988 1132.69 485.496 1135.79 484.512L1062.27 410.994Z" fill="#8B545B"/>
<path d="M1070.49 406.354C1068.1 408.323 1065.36 409.869 1062.27 410.994L1135.79 484.512C1138.88 483.387 1141.62 481.84 1144.01 479.872L1070.49 406.354Z" fill="#8B545B"/>
<path d="M1050.46 430.187C1056.08 430.187 1061.64 429.273 1067.12 427.445L1140.64 500.963C1135.15 502.791 1129.6 503.705 1123.98 503.705L1050.46 430.187Z" fill="#8B545B"/>
<path d="M1081.46 419.852L1070.49 406.354L1144.01 479.872L1154.98 493.37L1081.46 419.852Z" fill="#8B545B"/>
<path d="M1067.12 427.445C1072.74 425.617 1077.52 423.086 1081.46 419.852L1154.98 493.37C1151.04 496.604 1146.26 499.135 1140.64 500.963L1067.12 427.445Z" fill="#8B545B"/>
<path d="M179 263.276H200.723V427.153H179V263.276ZM229.569 338.782H251.292V427.153H229.569V338.782ZM228.303 307.145C228.303 303.771 229.639 300.958 232.31 298.709C234.982 296.459 237.864 295.334 240.958 295.334C244.192 295.334 247.074 296.459 249.605 298.709C252.136 300.958 253.401 303.771 253.401 307.145C253.401 310.52 252.136 313.332 249.605 315.582C247.074 317.691 244.192 318.745 240.958 318.745C237.864 318.745 234.982 317.691 232.31 315.582C229.639 313.332 228.303 310.52 228.303 307.145ZM280.138 427.153V263.276H301.861V427.153H280.138ZM323.374 368.098L363.869 427.153H338.56L309.032 380.542L323.374 368.098ZM295.112 399.945L293.003 379.065L346.574 336.883L359.861 348.483L295.112 399.945ZM421.688 429.262C411.423 429.262 402.636 427.293 395.324 423.356C388.012 419.279 382.388 413.725 378.451 406.695C374.514 399.524 372.546 391.368 372.546 382.229C372.546 373.511 374.725 365.637 379.084 358.607C383.583 351.436 389.559 345.742 397.011 341.523C404.604 337.305 412.97 335.196 422.11 335.196C433.92 335.196 443.693 338.641 451.426 345.531C459.3 352.42 464.573 362.052 467.244 374.425L395.324 399.313L390.262 386.658L447.841 365.989L443.411 368.731C441.724 364.372 439.053 360.576 435.397 357.342C431.741 353.967 426.75 352.28 420.422 352.28C415.36 352.28 410.791 353.545 406.713 356.076C402.776 358.467 399.612 361.841 397.222 366.2C394.972 370.418 393.848 375.41 393.848 381.174C393.848 387.08 395.043 392.282 397.433 396.782C399.964 401.141 403.339 404.585 407.557 407.116C411.916 409.647 416.766 410.913 422.11 410.913C425.906 410.913 429.491 410.21 432.866 408.804C436.381 407.398 439.685 405.64 442.779 403.531L452.691 419.56C448.051 422.513 442.99 424.903 437.506 426.731C432.163 428.418 426.89 429.262 421.688 429.262ZM487.142 263.276H508.866V427.153H487.142V263.276ZM545.093 469.546L603.515 338.782H623.341L566.395 469.546H545.093ZM567.449 427.786L524.635 338.782H549.1L584.111 416.818L567.449 427.786ZM672.759 263.276H694.483V427.153H672.759V263.276ZM715.736 382.018C715.736 373.16 717.845 365.216 722.063 358.185C726.281 351.014 732.116 345.39 739.568 341.313C747.021 337.235 755.527 335.196 765.088 335.196C774.79 335.196 783.297 337.235 790.609 341.313C797.92 345.39 803.544 351.014 807.481 358.185C811.559 365.216 813.598 373.16 813.598 382.018C813.598 390.876 811.559 398.891 807.481 406.062C803.544 413.233 797.92 418.927 790.609 423.146C783.297 427.223 774.72 429.262 764.878 429.262C755.457 429.262 747.021 427.364 739.568 423.567C732.257 419.771 726.422 414.358 722.063 407.327C717.845 400.156 715.736 391.72 715.736 382.018ZM737.67 382.229C737.67 387.713 738.865 392.704 741.256 397.204C743.646 401.562 746.88 405.078 750.958 407.749C755.035 410.28 759.605 411.546 764.667 411.546C769.869 411.546 774.509 410.28 778.587 407.749C782.664 405.078 785.828 401.562 788.078 397.204C790.468 392.704 791.663 387.713 791.663 382.229C791.663 376.745 790.468 371.824 788.078 367.465C785.828 363.107 782.664 359.591 778.587 356.92C774.509 354.248 769.869 352.913 764.667 352.913C759.464 352.913 754.824 354.248 750.747 356.92C746.669 359.591 743.435 363.177 741.045 367.676C738.795 372.035 737.67 376.886 737.67 382.229ZM878.306 471.022C871.416 471.022 865.44 470.249 860.378 468.702C855.317 467.155 850.747 464.976 846.669 462.164C842.732 459.492 838.936 456.61 835.28 453.517L848.146 438.542C852.505 442.62 857.004 445.854 861.644 448.244C866.284 450.775 871.697 452.04 877.884 452.04C884.071 452.04 889.343 450.986 893.702 448.877C898.202 446.908 901.647 444.096 904.037 440.44C906.427 436.784 907.622 432.426 907.622 427.364L907.833 404.375L909.31 408.593C906.919 414.358 902.49 419.279 896.022 423.356C889.554 427.293 881.61 429.262 872.189 429.262C864.175 429.262 856.723 427.223 849.833 423.146C843.084 419.068 837.671 413.514 833.593 406.484C829.515 399.453 827.477 391.509 827.477 382.651C827.477 373.371 829.586 365.216 833.804 358.185C838.163 351.014 843.857 345.39 850.888 341.313C857.918 337.094 865.44 334.985 873.455 334.985C881.329 334.985 888.359 336.532 894.546 339.625C900.733 342.578 905.373 346.304 908.466 350.803L907.2 354.389L909.52 338.782H929.557V427.575C929.557 435.73 927.378 443.041 923.019 449.509C918.801 456.118 912.895 461.32 905.302 465.117C897.71 469.054 888.711 471.022 878.306 471.022ZM849.411 382.018C849.411 387.502 850.677 392.493 853.208 396.993C855.738 401.492 859.183 405.078 863.542 407.749C868.042 410.28 873.033 411.546 878.517 411.546C883.438 411.546 887.867 410.702 891.804 409.015C895.741 407.187 899.045 404.796 901.717 401.844C904.529 398.75 906.568 395.165 907.833 391.087V372.738C906.568 368.661 904.529 365.216 901.717 362.404C898.905 359.451 895.53 357.131 891.593 355.443C887.656 353.756 883.297 352.913 878.517 352.913C873.033 352.913 868.042 354.178 863.542 356.709C859.183 359.099 855.738 362.474 853.208 366.833C850.677 371.191 849.411 376.253 849.411 382.018ZM958.55 338.782H980.274V427.153H958.55V338.782ZM957.285 307.145C957.285 303.771 958.621 300.958 961.292 298.709C963.964 296.459 966.846 295.334 969.94 295.334C973.174 295.334 976.056 296.459 978.587 298.709C981.118 300.958 982.383 303.771 982.383 307.145C982.383 310.52 981.118 313.332 978.587 315.582C976.056 317.691 973.174 318.745 969.94 318.745C966.846 318.745 963.964 317.691 961.292 315.582C958.621 313.332 957.285 310.52 957.285 307.145ZM1081.46 418.927C1077.52 422.161 1072.74 424.692 1067.12 426.52C1061.64 428.348 1056.08 429.262 1050.46 429.262C1040.76 429.262 1032.18 427.364 1024.73 423.567C1017.42 419.771 1011.72 414.428 1007.64 407.538C1003.57 400.648 1001.53 392.423 1001.53 382.862C1001.53 373.441 1003.71 365.286 1008.06 358.396C1012.42 351.366 1018.19 346.023 1025.36 342.367C1032.53 338.571 1040.12 336.673 1048.14 336.673C1055.45 336.673 1061.92 337.657 1067.54 339.625C1073.17 341.594 1078.02 344.336 1082.09 347.851L1071.34 361.982C1068.95 360.013 1065.92 358.256 1062.27 356.709C1058.75 355.162 1054.68 354.389 1050.04 354.389C1045.11 354.389 1040.62 355.654 1036.54 358.185C1032.46 360.576 1029.23 363.95 1026.84 368.309C1024.45 372.527 1023.25 377.378 1023.25 382.862C1023.25 388.064 1024.45 392.915 1026.84 397.415C1029.37 401.773 1032.81 405.218 1037.17 407.749C1041.53 410.28 1046.52 411.546 1052.14 411.546C1055.8 411.546 1059.18 411.053 1062.27 410.069C1065.36 408.944 1068.1 407.398 1070.49 405.429L1081.46 418.927Z" fill="#FEF9F5"/>
</svg>
