<?xml version="1.0" encoding="UTF-8"?>
<svg width="640px" height="360px" viewBox="0 0 640 360" version="1.1" xmlns="http://www.w3.org/2000/svg" xmlns:xlink="http://www.w3.org/1999/xlink">
    <title>applications</title>
    <g id="applications" stroke="none" stroke-width="1" fill="none" fill-rule="evenodd">
        <rect fill="#FFFFFF" x="0" y="0" width="640" height="360"></rect>
        <path d="M123.160394,133.338487 C124.839944,133.338487 126.389276,133.578808 127.808389,134.059451 C129.227502,134.540093 130.455274,135.216962 131.491705,136.090055 C132.528136,136.963149 133.336021,138.01483 133.915359,139.245099 C134.494698,140.475367 134.784367,141.840128 134.784367,143.339379 L134.784367,143.339379 L134.783854,148.730487 L152.79788,148.730487 L152.797854,166.929487 L158.254803,166.930187 C159.632248,166.930187 160.897362,167.168796 162.050144,167.646013 L162.392609,167.796337 C163.635956,168.37377 164.698817,169.171678 165.581192,170.19006 C166.463567,171.208442 167.147631,172.418427 167.633383,173.820015 C168.119135,175.221602 168.362011,176.746551 168.362011,178.39486 C168.362011,180.053668 168.119135,181.583866 167.633383,182.985454 C167.147631,184.387042 166.463567,185.599651 165.581192,186.623283 C164.698817,187.646915 163.635956,188.444822 162.392609,189.017006 C161.149261,189.58919 159.769993,189.875282 158.254803,189.875282 L158.254803,189.875282 L152.797854,189.874487 L152.79788,207.989513 L133.727854,207.989487 L133.728367,203.161233 C133.728367,201.798277 133.465031,200.557586 132.93836,199.43916 C132.411689,198.320734 131.677248,197.36466 130.735038,196.570939 C129.792828,195.777217 128.676672,195.161882 127.386569,194.724934 C126.096466,194.287987 124.687983,194.069513 123.161119,194.069513 C121.643919,194.069513 120.240268,194.287987 118.950165,194.724934 C117.660062,195.161882 116.546322,195.777217 115.608943,196.570939 C114.671565,197.36466 113.937125,198.320734 113.405622,199.43916 C112.874118,200.557586 112.608367,201.798277 112.608367,203.161233 L112.607854,207.989487 L93.5388541,207.989513 L93.5388541,188.831487 L98.4269661,188.832323 C99.8044115,188.832323 101.058292,188.572239 102.188607,188.052072 C103.318923,187.531905 104.28516,186.806535 105.08732,185.87596 C105.889479,184.945386 106.511355,183.843014 106.952948,182.568843 C107.394541,181.294672 107.615337,179.903583 107.615337,178.395576 C107.615337,176.897113 107.394541,175.510796 106.952948,174.236626 C106.511355,172.962455 105.889479,171.862468 105.08732,170.936666 C104.28516,170.010865 103.318923,169.285494 102.188607,168.760555 C101.058292,168.235615 99.8044115,167.973146 98.4269661,167.973146 L93.5388541,167.972487 L93.5388541,148.730487 L111.551854,148.730487 L111.552367,143.339379 C111.552367,141.976423 111.793959,140.724617 112.277144,139.583961 L112.429347,139.245099 C113.014,138.01483 113.821885,136.963149 114.853001,136.090055 C115.884117,135.216962 117.109232,134.540093 118.528345,134.059451 C119.947458,133.578808 121.491475,133.338487 123.160394,133.338487 Z" id="Combined-Shape" fill="#EA4848" transform="translate(130.950433, 170.664000) scale(-1, 1) translate(-130.950433, -170.664000) "></path>
        <text id="Applications" font-family="Europa-Bold" font-size="54.730875" font-weight="bold" fill="#000000">
            <tspan x="234.461146" y="175.2928">Applications</tspan>
        </text>
        <text id="2006---2011" font-family="Europa-Bold" font-size="25.6608" font-weight="bold" fill="#BCBCBC">
            <tspan x="235.837146" y="208.4616">2006 - 2011</tspan>
        </text>
        <rect id="Rectangle-Copy" fill="#D8D8D8" x="196" y="111" width="3" height="120"></rect>
    </g>
</svg>