<?xml version="1.0" encoding="UTF-8"?>
<svg width="640px" height="360px" viewBox="0 0 640 360" version="1.1" xmlns="http://www.w3.org/2000/svg" xmlns:xlink="http://www.w3.org/1999/xlink">
    <title>plugins</title>
    <g id="plugins" stroke="none" stroke-width="1" fill="none" fill-rule="evenodd">
        <rect fill="#FFFFFF" x="0" y="0" width="640" height="360"></rect>
        <g id="Group" transform="translate(202.243200, 171.400000) rotate(-270.000000) translate(-202.243200, -171.400000) translate(165.243200, 121.900000)" fill="#EA4848" fill-rule="nonzero">
            <path d="M31.146709,80.9107096 C35.9892906,80.9107096 40.3974641,79.9963534 44.3712295,78.167641 C48.344995,76.3389286 51.7419235,73.7887976 54.5620151,70.5172479 C57.3821067,67.2456983 59.5683899,63.3701702 61.1208646,58.8906637 C62.6733392,54.4111572 63.4495766,49.5206099 63.4495766,44.2190217 C63.4495766,38.9509878 62.6733392,34.0772177 61.1208646,29.5977112 C59.5683899,25.1182047 57.3821067,21.2510652 54.5620151,17.9962927 C51.7419235,14.7415202 48.344995,12.1913892 44.3712295,10.3458996 C40.3974641,8.50041007 35.9892906,7.57766529 31.146709,7.57766529 L11.1494403,7.57766529 L11.1494403,80.9107096 L31.146709,80.9107096 Z M48.8301745,44.2217875 C48.8301745,47.5808886 48.3737528,50.6878156 47.3884691,53.5296748 C46.5075048,56.0706454 45.2995541,58.2909145 43.6961769,60.1502667 C42.262144,61.8132392 40.5310082,63.1036922 38.5112348,64.0328329 C36.4124364,64.9983268 34.0756255,65.4253593 31.5265239,65.4253593 L31.5265239,65.4253593 L25.1801745,65.4253593 L25.1801745,23.0630156 L31.5265239,23.0630156 C34.0623052,23.0630156 36.3871253,23.4919162 38.475051,24.4612203 C40.5157229,25.4085871 42.266178,26.7107742 43.7152366,28.3825539 C45.3111422,30.2237509 46.5117108,32.4298611 47.3884691,34.9587001 C48.3723859,37.7966167 48.8301745,40.8883546 48.8301745,44.2217875 L48.8301745,44.2217875 Z" id=":D" transform="translate(37.299508, 44.244187) rotate(-90.000000) translate(-37.299508, -44.244187) "></path>
            <path d="M12.795364,74.4662967 L39.5711602,74.4662967 L39.5711602,74.4662967 L39.5711602,88.6200605 L12.795364,88.6200605 C8.88691007,88.6200605 5.71848211,85.4516325 5.71848211,81.5431786 C5.71848211,77.6347246 8.88691007,74.4662967 12.795364,74.4662967 Z" id="Rectangle" transform="translate(22.644821, 81.543179) rotate(-90.000000) translate(-22.644821, -81.543179) "></path>
            <path d="M42.5364455,74.4662967 L69.3122416,74.4662967 L69.3122416,74.4662967 L69.3122416,88.6200605 L42.5364455,88.6200605 C38.6279915,88.6200605 35.4595636,85.4516325 35.4595636,81.5431786 C35.4595636,77.6347246 38.6279915,74.4662967 42.5364455,74.4662967 Z" id="Rectangle-Copy-3" transform="translate(52.385903, 81.543179) rotate(-90.000000) translate(-52.385903, -81.543179) "></path>
            <path d="M31.800611,4.93 L51.6445084,4.93 L51.6445084,4.93 L51.6445084,25.622205 L31.800611,25.622205 C26.9150435,25.622205 22.9545084,21.66167 22.9545084,16.7761024 L22.9545084,13.7761026 C22.9545084,8.89053503 26.9150435,4.93 31.800611,4.93 Z" id="Rectangle-Copy-2" transform="translate(37.299508, 15.276103) rotate(-90.000000) translate(-37.299508, -15.276103) "></path>
        </g>
        <text id="Plugins" font-family="Europa-Bold" font-size="54.730875" font-weight="bold" fill="#000000">
            <tspan x="308.2568" y="175.2928">Plugins</tspan>
        </text>
        <text id="2008---2014" font-family="Europa-Bold" font-size="25.6608" font-weight="bold" fill="#BCBCBC">
            <tspan x="309.6328" y="208.4616">2008 - 2014</tspan>
        </text>
        <rect id="Rectangle-Copy" fill="#D8D8D8" x="270" y="111" width="3" height="120"></rect>
    </g>
</svg>